<svg width="100%" height="100%" viewBox="0 0 1200 1255" fill="none" xmlns="http://www.w3.org/2000/svg">
<g id="desktop">
<rect width="1200" height="1255" fill="#373737"/>
<g id="Group 3">
<path id="Hi, I am" opacity="0.8" d="M161.37 141C161.226 141 161.111 140.957 161.025 140.871C160.939 140.77 160.896 140.648 160.896 140.504V126.436C160.896 126.278 160.939 126.156 161.025 126.07C161.111 125.969 161.226 125.919 161.37 125.919H162.404C162.562 125.919 162.684 125.969 162.77 126.07C162.871 126.156 162.921 126.278 162.921 126.436V132.425H170.418V126.436C170.418 126.278 170.461 126.156 170.548 126.07C170.648 125.969 170.77 125.919 170.914 125.919H171.948C172.106 125.919 172.228 125.969 172.314 126.07C172.415 126.156 172.465 126.278 172.465 126.436V140.504C172.465 140.648 172.415 140.77 172.314 140.871C172.214 140.957 172.092 141 171.948 141H170.914C170.77 141 170.648 140.957 170.548 140.871C170.461 140.77 170.418 140.648 170.418 140.504V134.3H162.921V140.504C162.921 140.648 162.871 140.77 162.77 140.871C162.67 140.957 162.548 141 162.404 141H161.37ZM176.276 127.686C176.133 127.686 176.011 127.643 175.91 127.557C175.824 127.456 175.781 127.334 175.781 127.19V126.07C175.781 125.926 175.824 125.804 175.91 125.704C176.011 125.603 176.133 125.553 176.276 125.553H177.548C177.691 125.553 177.813 125.603 177.914 125.704C178.014 125.804 178.065 125.926 178.065 126.07V127.19C178.065 127.334 178.014 127.456 177.914 127.557C177.813 127.643 177.691 127.686 177.548 127.686H176.276ZM176.449 141C176.305 141 176.183 140.957 176.083 140.871C175.996 140.77 175.953 140.648 175.953 140.504V130.293C175.953 130.149 175.996 130.034 176.083 129.948C176.183 129.847 176.305 129.797 176.449 129.797H177.397C177.54 129.797 177.655 129.847 177.741 129.948C177.842 130.034 177.892 130.149 177.892 130.293V140.504C177.892 140.648 177.842 140.77 177.741 140.871C177.655 140.957 177.54 141 177.397 141H176.449ZM180.978 142.616C180.849 142.616 180.748 142.573 180.677 142.487C180.619 142.4 180.605 142.293 180.633 142.163L181.107 139.126C181.165 138.709 181.366 138.501 181.711 138.501H183.089C183.19 138.501 183.276 138.544 183.348 138.63C183.42 138.702 183.456 138.781 183.456 138.867C183.456 138.982 183.427 139.104 183.37 139.233L182.249 142.12C182.12 142.451 181.919 142.616 181.646 142.616H180.978ZM192.529 141C192.385 141 192.27 140.957 192.184 140.871C192.098 140.77 192.055 140.648 192.055 140.504V126.415C192.055 126.271 192.098 126.156 192.184 126.07C192.27 125.969 192.385 125.919 192.529 125.919H193.606C193.764 125.919 193.886 125.962 193.972 126.048C194.058 126.135 194.101 126.257 194.101 126.415V140.504C194.101 140.648 194.051 140.77 193.951 140.871C193.864 140.957 193.75 141 193.606 141H192.529ZM206.028 141.215C205.324 141.215 204.671 141.072 204.067 140.785C203.478 140.497 203.004 140.11 202.645 139.621C202.301 139.118 202.128 138.566 202.128 137.962C202.128 137.014 202.516 136.239 203.292 135.636C204.067 135.032 205.123 134.63 206.459 134.429L209.69 133.977V133.352C209.69 131.873 208.836 131.133 207.127 131.133C206.466 131.133 205.934 131.269 205.532 131.542C205.13 131.801 204.836 132.109 204.649 132.469C204.592 132.612 204.527 132.713 204.455 132.77C204.398 132.813 204.311 132.835 204.197 132.835H203.356C203.227 132.835 203.112 132.792 203.012 132.706C202.925 132.605 202.882 132.49 202.882 132.361C202.882 132.03 203.033 131.65 203.335 131.219C203.651 130.774 204.132 130.393 204.778 130.077C205.425 129.747 206.214 129.582 207.148 129.582C208.757 129.582 209.906 129.955 210.595 130.702C211.299 131.449 211.651 132.382 211.651 133.503V140.504C211.651 140.648 211.601 140.77 211.5 140.871C211.414 140.957 211.299 141 211.155 141H210.207C210.064 141 209.949 140.957 209.863 140.871C209.776 140.77 209.733 140.648 209.733 140.504V139.557C209.417 140.031 208.958 140.425 208.355 140.741C207.751 141.057 206.976 141.215 206.028 141.215ZM206.459 139.643C207.407 139.643 208.182 139.334 208.785 138.716C209.389 138.099 209.69 137.201 209.69 136.023V135.42L207.17 135.786C206.135 135.93 205.353 136.174 204.821 136.519C204.29 136.864 204.024 137.294 204.024 137.811C204.024 138.4 204.261 138.853 204.735 139.169C205.223 139.485 205.798 139.643 206.459 139.643ZM215.266 141C215.122 141 215 140.957 214.9 140.871C214.814 140.77 214.77 140.648 214.77 140.504V130.293C214.77 130.149 214.814 130.034 214.9 129.948C215 129.847 215.122 129.797 215.266 129.797H216.171C216.314 129.797 216.429 129.847 216.516 129.948C216.602 130.034 216.645 130.149 216.645 130.293V131.025C217.42 130.063 218.469 129.582 219.79 129.582C221.37 129.582 222.49 130.242 223.151 131.564C223.496 130.96 223.984 130.479 224.616 130.12C225.262 129.761 225.981 129.582 226.77 129.582C227.948 129.582 228.911 129.984 229.657 130.788C230.404 131.592 230.778 132.756 230.778 134.278V140.504C230.778 140.648 230.727 140.77 230.627 140.871C230.541 140.957 230.426 141 230.282 141H229.356C229.212 141 229.09 140.957 228.99 140.871C228.903 140.77 228.86 140.648 228.86 140.504V134.472C228.86 133.323 228.623 132.504 228.149 132.016C227.675 131.513 227.051 131.262 226.275 131.262C225.586 131.262 224.99 131.521 224.487 132.038C223.998 132.54 223.754 133.352 223.754 134.472V140.504C223.754 140.648 223.704 140.77 223.604 140.871C223.517 140.957 223.402 141 223.259 141H222.311C222.167 141 222.045 140.957 221.945 140.871C221.858 140.77 221.815 140.648 221.815 140.504V134.472C221.815 133.338 221.564 132.519 221.061 132.016C220.573 131.513 219.963 131.262 219.23 131.262C218.541 131.262 217.945 131.513 217.442 132.016C216.954 132.519 216.709 133.33 216.709 134.451V140.504C216.709 140.648 216.659 140.77 216.559 140.871C216.472 140.957 216.358 141 216.214 141H215.266Z" fill="white"/>
<g id="Group 2">
<path id="A digital designer from" opacity="0.7" d="M159.862 242.565C159.747 242.565 159.646 242.522 159.56 242.435C159.474 242.349 159.431 242.249 159.431 242.134L159.474 241.897L164.817 227.958C164.932 227.642 165.162 227.484 165.506 227.484H166.885C167.23 227.484 167.46 227.642 167.575 227.958L172.917 241.897L172.961 242.134C172.961 242.249 172.91 242.349 172.81 242.435C172.724 242.522 172.623 242.565 172.508 242.565H171.496C171.352 242.565 171.23 242.529 171.129 242.457C171.043 242.371 170.986 242.285 170.957 242.198L169.75 239.096H162.619L161.434 242.198C161.32 242.443 161.14 242.565 160.896 242.565H159.862ZM163.244 237.308H169.147L166.196 229.574L163.244 237.308ZM183.813 242.78C182.305 242.78 181.17 242.292 180.409 241.315C179.662 240.338 179.26 239.103 179.202 237.61L179.181 236.963L179.202 236.317C179.26 234.838 179.669 233.61 180.43 232.633C181.191 231.642 182.319 231.146 183.813 231.146C185.306 231.146 186.47 231.678 187.303 232.741V227.764C187.303 227.62 187.346 227.505 187.432 227.419C187.533 227.319 187.655 227.268 187.798 227.268H188.768C188.911 227.268 189.026 227.319 189.113 227.419C189.213 227.505 189.263 227.62 189.263 227.764V242.069C189.263 242.213 189.213 242.335 189.113 242.435C189.026 242.522 188.911 242.565 188.768 242.565H187.841C187.698 242.565 187.583 242.522 187.497 242.435C187.411 242.335 187.367 242.213 187.367 242.069V241.143C186.549 242.234 185.364 242.78 183.813 242.78ZM184.222 241.1C185.227 241.1 185.981 240.769 186.484 240.109C186.987 239.434 187.26 238.637 187.303 237.717C187.317 237.559 187.324 237.286 187.324 236.899C187.324 236.496 187.317 236.216 187.303 236.058C187.274 235.182 186.994 234.428 186.463 233.796C185.946 233.15 185.199 232.827 184.222 232.827C183.188 232.827 182.434 233.15 181.96 233.796C181.486 234.443 181.227 235.29 181.184 236.338L181.163 236.963C181.163 239.721 182.183 241.1 184.222 241.1ZM192.834 229.25C192.691 229.25 192.569 229.207 192.468 229.121C192.382 229.021 192.339 228.899 192.339 228.755V227.635C192.339 227.491 192.382 227.369 192.468 227.268C192.569 227.168 192.691 227.118 192.834 227.118H194.105C194.249 227.118 194.371 227.168 194.472 227.268C194.572 227.369 194.622 227.491 194.622 227.635V228.755C194.622 228.899 194.572 229.021 194.472 229.121C194.371 229.207 194.249 229.25 194.105 229.25H192.834ZM193.007 242.565C192.863 242.565 192.741 242.522 192.64 242.435C192.554 242.335 192.511 242.213 192.511 242.069V231.857C192.511 231.714 192.554 231.599 192.64 231.513C192.741 231.412 192.863 231.362 193.007 231.362H193.955C194.098 231.362 194.213 231.412 194.299 231.513C194.4 231.599 194.45 231.714 194.45 231.857V242.069C194.45 242.213 194.4 242.335 194.299 242.435C194.213 242.522 194.098 242.565 193.955 242.565H193.007ZM202.232 247.304C201.04 247.304 200.085 247.103 199.367 246.701C198.649 246.299 198.139 245.839 197.838 245.322C197.55 244.805 197.407 244.36 197.407 243.987C197.407 243.857 197.457 243.742 197.557 243.642C197.658 243.556 197.773 243.513 197.902 243.513H198.85C198.979 243.513 199.087 243.541 199.173 243.599C199.259 243.671 199.331 243.793 199.389 243.965C199.791 245.114 200.703 245.689 202.125 245.689C203.202 245.689 203.999 245.459 204.516 244.999C205.033 244.54 205.292 243.728 205.292 242.565V241.078C204.459 242.141 203.295 242.672 201.802 242.672C200.279 242.672 199.137 242.184 198.376 241.207C197.629 240.231 197.234 238.996 197.191 237.502L197.17 236.899L197.191 236.317C197.234 234.838 197.629 233.61 198.376 232.633C199.137 231.642 200.279 231.146 201.802 231.146C203.31 231.146 204.487 231.699 205.335 232.805V231.879C205.335 231.735 205.378 231.613 205.464 231.513C205.565 231.412 205.687 231.362 205.83 231.362H206.757C206.9 231.362 207.015 231.412 207.101 231.513C207.202 231.613 207.252 231.735 207.252 231.879V242.328C207.252 245.645 205.579 247.304 202.232 247.304ZM202.189 240.992C203.195 240.992 203.949 240.669 204.452 240.023C204.969 239.362 205.249 238.572 205.292 237.653C205.306 237.523 205.313 237.272 205.313 236.899C205.313 236.54 205.306 236.295 205.292 236.166C205.249 235.247 204.969 234.464 204.452 233.818C203.949 233.157 203.195 232.827 202.189 232.827C201.155 232.827 200.401 233.157 199.927 233.818C199.468 234.464 199.216 235.304 199.173 236.338L199.152 236.899L199.173 237.48C199.216 238.514 199.468 239.362 199.927 240.023C200.401 240.669 201.155 240.992 202.189 240.992ZM210.823 229.25C210.679 229.25 210.557 229.207 210.456 229.121C210.37 229.021 210.327 228.899 210.327 228.755V227.635C210.327 227.491 210.37 227.369 210.456 227.268C210.557 227.168 210.679 227.118 210.823 227.118H212.094C212.237 227.118 212.359 227.168 212.46 227.268C212.561 227.369 212.611 227.491 212.611 227.635V228.755C212.611 228.899 212.561 229.021 212.46 229.121C212.359 229.207 212.237 229.25 212.094 229.25H210.823ZM210.995 242.565C210.851 242.565 210.729 242.522 210.629 242.435C210.543 242.335 210.5 242.213 210.5 242.069V231.857C210.5 231.714 210.543 231.599 210.629 231.513C210.729 231.412 210.851 231.362 210.995 231.362H211.943C212.087 231.362 212.201 231.412 212.288 231.513C212.388 231.599 212.438 231.714 212.438 231.857V242.069C212.438 242.213 212.388 242.335 212.288 242.435C212.201 242.522 212.087 242.565 211.943 242.565H210.995ZM219.984 242.565C217.758 242.565 216.645 241.308 216.645 238.794V233.021H214.943C214.799 233.021 214.684 232.978 214.598 232.891C214.512 232.805 214.469 232.69 214.469 232.547V231.857C214.469 231.714 214.512 231.599 214.598 231.513C214.684 231.412 214.799 231.362 214.943 231.362H216.645V227.764C216.645 227.62 216.688 227.505 216.774 227.419C216.86 227.319 216.975 227.268 217.119 227.268H218.067C218.21 227.268 218.325 227.319 218.411 227.419C218.512 227.505 218.562 227.62 218.562 227.764V231.362H221.233C221.377 231.362 221.492 231.412 221.578 231.513C221.679 231.599 221.729 231.714 221.729 231.857V232.547C221.729 232.69 221.679 232.805 221.578 232.891C221.492 232.978 221.377 233.021 221.233 233.021H218.562V238.644C218.562 239.376 218.677 239.929 218.907 240.303C219.151 240.676 219.56 240.863 220.135 240.863H221.449C221.593 240.863 221.707 240.913 221.794 241.014C221.88 241.1 221.923 241.215 221.923 241.358V242.069C221.923 242.213 221.88 242.335 221.794 242.435C221.707 242.522 221.593 242.565 221.449 242.565H219.984ZM227.13 242.78C226.426 242.78 225.773 242.637 225.169 242.349C224.581 242.062 224.107 241.674 223.748 241.186C223.403 240.683 223.231 240.13 223.231 239.527C223.231 238.579 223.618 237.803 224.394 237.2C225.169 236.597 226.225 236.195 227.561 235.994L230.792 235.541V234.917C230.792 233.437 229.938 232.698 228.229 232.698C227.568 232.698 227.037 232.834 226.634 233.107C226.232 233.365 225.938 233.674 225.751 234.033C225.694 234.177 225.629 234.277 225.557 234.335C225.5 234.378 225.414 234.4 225.299 234.4H224.459C224.329 234.4 224.214 234.356 224.114 234.27C224.028 234.17 223.985 234.055 223.985 233.926C223.985 233.595 224.135 233.215 224.437 232.784C224.753 232.338 225.234 231.958 225.88 231.642C226.527 231.312 227.317 231.146 228.25 231.146C229.859 231.146 231.008 231.52 231.697 232.267C232.401 233.014 232.753 233.947 232.753 235.067V242.069C232.753 242.213 232.703 242.335 232.602 242.435C232.516 242.522 232.401 242.565 232.257 242.565H231.31C231.166 242.565 231.051 242.522 230.965 242.435C230.879 242.335 230.836 242.213 230.836 242.069V241.121C230.52 241.595 230.06 241.99 229.457 242.306C228.854 242.622 228.078 242.78 227.13 242.78ZM227.561 241.207C228.509 241.207 229.284 240.899 229.888 240.281C230.491 239.663 230.792 238.766 230.792 237.588V236.985L228.272 237.351C227.238 237.495 226.455 237.739 225.924 238.084C225.392 238.428 225.126 238.859 225.126 239.376C225.126 239.965 225.363 240.417 225.837 240.733C226.326 241.049 226.9 241.207 227.561 241.207ZM236.39 242.565C236.246 242.565 236.124 242.522 236.023 242.435C235.937 242.335 235.894 242.213 235.894 242.069V227.764C235.894 227.606 235.937 227.484 236.023 227.398C236.124 227.312 236.246 227.268 236.39 227.268H237.338C237.481 227.268 237.596 227.319 237.682 227.419C237.783 227.505 237.833 227.62 237.833 227.764V242.069C237.833 242.213 237.783 242.335 237.682 242.435C237.596 242.522 237.481 242.565 237.338 242.565H236.39ZM250.465 242.78C248.956 242.78 247.822 242.292 247.061 241.315C246.314 240.338 245.912 239.103 245.854 237.61L245.833 236.963L245.854 236.317C245.912 234.838 246.321 233.61 247.082 232.633C247.843 231.642 248.971 231.146 250.465 231.146C251.958 231.146 253.122 231.678 253.955 232.741V227.764C253.955 227.62 253.998 227.505 254.084 227.419C254.184 227.319 254.307 227.268 254.45 227.268H255.42C255.563 227.268 255.678 227.319 255.764 227.419C255.865 227.505 255.915 227.62 255.915 227.764V242.069C255.915 242.213 255.865 242.335 255.764 242.435C255.678 242.522 255.563 242.565 255.42 242.565H254.493C254.35 242.565 254.235 242.522 254.149 242.435C254.062 242.335 254.019 242.213 254.019 242.069V241.143C253.201 242.234 252.016 242.78 250.465 242.78ZM250.874 241.1C251.879 241.1 252.633 240.769 253.136 240.109C253.639 239.434 253.912 238.637 253.955 237.717C253.969 237.559 253.976 237.286 253.976 236.899C253.976 236.496 253.969 236.216 253.955 236.058C253.926 235.182 253.646 234.428 253.114 233.796C252.597 233.15 251.851 232.827 250.874 232.827C249.84 232.827 249.086 233.15 248.612 233.796C248.138 234.443 247.879 235.29 247.836 236.338L247.815 236.963C247.815 239.721 248.834 241.1 250.874 241.1ZM263.601 242.78C262.136 242.78 260.965 242.328 260.089 241.423C259.213 240.504 258.732 239.254 258.646 237.674L258.624 236.942L258.646 236.231C258.732 234.68 259.213 233.444 260.089 232.525C260.965 231.606 262.136 231.146 263.601 231.146C265.181 231.146 266.402 231.649 267.264 232.654C268.14 233.66 268.578 235.024 268.578 236.748V237.136C268.578 237.279 268.527 237.401 268.427 237.502C268.341 237.588 268.226 237.631 268.082 237.631H260.606V237.825C260.649 238.759 260.937 239.556 261.468 240.216C262 240.877 262.703 241.207 263.579 241.207C264.255 241.207 264.8 241.078 265.217 240.82C265.648 240.547 265.971 240.267 266.186 239.979C266.316 239.807 266.416 239.707 266.488 239.678C266.56 239.635 266.682 239.613 266.854 239.613H267.802C267.931 239.613 268.039 239.649 268.125 239.721C268.226 239.793 268.276 239.886 268.276 240.001C268.276 240.317 268.082 240.698 267.694 241.143C267.307 241.588 266.754 241.976 266.035 242.306C265.332 242.622 264.52 242.78 263.601 242.78ZM266.617 236.166V236.101C266.617 235.096 266.344 234.277 265.799 233.645C265.253 233.014 264.52 232.698 263.601 232.698C262.667 232.698 261.935 233.014 261.404 233.645C260.872 234.277 260.606 235.096 260.606 236.101V236.166H266.617ZM275.032 242.78C274.041 242.78 273.201 242.622 272.512 242.306C271.836 241.976 271.334 241.602 271.003 241.186C270.673 240.769 270.508 240.425 270.508 240.152C270.508 240.008 270.558 239.9 270.659 239.829C270.759 239.742 270.867 239.699 270.982 239.699H271.887C271.973 239.699 272.038 239.714 272.081 239.742C272.138 239.771 272.21 239.836 272.296 239.936C272.626 240.338 272.993 240.654 273.395 240.884C273.811 241.114 274.364 241.229 275.054 241.229C275.829 241.229 276.447 241.085 276.906 240.798C277.38 240.511 277.617 240.094 277.617 239.549C277.617 239.189 277.517 238.902 277.316 238.687C277.115 238.471 276.777 238.277 276.303 238.105C275.844 237.933 275.154 237.746 274.235 237.545C272.985 237.272 272.102 236.877 271.585 236.36C271.068 235.843 270.81 235.175 270.81 234.356C270.81 233.825 270.968 233.315 271.283 232.827C271.599 232.324 272.066 231.922 272.684 231.62C273.316 231.304 274.063 231.146 274.924 231.146C275.829 231.146 276.598 231.297 277.23 231.599C277.876 231.9 278.357 232.252 278.673 232.654C279.003 233.057 279.169 233.394 279.169 233.667C279.169 233.796 279.118 233.904 279.018 233.99C278.932 234.076 278.824 234.119 278.695 234.119H277.876C277.675 234.119 277.531 234.04 277.445 233.882C277.201 233.61 276.993 233.401 276.82 233.258C276.662 233.1 276.425 232.97 276.109 232.87C275.793 232.755 275.398 232.698 274.924 232.698C274.221 232.698 273.682 232.848 273.309 233.15C272.935 233.437 272.748 233.825 272.748 234.313C272.748 234.615 272.827 234.873 272.985 235.089C273.143 235.29 273.445 235.484 273.89 235.671C274.336 235.843 274.996 236.022 275.872 236.209C277.237 236.496 278.199 236.906 278.759 237.437C279.334 237.969 279.621 238.651 279.621 239.484C279.621 240.101 279.442 240.662 279.082 241.164C278.738 241.667 278.213 242.062 277.51 242.349C276.82 242.637 275.994 242.78 275.032 242.78ZM282.461 229.25C282.317 229.25 282.195 229.207 282.095 229.121C282.008 229.021 281.965 228.899 281.965 228.755V227.635C281.965 227.491 282.008 227.369 282.095 227.268C282.195 227.168 282.317 227.118 282.461 227.118H283.732C283.876 227.118 283.998 227.168 284.098 227.268C284.199 227.369 284.249 227.491 284.249 227.635V228.755C284.249 228.899 284.199 229.021 284.098 229.121C283.998 229.207 283.876 229.25 283.732 229.25H282.461ZM282.633 242.565C282.49 242.565 282.367 242.522 282.267 242.435C282.181 242.335 282.138 242.213 282.138 242.069V231.857C282.138 231.714 282.181 231.599 282.267 231.513C282.367 231.412 282.49 231.362 282.633 231.362H283.581C283.725 231.362 283.84 231.412 283.926 231.513C284.026 231.599 284.077 231.714 284.077 231.857V242.069C284.077 242.213 284.026 242.335 283.926 242.435C283.84 242.522 283.725 242.565 283.581 242.565H282.633ZM291.859 247.304C290.667 247.304 289.712 247.103 288.994 246.701C288.276 246.299 287.766 245.839 287.464 245.322C287.177 244.805 287.033 244.36 287.033 243.987C287.033 243.857 287.083 243.742 287.184 243.642C287.285 243.556 287.399 243.513 287.529 243.513H288.477C288.606 243.513 288.714 243.541 288.8 243.599C288.886 243.671 288.958 243.793 289.015 243.965C289.417 245.114 290.329 245.689 291.751 245.689C292.829 245.689 293.626 245.459 294.143 244.999C294.66 244.54 294.918 243.728 294.918 242.565V241.078C294.085 242.141 292.922 242.672 291.428 242.672C289.906 242.672 288.764 242.184 288.003 241.207C287.256 240.231 286.861 238.996 286.818 237.502L286.796 236.899L286.818 236.317C286.861 234.838 287.256 233.61 288.003 232.633C288.764 231.642 289.906 231.146 291.428 231.146C292.936 231.146 294.114 231.699 294.961 232.805V231.879C294.961 231.735 295.004 231.613 295.091 231.513C295.191 231.412 295.313 231.362 295.457 231.362H296.383C296.527 231.362 296.642 231.412 296.728 231.513C296.829 231.613 296.879 231.735 296.879 231.879V242.328C296.879 245.645 295.206 247.304 291.859 247.304ZM291.816 240.992C292.821 240.992 293.575 240.669 294.078 240.023C294.595 239.362 294.875 238.572 294.918 237.653C294.933 237.523 294.94 237.272 294.94 236.899C294.94 236.54 294.933 236.295 294.918 236.166C294.875 235.247 294.595 234.464 294.078 233.818C293.575 233.157 292.821 232.827 291.816 232.827C290.782 232.827 290.028 233.157 289.554 233.818C289.094 234.464 288.843 235.304 288.8 236.338L288.778 236.899L288.8 237.48C288.843 238.514 289.094 239.362 289.554 240.023C290.028 240.669 290.782 240.992 291.816 240.992ZM300.622 242.565C300.478 242.565 300.356 242.522 300.255 242.435C300.169 242.335 300.126 242.213 300.126 242.069V231.857C300.126 231.714 300.169 231.599 300.255 231.513C300.356 231.412 300.478 231.362 300.622 231.362H301.548C301.706 231.362 301.828 231.405 301.914 231.491C302 231.577 302.043 231.699 302.043 231.857V232.805C302.474 232.274 302.97 231.864 303.53 231.577C304.105 231.29 304.815 231.146 305.663 231.146C307.042 231.146 308.112 231.592 308.873 232.482C309.634 233.358 310.015 234.522 310.015 235.972V242.069C310.015 242.213 309.965 242.335 309.864 242.435C309.778 242.522 309.663 242.565 309.519 242.565H308.528C308.385 242.565 308.263 242.522 308.162 242.435C308.076 242.335 308.033 242.213 308.033 242.069V236.101C308.033 235.067 307.781 234.263 307.279 233.689C306.776 233.114 306.058 232.827 305.124 232.827C304.205 232.827 303.473 233.121 302.927 233.71C302.381 234.285 302.108 235.082 302.108 236.101V242.069C302.108 242.213 302.058 242.335 301.957 242.435C301.871 242.522 301.756 242.565 301.613 242.565H300.622ZM317.566 242.78C316.101 242.78 314.931 242.328 314.055 241.423C313.179 240.504 312.697 239.254 312.611 237.674L312.59 236.942L312.611 236.231C312.697 234.68 313.179 233.444 314.055 232.525C314.931 231.606 316.101 231.146 317.566 231.146C319.146 231.146 320.367 231.649 321.229 232.654C322.105 233.66 322.543 235.024 322.543 236.748V237.136C322.543 237.279 322.493 237.401 322.392 237.502C322.306 237.588 322.191 237.631 322.047 237.631H314.572V237.825C314.615 238.759 314.902 239.556 315.433 240.216C315.965 240.877 316.669 241.207 317.545 241.207C318.22 241.207 318.766 241.078 319.182 240.82C319.613 240.547 319.936 240.267 320.152 239.979C320.281 239.807 320.381 239.707 320.453 239.678C320.525 239.635 320.647 239.613 320.819 239.613H321.767C321.897 239.613 322.004 239.649 322.091 239.721C322.191 239.793 322.241 239.886 322.241 240.001C322.241 240.317 322.047 240.698 321.66 241.143C321.272 241.588 320.719 241.976 320.001 242.306C319.297 242.622 318.486 242.78 317.566 242.78ZM320.582 236.166V236.101C320.582 235.096 320.31 234.277 319.764 233.645C319.218 233.014 318.486 232.698 317.566 232.698C316.633 232.698 315.9 233.014 315.369 233.645C314.837 234.277 314.572 235.096 314.572 236.101V236.166H320.582ZM325.658 242.565C325.514 242.565 325.392 242.522 325.292 242.435C325.206 242.335 325.163 242.213 325.163 242.069V231.879C325.163 231.735 325.206 231.613 325.292 231.513C325.392 231.412 325.514 231.362 325.658 231.362H326.563C326.721 231.362 326.843 231.412 326.929 231.513C327.03 231.599 327.08 231.721 327.08 231.879V232.827C327.669 231.85 328.667 231.362 330.075 231.362H330.915C331.073 231.362 331.195 231.405 331.281 231.491C331.367 231.577 331.41 231.699 331.41 231.857V232.654C331.41 232.798 331.367 232.92 331.281 233.021C331.195 233.107 331.073 233.15 330.915 233.15H329.687C328.897 233.15 328.272 233.38 327.813 233.839C327.367 234.299 327.145 234.924 327.145 235.714V242.069C327.145 242.213 327.094 242.335 326.994 242.435C326.893 242.522 326.771 242.565 326.628 242.565H325.658ZM339.276 242.565C339.132 242.565 339.01 242.522 338.909 242.435C338.823 242.335 338.78 242.213 338.78 242.069V233.021H336.927C336.784 233.021 336.662 232.978 336.561 232.891C336.475 232.805 336.432 232.69 336.432 232.547V231.857C336.432 231.714 336.475 231.599 336.561 231.513C336.662 231.412 336.784 231.362 336.927 231.362H338.78V230.285C338.78 229.121 339.06 228.224 339.62 227.592C340.195 226.945 341.128 226.622 342.421 226.622H343.692C343.836 226.622 343.951 226.672 344.037 226.773C344.137 226.859 344.188 226.974 344.188 227.118V227.807C344.188 227.951 344.137 228.066 344.037 228.152C343.951 228.238 343.836 228.281 343.692 228.281H342.464C341.803 228.281 341.344 228.453 341.085 228.798C340.827 229.143 340.698 229.674 340.698 230.392V231.362H343.477C343.62 231.362 343.735 231.412 343.821 231.513C343.922 231.599 343.972 231.714 343.972 231.857V232.547C343.972 232.69 343.922 232.805 343.821 232.891C343.735 232.978 343.62 233.021 343.477 233.021H340.698V242.069C340.698 242.213 340.647 242.335 340.547 242.435C340.461 242.522 340.346 242.565 340.202 242.565H339.276ZM346.382 242.565C346.238 242.565 346.116 242.522 346.015 242.435C345.929 242.335 345.886 242.213 345.886 242.069V231.879C345.886 231.735 345.929 231.613 346.015 231.513C346.116 231.412 346.238 231.362 346.382 231.362H347.286C347.444 231.362 347.567 231.412 347.653 231.513C347.753 231.599 347.804 231.721 347.804 231.879V232.827C348.392 231.85 349.391 231.362 350.798 231.362H351.638C351.796 231.362 351.918 231.405 352.005 231.491C352.091 231.577 352.134 231.699 352.134 231.857V232.654C352.134 232.798 352.091 232.92 352.005 233.021C351.918 233.107 351.796 233.15 351.638 233.15H350.41C349.62 233.15 348.996 233.38 348.536 233.839C348.091 234.299 347.868 234.924 347.868 235.714V242.069C347.868 242.213 347.818 242.335 347.717 242.435C347.617 242.522 347.495 242.565 347.351 242.565H346.382ZM358.322 242.78C356.742 242.78 355.521 242.335 354.659 241.444C353.812 240.554 353.359 239.369 353.302 237.89L353.28 236.963L353.302 236.037C353.359 234.557 353.819 233.373 354.681 232.482C355.557 231.592 356.77 231.146 358.322 231.146C359.873 231.146 361.079 231.592 361.941 232.482C362.817 233.373 363.284 234.557 363.341 236.037C363.37 236.353 363.384 236.662 363.384 236.963C363.384 237.265 363.37 237.574 363.341 237.89C363.284 239.369 362.824 240.554 361.963 241.444C361.115 242.335 359.901 242.78 358.322 242.78ZM358.322 241.164C359.241 241.164 359.966 240.877 360.498 240.303C361.043 239.714 361.338 238.873 361.381 237.782C361.395 237.638 361.402 237.365 361.402 236.963C361.402 236.561 361.395 236.288 361.381 236.145C361.338 235.053 361.043 234.22 360.498 233.645C359.966 233.057 359.241 232.762 358.322 232.762C357.402 232.762 356.67 233.057 356.124 233.645C355.593 234.22 355.305 235.053 355.262 236.145L355.241 236.963L355.262 237.782C355.305 238.873 355.593 239.714 356.124 240.303C356.67 240.877 357.402 241.164 358.322 241.164ZM366.6 242.565C366.457 242.565 366.334 242.522 366.234 242.435C366.148 242.335 366.105 242.213 366.105 242.069V231.857C366.105 231.714 366.148 231.599 366.234 231.513C366.334 231.412 366.457 231.362 366.6 231.362H367.505C367.649 231.362 367.764 231.412 367.85 231.513C367.936 231.599 367.979 231.714 367.979 231.857V232.59C368.755 231.628 369.803 231.146 371.124 231.146C372.704 231.146 373.825 231.807 374.485 233.128C374.83 232.525 375.318 232.044 375.95 231.685C376.597 231.326 377.315 231.146 378.105 231.146C379.282 231.146 380.245 231.549 380.992 232.353C381.738 233.157 382.112 234.321 382.112 235.843V242.069C382.112 242.213 382.062 242.335 381.961 242.435C381.875 242.522 381.76 242.565 381.616 242.565H380.69C380.546 242.565 380.424 242.522 380.324 242.435C380.238 242.335 380.194 242.213 380.194 242.069V236.037C380.194 234.888 379.958 234.069 379.484 233.581C379.01 233.078 378.385 232.827 377.609 232.827C376.92 232.827 376.324 233.085 375.821 233.602C375.333 234.105 375.089 234.917 375.089 236.037V242.069C375.089 242.213 375.038 242.335 374.938 242.435C374.852 242.522 374.737 242.565 374.593 242.565H373.645C373.501 242.565 373.379 242.522 373.279 242.435C373.193 242.335 373.15 242.213 373.15 242.069V236.037C373.15 234.902 372.898 234.084 372.396 233.581C371.907 233.078 371.297 232.827 370.564 232.827C369.875 232.827 369.279 233.078 368.776 233.581C368.288 234.084 368.044 234.895 368.044 236.015V242.069C368.044 242.213 367.993 242.335 367.893 242.435C367.807 242.522 367.692 242.565 367.548 242.565H366.6Z" fill="white"/>
<g id="India" opacity="0.9">
<path d="M390.66 242.565C390.516 242.565 390.401 242.522 390.315 242.435C390.229 242.335 390.186 242.213 390.186 242.069V227.979C390.186 227.836 390.229 227.721 390.315 227.635C390.401 227.534 390.516 227.484 390.66 227.484H391.737C391.895 227.484 392.017 227.527 392.103 227.613C392.19 227.699 392.233 227.821 392.233 227.979V242.069C392.233 242.213 392.182 242.335 392.082 242.435C391.996 242.522 391.881 242.565 391.737 242.565H390.66ZM396.25 242.565C396.107 242.565 395.985 242.522 395.884 242.435C395.798 242.335 395.755 242.213 395.755 242.069V231.857C395.755 231.714 395.798 231.599 395.884 231.513C395.985 231.412 396.107 231.362 396.25 231.362H397.177C397.335 231.362 397.457 231.405 397.543 231.491C397.629 231.577 397.672 231.699 397.672 231.857V232.805C398.103 232.274 398.599 231.864 399.159 231.577C399.733 231.29 400.444 231.146 401.292 231.146C402.67 231.146 403.74 231.592 404.502 232.482C405.263 233.358 405.644 234.522 405.644 235.972V242.069C405.644 242.213 405.593 242.335 405.493 242.435C405.407 242.522 405.292 242.565 405.148 242.565H404.157C404.013 242.565 403.891 242.522 403.791 242.435C403.705 242.335 403.661 242.213 403.661 242.069V236.101C403.661 235.067 403.41 234.263 402.907 233.689C402.405 233.114 401.687 232.827 400.753 232.827C399.834 232.827 399.101 233.121 398.556 233.71C398.01 234.285 397.737 235.082 397.737 236.101V242.069C397.737 242.213 397.687 242.335 397.586 242.435C397.5 242.522 397.385 242.565 397.241 242.565H396.25ZM412.85 242.78C411.342 242.78 410.208 242.292 409.446 241.315C408.7 240.338 408.297 239.103 408.24 237.61L408.218 236.963L408.24 236.317C408.297 234.838 408.707 233.61 409.468 232.633C410.229 231.642 411.357 231.146 412.85 231.146C414.344 231.146 415.507 231.678 416.341 232.741V227.764C416.341 227.62 416.384 227.505 416.47 227.419C416.57 227.319 416.692 227.268 416.836 227.268H417.805C417.949 227.268 418.064 227.319 418.15 227.419C418.251 227.505 418.301 227.62 418.301 227.764V242.069C418.301 242.213 418.251 242.335 418.15 242.435C418.064 242.522 417.949 242.565 417.805 242.565H416.879C416.735 242.565 416.621 242.522 416.534 242.435C416.448 242.335 416.405 242.213 416.405 242.069V241.143C415.586 242.234 414.402 242.78 412.85 242.78ZM413.26 241.1C414.265 241.1 415.019 240.769 415.522 240.109C416.025 239.434 416.297 238.637 416.341 237.717C416.355 237.559 416.362 237.286 416.362 236.899C416.362 236.496 416.355 236.216 416.341 236.058C416.312 235.182 416.032 234.428 415.5 233.796C414.983 233.15 414.236 232.827 413.26 232.827C412.226 232.827 411.472 233.15 410.998 233.796C410.524 234.443 410.265 235.29 410.222 236.338L410.2 236.963C410.2 239.721 411.22 241.1 413.26 241.1ZM421.872 229.25C421.728 229.25 421.606 229.207 421.506 229.121C421.42 229.021 421.376 228.899 421.376 228.755V227.635C421.376 227.491 421.42 227.369 421.506 227.268C421.606 227.168 421.728 227.118 421.872 227.118H423.143C423.287 227.118 423.409 227.168 423.509 227.268C423.61 227.369 423.66 227.491 423.66 227.635V228.755C423.66 228.899 423.61 229.021 423.509 229.121C423.409 229.207 423.287 229.25 423.143 229.25H421.872ZM422.044 242.565C421.901 242.565 421.779 242.522 421.678 242.435C421.592 242.335 421.549 242.213 421.549 242.069V231.857C421.549 231.714 421.592 231.599 421.678 231.513C421.779 231.412 421.901 231.362 422.044 231.362H422.992C423.136 231.362 423.251 231.412 423.337 231.513C423.437 231.599 423.488 231.714 423.488 231.857V242.069C423.488 242.213 423.437 242.335 423.337 242.435C423.251 242.522 423.136 242.565 422.992 242.565H422.044ZM429.827 242.78C429.123 242.78 428.469 242.637 427.866 242.349C427.277 242.062 426.803 241.674 426.444 241.186C426.1 240.683 425.927 240.13 425.927 239.527C425.927 238.579 426.315 237.803 427.091 237.2C427.866 236.597 428.922 236.195 430.258 235.994L433.489 235.541V234.917C433.489 233.437 432.635 232.698 430.925 232.698C430.265 232.698 429.733 232.834 429.331 233.107C428.929 233.365 428.635 233.674 428.448 234.033C428.39 234.177 428.326 234.277 428.254 234.335C428.197 234.378 428.11 234.4 427.995 234.4H427.155C427.026 234.4 426.911 234.356 426.811 234.27C426.724 234.17 426.681 234.055 426.681 233.926C426.681 233.595 426.832 233.215 427.134 232.784C427.45 232.338 427.931 231.958 428.577 231.642C429.223 231.312 430.013 231.146 430.947 231.146C432.556 231.146 433.705 231.52 434.394 232.267C435.098 233.014 435.45 233.947 435.45 235.067V242.069C435.45 242.213 435.399 242.335 435.299 242.435C435.213 242.522 435.098 242.565 434.954 242.565H434.006C433.863 242.565 433.748 242.522 433.662 242.435C433.575 242.335 433.532 242.213 433.532 242.069V241.121C433.216 241.595 432.757 241.99 432.153 242.306C431.55 242.622 430.775 242.78 429.827 242.78ZM430.258 241.207C431.206 241.207 431.981 240.899 432.584 240.281C433.188 239.663 433.489 238.766 433.489 237.588V236.985L430.969 237.351C429.934 237.495 429.152 237.739 428.62 238.084C428.089 238.428 427.823 238.859 427.823 239.376C427.823 239.965 428.06 240.417 428.534 240.733C429.022 241.049 429.597 241.207 430.258 241.207Z" fill="black"/>
<path d="M390.66 242.565C390.516 242.565 390.401 242.522 390.315 242.435C390.229 242.335 390.186 242.213 390.186 242.069V227.979C390.186 227.836 390.229 227.721 390.315 227.635C390.401 227.534 390.516 227.484 390.66 227.484H391.737C391.895 227.484 392.017 227.527 392.103 227.613C392.19 227.699 392.233 227.821 392.233 227.979V242.069C392.233 242.213 392.182 242.335 392.082 242.435C391.996 242.522 391.881 242.565 391.737 242.565H390.66ZM396.25 242.565C396.107 242.565 395.985 242.522 395.884 242.435C395.798 242.335 395.755 242.213 395.755 242.069V231.857C395.755 231.714 395.798 231.599 395.884 231.513C395.985 231.412 396.107 231.362 396.25 231.362H397.177C397.335 231.362 397.457 231.405 397.543 231.491C397.629 231.577 397.672 231.699 397.672 231.857V232.805C398.103 232.274 398.599 231.864 399.159 231.577C399.733 231.29 400.444 231.146 401.292 231.146C402.67 231.146 403.74 231.592 404.502 232.482C405.263 233.358 405.644 234.522 405.644 235.972V242.069C405.644 242.213 405.593 242.335 405.493 242.435C405.407 242.522 405.292 242.565 405.148 242.565H404.157C404.013 242.565 403.891 242.522 403.791 242.435C403.705 242.335 403.661 242.213 403.661 242.069V236.101C403.661 235.067 403.41 234.263 402.907 233.689C402.405 233.114 401.687 232.827 400.753 232.827C399.834 232.827 399.101 233.121 398.556 233.71C398.01 234.285 397.737 235.082 397.737 236.101V242.069C397.737 242.213 397.687 242.335 397.586 242.435C397.5 242.522 397.385 242.565 397.241 242.565H396.25ZM412.85 242.78C411.342 242.78 410.208 242.292 409.446 241.315C408.7 240.338 408.297 239.103 408.24 237.61L408.218 236.963L408.24 236.317C408.297 234.838 408.707 233.61 409.468 232.633C410.229 231.642 411.357 231.146 412.85 231.146C414.344 231.146 415.507 231.678 416.341 232.741V227.764C416.341 227.62 416.384 227.505 416.47 227.419C416.57 227.319 416.692 227.268 416.836 227.268H417.805C417.949 227.268 418.064 227.319 418.15 227.419C418.251 227.505 418.301 227.62 418.301 227.764V242.069C418.301 242.213 418.251 242.335 418.15 242.435C418.064 242.522 417.949 242.565 417.805 242.565H416.879C416.735 242.565 416.621 242.522 416.534 242.435C416.448 242.335 416.405 242.213 416.405 242.069V241.143C415.586 242.234 414.402 242.78 412.85 242.78ZM413.26 241.1C414.265 241.1 415.019 240.769 415.522 240.109C416.025 239.434 416.297 238.637 416.341 237.717C416.355 237.559 416.362 237.286 416.362 236.899C416.362 236.496 416.355 236.216 416.341 236.058C416.312 235.182 416.032 234.428 415.5 233.796C414.983 233.15 414.236 232.827 413.26 232.827C412.226 232.827 411.472 233.15 410.998 233.796C410.524 234.443 410.265 235.29 410.222 236.338L410.2 236.963C410.2 239.721 411.22 241.1 413.26 241.1ZM421.872 229.25C421.728 229.25 421.606 229.207 421.506 229.121C421.42 229.021 421.376 228.899 421.376 228.755V227.635C421.376 227.491 421.42 227.369 421.506 227.268C421.606 227.168 421.728 227.118 421.872 227.118H423.143C423.287 227.118 423.409 227.168 423.509 227.268C423.61 227.369 423.66 227.491 423.66 227.635V228.755C423.66 228.899 423.61 229.021 423.509 229.121C423.409 229.207 423.287 229.25 423.143 229.25H421.872ZM422.044 242.565C421.901 242.565 421.779 242.522 421.678 242.435C421.592 242.335 421.549 242.213 421.549 242.069V231.857C421.549 231.714 421.592 231.599 421.678 231.513C421.779 231.412 421.901 231.362 422.044 231.362H422.992C423.136 231.362 423.251 231.412 423.337 231.513C423.437 231.599 423.488 231.714 423.488 231.857V242.069C423.488 242.213 423.437 242.335 423.337 242.435C423.251 242.522 423.136 242.565 422.992 242.565H422.044ZM429.827 242.78C429.123 242.78 428.469 242.637 427.866 242.349C427.277 242.062 426.803 241.674 426.444 241.186C426.1 240.683 425.927 240.13 425.927 239.527C425.927 238.579 426.315 237.803 427.091 237.2C427.866 236.597 428.922 236.195 430.258 235.994L433.489 235.541V234.917C433.489 233.437 432.635 232.698 430.925 232.698C430.265 232.698 429.733 232.834 429.331 233.107C428.929 233.365 428.635 233.674 428.448 234.033C428.39 234.177 428.326 234.277 428.254 234.335C428.197 234.378 428.11 234.4 427.995 234.4H427.155C427.026 234.4 426.911 234.356 426.811 234.27C426.724 234.17 426.681 234.055 426.681 233.926C426.681 233.595 426.832 233.215 427.134 232.784C427.45 232.338 427.931 231.958 428.577 231.642C429.223 231.312 430.013 231.146 430.947 231.146C432.556 231.146 433.705 231.52 434.394 232.267C435.098 233.014 435.45 233.947 435.45 235.067V242.069C435.45 242.213 435.399 242.335 435.299 242.435C435.213 242.522 435.098 242.565 434.954 242.565H434.006C433.863 242.565 433.748 242.522 433.662 242.435C433.575 242.335 433.532 242.213 433.532 242.069V241.121C433.216 241.595 432.757 241.99 432.153 242.306C431.55 242.622 430.775 242.78 429.827 242.78ZM430.258 241.207C431.206 241.207 431.981 240.899 432.584 240.281C433.188 239.663 433.489 238.766 433.489 237.588V236.985L430.969 237.351C429.934 237.495 429.152 237.739 428.62 238.084C428.089 238.428 427.823 238.859 427.823 239.376C427.823 239.965 428.06 240.417 428.534 240.733C429.022 241.049 429.597 241.207 430.258 241.207Z" fill="url(#paint0_linear)"/>
</g>
</g>
<path id="Avinash" opacity="0.9" d="M161.216 199.161C160.92 199.161 160.662 199.05 160.44 198.828C160.219 198.607 160.108 198.348 160.108 198.053L160.219 197.443L173.958 161.6C174.253 160.788 174.844 160.381 175.73 160.381H179.276C180.162 160.381 180.753 160.788 181.049 161.6L194.788 197.443L194.899 198.053C194.899 198.348 194.769 198.607 194.511 198.828C194.289 199.05 194.031 199.161 193.735 199.161H191.131C190.762 199.161 190.448 199.068 190.19 198.884C189.968 198.662 189.82 198.44 189.746 198.219L186.644 190.241H168.307L165.26 198.219C164.965 198.847 164.503 199.161 163.875 199.161H161.216ZM169.914 185.643H185.093L177.503 165.755L169.914 185.643ZM208.456 199.161C207.495 199.161 206.812 198.699 206.406 197.776L196.102 172.071C196.065 171.96 196.046 171.775 196.046 171.517C196.046 171.184 196.157 170.907 196.379 170.686C196.6 170.464 196.859 170.353 197.154 170.353H199.703C200.294 170.353 200.737 170.649 201.032 171.24L209.564 193.344L218.095 171.24C218.169 171.018 218.317 170.815 218.538 170.63C218.797 170.446 219.092 170.353 219.425 170.353H221.973C222.269 170.353 222.527 170.464 222.749 170.686C222.97 170.907 223.081 171.184 223.081 171.517L222.97 172.071L212.721 197.776C212.315 198.699 211.632 199.161 210.672 199.161H208.456ZM229.826 164.924C229.457 164.924 229.143 164.813 228.884 164.592C228.663 164.333 228.552 164.019 228.552 163.65V160.769C228.552 160.4 228.663 160.086 228.884 159.827C229.143 159.569 229.457 159.44 229.826 159.44H233.095C233.464 159.44 233.778 159.569 234.037 159.827C234.295 160.086 234.424 160.4 234.424 160.769V163.65C234.424 164.019 234.295 164.333 234.037 164.592C233.778 164.813 233.464 164.924 233.095 164.924H229.826ZM230.269 199.161C229.9 199.161 229.586 199.05 229.328 198.828C229.106 198.57 228.995 198.256 228.995 197.886V171.627C228.995 171.258 229.106 170.963 229.328 170.741C229.586 170.482 229.9 170.353 230.269 170.353H232.707C233.076 170.353 233.372 170.482 233.593 170.741C233.852 170.963 233.981 171.258 233.981 171.627V197.886C233.981 198.256 233.852 198.57 233.593 198.828C233.372 199.05 233.076 199.161 232.707 199.161H230.269ZM243.578 199.161C243.209 199.161 242.895 199.05 242.636 198.828C242.415 198.57 242.304 198.256 242.304 197.886V171.627C242.304 171.258 242.415 170.963 242.636 170.741C242.895 170.482 243.209 170.353 243.578 170.353H245.96C246.367 170.353 246.681 170.464 246.902 170.686C247.124 170.907 247.235 171.221 247.235 171.627V174.065C248.343 172.698 249.617 171.646 251.057 170.907C252.534 170.169 254.363 169.799 256.542 169.799C260.087 169.799 262.839 170.944 264.796 173.234C266.753 175.487 267.732 178.478 267.732 182.209V197.886C267.732 198.256 267.603 198.57 267.344 198.828C267.123 199.05 266.827 199.161 266.458 199.161H263.91C263.54 199.161 263.226 199.05 262.968 198.828C262.746 198.57 262.635 198.256 262.635 197.886V182.541C262.635 179.882 261.989 177.814 260.696 176.336C259.404 174.859 257.557 174.12 255.157 174.12C252.793 174.12 250.909 174.877 249.506 176.392C248.102 177.869 247.401 179.919 247.401 182.541V197.886C247.401 198.256 247.271 198.57 247.013 198.828C246.791 199.05 246.496 199.161 246.127 199.161H243.578ZM283.716 199.715C281.906 199.715 280.225 199.345 278.674 198.607C277.16 197.868 275.941 196.871 275.018 195.615C274.132 194.322 273.688 192.901 273.688 191.349C273.688 188.912 274.686 186.917 276.68 185.366C278.674 183.815 281.389 182.781 284.824 182.264L293.133 181.101V179.494C293.133 175.69 290.936 173.788 286.541 173.788C284.842 173.788 283.476 174.139 282.441 174.84C281.407 175.505 280.65 176.299 280.17 177.223C280.022 177.592 279.856 177.851 279.671 177.998C279.524 178.109 279.302 178.164 279.007 178.164H276.846C276.514 178.164 276.218 178.054 275.96 177.832C275.738 177.574 275.627 177.278 275.627 176.946C275.627 176.096 276.015 175.117 276.791 174.01C277.603 172.865 278.841 171.886 280.502 171.073C282.164 170.224 284.196 169.799 286.596 169.799C290.733 169.799 293.687 170.759 295.46 172.68C297.27 174.6 298.175 177.001 298.175 179.882V197.886C298.175 198.256 298.045 198.57 297.787 198.828C297.565 199.05 297.27 199.161 296.901 199.161H294.463C294.094 199.161 293.798 199.05 293.577 198.828C293.355 198.57 293.244 198.256 293.244 197.886V195.449C292.432 196.668 291.25 197.683 289.699 198.496C288.148 199.308 286.153 199.715 283.716 199.715ZM284.824 195.671C287.261 195.671 289.256 194.876 290.807 193.288C292.358 191.7 293.133 189.392 293.133 186.363V184.812L286.652 185.754C283.993 186.123 281.98 186.751 280.613 187.638C279.247 188.524 278.564 189.632 278.564 190.962C278.564 192.476 279.173 193.639 280.392 194.452C281.647 195.264 283.125 195.671 284.824 195.671ZM316.058 199.715C313.509 199.715 311.349 199.308 309.576 198.496C307.84 197.646 306.548 196.686 305.698 195.615C304.849 194.544 304.424 193.658 304.424 192.956C304.424 192.587 304.553 192.31 304.812 192.125C305.07 191.903 305.347 191.793 305.643 191.793H307.97C308.191 191.793 308.357 191.83 308.468 191.903C308.616 191.977 308.801 192.143 309.022 192.402C309.872 193.436 310.813 194.249 311.847 194.84C312.919 195.43 314.34 195.726 316.113 195.726C318.108 195.726 319.696 195.357 320.878 194.618C322.096 193.879 322.706 192.808 322.706 191.405C322.706 190.481 322.447 189.743 321.93 189.189C321.413 188.635 320.545 188.136 319.326 187.693C318.144 187.25 316.372 186.77 314.008 186.253C310.795 185.551 308.524 184.535 307.194 183.206C305.864 181.876 305.2 180.159 305.2 178.054C305.2 176.687 305.606 175.376 306.418 174.12C307.231 172.828 308.431 171.794 310.019 171.018C311.644 170.205 313.565 169.799 315.781 169.799C318.108 169.799 320.083 170.187 321.708 170.963C323.37 171.738 324.608 172.643 325.42 173.677C326.27 174.711 326.694 175.579 326.694 176.281C326.694 176.613 326.565 176.89 326.307 177.112C326.085 177.333 325.808 177.444 325.476 177.444H323.37C322.853 177.444 322.484 177.241 322.262 176.835C321.635 176.133 321.099 175.598 320.656 175.228C320.25 174.822 319.64 174.49 318.828 174.231C318.015 173.936 317 173.788 315.781 173.788C313.971 173.788 312.586 174.176 311.626 174.951C310.666 175.69 310.186 176.687 310.186 177.943C310.186 178.718 310.389 179.383 310.795 179.937C311.201 180.454 311.977 180.953 313.122 181.433C314.267 181.876 315.965 182.338 318.218 182.818C321.727 183.557 324.201 184.609 325.642 185.976C327.119 187.342 327.858 189.096 327.858 191.239C327.858 192.827 327.396 194.267 326.473 195.56C325.586 196.852 324.238 197.868 322.429 198.607C320.656 199.345 318.532 199.715 316.058 199.715ZM335.659 199.161C335.289 199.161 334.975 199.05 334.717 198.828C334.495 198.57 334.384 198.256 334.384 197.886V161.102C334.384 160.695 334.495 160.381 334.717 160.16C334.975 159.938 335.289 159.827 335.659 159.827H338.207C338.613 159.827 338.927 159.938 339.149 160.16C339.37 160.381 339.481 160.695 339.481 161.102V174.01C340.552 172.643 341.808 171.609 343.248 170.907C344.726 170.169 346.535 169.799 348.677 169.799C352.223 169.799 354.974 170.944 356.932 173.234C358.926 175.487 359.923 178.478 359.923 182.209V197.886C359.923 198.256 359.794 198.57 359.536 198.828C359.314 199.05 359.019 199.161 358.649 199.161H356.045C355.676 199.161 355.362 199.05 355.104 198.828C354.882 198.57 354.771 198.256 354.771 197.886V182.541C354.771 179.882 354.125 177.814 352.832 176.336C351.54 174.859 349.675 174.12 347.237 174.12C344.873 174.12 342.99 174.877 341.586 176.392C340.183 177.869 339.481 179.919 339.481 182.541V197.886C339.481 198.256 339.352 198.57 339.093 198.828C338.872 199.05 338.576 199.161 338.207 199.161H335.659Z" fill="white"/>
<g id="group-behance">
<path id="A glimpse of my public work" opacity="0.7" d="M218.215 359.596C218.117 359.596 218.031 359.559 217.957 359.485C217.883 359.411 217.846 359.325 217.846 359.227L217.883 359.023L222.463 347.076C222.561 346.805 222.758 346.67 223.054 346.67H224.235C224.531 346.67 224.728 346.805 224.826 347.076L229.406 359.023L229.443 359.227C229.443 359.325 229.4 359.411 229.314 359.485C229.24 359.559 229.154 359.596 229.055 359.596H228.187C228.064 359.596 227.959 359.565 227.873 359.504C227.799 359.43 227.75 359.356 227.725 359.282L226.691 356.623H220.579L219.563 359.282C219.465 359.491 219.311 359.596 219.102 359.596H218.215ZM221.115 355.09H226.174L223.644 348.461L221.115 355.09ZM239.132 363.659C238.111 363.659 237.292 363.486 236.676 363.141C236.061 362.797 235.624 362.403 235.365 361.96C235.119 361.516 234.996 361.135 234.996 360.815C234.996 360.704 235.039 360.605 235.125 360.519C235.211 360.445 235.31 360.408 235.421 360.408H236.233C236.344 360.408 236.436 360.433 236.51 360.482C236.584 360.544 236.646 360.649 236.695 360.796C237.04 361.781 237.821 362.274 239.04 362.274C239.963 362.274 240.647 362.077 241.09 361.683C241.533 361.289 241.755 360.593 241.755 359.596V358.322C241.041 359.233 240.043 359.688 238.763 359.688C237.458 359.688 236.479 359.27 235.827 358.433C235.187 357.595 234.848 356.537 234.811 355.256L234.793 354.739L234.811 354.241C234.848 352.973 235.187 351.92 235.827 351.083C236.479 350.234 237.458 349.809 238.763 349.809C240.056 349.809 241.065 350.283 241.792 351.231V350.437C241.792 350.314 241.829 350.209 241.902 350.123C241.989 350.037 242.093 349.993 242.216 349.993H243.01C243.134 349.993 243.232 350.037 243.306 350.123C243.392 350.209 243.435 350.314 243.435 350.437V359.393C243.435 362.237 242.001 363.659 239.132 363.659ZM239.096 358.248C239.957 358.248 240.604 357.971 241.035 357.417C241.478 356.851 241.718 356.174 241.755 355.386C241.767 355.275 241.773 355.059 241.773 354.739C241.773 354.432 241.767 354.222 241.755 354.111C241.718 353.324 241.478 352.653 241.035 352.099C240.604 351.532 239.957 351.249 239.096 351.249C238.209 351.249 237.563 351.532 237.157 352.099C236.763 352.653 236.547 353.373 236.51 354.259L236.492 354.739L236.51 355.238C236.547 356.124 236.763 356.851 237.157 357.417C237.563 357.971 238.209 358.248 239.096 358.248ZM246.662 359.596C246.539 359.596 246.434 359.559 246.348 359.485C246.274 359.399 246.237 359.294 246.237 359.171V346.91C246.237 346.774 246.274 346.67 246.348 346.596C246.434 346.522 246.539 346.485 246.662 346.485H247.474C247.597 346.485 247.696 346.528 247.77 346.614C247.856 346.688 247.899 346.786 247.899 346.91V359.171C247.899 359.294 247.856 359.399 247.77 359.485C247.696 359.559 247.597 359.596 247.474 359.596H246.662ZM250.95 348.184C250.827 348.184 250.722 348.147 250.636 348.073C250.562 347.987 250.525 347.882 250.525 347.759V346.799C250.525 346.676 250.562 346.571 250.636 346.485C250.722 346.399 250.827 346.356 250.95 346.356H252.039C252.162 346.356 252.267 346.399 252.353 346.485C252.439 346.571 252.482 346.676 252.482 346.799V347.759C252.482 347.882 252.439 347.987 252.353 348.073C252.267 348.147 252.162 348.184 252.039 348.184H250.95ZM251.098 359.596C250.974 359.596 250.87 359.559 250.784 359.485C250.71 359.399 250.673 359.294 250.673 359.171V350.418C250.673 350.295 250.71 350.197 250.784 350.123C250.87 350.037 250.974 349.993 251.098 349.993H251.91C252.033 349.993 252.132 350.037 252.205 350.123C252.292 350.197 252.335 350.295 252.335 350.418V359.171C252.335 359.294 252.292 359.399 252.205 359.485C252.132 359.559 252.033 359.596 251.91 359.596H251.098ZM255.534 359.596C255.411 359.596 255.306 359.559 255.22 359.485C255.146 359.399 255.109 359.294 255.109 359.171V350.418C255.109 350.295 255.146 350.197 255.22 350.123C255.306 350.037 255.411 349.993 255.534 349.993H256.309C256.432 349.993 256.531 350.037 256.605 350.123C256.679 350.197 256.716 350.295 256.716 350.418V351.046C257.38 350.221 258.279 349.809 259.412 349.809C260.766 349.809 261.726 350.375 262.292 351.508C262.588 350.991 263.006 350.578 263.548 350.27C264.102 349.963 264.718 349.809 265.395 349.809C266.404 349.809 267.229 350.154 267.869 350.843C268.509 351.532 268.83 352.53 268.83 353.834V359.171C268.83 359.294 268.786 359.399 268.7 359.485C268.626 359.559 268.528 359.596 268.405 359.596H267.611C267.488 359.596 267.383 359.559 267.297 359.485C267.223 359.399 267.186 359.294 267.186 359.171V354.001C267.186 353.016 266.983 352.314 266.577 351.895C266.17 351.465 265.635 351.249 264.97 351.249C264.379 351.249 263.868 351.471 263.437 351.914C263.019 352.345 262.809 353.04 262.809 354.001V359.171C262.809 359.294 262.766 359.399 262.68 359.485C262.606 359.559 262.508 359.596 262.385 359.596H261.572C261.449 359.596 261.344 359.559 261.258 359.485C261.184 359.399 261.148 359.294 261.148 359.171V354.001C261.148 353.028 260.932 352.326 260.501 351.895C260.083 351.465 259.559 351.249 258.932 351.249C258.341 351.249 257.83 351.465 257.399 351.895C256.98 352.326 256.771 353.022 256.771 353.982V359.171C256.771 359.294 256.728 359.399 256.642 359.485C256.568 359.559 256.469 359.596 256.346 359.596H255.534ZM271.945 363.105C271.822 363.105 271.717 363.068 271.631 362.994C271.557 362.92 271.52 362.815 271.52 362.68V350.418C271.52 350.283 271.557 350.178 271.631 350.104C271.717 350.03 271.822 349.993 271.945 349.993H272.72C272.856 349.993 272.96 350.03 273.034 350.104C273.108 350.178 273.145 350.283 273.145 350.418V351.231C273.859 350.283 274.875 349.809 276.192 349.809C277.485 349.809 278.451 350.221 279.091 351.046C279.744 351.859 280.088 352.899 280.125 354.167C280.138 354.302 280.144 354.512 280.144 354.795C280.144 355.078 280.138 355.287 280.125 355.423C280.088 356.678 279.744 357.719 279.091 358.543C278.451 359.368 277.485 359.781 276.192 359.781C274.875 359.781 273.877 359.313 273.2 358.377V362.68C273.2 362.803 273.157 362.901 273.071 362.975C272.997 363.061 272.899 363.105 272.776 363.105H271.945ZM275.841 358.34C276.727 358.34 277.374 358.063 277.78 357.509C278.186 356.955 278.408 356.229 278.445 355.33C278.457 355.207 278.463 355.029 278.463 354.795C278.463 352.431 277.589 351.249 275.841 351.249C274.979 351.249 274.327 351.538 273.884 352.117C273.453 352.683 273.225 353.354 273.2 354.13C273.188 354.265 273.182 354.505 273.182 354.85C273.182 355.195 273.188 355.435 273.2 355.57C273.225 356.321 273.459 356.974 273.902 357.528C274.358 358.069 275.004 358.34 275.841 358.34ZM285.753 359.781C284.903 359.781 284.183 359.645 283.592 359.374C283.014 359.091 282.583 358.771 282.3 358.414C282.017 358.057 281.875 357.762 281.875 357.528C281.875 357.405 281.918 357.312 282.004 357.251C282.09 357.177 282.183 357.14 282.281 357.14H283.057C283.131 357.14 283.186 357.152 283.223 357.177C283.272 357.201 283.334 357.257 283.408 357.343C283.691 357.688 284.005 357.959 284.349 358.156C284.706 358.353 285.18 358.451 285.771 358.451C286.436 358.451 286.965 358.328 287.359 358.082C287.766 357.835 287.969 357.478 287.969 357.011C287.969 356.703 287.883 356.457 287.71 356.272C287.538 356.087 287.249 355.921 286.842 355.773C286.448 355.626 285.858 355.466 285.07 355.293C283.999 355.059 283.241 354.721 282.798 354.278C282.355 353.834 282.133 353.262 282.133 352.56C282.133 352.105 282.269 351.668 282.54 351.249C282.811 350.818 283.211 350.474 283.74 350.215C284.282 349.944 284.922 349.809 285.661 349.809C286.436 349.809 287.095 349.938 287.636 350.197C288.19 350.455 288.603 350.757 288.874 351.101C289.157 351.446 289.298 351.735 289.298 351.969C289.298 352.08 289.255 352.172 289.169 352.246C289.095 352.32 289.003 352.357 288.892 352.357H288.19C288.018 352.357 287.895 352.289 287.821 352.154C287.612 351.92 287.433 351.742 287.286 351.618C287.15 351.483 286.947 351.372 286.676 351.286C286.405 351.188 286.067 351.138 285.661 351.138C285.057 351.138 284.596 351.268 284.276 351.526C283.955 351.772 283.795 352.105 283.795 352.523C283.795 352.782 283.863 353.003 283.999 353.188C284.134 353.36 284.393 353.527 284.774 353.687C285.156 353.834 285.722 353.988 286.473 354.148C287.643 354.395 288.467 354.745 288.948 355.201C289.44 355.656 289.686 356.241 289.686 356.955C289.686 357.485 289.532 357.965 289.225 358.396C288.929 358.827 288.48 359.165 287.877 359.411C287.286 359.658 286.578 359.781 285.753 359.781ZM295.647 359.781C294.392 359.781 293.388 359.393 292.637 358.617C291.886 357.829 291.474 356.758 291.4 355.404L291.382 354.776L291.4 354.167C291.474 352.837 291.886 351.779 292.637 350.991C293.388 350.203 294.392 349.809 295.647 349.809C297.002 349.809 298.048 350.24 298.787 351.101C299.538 351.963 299.913 353.133 299.913 354.61V354.942C299.913 355.066 299.87 355.17 299.784 355.256C299.71 355.33 299.611 355.367 299.488 355.367H293.081V355.533C293.117 356.334 293.364 357.017 293.819 357.583C294.275 358.149 294.878 358.433 295.629 358.433C296.208 358.433 296.675 358.322 297.032 358.1C297.402 357.866 297.679 357.626 297.863 357.38C297.974 357.232 298.06 357.146 298.122 357.121C298.183 357.085 298.288 357.066 298.436 357.066H299.248C299.359 357.066 299.451 357.097 299.525 357.158C299.611 357.22 299.655 357.3 299.655 357.398C299.655 357.669 299.488 357.996 299.156 358.377C298.824 358.759 298.35 359.091 297.734 359.374C297.131 359.645 296.435 359.781 295.647 359.781ZM298.233 354.111V354.056C298.233 353.194 297.999 352.493 297.531 351.951C297.063 351.409 296.435 351.138 295.647 351.138C294.847 351.138 294.219 351.409 293.764 351.951C293.308 352.493 293.081 353.194 293.081 354.056V354.111H298.233ZM310.599 359.781C309.245 359.781 308.199 359.399 307.46 358.636C306.734 357.872 306.346 356.857 306.297 355.589L306.278 354.795L306.297 354.001C306.346 352.733 306.74 351.717 307.478 350.954C308.229 350.19 309.27 349.809 310.599 349.809C311.929 349.809 312.963 350.19 313.702 350.954C314.453 351.717 314.853 352.733 314.902 354.001C314.927 354.271 314.939 354.536 314.939 354.795C314.939 355.053 314.927 355.318 314.902 355.589C314.853 356.857 314.459 357.872 313.72 358.636C312.994 359.399 311.954 359.781 310.599 359.781ZM310.599 358.396C311.387 358.396 312.009 358.149 312.464 357.657C312.932 357.152 313.185 356.432 313.222 355.496C313.234 355.373 313.24 355.139 313.24 354.795C313.24 354.45 313.234 354.216 313.222 354.093C313.185 353.157 312.932 352.443 312.464 351.951C312.009 351.446 311.387 351.194 310.599 351.194C309.811 351.194 309.184 351.446 308.716 351.951C308.26 352.443 308.014 353.157 307.977 354.093L307.959 354.795L307.977 355.496C308.014 356.432 308.26 357.152 308.716 357.657C309.184 358.149 309.811 358.396 310.599 358.396ZM318.547 359.596C318.424 359.596 318.32 359.559 318.233 359.485C318.16 359.399 318.123 359.294 318.123 359.171V351.415H316.535C316.411 351.415 316.307 351.378 316.221 351.305C316.147 351.231 316.11 351.132 316.11 351.009V350.418C316.11 350.295 316.147 350.197 316.221 350.123C316.307 350.037 316.411 349.993 316.535 349.993H318.123V349.07C318.123 348.073 318.363 347.304 318.843 346.762C319.335 346.208 320.135 345.931 321.243 345.931H322.333C322.456 345.931 322.555 345.974 322.628 346.06C322.715 346.134 322.758 346.232 322.758 346.356V346.947C322.758 347.07 322.715 347.168 322.628 347.242C322.555 347.316 322.456 347.353 322.333 347.353H321.28C320.714 347.353 320.32 347.501 320.099 347.796C319.877 348.091 319.766 348.547 319.766 349.162V349.993H322.148C322.271 349.993 322.37 350.037 322.444 350.123C322.53 350.197 322.573 350.295 322.573 350.418V351.009C322.573 351.132 322.53 351.231 322.444 351.305C322.37 351.378 322.271 351.415 322.148 351.415H319.766V359.171C319.766 359.294 319.723 359.399 319.637 359.485C319.563 359.559 319.464 359.596 319.341 359.596H318.547ZM328.768 359.596C328.645 359.596 328.54 359.559 328.454 359.485C328.38 359.399 328.343 359.294 328.343 359.171V350.418C328.343 350.295 328.38 350.197 328.454 350.123C328.54 350.037 328.645 349.993 328.768 349.993H329.543C329.667 349.993 329.765 350.037 329.839 350.123C329.913 350.197 329.95 350.295 329.95 350.418V351.046C330.614 350.221 331.513 349.809 332.646 349.809C334 349.809 334.96 350.375 335.527 351.508C335.822 350.991 336.241 350.578 336.782 350.27C337.336 349.963 337.952 349.809 338.629 349.809C339.638 349.809 340.463 350.154 341.103 350.843C341.744 351.532 342.064 352.53 342.064 353.834V359.171C342.064 359.294 342.021 359.399 341.934 359.485C341.86 359.559 341.762 359.596 341.639 359.596H340.845C340.722 359.596 340.617 359.559 340.531 359.485C340.457 359.399 340.42 359.294 340.42 359.171V354.001C340.42 353.016 340.217 352.314 339.811 351.895C339.404 351.465 338.869 351.249 338.204 351.249C337.613 351.249 337.102 351.471 336.671 351.914C336.253 352.345 336.044 353.04 336.044 354.001V359.171C336.044 359.294 336.001 359.399 335.914 359.485C335.84 359.559 335.742 359.596 335.619 359.596H334.806C334.683 359.596 334.579 359.559 334.492 359.485C334.419 359.399 334.382 359.294 334.382 359.171V354.001C334.382 353.028 334.166 352.326 333.735 351.895C333.317 351.465 332.794 351.249 332.166 351.249C331.575 351.249 331.064 351.465 330.633 351.895C330.214 352.326 330.005 353.022 330.005 353.982V359.171C330.005 359.294 329.962 359.399 329.876 359.485C329.802 359.559 329.703 359.596 329.58 359.596H328.768ZM346.127 363.105C346.017 363.105 345.924 363.068 345.851 362.994C345.777 362.92 345.74 362.834 345.74 362.735C345.74 362.698 345.77 362.587 345.832 362.403L347.272 359.023L343.745 350.695C343.671 350.547 343.635 350.443 343.635 350.381C343.647 350.27 343.69 350.178 343.764 350.104C343.838 350.03 343.924 349.993 344.022 349.993H344.872C345.069 349.993 345.216 350.092 345.315 350.289L348.159 357.085L351.076 350.289C351.175 350.092 351.323 349.993 351.52 349.993H352.351C352.449 349.993 352.535 350.03 352.609 350.104C352.683 350.178 352.72 350.264 352.72 350.363C352.72 350.449 352.689 350.56 352.628 350.695L347.402 362.809C347.34 362.908 347.272 362.981 347.199 363.031C347.137 363.08 347.051 363.105 346.94 363.105H346.127ZM359.065 363.105C358.941 363.105 358.837 363.068 358.751 362.994C358.677 362.92 358.64 362.815 358.64 362.68V350.418C358.64 350.283 358.677 350.178 358.751 350.104C358.837 350.03 358.941 349.993 359.065 349.993H359.84C359.976 349.993 360.08 350.03 360.154 350.104C360.228 350.178 360.265 350.283 360.265 350.418V351.231C360.979 350.283 361.995 349.809 363.312 349.809C364.604 349.809 365.571 350.221 366.211 351.046C366.864 351.859 367.208 352.899 367.245 354.167C367.257 354.302 367.264 354.512 367.264 354.795C367.264 355.078 367.257 355.287 367.245 355.423C367.208 356.678 366.864 357.719 366.211 358.543C365.571 359.368 364.604 359.781 363.312 359.781C361.995 359.781 360.997 359.313 360.32 358.377V362.68C360.32 362.803 360.277 362.901 360.191 362.975C360.117 363.061 360.019 363.105 359.896 363.105H359.065ZM362.961 358.34C363.847 358.34 364.494 358.063 364.9 357.509C365.306 356.955 365.528 356.229 365.565 355.33C365.577 355.207 365.583 355.029 365.583 354.795C365.583 352.431 364.709 351.249 362.961 351.249C362.099 351.249 361.447 351.538 361.004 352.117C360.573 352.683 360.345 353.354 360.32 354.13C360.308 354.265 360.302 354.505 360.302 354.85C360.302 355.195 360.308 355.435 360.32 355.57C360.345 356.321 360.579 356.974 361.022 357.528C361.478 358.069 362.124 358.34 362.961 358.34ZM373.168 359.781C371.999 359.781 371.094 359.405 370.454 358.654C369.814 357.891 369.493 356.881 369.493 355.626V350.418C369.493 350.295 369.53 350.197 369.604 350.123C369.69 350.037 369.795 349.993 369.918 349.993H370.768C370.891 349.993 370.989 350.037 371.063 350.123C371.149 350.197 371.192 350.295 371.192 350.418V355.533C371.192 357.405 372.005 358.34 373.63 358.34C374.418 358.34 375.039 358.094 375.495 357.602C375.963 357.097 376.197 356.407 376.197 355.533V350.418C376.197 350.295 376.234 350.197 376.308 350.123C376.394 350.037 376.498 349.993 376.621 349.993H377.471C377.594 349.993 377.692 350.037 377.766 350.123C377.853 350.197 377.896 350.295 377.896 350.418V359.171C377.896 359.294 377.853 359.399 377.766 359.485C377.692 359.559 377.594 359.596 377.471 359.596H376.677C376.554 359.596 376.449 359.559 376.363 359.485C376.289 359.399 376.252 359.294 376.252 359.171V358.34C375.895 358.82 375.477 359.184 374.996 359.43C374.516 359.664 373.907 359.781 373.168 359.781ZM385.349 359.781C384.019 359.781 383.004 359.313 382.302 358.377V359.171C382.302 359.294 382.259 359.399 382.173 359.485C382.099 359.559 382 359.596 381.877 359.596H381.102C380.978 359.596 380.874 359.559 380.788 359.485C380.714 359.399 380.677 359.294 380.677 359.171V346.91C380.677 346.774 380.714 346.67 380.788 346.596C380.874 346.522 380.978 346.485 381.102 346.485H381.933C382.056 346.485 382.154 346.528 382.228 346.614C382.314 346.688 382.357 346.786 382.357 346.91V351.175C383.047 350.264 384.044 349.809 385.349 349.809C386.641 349.809 387.608 350.234 388.248 351.083C388.901 351.92 389.245 352.973 389.282 354.241C389.294 354.376 389.301 354.561 389.301 354.795C389.301 355.029 389.294 355.213 389.282 355.349C389.245 356.617 388.901 357.675 388.248 358.525C387.608 359.362 386.641 359.781 385.349 359.781ZM384.998 358.34C385.884 358.34 386.531 358.063 386.937 357.509C387.343 356.955 387.565 356.229 387.602 355.33C387.614 355.207 387.62 355.029 387.62 354.795C387.62 352.431 386.746 351.249 384.998 351.249C384.161 351.249 383.514 351.526 383.059 352.08C382.616 352.622 382.382 353.268 382.357 354.019C382.345 354.155 382.339 354.395 382.339 354.739C382.339 355.072 382.345 355.306 382.357 355.441C382.382 356.229 382.61 356.912 383.041 357.491C383.484 358.057 384.136 358.34 384.998 358.34ZM392.066 359.596C391.943 359.596 391.838 359.559 391.752 359.485C391.678 359.399 391.641 359.294 391.641 359.171V346.91C391.641 346.774 391.678 346.67 391.752 346.596C391.838 346.522 391.943 346.485 392.066 346.485H392.878C393.002 346.485 393.1 346.528 393.174 346.614C393.26 346.688 393.303 346.786 393.303 346.91V359.171C393.303 359.294 393.26 359.399 393.174 359.485C393.1 359.559 393.002 359.596 392.878 359.596H392.066ZM396.354 348.184C396.231 348.184 396.126 348.147 396.04 348.073C395.966 347.987 395.929 347.882 395.929 347.759V346.799C395.929 346.676 395.966 346.571 396.04 346.485C396.126 346.399 396.231 346.356 396.354 346.356H397.444C397.567 346.356 397.671 346.399 397.757 346.485C397.844 346.571 397.887 346.676 397.887 346.799V347.759C397.887 347.882 397.844 347.987 397.757 348.073C397.671 348.147 397.567 348.184 397.444 348.184H396.354ZM396.502 359.596C396.379 359.596 396.274 359.559 396.188 359.485C396.114 359.399 396.077 359.294 396.077 359.171V350.418C396.077 350.295 396.114 350.197 396.188 350.123C396.274 350.037 396.379 349.993 396.502 349.993H397.314C397.437 349.993 397.536 350.037 397.61 350.123C397.696 350.197 397.739 350.295 397.739 350.418V359.171C397.739 359.294 397.696 359.399 397.61 359.485C397.536 359.559 397.437 359.596 397.314 359.596H396.502ZM404.354 359.781C403.037 359.781 402.009 359.411 401.27 358.673C400.532 357.922 400.144 356.875 400.107 355.533L400.089 354.795L400.107 354.056C400.144 352.714 400.532 351.674 401.27 350.935C402.009 350.184 403.037 349.809 404.354 349.809C405.241 349.809 405.985 349.969 406.589 350.289C407.204 350.597 407.66 350.984 407.955 351.452C408.263 351.92 408.429 352.388 408.454 352.856C408.466 352.967 408.423 353.065 408.325 353.151C408.238 353.237 408.14 353.28 408.029 353.28H407.217C407.093 353.28 407.001 353.256 406.94 353.207C406.878 353.145 406.816 353.04 406.755 352.893C406.533 352.289 406.226 351.865 405.832 351.618C405.45 351.36 404.964 351.231 404.373 351.231C403.597 351.231 402.982 351.471 402.526 351.951C402.071 352.431 401.824 353.164 401.787 354.148L401.769 354.795L401.787 355.441C401.824 356.426 402.071 357.158 402.526 357.639C402.982 358.119 403.597 358.359 404.373 358.359C404.976 358.359 405.468 358.236 405.85 357.989C406.232 357.731 406.533 357.3 406.755 356.697C406.816 356.549 406.878 356.451 406.94 356.401C407.001 356.34 407.093 356.309 407.217 356.309H408.029C408.14 356.309 408.238 356.352 408.325 356.438C408.423 356.524 408.466 356.623 408.454 356.734C408.429 357.189 408.263 357.651 407.955 358.119C407.66 358.586 407.204 358.98 406.589 359.3C405.985 359.621 405.241 359.781 404.354 359.781ZM417.326 359.596C417.154 359.596 417.025 359.559 416.938 359.485C416.852 359.411 416.784 359.294 416.735 359.134L414.113 350.566L414.076 350.381C414.076 350.27 414.113 350.178 414.187 350.104C414.261 350.03 414.353 349.993 414.464 349.993H415.221C415.344 349.993 415.443 350.03 415.516 350.104C415.603 350.166 415.652 350.227 415.664 350.289L417.751 357.343L419.967 350.381C419.991 350.283 420.047 350.197 420.133 350.123C420.219 350.037 420.336 349.993 420.484 349.993H421.075C421.223 349.993 421.339 350.037 421.426 350.123C421.512 350.197 421.567 350.283 421.592 350.381L423.808 357.343L425.894 350.289C425.907 350.227 425.95 350.166 426.024 350.104C426.11 350.03 426.215 349.993 426.338 349.993H427.095C427.206 349.993 427.298 350.03 427.372 350.104C427.446 350.178 427.483 350.27 427.483 350.381L427.446 350.566L424.823 359.134C424.774 359.294 424.706 359.411 424.62 359.485C424.534 359.559 424.405 359.596 424.233 359.596H423.568C423.248 359.596 423.038 359.442 422.94 359.134L420.779 352.449L418.619 359.134C418.52 359.442 418.311 359.596 417.991 359.596H417.326ZM433.191 359.781C431.837 359.781 430.791 359.399 430.052 358.636C429.326 357.872 428.938 356.857 428.888 355.589L428.87 354.795L428.888 354.001C428.938 352.733 429.332 351.717 430.07 350.954C430.821 350.19 431.862 349.809 433.191 349.809C434.521 349.809 435.555 350.19 436.293 350.954C437.044 351.717 437.445 352.733 437.494 354.001C437.518 354.271 437.531 354.536 437.531 354.795C437.531 355.053 437.518 355.318 437.494 355.589C437.445 356.857 437.051 357.872 436.312 358.636C435.586 359.399 434.545 359.781 433.191 359.781ZM433.191 358.396C433.979 358.396 434.601 358.149 435.056 357.657C435.524 357.152 435.776 356.432 435.813 355.496C435.826 355.373 435.832 355.139 435.832 354.795C435.832 354.45 435.826 354.216 435.813 354.093C435.776 353.157 435.524 352.443 435.056 351.951C434.601 351.446 433.979 351.194 433.191 351.194C432.403 351.194 431.775 351.446 431.308 351.951C430.852 352.443 430.606 353.157 430.569 354.093L430.55 354.795L430.569 355.496C430.606 356.432 430.852 357.152 431.308 357.657C431.775 358.149 432.403 358.396 433.191 358.396ZM440.287 359.596C440.164 359.596 440.059 359.559 439.973 359.485C439.899 359.399 439.862 359.294 439.862 359.171V350.437C439.862 350.314 439.899 350.209 439.973 350.123C440.059 350.037 440.164 349.993 440.287 349.993H441.063C441.198 349.993 441.303 350.037 441.377 350.123C441.463 350.197 441.506 350.301 441.506 350.437V351.249C442.011 350.412 442.866 349.993 444.073 349.993H444.793C444.928 349.993 445.033 350.03 445.107 350.104C445.181 350.178 445.218 350.283 445.218 350.418V351.101C445.218 351.225 445.181 351.329 445.107 351.415C445.033 351.489 444.928 351.526 444.793 351.526H443.74C443.063 351.526 442.528 351.723 442.134 352.117C441.752 352.511 441.561 353.047 441.561 353.724V359.171C441.561 359.294 441.518 359.399 441.432 359.485C441.346 359.559 441.241 359.596 441.118 359.596H440.287ZM447.248 359.596C447.125 359.596 447.021 359.559 446.935 359.485C446.861 359.399 446.824 359.294 446.824 359.171V346.91C446.824 346.774 446.861 346.67 446.935 346.596C447.021 346.522 447.125 346.485 447.248 346.485H448.043C448.166 346.485 448.264 346.528 448.338 346.614C448.424 346.688 448.467 346.786 448.467 346.91V353.354L452.161 350.307C452.345 350.172 452.474 350.086 452.548 350.049C452.622 350.012 452.739 349.993 452.899 349.993H453.822C453.933 349.993 454.019 350.03 454.081 350.104C454.155 350.166 454.192 350.258 454.192 350.381C454.192 350.492 454.124 350.609 453.989 350.732L449.668 354.278L454.45 358.857C454.586 358.993 454.653 359.11 454.653 359.208C454.653 359.319 454.617 359.411 454.543 359.485C454.481 359.559 454.395 359.596 454.284 359.596H453.379C453.195 359.596 453.059 359.577 452.973 359.541C452.899 359.504 452.788 359.417 452.641 359.282L448.467 355.33V359.171C448.467 359.294 448.424 359.399 448.338 359.485C448.264 359.559 448.166 359.596 448.043 359.596H447.248Z" fill="white"/>
<g id="ic-behance">
<path id="Vector" d="M201.319 334.132H165.925C165.074 334.132 164.386 334.82 164.386 335.671V371.065C164.386 371.916 165.074 372.604 165.925 372.604H201.319C202.17 372.604 202.857 371.916 202.857 371.065V335.671C202.857 334.82 202.17 334.132 201.319 334.132ZM187.781 345.621H194.437V347.241H187.781V345.621ZM183.622 358.985C183.31 359.576 182.866 360.086 182.323 360.476C181.756 360.87 181.126 361.158 180.457 361.327C179.758 361.514 179.037 361.606 178.313 361.601H170.349V345.198H178.091C178.875 345.198 179.587 345.27 180.236 345.404C180.881 345.539 181.429 345.77 181.891 346.082C182.347 346.395 182.708 346.813 182.963 347.333C183.213 347.847 183.343 348.492 183.343 349.256C183.343 350.083 183.155 350.766 182.78 351.319C182.4 351.872 181.852 352.32 181.107 352.671C182.121 352.959 182.867 353.474 183.357 354.195C183.857 354.926 184.103 355.801 184.103 356.83C184.103 357.667 183.944 358.384 183.622 358.985ZM197.029 356.446H188.45C188.45 357.379 188.772 358.273 189.258 358.754C189.748 359.23 190.45 359.47 191.369 359.47C192.033 359.47 192.595 359.302 193.076 358.97C193.552 358.639 193.841 358.287 193.947 357.922H196.822C196.361 359.35 195.659 360.37 194.706 360.985C193.764 361.601 192.61 361.909 191.268 361.909C190.33 361.909 189.489 361.755 188.734 361.461C188.007 361.178 187.353 360.745 186.815 360.187C186.284 359.614 185.873 358.94 185.608 358.206C185.314 357.393 185.17 356.537 185.18 355.676C185.18 354.787 185.329 353.959 185.617 353.19C186.17 351.694 187.32 350.497 188.787 349.877C189.57 349.55 190.412 349.386 191.263 349.396C192.273 349.396 193.148 349.588 193.908 349.982C194.64 350.359 195.275 350.899 195.764 351.56C196.25 352.219 196.591 352.969 196.808 353.815C197.015 354.647 197.087 355.522 197.029 356.446V356.446ZM191.162 351.848C190.643 351.848 190.205 351.94 189.869 352.118C189.532 352.296 189.253 352.517 189.041 352.772C188.84 353.018 188.691 353.303 188.604 353.608C188.527 353.863 188.474 354.123 188.455 354.387H193.769C193.692 353.556 193.403 352.94 193.018 352.507C192.614 352.079 191.965 351.848 191.162 351.848V351.848ZM179.212 351.363C179.63 351.06 179.832 350.56 179.832 349.872C179.847 349.545 179.779 349.223 179.635 348.929C179.505 348.694 179.313 348.496 179.077 348.357C178.833 348.209 178.562 348.111 178.279 348.069C177.971 348.011 177.659 347.982 177.351 347.987H173.97V351.819H177.63C178.26 351.824 178.794 351.67 179.212 351.363V351.363ZM179.779 354.825C179.308 354.464 178.678 354.286 177.894 354.286H173.961V358.807H177.817C178.178 358.807 178.51 358.773 178.832 358.706C179.154 358.639 179.443 358.523 179.688 358.36C179.933 358.201 180.13 357.985 180.28 357.706C180.424 357.427 180.496 357.071 180.496 356.643C180.496 355.792 180.255 355.191 179.779 354.825V354.825Z" fill="white"/>
</g>
</g>
<g id="group-linkedin">
<path id="Contact me" opacity="0.7" d="M223.718 429.029C222.081 429.029 220.831 428.586 219.97 427.7C219.12 426.801 218.665 425.576 218.603 424.025C218.591 423.692 218.585 423.151 218.585 422.4C218.585 421.636 218.591 421.082 218.603 420.738C218.665 419.187 219.12 417.968 219.97 417.081C220.831 416.183 222.081 415.733 223.718 415.733C224.814 415.733 225.743 415.93 226.507 416.324C227.27 416.706 227.842 417.211 228.224 417.839C228.618 418.466 228.833 419.137 228.87 419.851C228.87 419.962 228.827 420.055 228.741 420.128C228.667 420.19 228.575 420.221 228.464 420.221H227.541C227.418 420.221 227.319 420.19 227.245 420.128C227.172 420.067 227.116 419.962 227.079 419.814C226.87 418.867 226.488 418.202 225.934 417.82C225.393 417.438 224.654 417.248 223.718 417.248C221.576 417.248 220.462 418.442 220.376 420.83C220.364 421.162 220.357 421.673 220.357 422.363C220.357 423.052 220.364 423.575 220.376 423.932C220.462 426.308 221.576 427.496 223.718 427.496C224.642 427.496 225.38 427.306 225.934 426.924C226.488 426.542 226.87 425.884 227.079 424.948C227.116 424.8 227.172 424.696 227.245 424.634C227.319 424.573 227.418 424.542 227.541 424.542H228.464C228.575 424.542 228.667 424.579 228.741 424.653C228.827 424.714 228.87 424.8 228.87 424.911C228.833 425.625 228.618 426.296 228.224 426.924C227.842 427.552 227.27 428.063 226.507 428.457C225.743 428.838 224.814 429.029 223.718 429.029ZM235.039 429.029C233.685 429.029 232.638 428.648 231.9 427.884C231.173 427.121 230.785 426.105 230.736 424.837L230.718 424.043L230.736 423.249C230.785 421.981 231.179 420.966 231.918 420.202C232.669 419.439 233.709 419.057 235.039 419.057C236.368 419.057 237.403 419.439 238.141 420.202C238.892 420.966 239.292 421.981 239.342 423.249C239.366 423.52 239.378 423.785 239.378 424.043C239.378 424.302 239.366 424.566 239.342 424.837C239.292 426.105 238.898 427.121 238.16 427.884C237.433 428.648 236.393 429.029 235.039 429.029ZM235.039 427.644C235.827 427.644 236.448 427.398 236.904 426.906C237.372 426.401 237.624 425.681 237.661 424.745C237.673 424.622 237.68 424.388 237.68 424.043C237.68 423.699 237.673 423.465 237.661 423.342C237.624 422.406 237.372 421.692 236.904 421.199C236.448 420.695 235.827 420.442 235.039 420.442C234.251 420.442 233.623 420.695 233.155 421.199C232.7 421.692 232.454 422.406 232.417 423.342L232.398 424.043L232.417 424.745C232.454 425.681 232.7 426.401 233.155 426.906C233.623 427.398 234.251 427.644 235.039 427.644ZM242.135 428.844C242.012 428.844 241.907 428.808 241.821 428.734C241.747 428.648 241.71 428.543 241.71 428.42V419.667C241.71 419.544 241.747 419.445 241.821 419.371C241.907 419.285 242.012 419.242 242.135 419.242H242.929C243.064 419.242 243.169 419.279 243.243 419.353C243.317 419.427 243.354 419.531 243.354 419.667V420.479C243.723 420.024 244.148 419.673 244.628 419.427C245.12 419.18 245.73 419.057 246.456 419.057C247.638 419.057 248.555 419.439 249.207 420.202C249.86 420.953 250.186 421.95 250.186 423.194V428.42C250.186 428.543 250.143 428.648 250.057 428.734C249.983 428.808 249.885 428.844 249.761 428.844H248.912C248.789 428.844 248.684 428.808 248.598 428.734C248.524 428.648 248.487 428.543 248.487 428.42V423.305C248.487 422.418 248.272 421.729 247.841 421.236C247.41 420.744 246.795 420.498 245.994 420.498C245.206 420.498 244.579 420.75 244.111 421.255C243.643 421.747 243.409 422.431 243.409 423.305V428.42C243.409 428.543 243.366 428.648 243.28 428.734C243.206 428.808 243.107 428.844 242.984 428.844H242.135ZM256.422 428.844C254.514 428.844 253.56 427.767 253.56 425.613V420.664H252.101C251.978 420.664 251.879 420.627 251.805 420.553C251.731 420.479 251.694 420.381 251.694 420.258V419.667C251.694 419.544 251.731 419.445 251.805 419.371C251.879 419.285 251.978 419.242 252.101 419.242H253.56V416.158C253.56 416.035 253.597 415.937 253.67 415.863C253.744 415.776 253.843 415.733 253.966 415.733H254.778C254.901 415.733 255 415.776 255.074 415.863C255.16 415.937 255.203 416.035 255.203 416.158V419.242H257.493C257.616 419.242 257.715 419.285 257.788 419.371C257.875 419.445 257.918 419.544 257.918 419.667V420.258C257.918 420.381 257.875 420.479 257.788 420.553C257.715 420.627 257.616 420.664 257.493 420.664H255.203V425.484C255.203 426.111 255.302 426.585 255.499 426.906C255.708 427.226 256.059 427.386 256.551 427.386H257.678C257.801 427.386 257.899 427.429 257.973 427.515C258.047 427.589 258.084 427.687 258.084 427.81V428.42C258.084 428.543 258.047 428.648 257.973 428.734C257.899 428.808 257.801 428.844 257.678 428.844H256.422ZM262.547 429.029C261.944 429.029 261.384 428.906 260.867 428.66C260.362 428.414 259.956 428.081 259.648 427.663C259.352 427.232 259.205 426.758 259.205 426.241C259.205 425.428 259.537 424.763 260.202 424.246C260.867 423.729 261.771 423.385 262.916 423.212L265.686 422.824V422.289C265.686 421.021 264.954 420.387 263.489 420.387C262.923 420.387 262.467 420.504 262.122 420.738C261.778 420.959 261.525 421.224 261.365 421.532C261.316 421.655 261.261 421.741 261.199 421.79C261.15 421.827 261.076 421.846 260.977 421.846H260.257C260.146 421.846 260.048 421.809 259.962 421.735C259.888 421.649 259.851 421.55 259.851 421.439C259.851 421.156 259.98 420.83 260.239 420.461C260.51 420.079 260.922 419.753 261.476 419.482C262.03 419.199 262.707 419.057 263.507 419.057C264.886 419.057 265.871 419.377 266.462 420.018C267.065 420.658 267.367 421.458 267.367 422.418V428.42C267.367 428.543 267.324 428.648 267.238 428.734C267.164 428.808 267.065 428.844 266.942 428.844H266.13C266.006 428.844 265.908 428.808 265.834 428.734C265.76 428.648 265.723 428.543 265.723 428.42V427.607C265.452 428.013 265.058 428.352 264.541 428.623C264.024 428.894 263.36 429.029 262.547 429.029ZM262.916 427.681C263.729 427.681 264.394 427.416 264.911 426.887C265.428 426.358 265.686 425.588 265.686 424.579V424.062L263.526 424.376C262.639 424.499 261.968 424.708 261.513 425.003C261.057 425.299 260.83 425.668 260.83 426.111C260.83 426.616 261.033 427.004 261.439 427.275C261.858 427.546 262.35 427.681 262.916 427.681ZM273.882 429.029C272.565 429.029 271.537 428.66 270.798 427.921C270.059 427.17 269.671 426.124 269.635 424.782L269.616 424.043L269.635 423.305C269.671 421.963 270.059 420.922 270.798 420.184C271.537 419.433 272.565 419.057 273.882 419.057C274.768 419.057 275.513 419.217 276.116 419.537C276.732 419.845 277.187 420.233 277.483 420.701C277.79 421.169 277.957 421.636 277.981 422.104C277.994 422.215 277.951 422.314 277.852 422.4C277.766 422.486 277.667 422.529 277.557 422.529H276.744C276.621 422.529 276.529 422.504 276.467 422.455C276.405 422.394 276.344 422.289 276.282 422.141C276.061 421.538 275.753 421.113 275.359 420.867C274.977 420.609 274.491 420.479 273.9 420.479C273.125 420.479 272.509 420.719 272.054 421.199C271.598 421.68 271.352 422.412 271.315 423.397L271.296 424.043L271.315 424.69C271.352 425.674 271.598 426.407 272.054 426.887C272.509 427.367 273.125 427.607 273.9 427.607C274.503 427.607 274.996 427.484 275.378 427.238C275.759 426.979 276.061 426.549 276.282 425.945C276.344 425.798 276.405 425.699 276.467 425.65C276.529 425.588 276.621 425.557 276.744 425.557H277.557C277.667 425.557 277.766 425.601 277.852 425.687C277.951 425.773 277.994 425.871 277.981 425.982C277.957 426.438 277.79 426.899 277.483 427.367C277.187 427.835 276.732 428.229 276.116 428.549C275.513 428.869 274.768 429.029 273.882 429.029ZM283.887 428.844C281.979 428.844 281.025 427.767 281.025 425.613V420.664H279.566C279.443 420.664 279.344 420.627 279.27 420.553C279.196 420.479 279.16 420.381 279.16 420.258V419.667C279.16 419.544 279.196 419.445 279.27 419.371C279.344 419.285 279.443 419.242 279.566 419.242H281.025V416.158C281.025 416.035 281.062 415.937 281.135 415.863C281.209 415.776 281.308 415.733 281.431 415.733H282.243C282.367 415.733 282.465 415.776 282.539 415.863C282.625 415.937 282.668 416.035 282.668 416.158V419.242H284.958C285.081 419.242 285.18 419.285 285.253 419.371C285.34 419.445 285.383 419.544 285.383 419.667V420.258C285.383 420.381 285.34 420.479 285.253 420.553C285.18 420.627 285.081 420.664 284.958 420.664H282.668V425.484C282.668 426.111 282.767 426.585 282.964 426.906C283.173 427.226 283.524 427.386 284.016 427.386H285.143C285.266 427.386 285.364 427.429 285.438 427.515C285.512 427.589 285.549 427.687 285.549 427.81V428.42C285.549 428.543 285.512 428.648 285.438 428.734C285.364 428.808 285.266 428.844 285.143 428.844H283.887ZM292.322 428.844C292.199 428.844 292.094 428.808 292.008 428.734C291.934 428.648 291.897 428.543 291.897 428.42V419.667C291.897 419.544 291.934 419.445 292.008 419.371C292.094 419.285 292.199 419.242 292.322 419.242H293.098C293.221 419.242 293.319 419.285 293.393 419.371C293.467 419.445 293.504 419.544 293.504 419.667V420.295C294.169 419.47 295.067 419.057 296.2 419.057C297.554 419.057 298.514 419.624 299.081 420.756C299.376 420.239 299.795 419.827 300.337 419.519C300.89 419.211 301.506 419.057 302.183 419.057C303.193 419.057 304.017 419.402 304.658 420.091C305.298 420.781 305.618 421.778 305.618 423.083V428.42C305.618 428.543 305.575 428.648 305.489 428.734C305.415 428.808 305.316 428.844 305.193 428.844H304.399C304.276 428.844 304.171 428.808 304.085 428.734C304.011 428.648 303.974 428.543 303.974 428.42V423.249C303.974 422.264 303.771 421.563 303.365 421.144C302.959 420.713 302.423 420.498 301.758 420.498C301.167 420.498 300.657 420.719 300.226 421.162C299.807 421.593 299.598 422.289 299.598 423.249V428.42C299.598 428.543 299.555 428.648 299.469 428.734C299.395 428.808 299.296 428.844 299.173 428.844H298.361C298.237 428.844 298.133 428.808 298.047 428.734C297.973 428.648 297.936 428.543 297.936 428.42V423.249C297.936 422.277 297.72 421.575 297.29 421.144C296.871 420.713 296.348 420.498 295.72 420.498C295.129 420.498 294.618 420.713 294.187 421.144C293.769 421.575 293.559 422.27 293.559 423.231V428.42C293.559 428.543 293.516 428.648 293.43 428.734C293.356 428.808 293.258 428.844 293.135 428.844H292.322ZM312.094 429.029C310.838 429.029 309.835 428.641 309.084 427.866C308.333 427.078 307.921 426.007 307.847 424.653L307.828 424.025L307.847 423.415C307.921 422.086 308.333 421.027 309.084 420.239C309.835 419.451 310.838 419.057 312.094 419.057C313.448 419.057 314.495 419.488 315.233 420.35C315.984 421.212 316.36 422.381 316.36 423.859V424.191C316.36 424.314 316.317 424.419 316.23 424.505C316.157 424.579 316.058 424.616 315.935 424.616H309.527V424.782C309.564 425.582 309.81 426.265 310.266 426.832C310.721 427.398 311.324 427.681 312.075 427.681C312.654 427.681 313.122 427.57 313.479 427.349C313.848 427.115 314.125 426.875 314.31 426.629C314.421 426.481 314.507 426.395 314.568 426.37C314.63 426.333 314.735 426.315 314.882 426.315H315.695C315.806 426.315 315.898 426.345 315.972 426.407C316.058 426.468 316.101 426.549 316.101 426.647C316.101 426.918 315.935 427.244 315.603 427.626C315.27 428.007 314.796 428.34 314.181 428.623C313.577 428.894 312.882 429.029 312.094 429.029ZM314.679 423.36V423.305C314.679 422.443 314.445 421.741 313.977 421.199C313.51 420.658 312.882 420.387 312.094 420.387C311.294 420.387 310.666 420.658 310.21 421.199C309.755 421.741 309.527 422.443 309.527 423.305V423.36H314.679Z" fill="white"/>
<g id="ic-linkedin">
<path id="Vector_2" d="M201.319 403.381H165.925C165.074 403.381 164.386 404.068 164.386 404.92V440.313C164.386 441.165 165.074 441.852 165.925 441.852H201.319C202.17 441.852 202.857 441.165 202.857 440.313V404.92C202.857 404.068 202.17 403.381 201.319 403.381ZM175.798 436.163H170.089V417.803H175.798V436.163ZM172.946 415.292C172.292 415.292 171.652 415.098 171.108 414.735C170.564 414.371 170.14 413.855 169.889 413.25C169.639 412.645 169.573 411.98 169.701 411.338C169.829 410.697 170.144 410.107 170.606 409.644C171.069 409.182 171.659 408.867 172.3 408.739C172.942 408.611 173.607 408.677 174.212 408.927C174.817 409.178 175.333 409.602 175.697 410.146C176.06 410.69 176.254 411.33 176.254 411.984C176.25 413.811 174.768 415.292 172.946 415.292ZM197.169 436.163H191.465V427.233C191.465 425.103 191.427 422.366 188.498 422.366C185.531 422.366 185.074 424.684 185.074 427.079V436.163H179.375V417.803H184.848V420.313H184.925C185.685 418.87 187.546 417.346 190.325 417.346C196.106 417.346 197.169 421.15 197.169 426.093V436.163V436.163Z" fill="white"/>
</g>
</g>
</g>
</g>
<defs>
<linearGradient id="paint0_linear" x1="412.912" y1="222.565" x2="412.912" y2="248.725" gradientUnits="userSpaceOnUse">
<stop offset="0.348958" stop-color="#E7AC14"/>
<stop offset="0.510417" stop-color="white"/>
<stop offset="0.697917" stop-color="#2AA236"/>
</linearGradient>
</defs>
</svg>
