<svg width="100%" height="100%" viewBox="0 0 360 823" fill="none" xmlns="http://www.w3.org/2000/svg">
<g id="mobile">
<rect width="360" height="823" fill="white"/>
<rect id="Rectangle" width="360" height="823" fill="#373737"/>
<path id="Hi, I am" opacity="0.8" d="M52.54 100C52.4467 100 52.372 99.972 52.316 99.916C52.26 99.8507 52.232 99.7713 52.232 99.678V90.536C52.232 90.4333 52.26 90.354 52.316 90.298C52.372 90.2327 52.4467 90.2 52.54 90.2H53.212C53.3147 90.2 53.394 90.2327 53.45 90.298C53.5153 90.354 53.548 90.4333 53.548 90.536V94.428H58.42V90.536C58.42 90.4333 58.448 90.354 58.504 90.298C58.5693 90.2327 58.6487 90.2 58.742 90.2H59.414C59.5167 90.2 59.596 90.2327 59.652 90.298C59.7173 90.354 59.75 90.4333 59.75 90.536V99.678C59.75 99.7713 59.7173 99.8507 59.652 99.916C59.5867 99.972 59.5073 100 59.414 100H58.742C58.6487 100 58.5693 99.972 58.504 99.916C58.448 99.8507 58.42 99.7713 58.42 99.678V95.646H53.548V99.678C53.548 99.7713 53.5153 99.8507 53.45 99.916C53.3847 99.972 53.3053 100 53.212 100H52.54ZM62.2268 91.348C62.1335 91.348 62.0541 91.32 61.9888 91.264C61.9328 91.1987 61.9048 91.1193 61.9048 91.026V90.298C61.9048 90.2047 61.9328 90.1253 61.9888 90.06C62.0541 89.9947 62.1335 89.962 62.2268 89.962H63.0528C63.1461 89.962 63.2255 89.9947 63.2908 90.06C63.3561 90.1253 63.3888 90.2047 63.3888 90.298V91.026C63.3888 91.1193 63.3561 91.1987 63.2908 91.264C63.2255 91.32 63.1461 91.348 63.0528 91.348H62.2268ZM62.3388 100C62.2455 100 62.1661 99.972 62.1008 99.916C62.0448 99.8507 62.0168 99.7713 62.0168 99.678V93.042C62.0168 92.9487 62.0448 92.874 62.1008 92.818C62.1661 92.7527 62.2455 92.72 62.3388 92.72H62.9548C63.0481 92.72 63.1228 92.7527 63.1788 92.818C63.2441 92.874 63.2768 92.9487 63.2768 93.042V99.678C63.2768 99.7713 63.2441 99.8507 63.1788 99.916C63.1228 99.972 63.0481 100 62.9548 100H62.3388ZM65.2821 101.05C65.1981 101.05 65.1327 101.022 65.0861 100.966C65.0487 100.91 65.0394 100.84 65.0581 100.756L65.3661 98.782C65.4034 98.5113 65.5341 98.376 65.7581 98.376H66.6541C66.7194 98.376 66.7754 98.404 66.8221 98.46C66.8687 98.5067 66.8921 98.558 66.8921 98.614C66.8921 98.6887 66.8734 98.768 66.8361 98.852L66.1081 100.728C66.0241 100.943 65.8934 101.05 65.7161 101.05H65.2821ZM72.788 100C72.6947 100 72.62 99.972 72.564 99.916C72.508 99.8507 72.48 99.7713 72.48 99.678V90.522C72.48 90.4287 72.508 90.354 72.564 90.298C72.62 90.2327 72.6947 90.2 72.788 90.2H73.488C73.5907 90.2 73.67 90.228 73.726 90.284C73.782 90.34 73.81 90.4193 73.81 90.522V99.678C73.81 99.7713 73.7774 99.8507 73.712 99.916C73.656 99.972 73.5814 100 73.488 100H72.788ZM81.5601 100.14C81.1028 100.14 80.6781 100.047 80.2861 99.86C79.9035 99.6733 79.5955 99.4213 79.3621 99.104C79.1381 98.7773 79.0261 98.418 79.0261 98.026C79.0261 97.41 79.2781 96.906 79.7821 96.514C80.2861 96.122 80.9721 95.8607 81.8401 95.73L83.9401 95.436V95.03C83.9401 94.0687 83.3848 93.588 82.2741 93.588C81.8448 93.588 81.4995 93.6767 81.2381 93.854C80.9768 94.022 80.7855 94.2227 80.6641 94.456C80.6268 94.5493 80.5848 94.6147 80.5381 94.652C80.5008 94.68 80.4448 94.694 80.3701 94.694H79.8241C79.7401 94.694 79.6655 94.666 79.6001 94.61C79.5441 94.5447 79.5161 94.47 79.5161 94.386C79.5161 94.1713 79.6141 93.924 79.8101 93.644C80.0155 93.3547 80.3281 93.1073 80.7481 92.902C81.1681 92.6873 81.6815 92.58 82.2881 92.58C83.3335 92.58 84.0801 92.8227 84.5281 93.308C84.9855 93.7933 85.2141 94.4 85.2141 95.128V99.678C85.2141 99.7713 85.1815 99.8507 85.1161 99.916C85.0601 99.972 84.9855 100 84.8921 100H84.2761C84.1828 100 84.1081 99.972 84.0521 99.916C83.9961 99.8507 83.9681 99.7713 83.9681 99.678V99.062C83.7628 99.37 83.4641 99.6267 83.0721 99.832C82.6801 100.037 82.1761 100.14 81.5601 100.14ZM81.8401 99.118C82.4561 99.118 82.9601 98.9173 83.3521 98.516C83.7441 98.1147 83.9401 97.5313 83.9401 96.766V96.374L82.3021 96.612C81.6301 96.7053 81.1215 96.864 80.7761 97.088C80.4308 97.312 80.2581 97.592 80.2581 97.928C80.2581 98.3107 80.4121 98.6047 80.7201 98.81C81.0375 99.0153 81.4108 99.118 81.8401 99.118ZM87.5634 100C87.4701 100 87.3907 99.972 87.3254 99.916C87.2694 99.8507 87.2414 99.7713 87.2414 99.678V93.042C87.2414 92.9487 87.2694 92.874 87.3254 92.818C87.3907 92.7527 87.4701 92.72 87.5634 92.72H88.1514C88.2447 92.72 88.3194 92.7527 88.3754 92.818C88.4314 92.874 88.4594 92.9487 88.4594 93.042V93.518C88.9634 92.8927 89.6447 92.58 90.5034 92.58C91.5301 92.58 92.2581 93.0093 92.6874 93.868C92.9114 93.476 93.2287 93.1633 93.6394 92.93C94.0594 92.6967 94.5261 92.58 95.0394 92.58C95.8047 92.58 96.4301 92.8413 96.9154 93.364C97.4007 93.8867 97.6434 94.6427 97.6434 95.632V99.678C97.6434 99.7713 97.6107 99.8507 97.5454 99.916C97.4894 99.972 97.4147 100 97.3214 100H96.7194C96.6261 100 96.5467 99.972 96.4814 99.916C96.4254 99.8507 96.3974 99.7713 96.3974 99.678V95.758C96.3974 95.0113 96.2434 94.4793 95.9354 94.162C95.6274 93.8353 95.2214 93.672 94.7174 93.672C94.2694 93.672 93.8821 93.84 93.5554 94.176C93.2381 94.5027 93.0794 95.03 93.0794 95.758V99.678C93.0794 99.7713 93.0467 99.8507 92.9814 99.916C92.9254 99.972 92.8507 100 92.7574 100H92.1414C92.0481 100 91.9687 99.972 91.9034 99.916C91.8474 99.8507 91.8194 99.7713 91.8194 99.678V95.758C91.8194 95.0207 91.6561 94.4887 91.3294 94.162C91.0121 93.8353 90.6154 93.672 90.1394 93.672C89.6914 93.672 89.3041 93.8353 88.9774 94.162C88.6601 94.4887 88.5014 95.016 88.5014 95.744V99.678C88.5014 99.7713 88.4687 99.8507 88.4034 99.916C88.3474 99.972 88.2727 100 88.1794 100H87.5634Z" fill="white"/>
<g id="Group 2">
<path id="A digital designer from" opacity="0.7" d="M51.56 166C51.4853 166 51.42 165.972 51.364 165.916C51.308 165.86 51.28 165.795 51.28 165.72L51.308 165.566L54.78 156.508C54.8547 156.303 55.004 156.2 55.228 156.2H56.124C56.348 156.2 56.4973 156.303 56.572 156.508L60.044 165.566L60.072 165.72C60.072 165.795 60.0393 165.86 59.974 165.916C59.918 165.972 59.8527 166 59.778 166H59.12C59.0267 166 58.9473 165.977 58.882 165.93C58.826 165.874 58.7887 165.818 58.77 165.762L57.986 163.746H53.352L52.582 165.762C52.5073 165.921 52.3907 166 52.232 166H51.56ZM53.758 162.584H57.594L55.676 157.558L53.758 162.584ZM67.1241 166.14C66.1441 166.14 65.4067 165.823 64.9121 165.188C64.4267 164.553 64.1654 163.751 64.1281 162.78L64.1141 162.36L64.1281 161.94C64.1654 160.979 64.4314 160.181 64.9261 159.546C65.4207 158.902 66.1534 158.58 67.1241 158.58C68.0947 158.58 68.8507 158.925 69.3921 159.616V156.382C69.3921 156.289 69.4201 156.214 69.4761 156.158C69.5414 156.093 69.6207 156.06 69.7141 156.06H70.3441C70.4374 156.06 70.5121 156.093 70.5681 156.158C70.6334 156.214 70.6661 156.289 70.6661 156.382V165.678C70.6661 165.771 70.6334 165.851 70.5681 165.916C70.5121 165.972 70.4374 166 70.3441 166H69.7421C69.6487 166 69.5741 165.972 69.5181 165.916C69.4621 165.851 69.4341 165.771 69.4341 165.678V165.076C68.9021 165.785 68.1321 166.14 67.1241 166.14ZM67.3901 165.048C68.0434 165.048 68.5334 164.833 68.8601 164.404C69.1867 163.965 69.3641 163.447 69.3921 162.85C69.4014 162.747 69.4061 162.57 69.4061 162.318C69.4061 162.057 69.4014 161.875 69.3921 161.772C69.3734 161.203 69.1914 160.713 68.8461 160.302C68.5101 159.882 68.0247 159.672 67.3901 159.672C66.7181 159.672 66.2281 159.882 65.9201 160.302C65.6121 160.722 65.4441 161.273 65.4161 161.954L65.4021 162.36C65.4021 164.152 66.0647 165.048 67.3901 165.048ZM72.9866 157.348C72.8932 157.348 72.8139 157.32 72.7486 157.264C72.6926 157.199 72.6646 157.119 72.6646 157.026V156.298C72.6646 156.205 72.6926 156.125 72.7486 156.06C72.8139 155.995 72.8932 155.962 72.9866 155.962H73.8126C73.9059 155.962 73.9852 155.995 74.0506 156.06C74.1159 156.125 74.1486 156.205 74.1486 156.298V157.026C74.1486 157.119 74.1159 157.199 74.0506 157.264C73.9852 157.32 73.9059 157.348 73.8126 157.348H72.9866ZM73.0986 166C73.0052 166 72.9259 165.972 72.8606 165.916C72.8046 165.851 72.7766 165.771 72.7766 165.678V159.042C72.7766 158.949 72.8046 158.874 72.8606 158.818C72.9259 158.753 73.0052 158.72 73.0986 158.72H73.7146C73.8079 158.72 73.8826 158.753 73.9386 158.818C74.0039 158.874 74.0366 158.949 74.0366 159.042V165.678C74.0366 165.771 74.0039 165.851 73.9386 165.916C73.8826 165.972 73.8079 166 73.7146 166H73.0986ZM79.0938 169.08C78.3192 169.08 77.6985 168.949 77.2318 168.688C76.7652 168.427 76.4338 168.128 76.2378 167.792C76.0512 167.456 75.9578 167.167 75.9578 166.924C75.9578 166.84 75.9905 166.765 76.0558 166.7C76.1212 166.644 76.1958 166.616 76.2798 166.616H76.8958C76.9798 166.616 77.0498 166.635 77.1058 166.672C77.1618 166.719 77.2085 166.798 77.2458 166.91C77.5072 167.657 78.0998 168.03 79.0238 168.03C79.7238 168.03 80.2418 167.881 80.5778 167.582C80.9138 167.283 81.0818 166.756 81.0818 166V165.034C80.5405 165.725 79.7845 166.07 78.8138 166.07C77.8245 166.07 77.0825 165.753 76.5878 165.118C76.1025 164.483 75.8458 163.681 75.8178 162.71L75.8038 162.318L75.8178 161.94C75.8458 160.979 76.1025 160.181 76.5878 159.546C77.0825 158.902 77.8245 158.58 78.8138 158.58C79.7938 158.58 80.5592 158.939 81.1098 159.658V159.056C81.1098 158.963 81.1378 158.883 81.1938 158.818C81.2592 158.753 81.3385 158.72 81.4318 158.72H82.0338C82.1272 158.72 82.2018 158.753 82.2578 158.818C82.3232 158.883 82.3558 158.963 82.3558 159.056V165.846C82.3558 168.002 81.2685 169.08 79.0938 169.08ZM79.0658 164.978C79.7192 164.978 80.2092 164.768 80.5358 164.348C80.8718 163.919 81.0538 163.405 81.0818 162.808C81.0912 162.724 81.0958 162.561 81.0958 162.318C81.0958 162.085 81.0912 161.926 81.0818 161.842C81.0538 161.245 80.8718 160.736 80.5358 160.316C80.2092 159.887 79.7192 159.672 79.0658 159.672C78.3938 159.672 77.9038 159.887 77.5958 160.316C77.2972 160.736 77.1338 161.282 77.1058 161.954L77.0918 162.318L77.1058 162.696C77.1338 163.368 77.2972 163.919 77.5958 164.348C77.9038 164.768 78.3938 164.978 79.0658 164.978ZM84.676 157.348C84.5827 157.348 84.5033 157.32 84.438 157.264C84.382 157.199 84.354 157.119 84.354 157.026V156.298C84.354 156.205 84.382 156.125 84.438 156.06C84.5033 155.995 84.5827 155.962 84.676 155.962H85.502C85.5953 155.962 85.6747 155.995 85.74 156.06C85.8053 156.125 85.838 156.205 85.838 156.298V157.026C85.838 157.119 85.8053 157.199 85.74 157.264C85.6747 157.32 85.5953 157.348 85.502 157.348H84.676ZM84.788 166C84.6947 166 84.6153 165.972 84.55 165.916C84.494 165.851 84.466 165.771 84.466 165.678V159.042C84.466 158.949 84.494 158.874 84.55 158.818C84.6153 158.753 84.6947 158.72 84.788 158.72H85.404C85.4973 158.72 85.572 158.753 85.628 158.818C85.6933 158.874 85.726 158.949 85.726 159.042V165.678C85.726 165.771 85.6933 165.851 85.628 165.916C85.572 165.972 85.4973 166 85.404 166H84.788ZM90.6293 166C89.1826 166 88.4593 165.183 88.4593 163.55V159.798H87.3533C87.26 159.798 87.1853 159.77 87.1293 159.714C87.0733 159.658 87.0453 159.583 87.0453 159.49V159.042C87.0453 158.949 87.0733 158.874 87.1293 158.818C87.1853 158.753 87.26 158.72 87.3533 158.72H88.4593V156.382C88.4593 156.289 88.4873 156.214 88.5433 156.158C88.5993 156.093 88.674 156.06 88.7673 156.06H89.3833C89.4766 156.06 89.5513 156.093 89.6073 156.158C89.6726 156.214 89.7053 156.289 89.7053 156.382V158.72H91.4413C91.5346 158.72 91.6093 158.753 91.6653 158.818C91.7306 158.874 91.7633 158.949 91.7633 159.042V159.49C91.7633 159.583 91.7306 159.658 91.6653 159.714C91.6093 159.77 91.5346 159.798 91.4413 159.798H89.7053V163.452C89.7053 163.928 89.78 164.287 89.9293 164.53C90.088 164.773 90.354 164.894 90.7273 164.894H91.5813C91.6746 164.894 91.7493 164.927 91.8053 164.992C91.8613 165.048 91.8893 165.123 91.8893 165.216V165.678C91.8893 165.771 91.8613 165.851 91.8053 165.916C91.7493 165.972 91.6746 166 91.5813 166H90.6293ZM95.273 166.14C94.8157 166.14 94.391 166.047 93.999 165.86C93.6164 165.673 93.3084 165.421 93.075 165.104C92.851 164.777 92.739 164.418 92.739 164.026C92.739 163.41 92.991 162.906 93.495 162.514C93.999 162.122 94.685 161.861 95.553 161.73L97.653 161.436V161.03C97.653 160.069 97.0977 159.588 95.987 159.588C95.5577 159.588 95.2124 159.677 94.951 159.854C94.6897 160.022 94.4984 160.223 94.377 160.456C94.3397 160.549 94.2977 160.615 94.251 160.652C94.2137 160.68 94.1577 160.694 94.083 160.694H93.537C93.453 160.694 93.3784 160.666 93.313 160.61C93.257 160.545 93.229 160.47 93.229 160.386C93.229 160.171 93.327 159.924 93.523 159.644C93.7284 159.355 94.041 159.107 94.461 158.902C94.881 158.687 95.3944 158.58 96.001 158.58C97.0464 158.58 97.793 158.823 98.241 159.308C98.6984 159.793 98.927 160.4 98.927 161.128V165.678C98.927 165.771 98.8944 165.851 98.829 165.916C98.773 165.972 98.6984 166 98.605 166H97.989C97.8957 166 97.821 165.972 97.765 165.916C97.709 165.851 97.681 165.771 97.681 165.678V165.062C97.4757 165.37 97.177 165.627 96.785 165.832C96.393 166.037 95.889 166.14 95.273 166.14ZM95.553 165.118C96.169 165.118 96.673 164.917 97.065 164.516C97.457 164.115 97.653 163.531 97.653 162.766V162.374L96.015 162.612C95.343 162.705 94.8344 162.864 94.489 163.088C94.1437 163.312 93.971 163.592 93.971 163.928C93.971 164.311 94.125 164.605 94.433 164.81C94.7504 165.015 95.1237 165.118 95.553 165.118ZM101.29 166C101.197 166 101.118 165.972 101.052 165.916C100.996 165.851 100.968 165.771 100.968 165.678V156.382C100.968 156.279 100.996 156.2 101.052 156.144C101.118 156.088 101.197 156.06 101.29 156.06H101.906C102 156.06 102.074 156.093 102.13 156.158C102.196 156.214 102.228 156.289 102.228 156.382V165.678C102.228 165.771 102.196 165.851 102.13 165.916C102.074 165.972 102 166 101.906 166H101.29ZM110.437 166.14C109.457 166.14 108.719 165.823 108.225 165.188C107.739 164.553 107.478 163.751 107.441 162.78L107.427 162.36L107.441 161.94C107.478 160.979 107.744 160.181 108.239 159.546C108.733 158.902 109.466 158.58 110.437 158.58C111.407 158.58 112.163 158.925 112.705 159.616V156.382C112.705 156.289 112.733 156.214 112.789 156.158C112.854 156.093 112.933 156.06 113.027 156.06H113.657C113.75 156.06 113.825 156.093 113.881 156.158C113.946 156.214 113.979 156.289 113.979 156.382V165.678C113.979 165.771 113.946 165.851 113.881 165.916C113.825 165.972 113.75 166 113.657 166H113.055C112.961 166 112.887 165.972 112.831 165.916C112.775 165.851 112.747 165.771 112.747 165.678V165.076C112.215 165.785 111.445 166.14 110.437 166.14ZM110.703 165.048C111.356 165.048 111.846 164.833 112.173 164.404C112.499 163.965 112.677 163.447 112.705 162.85C112.714 162.747 112.719 162.57 112.719 162.318C112.719 162.057 112.714 161.875 112.705 161.772C112.686 161.203 112.504 160.713 112.159 160.302C111.823 159.882 111.337 159.672 110.703 159.672C110.031 159.672 109.541 159.882 109.233 160.302C108.925 160.722 108.757 161.273 108.729 161.954L108.715 162.36C108.715 164.152 109.377 165.048 110.703 165.048ZM118.973 166.14C118.021 166.14 117.26 165.846 116.691 165.258C116.122 164.661 115.809 163.849 115.753 162.822L115.739 162.346L115.753 161.884C115.809 160.876 116.122 160.073 116.691 159.476C117.26 158.879 118.021 158.58 118.973 158.58C120 158.58 120.793 158.907 121.353 159.56C121.922 160.213 122.207 161.1 122.207 162.22V162.472C122.207 162.565 122.174 162.645 122.109 162.71C122.053 162.766 121.978 162.794 121.885 162.794H117.027V162.92C117.055 163.527 117.242 164.045 117.587 164.474C117.932 164.903 118.39 165.118 118.959 165.118C119.398 165.118 119.752 165.034 120.023 164.866C120.303 164.689 120.513 164.507 120.653 164.32C120.737 164.208 120.802 164.143 120.849 164.124C120.896 164.096 120.975 164.082 121.087 164.082H121.703C121.787 164.082 121.857 164.105 121.913 164.152C121.978 164.199 122.011 164.259 122.011 164.334C122.011 164.539 121.885 164.787 121.633 165.076C121.381 165.365 121.022 165.617 120.555 165.832C120.098 166.037 119.57 166.14 118.973 166.14ZM120.933 161.842V161.8C120.933 161.147 120.756 160.615 120.401 160.204C120.046 159.793 119.57 159.588 118.973 159.588C118.366 159.588 117.89 159.793 117.545 160.204C117.2 160.615 117.027 161.147 117.027 161.8V161.842H120.933ZM126.401 166.14C125.757 166.14 125.211 166.037 124.763 165.832C124.325 165.617 123.998 165.375 123.783 165.104C123.569 164.833 123.461 164.609 123.461 164.432C123.461 164.339 123.494 164.269 123.559 164.222C123.625 164.166 123.695 164.138 123.769 164.138H124.357C124.413 164.138 124.455 164.147 124.483 164.166C124.521 164.185 124.567 164.227 124.623 164.292C124.838 164.553 125.076 164.759 125.337 164.908C125.608 165.057 125.967 165.132 126.415 165.132C126.919 165.132 127.321 165.039 127.619 164.852C127.927 164.665 128.081 164.395 128.081 164.04C128.081 163.807 128.016 163.62 127.885 163.48C127.755 163.34 127.535 163.214 127.227 163.102C126.929 162.99 126.481 162.869 125.883 162.738C125.071 162.561 124.497 162.304 124.161 161.968C123.825 161.632 123.657 161.198 123.657 160.666C123.657 160.321 123.76 159.989 123.965 159.672C124.171 159.345 124.474 159.084 124.875 158.888C125.286 158.683 125.771 158.58 126.331 158.58C126.919 158.58 127.419 158.678 127.829 158.874C128.249 159.07 128.562 159.299 128.767 159.56C128.982 159.821 129.089 160.041 129.089 160.218C129.089 160.302 129.057 160.372 128.991 160.428C128.935 160.484 128.865 160.512 128.781 160.512H128.249C128.119 160.512 128.025 160.461 127.969 160.358C127.811 160.181 127.675 160.045 127.563 159.952C127.461 159.849 127.307 159.765 127.101 159.7C126.896 159.625 126.639 159.588 126.331 159.588C125.874 159.588 125.524 159.686 125.281 159.882C125.039 160.069 124.917 160.321 124.917 160.638C124.917 160.834 124.969 161.002 125.071 161.142C125.174 161.273 125.37 161.399 125.659 161.52C125.949 161.632 126.378 161.749 126.947 161.87C127.834 162.057 128.459 162.323 128.823 162.668C129.197 163.013 129.383 163.457 129.383 163.998C129.383 164.399 129.267 164.763 129.033 165.09C128.809 165.417 128.469 165.673 128.011 165.86C127.563 166.047 127.027 166.14 126.401 166.14ZM131.229 157.348C131.135 157.348 131.056 157.32 130.991 157.264C130.935 157.199 130.907 157.119 130.907 157.026V156.298C130.907 156.205 130.935 156.125 130.991 156.06C131.056 155.995 131.135 155.962 131.229 155.962H132.055C132.148 155.962 132.227 155.995 132.293 156.06C132.358 156.125 132.391 156.205 132.391 156.298V157.026C132.391 157.119 132.358 157.199 132.293 157.264C132.227 157.32 132.148 157.348 132.055 157.348H131.229ZM131.341 166C131.247 166 131.168 165.972 131.103 165.916C131.047 165.851 131.019 165.771 131.019 165.678V159.042C131.019 158.949 131.047 158.874 131.103 158.818C131.168 158.753 131.247 158.72 131.341 158.72H131.957C132.05 158.72 132.125 158.753 132.181 158.818C132.246 158.874 132.279 158.949 132.279 159.042V165.678C132.279 165.771 132.246 165.851 132.181 165.916C132.125 165.972 132.05 166 131.957 166H131.341ZM137.336 169.08C136.561 169.08 135.941 168.949 135.474 168.688C135.007 168.427 134.676 168.128 134.48 167.792C134.293 167.456 134.2 167.167 134.2 166.924C134.2 166.84 134.233 166.765 134.298 166.7C134.363 166.644 134.438 166.616 134.522 166.616H135.138C135.222 166.616 135.292 166.635 135.348 166.672C135.404 166.719 135.451 166.798 135.488 166.91C135.749 167.657 136.342 168.03 137.266 168.03C137.966 168.03 138.484 167.881 138.82 167.582C139.156 167.283 139.324 166.756 139.324 166V165.034C138.783 165.725 138.027 166.07 137.056 166.07C136.067 166.07 135.325 165.753 134.83 165.118C134.345 164.483 134.088 163.681 134.06 162.71L134.046 162.318L134.06 161.94C134.088 160.979 134.345 160.181 134.83 159.546C135.325 158.902 136.067 158.58 137.056 158.58C138.036 158.58 138.801 158.939 139.352 159.658V159.056C139.352 158.963 139.38 158.883 139.436 158.818C139.501 158.753 139.581 158.72 139.674 158.72H140.276C140.369 158.72 140.444 158.753 140.5 158.818C140.565 158.883 140.598 158.963 140.598 159.056V165.846C140.598 168.002 139.511 169.08 137.336 169.08ZM137.308 164.978C137.961 164.978 138.451 164.768 138.778 164.348C139.114 163.919 139.296 163.405 139.324 162.808C139.333 162.724 139.338 162.561 139.338 162.318C139.338 162.085 139.333 161.926 139.324 161.842C139.296 161.245 139.114 160.736 138.778 160.316C138.451 159.887 137.961 159.672 137.308 159.672C136.636 159.672 136.146 159.887 135.838 160.316C135.539 160.736 135.376 161.282 135.348 161.954L135.334 162.318L135.348 162.696C135.376 163.368 135.539 163.919 135.838 164.348C136.146 164.768 136.636 164.978 137.308 164.978ZM143.03 166C142.937 166 142.858 165.972 142.792 165.916C142.736 165.851 142.708 165.771 142.708 165.678V159.042C142.708 158.949 142.736 158.874 142.792 158.818C142.858 158.753 142.937 158.72 143.03 158.72H143.632C143.735 158.72 143.814 158.748 143.87 158.804C143.926 158.86 143.954 158.939 143.954 159.042V159.658C144.234 159.313 144.556 159.047 144.92 158.86C145.294 158.673 145.756 158.58 146.306 158.58C147.202 158.58 147.898 158.869 148.392 159.448C148.887 160.017 149.134 160.773 149.134 161.716V165.678C149.134 165.771 149.102 165.851 149.036 165.916C148.98 165.972 148.906 166 148.812 166H148.168C148.075 166 147.996 165.972 147.93 165.916C147.874 165.851 147.846 165.771 147.846 165.678V161.8C147.846 161.128 147.683 160.605 147.356 160.232C147.03 159.859 146.563 159.672 145.956 159.672C145.359 159.672 144.883 159.863 144.528 160.246C144.174 160.619 143.996 161.137 143.996 161.8V165.678C143.996 165.771 143.964 165.851 143.898 165.916C143.842 165.972 143.768 166 143.674 166H143.03ZM154.041 166.14C153.089 166.14 152.329 165.846 151.759 165.258C151.19 164.661 150.877 163.849 150.821 162.822L150.807 162.346L150.821 161.884C150.877 160.876 151.19 160.073 151.759 159.476C152.329 158.879 153.089 158.58 154.041 158.58C155.068 158.58 155.861 158.907 156.421 159.56C156.991 160.213 157.275 161.1 157.275 162.22V162.472C157.275 162.565 157.243 162.645 157.177 162.71C157.121 162.766 157.047 162.794 156.953 162.794H152.095V162.92C152.123 163.527 152.31 164.045 152.655 164.474C153.001 164.903 153.458 165.118 154.027 165.118C154.466 165.118 154.821 165.034 155.091 164.866C155.371 164.689 155.581 164.507 155.721 164.32C155.805 164.208 155.871 164.143 155.917 164.124C155.964 164.096 156.043 164.082 156.155 164.082H156.771C156.855 164.082 156.925 164.105 156.981 164.152C157.047 164.199 157.079 164.259 157.079 164.334C157.079 164.539 156.953 164.787 156.701 165.076C156.449 165.365 156.09 165.617 155.623 165.832C155.166 166.037 154.639 166.14 154.041 166.14ZM156.001 161.842V161.8C156.001 161.147 155.824 160.615 155.469 160.204C155.115 159.793 154.639 159.588 154.041 159.588C153.435 159.588 152.959 159.793 152.613 160.204C152.268 160.615 152.095 161.147 152.095 161.8V161.842H156.001ZM159.3 166C159.206 166 159.127 165.972 159.062 165.916C159.006 165.851 158.978 165.771 158.978 165.678V159.056C158.978 158.963 159.006 158.883 159.062 158.818C159.127 158.753 159.206 158.72 159.3 158.72H159.888C159.99 158.72 160.07 158.753 160.126 158.818C160.191 158.874 160.224 158.953 160.224 159.056V159.672C160.606 159.037 161.255 158.72 162.17 158.72H162.716C162.818 158.72 162.898 158.748 162.954 158.804C163.01 158.86 163.038 158.939 163.038 159.042V159.56C163.038 159.653 163.01 159.733 162.954 159.798C162.898 159.854 162.818 159.882 162.716 159.882H161.918C161.404 159.882 160.998 160.031 160.7 160.33C160.41 160.629 160.266 161.035 160.266 161.548V165.678C160.266 165.771 160.233 165.851 160.168 165.916C160.102 165.972 160.023 166 159.93 166H159.3ZM168.149 166C168.055 166 167.976 165.972 167.911 165.916C167.855 165.851 167.827 165.771 167.827 165.678V159.798H166.623C166.529 159.798 166.45 159.77 166.385 159.714C166.329 159.658 166.301 159.583 166.301 159.49V159.042C166.301 158.949 166.329 158.874 166.385 158.818C166.45 158.753 166.529 158.72 166.623 158.72H167.827V158.02C167.827 157.264 168.009 156.681 168.373 156.27C168.746 155.85 169.353 155.64 170.193 155.64H171.019C171.112 155.64 171.187 155.673 171.243 155.738C171.308 155.794 171.341 155.869 171.341 155.962V156.41C171.341 156.503 171.308 156.578 171.243 156.634C171.187 156.69 171.112 156.718 171.019 156.718H170.221C169.791 156.718 169.493 156.83 169.325 157.054C169.157 157.278 169.073 157.623 169.073 158.09V158.72H170.879C170.972 158.72 171.047 158.753 171.103 158.818C171.168 158.874 171.201 158.949 171.201 159.042V159.49C171.201 159.583 171.168 159.658 171.103 159.714C171.047 159.77 170.972 159.798 170.879 159.798H169.073V165.678C169.073 165.771 169.04 165.851 168.975 165.916C168.919 165.972 168.844 166 168.751 166H168.149ZM172.767 166C172.673 166 172.594 165.972 172.529 165.916C172.473 165.851 172.445 165.771 172.445 165.678V159.056C172.445 158.963 172.473 158.883 172.529 158.818C172.594 158.753 172.673 158.72 172.767 158.72H173.355C173.457 158.72 173.537 158.753 173.593 158.818C173.658 158.874 173.691 158.953 173.691 159.056V159.672C174.073 159.037 174.722 158.72 175.637 158.72H176.183C176.285 158.72 176.365 158.748 176.421 158.804C176.477 158.86 176.505 158.939 176.505 159.042V159.56C176.505 159.653 176.477 159.733 176.421 159.798C176.365 159.854 176.285 159.882 176.183 159.882H175.385C174.871 159.882 174.465 160.031 174.167 160.33C173.877 160.629 173.733 161.035 173.733 161.548V165.678C173.733 165.771 173.7 165.851 173.635 165.916C173.569 165.972 173.49 166 173.397 166H172.767ZM180.525 166.14C179.499 166.14 178.705 165.851 178.145 165.272C177.595 164.693 177.301 163.923 177.263 162.962L177.249 162.36L177.263 161.758C177.301 160.797 177.599 160.027 178.159 159.448C178.729 158.869 179.517 158.58 180.525 158.58C181.533 158.58 182.317 158.869 182.877 159.448C183.447 160.027 183.75 160.797 183.787 161.758C183.806 161.963 183.815 162.164 183.815 162.36C183.815 162.556 183.806 162.757 183.787 162.962C183.75 163.923 183.451 164.693 182.891 165.272C182.341 165.851 181.552 166.14 180.525 166.14ZM180.525 165.09C181.123 165.09 181.594 164.903 181.939 164.53C182.294 164.147 182.485 163.601 182.513 162.892C182.523 162.799 182.527 162.621 182.527 162.36C182.527 162.099 182.523 161.921 182.513 161.828C182.485 161.119 182.294 160.577 181.939 160.204C181.594 159.821 181.123 159.63 180.525 159.63C179.928 159.63 179.452 159.821 179.097 160.204C178.752 160.577 178.565 161.119 178.537 161.828L178.523 162.36L178.537 162.892C178.565 163.601 178.752 164.147 179.097 164.53C179.452 164.903 179.928 165.09 180.525 165.09ZM185.905 166C185.812 166 185.733 165.972 185.667 165.916C185.611 165.851 185.583 165.771 185.583 165.678V159.042C185.583 158.949 185.611 158.874 185.667 158.818C185.733 158.753 185.812 158.72 185.905 158.72H186.493C186.587 158.72 186.661 158.753 186.717 158.818C186.773 158.874 186.801 158.949 186.801 159.042V159.518C187.305 158.893 187.987 158.58 188.845 158.58C189.872 158.58 190.6 159.009 191.029 159.868C191.253 159.476 191.571 159.163 191.981 158.93C192.401 158.697 192.868 158.58 193.381 158.58C194.147 158.58 194.772 158.841 195.257 159.364C195.743 159.887 195.985 160.643 195.985 161.632V165.678C195.985 165.771 195.953 165.851 195.887 165.916C195.831 165.972 195.757 166 195.663 166H195.061C194.968 166 194.889 165.972 194.823 165.916C194.767 165.851 194.739 165.771 194.739 165.678V161.758C194.739 161.011 194.585 160.479 194.277 160.162C193.969 159.835 193.563 159.672 193.059 159.672C192.611 159.672 192.224 159.84 191.897 160.176C191.58 160.503 191.421 161.03 191.421 161.758V165.678C191.421 165.771 191.389 165.851 191.323 165.916C191.267 165.972 191.193 166 191.099 166H190.483C190.39 166 190.311 165.972 190.245 165.916C190.189 165.851 190.161 165.771 190.161 165.678V161.758C190.161 161.021 189.998 160.489 189.671 160.162C189.354 159.835 188.957 159.672 188.481 159.672C188.033 159.672 187.646 159.835 187.319 160.162C187.002 160.489 186.843 161.016 186.843 161.744V165.678C186.843 165.771 186.811 165.851 186.745 165.916C186.689 165.972 186.615 166 186.521 166H185.905Z" fill="white"/>
<g id="India" opacity="0.9">
<path d="M201.54 166C201.447 166 201.372 165.972 201.316 165.916C201.26 165.851 201.232 165.771 201.232 165.678V156.522C201.232 156.429 201.26 156.354 201.316 156.298C201.372 156.233 201.447 156.2 201.54 156.2H202.24C202.343 156.2 202.422 156.228 202.478 156.284C202.534 156.34 202.562 156.419 202.562 156.522V165.678C202.562 165.771 202.529 165.851 202.464 165.916C202.408 165.972 202.333 166 202.24 166H201.54ZM205.173 166C205.079 166 205 165.972 204.935 165.916C204.879 165.851 204.851 165.771 204.851 165.678V159.042C204.851 158.949 204.879 158.874 204.935 158.818C205 158.753 205.079 158.72 205.173 158.72H205.775C205.877 158.72 205.957 158.748 206.013 158.804C206.069 158.86 206.097 158.939 206.097 159.042V159.658C206.377 159.313 206.699 159.047 207.063 158.86C207.436 158.673 207.898 158.58 208.449 158.58C209.345 158.58 210.04 158.869 210.535 159.448C211.029 160.017 211.277 160.773 211.277 161.716V165.678C211.277 165.771 211.244 165.851 211.179 165.916C211.123 165.972 211.048 166 210.955 166H210.311C210.217 166 210.138 165.972 210.073 165.916C210.017 165.851 209.989 165.771 209.989 165.678V161.8C209.989 161.128 209.825 160.605 209.499 160.232C209.172 159.859 208.705 159.672 208.099 159.672C207.501 159.672 207.025 159.863 206.671 160.246C206.316 160.619 206.139 161.137 206.139 161.8V165.678C206.139 165.771 206.106 165.851 206.041 165.916C205.985 165.972 205.91 166 205.817 166H205.173ZM215.96 166.14C214.98 166.14 214.243 165.823 213.748 165.188C213.263 164.553 213.001 163.751 212.964 162.78L212.95 162.36L212.964 161.94C213.001 160.979 213.267 160.181 213.762 159.546C214.257 158.902 214.989 158.58 215.96 158.58C216.931 158.58 217.687 158.925 218.228 159.616V156.382C218.228 156.289 218.256 156.214 218.312 156.158C218.377 156.093 218.457 156.06 218.55 156.06H219.18C219.273 156.06 219.348 156.093 219.404 156.158C219.469 156.214 219.502 156.289 219.502 156.382V165.678C219.502 165.771 219.469 165.851 219.404 165.916C219.348 165.972 219.273 166 219.18 166H218.578C218.485 166 218.41 165.972 218.354 165.916C218.298 165.851 218.27 165.771 218.27 165.678V165.076C217.738 165.785 216.968 166.14 215.96 166.14ZM216.226 165.048C216.879 165.048 217.369 164.833 217.696 164.404C218.023 163.965 218.2 163.447 218.228 162.85C218.237 162.747 218.242 162.57 218.242 162.318C218.242 162.057 218.237 161.875 218.228 161.772C218.209 161.203 218.027 160.713 217.682 160.302C217.346 159.882 216.861 159.672 216.226 159.672C215.554 159.672 215.064 159.882 214.756 160.302C214.448 160.722 214.28 161.273 214.252 161.954L214.238 162.36C214.238 164.152 214.901 165.048 216.226 165.048ZM221.823 157.348C221.729 157.348 221.65 157.32 221.585 157.264C221.529 157.199 221.501 157.119 221.501 157.026V156.298C221.501 156.205 221.529 156.125 221.585 156.06C221.65 155.995 221.729 155.962 221.823 155.962H222.649C222.742 155.962 222.821 155.995 222.887 156.06C222.952 156.125 222.985 156.205 222.985 156.298V157.026C222.985 157.119 222.952 157.199 222.887 157.264C222.821 157.32 222.742 157.348 222.649 157.348H221.823ZM221.935 166C221.841 166 221.762 165.972 221.697 165.916C221.641 165.851 221.613 165.771 221.613 165.678V159.042C221.613 158.949 221.641 158.874 221.697 158.818C221.762 158.753 221.841 158.72 221.935 158.72H222.551C222.644 158.72 222.719 158.753 222.775 158.818C222.84 158.874 222.873 158.949 222.873 159.042V165.678C222.873 165.771 222.84 165.851 222.775 165.916C222.719 165.972 222.644 166 222.551 166H221.935ZM226.992 166.14C226.534 166.14 226.11 166.047 225.718 165.86C225.335 165.673 225.027 165.421 224.794 165.104C224.57 164.777 224.458 164.418 224.458 164.026C224.458 163.41 224.71 162.906 225.214 162.514C225.718 162.122 226.404 161.861 227.272 161.73L229.372 161.436V161.03C229.372 160.069 228.816 159.588 227.706 159.588C227.276 159.588 226.931 159.677 226.67 159.854C226.408 160.022 226.217 160.223 226.096 160.456C226.058 160.549 226.016 160.615 225.97 160.652C225.932 160.68 225.876 160.694 225.802 160.694H225.256C225.172 160.694 225.097 160.666 225.032 160.61C224.976 160.545 224.948 160.47 224.948 160.386C224.948 160.171 225.046 159.924 225.242 159.644C225.447 159.355 225.76 159.107 226.18 158.902C226.6 158.687 227.113 158.58 227.72 158.58C228.765 158.58 229.512 158.823 229.96 159.308C230.417 159.793 230.646 160.4 230.646 161.128V165.678C230.646 165.771 230.613 165.851 230.548 165.916C230.492 165.972 230.417 166 230.324 166H229.708C229.614 166 229.54 165.972 229.484 165.916C229.428 165.851 229.4 165.771 229.4 165.678V165.062C229.194 165.37 228.896 165.627 228.504 165.832C228.112 166.037 227.608 166.14 226.992 166.14ZM227.272 165.118C227.888 165.118 228.392 164.917 228.784 164.516C229.176 164.115 229.372 163.531 229.372 162.766V162.374L227.734 162.612C227.062 162.705 226.553 162.864 226.208 163.088C225.862 163.312 225.69 163.592 225.69 163.928C225.69 164.311 225.844 164.605 226.152 164.81C226.469 165.015 226.842 165.118 227.272 165.118Z" fill="black"/>
<path d="M201.54 166C201.447 166 201.372 165.972 201.316 165.916C201.26 165.851 201.232 165.771 201.232 165.678V156.522C201.232 156.429 201.26 156.354 201.316 156.298C201.372 156.233 201.447 156.2 201.54 156.2H202.24C202.343 156.2 202.422 156.228 202.478 156.284C202.534 156.34 202.562 156.419 202.562 156.522V165.678C202.562 165.771 202.529 165.851 202.464 165.916C202.408 165.972 202.333 166 202.24 166H201.54ZM205.173 166C205.079 166 205 165.972 204.935 165.916C204.879 165.851 204.851 165.771 204.851 165.678V159.042C204.851 158.949 204.879 158.874 204.935 158.818C205 158.753 205.079 158.72 205.173 158.72H205.775C205.877 158.72 205.957 158.748 206.013 158.804C206.069 158.86 206.097 158.939 206.097 159.042V159.658C206.377 159.313 206.699 159.047 207.063 158.86C207.436 158.673 207.898 158.58 208.449 158.58C209.345 158.58 210.04 158.869 210.535 159.448C211.029 160.017 211.277 160.773 211.277 161.716V165.678C211.277 165.771 211.244 165.851 211.179 165.916C211.123 165.972 211.048 166 210.955 166H210.311C210.217 166 210.138 165.972 210.073 165.916C210.017 165.851 209.989 165.771 209.989 165.678V161.8C209.989 161.128 209.825 160.605 209.499 160.232C209.172 159.859 208.705 159.672 208.099 159.672C207.501 159.672 207.025 159.863 206.671 160.246C206.316 160.619 206.139 161.137 206.139 161.8V165.678C206.139 165.771 206.106 165.851 206.041 165.916C205.985 165.972 205.91 166 205.817 166H205.173ZM215.96 166.14C214.98 166.14 214.243 165.823 213.748 165.188C213.263 164.553 213.001 163.751 212.964 162.78L212.95 162.36L212.964 161.94C213.001 160.979 213.267 160.181 213.762 159.546C214.257 158.902 214.989 158.58 215.96 158.58C216.931 158.58 217.687 158.925 218.228 159.616V156.382C218.228 156.289 218.256 156.214 218.312 156.158C218.377 156.093 218.457 156.06 218.55 156.06H219.18C219.273 156.06 219.348 156.093 219.404 156.158C219.469 156.214 219.502 156.289 219.502 156.382V165.678C219.502 165.771 219.469 165.851 219.404 165.916C219.348 165.972 219.273 166 219.18 166H218.578C218.485 166 218.41 165.972 218.354 165.916C218.298 165.851 218.27 165.771 218.27 165.678V165.076C217.738 165.785 216.968 166.14 215.96 166.14ZM216.226 165.048C216.879 165.048 217.369 164.833 217.696 164.404C218.023 163.965 218.2 163.447 218.228 162.85C218.237 162.747 218.242 162.57 218.242 162.318C218.242 162.057 218.237 161.875 218.228 161.772C218.209 161.203 218.027 160.713 217.682 160.302C217.346 159.882 216.861 159.672 216.226 159.672C215.554 159.672 215.064 159.882 214.756 160.302C214.448 160.722 214.28 161.273 214.252 161.954L214.238 162.36C214.238 164.152 214.901 165.048 216.226 165.048ZM221.823 157.348C221.729 157.348 221.65 157.32 221.585 157.264C221.529 157.199 221.501 157.119 221.501 157.026V156.298C221.501 156.205 221.529 156.125 221.585 156.06C221.65 155.995 221.729 155.962 221.823 155.962H222.649C222.742 155.962 222.821 155.995 222.887 156.06C222.952 156.125 222.985 156.205 222.985 156.298V157.026C222.985 157.119 222.952 157.199 222.887 157.264C222.821 157.32 222.742 157.348 222.649 157.348H221.823ZM221.935 166C221.841 166 221.762 165.972 221.697 165.916C221.641 165.851 221.613 165.771 221.613 165.678V159.042C221.613 158.949 221.641 158.874 221.697 158.818C221.762 158.753 221.841 158.72 221.935 158.72H222.551C222.644 158.72 222.719 158.753 222.775 158.818C222.84 158.874 222.873 158.949 222.873 159.042V165.678C222.873 165.771 222.84 165.851 222.775 165.916C222.719 165.972 222.644 166 222.551 166H221.935ZM226.992 166.14C226.534 166.14 226.11 166.047 225.718 165.86C225.335 165.673 225.027 165.421 224.794 165.104C224.57 164.777 224.458 164.418 224.458 164.026C224.458 163.41 224.71 162.906 225.214 162.514C225.718 162.122 226.404 161.861 227.272 161.73L229.372 161.436V161.03C229.372 160.069 228.816 159.588 227.706 159.588C227.276 159.588 226.931 159.677 226.67 159.854C226.408 160.022 226.217 160.223 226.096 160.456C226.058 160.549 226.016 160.615 225.97 160.652C225.932 160.68 225.876 160.694 225.802 160.694H225.256C225.172 160.694 225.097 160.666 225.032 160.61C224.976 160.545 224.948 160.47 224.948 160.386C224.948 160.171 225.046 159.924 225.242 159.644C225.447 159.355 225.76 159.107 226.18 158.902C226.6 158.687 227.113 158.58 227.72 158.58C228.765 158.58 229.512 158.823 229.96 159.308C230.417 159.793 230.646 160.4 230.646 161.128V165.678C230.646 165.771 230.613 165.851 230.548 165.916C230.492 165.972 230.417 166 230.324 166H229.708C229.614 166 229.54 165.972 229.484 165.916C229.428 165.851 229.4 165.771 229.4 165.678V165.062C229.194 165.37 228.896 165.627 228.504 165.832C228.112 166.037 227.608 166.14 226.992 166.14ZM227.272 165.118C227.888 165.118 228.392 164.917 228.784 164.516C229.176 164.115 229.372 163.531 229.372 162.766V162.374L227.734 162.612C227.062 162.705 226.553 162.864 226.208 163.088C225.862 163.312 225.69 163.592 225.69 163.928C225.69 164.311 225.844 164.605 226.152 164.81C226.469 165.015 226.842 165.118 227.272 165.118Z" fill="url(#paint0_linear)"/>
</g>
</g>
<path id="Avinash" opacity="0.9" d="M52.44 138C52.248 138 52.08 137.928 51.936 137.784C51.792 137.64 51.72 137.472 51.72 137.28L51.792 136.884L60.72 113.592C60.912 113.064 61.296 112.8 61.872 112.8H64.176C64.752 112.8 65.136 113.064 65.328 113.592L74.256 136.884L74.328 137.28C74.328 137.472 74.244 137.64 74.076 137.784C73.932 137.928 73.764 138 73.572 138H71.88C71.64 138 71.436 137.94 71.268 137.82C71.124 137.676 71.028 137.532 70.98 137.388L68.964 132.204H57.048L55.068 137.388C54.876 137.796 54.576 138 54.168 138H52.44ZM58.092 129.216H67.956L63.024 116.292L58.092 129.216ZM83.1379 138C82.5139 138 82.0699 137.7 81.8059 137.1L75.1099 120.396C75.0859 120.324 75.0739 120.204 75.0739 120.036C75.0739 119.82 75.1459 119.64 75.2899 119.496C75.4339 119.352 75.6019 119.28 75.7939 119.28H77.4499C77.8339 119.28 78.1219 119.472 78.3139 119.856L83.8579 134.22L89.4019 119.856C89.4499 119.712 89.5459 119.58 89.6899 119.46C89.8579 119.34 90.0499 119.28 90.2659 119.28H91.9219C92.1139 119.28 92.2819 119.352 92.4259 119.496C92.5699 119.64 92.6419 119.82 92.6419 120.036L92.5699 120.396L85.9099 137.1C85.6459 137.7 85.2019 138 84.5779 138H83.1379ZM97.0252 115.752C96.7852 115.752 96.5812 115.68 96.4132 115.536C96.2692 115.368 96.1972 115.164 96.1972 114.924V113.052C96.1972 112.812 96.2692 112.608 96.4132 112.44C96.5812 112.272 96.7852 112.188 97.0252 112.188H99.1492C99.3892 112.188 99.5932 112.272 99.7612 112.44C99.9292 112.608 100.013 112.812 100.013 113.052V114.924C100.013 115.164 99.9292 115.368 99.7612 115.536C99.5932 115.68 99.3892 115.752 99.1492 115.752H97.0252ZM97.3132 138C97.0732 138 96.8692 137.928 96.7012 137.784C96.5572 137.616 96.4852 137.412 96.4852 137.172V120.108C96.4852 119.868 96.5572 119.676 96.7012 119.532C96.8692 119.364 97.0732 119.28 97.3132 119.28H98.8972C99.1372 119.28 99.3292 119.364 99.4732 119.532C99.6412 119.676 99.7252 119.868 99.7252 120.108V137.172C99.7252 137.412 99.6412 137.616 99.4732 137.784C99.3292 137.928 99.1372 138 98.8972 138H97.3132ZM105.962 138C105.722 138 105.518 137.928 105.35 137.784C105.206 137.616 105.134 137.412 105.134 137.172V120.108C105.134 119.868 105.206 119.676 105.35 119.532C105.518 119.364 105.722 119.28 105.962 119.28H107.51C107.774 119.28 107.978 119.352 108.122 119.496C108.266 119.64 108.338 119.844 108.338 120.108V121.692C109.058 120.804 109.886 120.12 110.822 119.64C111.782 119.16 112.97 118.92 114.386 118.92C116.69 118.92 118.478 119.664 119.75 121.152C121.022 122.616 121.658 124.56 121.658 126.984V137.172C121.658 137.412 121.574 137.616 121.406 137.784C121.262 137.928 121.07 138 120.83 138H119.174C118.934 138 118.73 137.928 118.562 137.784C118.418 137.616 118.346 137.412 118.346 137.172V127.2C118.346 125.472 117.926 124.128 117.086 123.168C116.246 122.208 115.046 121.728 113.486 121.728C111.95 121.728 110.726 122.22 109.814 123.204C108.902 124.164 108.446 125.496 108.446 127.2V137.172C108.446 137.412 108.362 137.616 108.194 137.784C108.05 137.928 107.858 138 107.618 138H105.962ZM132.044 138.36C130.868 138.36 129.776 138.12 128.768 137.64C127.784 137.16 126.992 136.512 126.392 135.696C125.816 134.856 125.528 133.932 125.528 132.924C125.528 131.34 126.176 130.044 127.472 129.036C128.768 128.028 130.532 127.356 132.764 127.02L138.164 126.264V125.22C138.164 122.748 136.736 121.512 133.88 121.512C132.776 121.512 131.888 121.74 131.216 122.196C130.544 122.628 130.052 123.144 129.74 123.744C129.644 123.984 129.536 124.152 129.416 124.248C129.32 124.32 129.176 124.356 128.984 124.356H127.58C127.364 124.356 127.172 124.284 127.004 124.14C126.86 123.972 126.788 123.78 126.788 123.564C126.788 123.012 127.04 122.376 127.544 121.656C128.072 120.912 128.876 120.276 129.956 119.748C131.036 119.196 132.356 118.92 133.916 118.92C136.604 118.92 138.524 119.544 139.676 120.792C140.852 122.04 141.44 123.6 141.44 125.472V137.172C141.44 137.412 141.356 137.616 141.188 137.784C141.044 137.928 140.852 138 140.612 138H139.028C138.788 138 138.596 137.928 138.452 137.784C138.308 137.616 138.236 137.412 138.236 137.172V135.588C137.708 136.38 136.94 137.04 135.932 137.568C134.924 138.096 133.628 138.36 132.044 138.36ZM132.764 135.732C134.348 135.732 135.644 135.216 136.652 134.184C137.66 133.152 138.164 131.652 138.164 129.684V128.676L133.952 129.288C132.224 129.528 130.916 129.936 130.028 130.512C129.14 131.088 128.696 131.808 128.696 132.672C128.696 133.656 129.092 134.412 129.884 134.94C130.7 135.468 131.66 135.732 132.764 135.732ZM153.061 138.36C151.405 138.36 150.001 138.096 148.849 137.568C147.721 137.016 146.881 136.392 146.329 135.696C145.777 135 145.501 134.424 145.501 133.968C145.501 133.728 145.585 133.548 145.753 133.428C145.921 133.284 146.101 133.212 146.293 133.212H147.805C147.949 133.212 148.057 133.236 148.129 133.284C148.225 133.332 148.345 133.44 148.489 133.608C149.041 134.28 149.653 134.808 150.325 135.192C151.021 135.576 151.945 135.768 153.097 135.768C154.393 135.768 155.425 135.528 156.193 135.048C156.985 134.568 157.381 133.872 157.381 132.96C157.381 132.36 157.213 131.88 156.877 131.52C156.541 131.16 155.977 130.836 155.185 130.548C154.417 130.26 153.265 129.948 151.729 129.612C149.641 129.156 148.165 128.496 147.301 127.632C146.437 126.768 146.005 125.652 146.005 124.284C146.005 123.396 146.269 122.544 146.797 121.728C147.325 120.888 148.105 120.216 149.137 119.712C150.193 119.184 151.441 118.92 152.881 118.92C154.393 118.92 155.677 119.172 156.733 119.676C157.813 120.18 158.617 120.768 159.145 121.44C159.697 122.112 159.973 122.676 159.973 123.132C159.973 123.348 159.889 123.528 159.721 123.672C159.577 123.816 159.397 123.888 159.181 123.888H157.813C157.477 123.888 157.237 123.756 157.093 123.492C156.685 123.036 156.337 122.688 156.049 122.448C155.785 122.184 155.389 121.968 154.861 121.8C154.333 121.608 153.673 121.512 152.881 121.512C151.705 121.512 150.805 121.764 150.181 122.268C149.557 122.748 149.245 123.396 149.245 124.212C149.245 124.716 149.377 125.148 149.641 125.508C149.905 125.844 150.409 126.168 151.153 126.48C151.897 126.768 153.001 127.068 154.465 127.38C156.745 127.86 158.353 128.544 159.289 129.432C160.249 130.32 160.729 131.46 160.729 132.852C160.729 133.884 160.429 134.82 159.829 135.66C159.253 136.5 158.377 137.16 157.201 137.64C156.049 138.12 154.669 138.36 153.061 138.36ZM165.798 138C165.558 138 165.354 137.928 165.186 137.784C165.042 137.616 164.97 137.412 164.97 137.172V113.268C164.97 113.004 165.042 112.8 165.186 112.656C165.354 112.512 165.558 112.44 165.798 112.44H167.454C167.718 112.44 167.922 112.512 168.066 112.656C168.21 112.8 168.282 113.004 168.282 113.268V121.656C168.978 120.768 169.794 120.096 170.73 119.64C171.69 119.16 172.866 118.92 174.258 118.92C176.562 118.92 178.35 119.664 179.622 121.152C180.918 122.616 181.566 124.56 181.566 126.984V137.172C181.566 137.412 181.482 137.616 181.314 137.784C181.17 137.928 180.978 138 180.738 138H179.046C178.806 138 178.602 137.928 178.434 137.784C178.29 137.616 178.218 137.412 178.218 137.172V127.2C178.218 125.472 177.798 124.128 176.958 123.168C176.118 122.208 174.906 121.728 173.322 121.728C171.786 121.728 170.562 122.22 169.65 123.204C168.738 124.164 168.282 125.496 168.282 127.2V137.172C168.282 137.412 168.198 137.616 168.03 137.784C167.886 137.928 167.694 138 167.454 138H165.798Z" fill="white"/>
<g id="group-behance">
<path id="A glimpse of my public work" opacity="0.7" d="M89.48 242C89.416 242 89.36 241.976 89.312 241.928C89.264 241.88 89.24 241.824 89.24 241.76L89.264 241.628L92.24 233.864C92.304 233.688 92.432 233.6 92.624 233.6H93.392C93.584 233.6 93.712 233.688 93.776 233.864L96.752 241.628L96.776 241.76C96.776 241.824 96.748 241.88 96.692 241.928C96.644 241.976 96.588 242 96.524 242H95.96C95.88 242 95.812 241.98 95.756 241.94C95.708 241.892 95.676 241.844 95.66 241.796L94.988 240.068H91.016L90.356 241.796C90.292 241.932 90.192 242 90.056 242H89.48ZM91.364 239.072H94.652L93.008 234.764L91.364 239.072ZM103.073 244.64C102.409 244.64 101.877 244.528 101.477 244.304C101.077 244.08 100.793 243.824 100.625 243.536C100.465 243.248 100.385 243 100.385 242.792C100.385 242.72 100.413 242.656 100.469 242.6C100.525 242.552 100.589 242.528 100.661 242.528H101.189C101.261 242.528 101.321 242.544 101.369 242.576C101.417 242.616 101.457 242.684 101.489 242.78C101.713 243.42 102.221 243.74 103.013 243.74C103.613 243.74 104.057 243.612 104.345 243.356C104.633 243.1 104.777 242.648 104.777 242V241.172C104.313 241.764 103.665 242.06 102.833 242.06C101.985 242.06 101.349 241.788 100.925 241.244C100.509 240.7 100.289 240.012 100.265 239.18L100.253 238.844L100.265 238.52C100.289 237.696 100.509 237.012 100.925 236.468C101.349 235.916 101.985 235.64 102.833 235.64C103.673 235.64 104.329 235.948 104.801 236.564V236.048C104.801 235.968 104.825 235.9 104.873 235.844C104.929 235.788 104.997 235.76 105.077 235.76H105.593C105.673 235.76 105.737 235.788 105.785 235.844C105.841 235.9 105.869 235.968 105.869 236.048V241.868C105.869 243.716 104.937 244.64 103.073 244.64ZM103.049 241.124C103.609 241.124 104.029 240.944 104.309 240.584C104.597 240.216 104.753 239.776 104.777 239.264C104.785 239.192 104.789 239.052 104.789 238.844C104.789 238.644 104.785 238.508 104.777 238.436C104.753 237.924 104.597 237.488 104.309 237.128C104.029 236.76 103.609 236.576 103.049 236.576C102.473 236.576 102.053 236.76 101.789 237.128C101.533 237.488 101.393 237.956 101.369 238.532L101.357 238.844L101.369 239.168C101.393 239.744 101.533 240.216 101.789 240.584C102.053 240.944 102.473 241.124 103.049 241.124ZM107.965 242C107.885 242 107.817 241.976 107.761 241.928C107.713 241.872 107.689 241.804 107.689 241.724V233.756C107.689 233.668 107.713 233.6 107.761 233.552C107.817 233.504 107.885 233.48 107.965 233.48H108.493C108.573 233.48 108.637 233.508 108.685 233.564C108.741 233.612 108.769 233.676 108.769 233.756V241.724C108.769 241.804 108.741 241.872 108.685 241.928C108.637 241.976 108.573 242 108.493 242H107.965ZM110.752 234.584C110.672 234.584 110.604 234.56 110.548 234.512C110.5 234.456 110.476 234.388 110.476 234.308V233.684C110.476 233.604 110.5 233.536 110.548 233.48C110.604 233.424 110.672 233.396 110.752 233.396H111.46C111.54 233.396 111.608 233.424 111.664 233.48C111.72 233.536 111.748 233.604 111.748 233.684V234.308C111.748 234.388 111.72 234.456 111.664 234.512C111.608 234.56 111.54 234.584 111.46 234.584H110.752ZM110.848 242C110.768 242 110.7 241.976 110.644 241.928C110.596 241.872 110.572 241.804 110.572 241.724V236.036C110.572 235.956 110.596 235.892 110.644 235.844C110.7 235.788 110.768 235.76 110.848 235.76H111.376C111.456 235.76 111.52 235.788 111.568 235.844C111.624 235.892 111.652 235.956 111.652 236.036V241.724C111.652 241.804 111.624 241.872 111.568 241.928C111.52 241.976 111.456 242 111.376 242H110.848ZM113.731 242C113.651 242 113.583 241.976 113.527 241.928C113.479 241.872 113.455 241.804 113.455 241.724V236.036C113.455 235.956 113.479 235.892 113.527 235.844C113.583 235.788 113.651 235.76 113.731 235.76H114.235C114.315 235.76 114.379 235.788 114.427 235.844C114.475 235.892 114.499 235.956 114.499 236.036V236.444C114.931 235.908 115.515 235.64 116.251 235.64C117.131 235.64 117.755 236.008 118.123 236.744C118.315 236.408 118.587 236.14 118.939 235.94C119.299 235.74 119.699 235.64 120.139 235.64C120.795 235.64 121.331 235.864 121.747 236.312C122.163 236.76 122.371 237.408 122.371 238.256V241.724C122.371 241.804 122.343 241.872 122.287 241.928C122.239 241.976 122.175 242 122.095 242H121.579C121.499 242 121.431 241.976 121.375 241.928C121.327 241.872 121.303 241.804 121.303 241.724V238.364C121.303 237.724 121.171 237.268 120.907 236.996C120.643 236.716 120.295 236.576 119.863 236.576C119.479 236.576 119.147 236.72 118.867 237.008C118.595 237.288 118.459 237.74 118.459 238.364V241.724C118.459 241.804 118.431 241.872 118.375 241.928C118.327 241.976 118.263 242 118.183 242H117.655C117.575 242 117.507 241.976 117.451 241.928C117.403 241.872 117.379 241.804 117.379 241.724V238.364C117.379 237.732 117.239 237.276 116.959 236.996C116.687 236.716 116.347 236.576 115.939 236.576C115.555 236.576 115.223 236.716 114.943 236.996C114.671 237.276 114.535 237.728 114.535 238.352V241.724C114.535 241.804 114.507 241.872 114.451 241.928C114.403 241.976 114.339 242 114.259 242H113.731ZM124.395 244.28C124.315 244.28 124.247 244.256 124.191 244.208C124.143 244.16 124.119 244.092 124.119 244.004V236.036C124.119 235.948 124.143 235.88 124.191 235.832C124.247 235.784 124.315 235.76 124.395 235.76H124.899C124.987 235.76 125.055 235.784 125.103 235.832C125.151 235.88 125.175 235.948 125.175 236.036V236.564C125.639 235.948 126.299 235.64 127.155 235.64C127.995 235.64 128.623 235.908 129.039 236.444C129.463 236.972 129.687 237.648 129.711 238.472C129.719 238.56 129.723 238.696 129.723 238.88C129.723 239.064 129.719 239.2 129.711 239.288C129.687 240.104 129.463 240.78 129.039 241.316C128.623 241.852 127.995 242.12 127.155 242.12C126.299 242.12 125.651 241.816 125.211 241.208V244.004C125.211 244.084 125.183 244.148 125.127 244.196C125.079 244.252 125.015 244.28 124.935 244.28H124.395ZM126.927 241.184C127.503 241.184 127.923 241.004 128.187 240.644C128.451 240.284 128.595 239.812 128.619 239.228C128.627 239.148 128.631 239.032 128.631 238.88C128.631 237.344 128.063 236.576 126.927 236.576C126.367 236.576 125.943 236.764 125.655 237.14C125.375 237.508 125.227 237.944 125.211 238.448C125.203 238.536 125.199 238.692 125.199 238.916C125.199 239.14 125.203 239.296 125.211 239.384C125.227 239.872 125.379 240.296 125.667 240.656C125.963 241.008 126.383 241.184 126.927 241.184ZM133.368 242.12C132.816 242.12 132.348 242.032 131.964 241.856C131.588 241.672 131.308 241.464 131.124 241.232C130.94 241 130.848 240.808 130.848 240.656C130.848 240.576 130.876 240.516 130.932 240.476C130.988 240.428 131.048 240.404 131.112 240.404H131.616C131.664 240.404 131.7 240.412 131.724 240.428C131.756 240.444 131.796 240.48 131.844 240.536C132.028 240.76 132.232 240.936 132.456 241.064C132.688 241.192 132.996 241.256 133.38 241.256C133.812 241.256 134.156 241.176 134.412 241.016C134.676 240.856 134.808 240.624 134.808 240.32C134.808 240.12 134.752 239.96 134.64 239.84C134.528 239.72 134.34 239.612 134.076 239.516C133.82 239.42 133.436 239.316 132.924 239.204C132.228 239.052 131.736 238.832 131.448 238.544C131.16 238.256 131.016 237.884 131.016 237.428C131.016 237.132 131.104 236.848 131.28 236.576C131.456 236.296 131.716 236.072 132.06 235.904C132.412 235.728 132.828 235.64 133.308 235.64C133.812 235.64 134.24 235.724 134.592 235.892C134.952 236.06 135.22 236.256 135.396 236.48C135.58 236.704 135.672 236.892 135.672 237.044C135.672 237.116 135.644 237.176 135.588 237.224C135.54 237.272 135.48 237.296 135.408 237.296H134.952C134.84 237.296 134.76 237.252 134.712 237.164C134.576 237.012 134.46 236.896 134.364 236.816C134.276 236.728 134.144 236.656 133.968 236.6C133.792 236.536 133.572 236.504 133.308 236.504C132.916 236.504 132.616 236.588 132.408 236.756C132.2 236.916 132.096 237.132 132.096 237.404C132.096 237.572 132.14 237.716 132.228 237.836C132.316 237.948 132.484 238.056 132.732 238.16C132.98 238.256 133.348 238.356 133.836 238.46C134.596 238.62 135.132 238.848 135.444 239.144C135.764 239.44 135.924 239.82 135.924 240.284C135.924 240.628 135.824 240.94 135.624 241.22C135.432 241.5 135.14 241.72 134.748 241.88C134.364 242.04 133.904 242.12 133.368 242.12ZM139.798 242.12C138.982 242.12 138.33 241.868 137.842 241.364C137.354 240.852 137.086 240.156 137.038 239.276L137.026 238.868L137.038 238.472C137.086 237.608 137.354 236.92 137.842 236.408C138.33 235.896 138.982 235.64 139.798 235.64C140.678 235.64 141.358 235.92 141.838 236.48C142.326 237.04 142.57 237.8 142.57 238.76V238.976C142.57 239.056 142.542 239.124 142.486 239.18C142.438 239.228 142.374 239.252 142.294 239.252H138.13V239.36C138.154 239.88 138.314 240.324 138.61 240.692C138.906 241.06 139.298 241.244 139.786 241.244C140.162 241.244 140.466 241.172 140.698 241.028C140.938 240.876 141.118 240.72 141.238 240.56C141.31 240.464 141.366 240.408 141.406 240.392C141.446 240.368 141.514 240.356 141.61 240.356H142.138C142.21 240.356 142.27 240.376 142.318 240.416C142.374 240.456 142.402 240.508 142.402 240.572C142.402 240.748 142.294 240.96 142.078 241.208C141.862 241.456 141.554 241.672 141.154 241.856C140.762 242.032 140.31 242.12 139.798 242.12ZM141.478 238.436V238.4C141.478 237.84 141.326 237.384 141.022 237.032C140.718 236.68 140.31 236.504 139.798 236.504C139.278 236.504 138.87 236.68 138.574 237.032C138.278 237.384 138.13 237.84 138.13 238.4V238.436H141.478ZM149.514 242.12C148.634 242.12 147.954 241.872 147.474 241.376C147.002 240.88 146.75 240.22 146.718 239.396L146.706 238.88L146.718 238.364C146.75 237.54 147.006 236.88 147.486 236.384C147.974 235.888 148.65 235.64 149.514 235.64C150.378 235.64 151.05 235.888 151.53 236.384C152.018 236.88 152.278 237.54 152.31 238.364C152.326 238.54 152.334 238.712 152.334 238.88C152.334 239.048 152.326 239.22 152.31 239.396C152.278 240.22 152.022 240.88 151.542 241.376C151.07 241.872 150.394 242.12 149.514 242.12ZM149.514 241.22C150.026 241.22 150.43 241.06 150.726 240.74C151.03 240.412 151.194 239.944 151.218 239.336C151.226 239.256 151.23 239.104 151.23 238.88C151.23 238.656 151.226 238.504 151.218 238.424C151.194 237.816 151.03 237.352 150.726 237.032C150.43 236.704 150.026 236.54 149.514 236.54C149.002 236.54 148.594 236.704 148.29 237.032C147.994 237.352 147.834 237.816 147.81 238.424L147.798 238.88L147.81 239.336C147.834 239.944 147.994 240.412 148.29 240.74C148.594 241.06 149.002 241.22 149.514 241.22ZM154.679 242C154.599 242 154.531 241.976 154.475 241.928C154.427 241.872 154.403 241.804 154.403 241.724V236.684H153.371C153.291 236.684 153.223 236.66 153.167 236.612C153.119 236.564 153.095 236.5 153.095 236.42V236.036C153.095 235.956 153.119 235.892 153.167 235.844C153.223 235.788 153.291 235.76 153.371 235.76H154.403V235.16C154.403 234.512 154.559 234.012 154.871 233.66C155.191 233.3 155.711 233.12 156.431 233.12H157.139C157.219 233.12 157.283 233.148 157.331 233.204C157.387 233.252 157.415 233.316 157.415 233.396V233.78C157.415 233.86 157.387 233.924 157.331 233.972C157.283 234.02 157.219 234.044 157.139 234.044H156.455C156.087 234.044 155.831 234.14 155.687 234.332C155.543 234.524 155.471 234.82 155.471 235.22V235.76H157.019C157.099 235.76 157.163 235.788 157.211 235.844C157.267 235.892 157.295 235.956 157.295 236.036V236.42C157.295 236.5 157.267 236.564 157.211 236.612C157.163 236.66 157.099 236.684 157.019 236.684H155.471V241.724C155.471 241.804 155.443 241.872 155.387 241.928C155.339 241.976 155.275 242 155.195 242H154.679ZM161.321 242C161.241 242 161.173 241.976 161.117 241.928C161.069 241.872 161.045 241.804 161.045 241.724V236.036C161.045 235.956 161.069 235.892 161.117 235.844C161.173 235.788 161.241 235.76 161.321 235.76H161.825C161.905 235.76 161.969 235.788 162.017 235.844C162.065 235.892 162.089 235.956 162.089 236.036V236.444C162.521 235.908 163.105 235.64 163.841 235.64C164.721 235.64 165.345 236.008 165.713 236.744C165.905 236.408 166.177 236.14 166.529 235.94C166.889 235.74 167.289 235.64 167.729 235.64C168.385 235.64 168.921 235.864 169.337 236.312C169.753 236.76 169.961 237.408 169.961 238.256V241.724C169.961 241.804 169.933 241.872 169.877 241.928C169.829 241.976 169.765 242 169.685 242H169.169C169.089 242 169.021 241.976 168.965 241.928C168.917 241.872 168.893 241.804 168.893 241.724V238.364C168.893 237.724 168.761 237.268 168.497 236.996C168.233 236.716 167.885 236.576 167.453 236.576C167.069 236.576 166.737 236.72 166.457 237.008C166.185 237.288 166.049 237.74 166.049 238.364V241.724C166.049 241.804 166.021 241.872 165.965 241.928C165.917 241.976 165.853 242 165.773 242H165.245C165.165 242 165.097 241.976 165.041 241.928C164.993 241.872 164.969 241.804 164.969 241.724V238.364C164.969 237.732 164.829 237.276 164.549 236.996C164.277 236.716 163.937 236.576 163.529 236.576C163.145 236.576 162.813 236.716 162.533 236.996C162.261 237.276 162.125 237.728 162.125 238.352V241.724C162.125 241.804 162.097 241.872 162.041 241.928C161.993 241.976 161.929 242 161.849 242H161.321ZM172.601 244.28C172.529 244.28 172.469 244.256 172.421 244.208C172.373 244.16 172.349 244.104 172.349 244.04C172.349 244.016 172.369 243.944 172.409 243.824L173.345 241.628L171.053 236.216C171.005 236.12 170.981 236.052 170.981 236.012C170.989 235.94 171.017 235.88 171.065 235.832C171.113 235.784 171.169 235.76 171.233 235.76H171.785C171.913 235.76 172.009 235.824 172.073 235.952L173.921 240.368L175.817 235.952C175.881 235.824 175.977 235.76 176.105 235.76H176.645C176.709 235.76 176.765 235.784 176.813 235.832C176.861 235.88 176.885 235.936 176.885 236C176.885 236.056 176.865 236.128 176.825 236.216L173.429 244.088C173.389 244.152 173.345 244.2 173.297 244.232C173.257 244.264 173.201 244.28 173.129 244.28H172.601ZM181.008 244.28C180.928 244.28 180.86 244.256 180.804 244.208C180.756 244.16 180.732 244.092 180.732 244.004V236.036C180.732 235.948 180.756 235.88 180.804 235.832C180.86 235.784 180.928 235.76 181.008 235.76H181.512C181.6 235.76 181.668 235.784 181.716 235.832C181.764 235.88 181.788 235.948 181.788 236.036V236.564C182.252 235.948 182.912 235.64 183.768 235.64C184.608 235.64 185.236 235.908 185.652 236.444C186.076 236.972 186.3 237.648 186.324 238.472C186.332 238.56 186.336 238.696 186.336 238.88C186.336 239.064 186.332 239.2 186.324 239.288C186.3 240.104 186.076 240.78 185.652 241.316C185.236 241.852 184.608 242.12 183.768 242.12C182.912 242.12 182.264 241.816 181.824 241.208V244.004C181.824 244.084 181.796 244.148 181.74 244.196C181.692 244.252 181.628 244.28 181.548 244.28H181.008ZM183.54 241.184C184.116 241.184 184.536 241.004 184.8 240.644C185.064 240.284 185.208 239.812 185.232 239.228C185.24 239.148 185.244 239.032 185.244 238.88C185.244 237.344 184.676 236.576 183.54 236.576C182.98 236.576 182.556 236.764 182.268 237.14C181.988 237.508 181.84 237.944 181.824 238.448C181.816 238.536 181.812 238.692 181.812 238.916C181.812 239.14 181.816 239.296 181.824 239.384C181.84 239.872 181.992 240.296 182.28 240.656C182.576 241.008 182.996 241.184 183.54 241.184ZM190.173 242.12C189.413 242.12 188.825 241.876 188.409 241.388C187.993 240.892 187.785 240.236 187.785 239.42V236.036C187.785 235.956 187.809 235.892 187.857 235.844C187.913 235.788 187.981 235.76 188.061 235.76H188.613C188.693 235.76 188.757 235.788 188.805 235.844C188.861 235.892 188.889 235.956 188.889 236.036V239.36C188.889 240.576 189.417 241.184 190.473 241.184C190.985 241.184 191.389 241.024 191.685 240.704C191.989 240.376 192.141 239.928 192.141 239.36V236.036C192.141 235.956 192.165 235.892 192.213 235.844C192.269 235.788 192.337 235.76 192.417 235.76H192.969C193.049 235.76 193.113 235.788 193.161 235.844C193.217 235.892 193.245 235.956 193.245 236.036V241.724C193.245 241.804 193.217 241.872 193.161 241.928C193.113 241.976 193.049 242 192.969 242H192.453C192.373 242 192.305 241.976 192.249 241.928C192.201 241.872 192.177 241.804 192.177 241.724V241.184C191.945 241.496 191.673 241.732 191.361 241.892C191.049 242.044 190.653 242.12 190.173 242.12ZM198.089 242.12C197.225 242.12 196.565 241.816 196.109 241.208V241.724C196.109 241.804 196.081 241.872 196.025 241.928C195.977 241.976 195.913 242 195.833 242H195.329C195.249 242 195.181 241.976 195.125 241.928C195.077 241.872 195.053 241.804 195.053 241.724V233.756C195.053 233.668 195.077 233.6 195.125 233.552C195.181 233.504 195.249 233.48 195.329 233.48H195.869C195.949 233.48 196.013 233.508 196.061 233.564C196.117 233.612 196.145 233.676 196.145 233.756V236.528C196.593 235.936 197.241 235.64 198.089 235.64C198.929 235.64 199.557 235.916 199.973 236.468C200.397 237.012 200.621 237.696 200.645 238.52C200.653 238.608 200.657 238.728 200.657 238.88C200.657 239.032 200.653 239.152 200.645 239.24C200.621 240.064 200.397 240.752 199.973 241.304C199.557 241.848 198.929 242.12 198.089 242.12ZM197.861 241.184C198.437 241.184 198.857 241.004 199.121 240.644C199.385 240.284 199.529 239.812 199.553 239.228C199.561 239.148 199.565 239.032 199.565 238.88C199.565 237.344 198.997 236.576 197.861 236.576C197.317 236.576 196.897 236.756 196.601 237.116C196.313 237.468 196.161 237.888 196.145 238.376C196.137 238.464 196.133 238.62 196.133 238.844C196.133 239.06 196.137 239.212 196.145 239.3C196.161 239.812 196.309 240.256 196.589 240.632C196.877 241 197.301 241.184 197.861 241.184ZM202.454 242C202.374 242 202.306 241.976 202.25 241.928C202.202 241.872 202.178 241.804 202.178 241.724V233.756C202.178 233.668 202.202 233.6 202.25 233.552C202.306 233.504 202.374 233.48 202.454 233.48H202.982C203.062 233.48 203.126 233.508 203.174 233.564C203.23 233.612 203.258 233.676 203.258 233.756V241.724C203.258 241.804 203.23 241.872 203.174 241.928C203.126 241.976 203.062 242 202.982 242H202.454ZM205.24 234.584C205.16 234.584 205.092 234.56 205.036 234.512C204.988 234.456 204.964 234.388 204.964 234.308V233.684C204.964 233.604 204.988 233.536 205.036 233.48C205.092 233.424 205.16 233.396 205.24 233.396H205.948C206.028 233.396 206.096 233.424 206.152 233.48C206.208 233.536 206.236 233.604 206.236 233.684V234.308C206.236 234.388 206.208 234.456 206.152 234.512C206.096 234.56 206.028 234.584 205.948 234.584H205.24ZM205.336 242C205.256 242 205.188 241.976 205.132 241.928C205.084 241.872 205.06 241.804 205.06 241.724V236.036C205.06 235.956 205.084 235.892 205.132 235.844C205.188 235.788 205.256 235.76 205.336 235.76H205.864C205.944 235.76 206.008 235.788 206.056 235.844C206.112 235.892 206.14 235.956 206.14 236.036V241.724C206.14 241.804 206.112 241.872 206.056 241.928C206.008 241.976 205.944 242 205.864 242H205.336ZM210.439 242.12C209.583 242.12 208.915 241.88 208.435 241.4C207.955 240.912 207.703 240.232 207.679 239.36L207.667 238.88L207.679 238.4C207.703 237.528 207.955 236.852 208.435 236.372C208.915 235.884 209.583 235.64 210.439 235.64C211.015 235.64 211.499 235.744 211.891 235.952C212.291 236.152 212.587 236.404 212.779 236.708C212.979 237.012 213.087 237.316 213.103 237.62C213.111 237.692 213.083 237.756 213.019 237.812C212.963 237.868 212.899 237.896 212.827 237.896H212.299C212.219 237.896 212.159 237.88 212.119 237.848C212.079 237.808 212.039 237.74 211.999 237.644C211.855 237.252 211.655 236.976 211.399 236.816C211.151 236.648 210.835 236.564 210.451 236.564C209.947 236.564 209.547 236.72 209.251 237.032C208.955 237.344 208.795 237.82 208.771 238.46L208.759 238.88L208.771 239.3C208.795 239.94 208.955 240.416 209.251 240.728C209.547 241.04 209.947 241.196 210.451 241.196C210.843 241.196 211.163 241.116 211.411 240.956C211.659 240.788 211.855 240.508 211.999 240.116C212.039 240.02 212.079 239.956 212.119 239.924C212.159 239.884 212.219 239.864 212.299 239.864H212.827C212.899 239.864 212.963 239.892 213.019 239.948C213.083 240.004 213.111 240.068 213.103 240.14C213.087 240.436 212.979 240.736 212.779 241.04C212.587 241.344 212.291 241.6 211.891 241.808C211.499 242.016 211.015 242.12 210.439 242.12ZM218.869 242C218.757 242 218.673 241.976 218.617 241.928C218.561 241.88 218.517 241.804 218.485 241.7L216.781 236.132L216.757 236.012C216.757 235.94 216.781 235.88 216.829 235.832C216.877 235.784 216.937 235.76 217.009 235.76H217.501C217.581 235.76 217.645 235.784 217.693 235.832C217.749 235.872 217.781 235.912 217.789 235.952L219.145 240.536L220.585 236.012C220.601 235.948 220.637 235.892 220.693 235.844C220.749 235.788 220.825 235.76 220.921 235.76H221.305C221.401 235.76 221.477 235.788 221.533 235.844C221.589 235.892 221.625 235.948 221.641 236.012L223.081 240.536L224.437 235.952C224.445 235.912 224.473 235.872 224.521 235.832C224.577 235.784 224.645 235.76 224.725 235.76H225.217C225.289 235.76 225.349 235.784 225.397 235.832C225.445 235.88 225.469 235.94 225.469 236.012L225.445 236.132L223.741 241.7C223.709 241.804 223.665 241.88 223.609 241.928C223.553 241.976 223.469 242 223.357 242H222.924C222.717 242 222.581 241.9 222.517 241.7L221.113 237.356L219.709 241.7C219.645 241.9 219.509 242 219.301 242H218.869ZM229.178 242.12C228.298 242.12 227.618 241.872 227.138 241.376C226.666 240.88 226.414 240.22 226.382 239.396L226.37 238.88L226.382 238.364C226.414 237.54 226.67 236.88 227.15 236.384C227.638 235.888 228.314 235.64 229.178 235.64C230.042 235.64 230.714 235.888 231.194 236.384C231.682 236.88 231.942 237.54 231.974 238.364C231.99 238.54 231.998 238.712 231.998 238.88C231.998 239.048 231.99 239.22 231.974 239.396C231.942 240.22 231.686 240.88 231.206 241.376C230.734 241.872 230.058 242.12 229.178 242.12ZM229.178 241.22C229.69 241.22 230.094 241.06 230.39 240.74C230.694 240.412 230.858 239.944 230.882 239.336C230.89 239.256 230.894 239.104 230.894 238.88C230.894 238.656 230.89 238.504 230.882 238.424C230.858 237.816 230.694 237.352 230.39 237.032C230.094 236.704 229.69 236.54 229.178 236.54C228.666 236.54 228.258 236.704 227.954 237.032C227.658 237.352 227.498 237.816 227.474 238.424L227.462 238.88L227.474 239.336C227.498 239.944 227.658 240.412 227.954 240.74C228.258 241.06 228.666 241.22 229.178 241.22ZM233.789 242C233.709 242 233.641 241.976 233.585 241.928C233.537 241.872 233.513 241.804 233.513 241.724V236.048C233.513 235.968 233.537 235.9 233.585 235.844C233.641 235.788 233.709 235.76 233.789 235.76H234.293C234.381 235.76 234.449 235.788 234.497 235.844C234.553 235.892 234.581 235.96 234.581 236.048V236.576C234.909 236.032 235.465 235.76 236.249 235.76H236.717C236.805 235.76 236.873 235.784 236.921 235.832C236.969 235.88 236.993 235.948 236.993 236.036V236.48C236.993 236.56 236.969 236.628 236.921 236.684C236.873 236.732 236.805 236.756 236.717 236.756H236.033C235.593 236.756 235.245 236.884 234.989 237.14C234.741 237.396 234.617 237.744 234.617 238.184V241.724C234.617 241.804 234.589 241.872 234.533 241.928C234.477 241.976 234.409 242 234.329 242H233.789ZM238.313 242C238.233 242 238.165 241.976 238.109 241.928C238.061 241.872 238.037 241.804 238.037 241.724V233.756C238.037 233.668 238.061 233.6 238.109 233.552C238.165 233.504 238.233 233.48 238.313 233.48H238.829C238.909 233.48 238.973 233.508 239.021 233.564C239.077 233.612 239.105 233.676 239.105 233.756V237.944L241.505 235.964C241.625 235.876 241.709 235.82 241.757 235.796C241.805 235.772 241.881 235.76 241.985 235.76H242.585C242.657 235.76 242.713 235.784 242.753 235.832C242.801 235.872 242.825 235.932 242.825 236.012C242.825 236.084 242.781 236.16 242.693 236.24L239.885 238.544L242.993 241.52C243.081 241.608 243.125 241.684 243.125 241.748C243.125 241.82 243.101 241.88 243.053 241.928C243.013 241.976 242.957 242 242.885 242H242.297C242.177 242 242.089 241.988 242.033 241.964C241.985 241.94 241.913 241.884 241.817 241.796L239.105 239.228V241.724C239.105 241.804 239.077 241.872 239.021 241.928C238.973 241.976 238.909 242 238.829 242H238.313Z" fill="white"/>
<g id="ic-behance">
<path id="Vector" d="M78.5 225.5H55.5C54.9469 225.5 54.5 225.947 54.5 226.5V249.5C54.5 250.053 54.9469 250.5 55.5 250.5H78.5C79.0531 250.5 79.5 250.053 79.5 249.5V226.5C79.5 225.947 79.0531 225.5 78.5 225.5ZM69.7031 232.966H74.0281V234.019H69.7031V232.966ZM67 241.65C66.7977 242.034 66.5088 242.366 66.1562 242.619C65.7875 242.875 65.3781 243.062 64.9438 243.172C64.4893 243.294 64.0205 243.354 63.55 243.35H58.375V232.691H63.4062C63.9156 232.691 64.3781 232.737 64.8 232.825C65.2188 232.912 65.575 233.062 65.875 233.266C66.1719 233.469 66.4062 233.741 66.5719 234.078C66.7344 234.412 66.8188 234.831 66.8188 235.328C66.8188 235.866 66.6969 236.309 66.4531 236.669C66.2062 237.028 65.85 237.319 65.3656 237.547C66.025 237.734 66.5094 238.069 66.8281 238.538C67.1531 239.013 67.3125 239.581 67.3125 240.25C67.3125 240.794 67.2094 241.259 67 241.65ZM75.7125 240H70.1375C70.1375 240.606 70.3469 241.188 70.6625 241.5C70.9813 241.809 71.4375 241.966 72.0344 241.966C72.4656 241.966 72.8312 241.856 73.1437 241.641C73.4531 241.425 73.6406 241.197 73.7094 240.959H75.5781C75.2781 241.888 74.8219 242.55 74.2031 242.95C73.5906 243.35 72.8406 243.55 71.9688 243.55C71.3594 243.55 70.8125 243.45 70.3219 243.259C69.85 243.075 69.425 242.794 69.075 242.431C68.7299 242.059 68.4632 241.621 68.2906 241.144C68.1 240.616 68.0063 240.059 68.0125 239.5C68.0125 238.922 68.1094 238.384 68.2969 237.884C68.6562 236.912 69.4031 236.134 70.3563 235.731C70.8656 235.519 71.4125 235.412 71.9656 235.419C72.6219 235.419 73.1906 235.544 73.6844 235.8C74.1597 236.045 74.5724 236.395 74.8906 236.825C75.2063 237.253 75.4281 237.741 75.5688 238.291C75.7031 238.831 75.75 239.4 75.7125 240V240ZM71.9 237.012C71.5625 237.012 71.2781 237.072 71.0594 237.188C70.8406 237.303 70.6594 237.447 70.5219 237.613C70.3909 237.772 70.2941 237.957 70.2375 238.156C70.1875 238.322 70.1531 238.491 70.1406 238.663H73.5938C73.5437 238.122 73.3563 237.722 73.1063 237.441C72.8438 237.163 72.4219 237.012 71.9 237.012V237.012ZM64.1344 236.697C64.4062 236.5 64.5375 236.175 64.5375 235.728C64.5469 235.516 64.5031 235.306 64.4094 235.116C64.325 234.963 64.2 234.834 64.0469 234.744C63.8881 234.647 63.7118 234.584 63.5281 234.556C63.3281 234.519 63.125 234.5 62.925 234.503H60.7281V236.994H63.1062C63.5156 236.997 63.8625 236.897 64.1344 236.697V236.697ZM64.5031 238.947C64.1969 238.712 63.7875 238.597 63.2781 238.597H60.7219V241.534H63.2281C63.4625 241.534 63.6781 241.512 63.8875 241.469C64.0969 241.425 64.2844 241.35 64.4438 241.244C64.6031 241.141 64.7313 241 64.8281 240.819C64.9219 240.638 64.9688 240.406 64.9688 240.128C64.9688 239.575 64.8125 239.184 64.5031 238.947V238.947Z" fill="white"/>
</g>
</g>
<g id="group-linkedin">
<path id="Contact me" opacity="0.7" d="M93.056 287.12C91.992 287.12 91.18 286.832 90.62 286.256C90.068 285.672 89.772 284.876 89.732 283.868C89.724 283.652 89.72 283.3 89.72 282.812C89.72 282.316 89.724 281.956 89.732 281.732C89.772 280.724 90.068 279.932 90.62 279.356C91.18 278.772 91.992 278.48 93.056 278.48C93.768 278.48 94.372 278.608 94.868 278.864C95.364 279.112 95.736 279.44 95.984 279.848C96.24 280.256 96.38 280.692 96.404 281.156C96.404 281.228 96.376 281.288 96.32 281.336C96.272 281.376 96.212 281.396 96.14 281.396H95.54C95.46 281.396 95.396 281.376 95.348 281.336C95.3 281.296 95.264 281.228 95.24 281.132C95.104 280.516 94.856 280.084 94.496 279.836C94.144 279.588 93.664 279.464 93.056 279.464C91.664 279.464 90.94 280.24 90.884 281.792C90.876 282.008 90.872 282.34 90.872 282.788C90.872 283.236 90.876 283.576 90.884 283.808C90.94 285.352 91.664 286.124 93.056 286.124C93.656 286.124 94.136 286 94.496 285.752C94.856 285.504 95.104 285.076 95.24 284.468C95.264 284.372 95.3 284.304 95.348 284.264C95.396 284.224 95.46 284.204 95.54 284.204H96.14C96.212 284.204 96.272 284.228 96.32 284.276C96.376 284.316 96.404 284.372 96.404 284.444C96.38 284.908 96.24 285.344 95.984 285.752C95.736 286.16 95.364 286.492 94.868 286.748C94.372 286.996 93.768 287.12 93.056 287.12ZM100.412 287.12C99.5325 287.12 98.8525 286.872 98.3725 286.376C97.9005 285.88 97.6485 285.22 97.6165 284.396L97.6045 283.88L97.6165 283.364C97.6485 282.54 97.9045 281.88 98.3845 281.384C98.8725 280.888 99.5485 280.64 100.412 280.64C101.276 280.64 101.948 280.888 102.428 281.384C102.916 281.88 103.176 282.54 103.208 283.364C103.224 283.54 103.232 283.712 103.232 283.88C103.232 284.048 103.224 284.22 103.208 284.396C103.176 285.22 102.92 285.88 102.44 286.376C101.968 286.872 101.292 287.12 100.412 287.12ZM100.412 286.22C100.924 286.22 101.328 286.06 101.624 285.74C101.928 285.412 102.092 284.944 102.116 284.336C102.124 284.256 102.128 284.104 102.128 283.88C102.128 283.656 102.124 283.504 102.116 283.424C102.092 282.816 101.928 282.352 101.624 282.032C101.328 281.704 100.924 281.54 100.412 281.54C99.9005 281.54 99.4925 281.704 99.1885 282.032C98.8925 282.352 98.7325 282.816 98.7085 283.424L98.6965 283.88L98.7085 284.336C98.7325 284.944 98.8925 285.412 99.1885 285.74C99.4925 286.06 99.9005 286.22 100.412 286.22ZM105.024 287C104.944 287 104.876 286.976 104.82 286.928C104.772 286.872 104.748 286.804 104.748 286.724V281.036C104.748 280.956 104.772 280.892 104.82 280.844C104.876 280.788 104.944 280.76 105.024 280.76H105.54C105.628 280.76 105.696 280.784 105.744 280.832C105.792 280.88 105.816 280.948 105.816 281.036V281.564C106.056 281.268 106.332 281.04 106.644 280.88C106.964 280.72 107.36 280.64 107.832 280.64C108.6 280.64 109.196 280.888 109.62 281.384C110.044 281.872 110.256 282.52 110.256 283.328V286.724C110.256 286.804 110.228 286.872 110.172 286.928C110.124 286.976 110.06 287 109.98 287H109.428C109.348 287 109.28 286.976 109.224 286.928C109.176 286.872 109.152 286.804 109.152 286.724V283.4C109.152 282.824 109.012 282.376 108.732 282.056C108.452 281.736 108.052 281.576 107.532 281.576C107.02 281.576 106.612 281.74 106.308 282.068C106.004 282.388 105.852 282.832 105.852 283.4V286.724C105.852 286.804 105.824 286.872 105.768 286.928C105.72 286.976 105.656 287 105.576 287H105.024ZM114.308 287C113.068 287 112.448 286.3 112.448 284.9V281.684H111.5C111.42 281.684 111.356 281.66 111.308 281.612C111.26 281.564 111.236 281.5 111.236 281.42V281.036C111.236 280.956 111.26 280.892 111.308 280.844C111.356 280.788 111.42 280.76 111.5 280.76H112.448V278.756C112.448 278.676 112.472 278.612 112.52 278.564C112.568 278.508 112.632 278.48 112.712 278.48H113.24C113.32 278.48 113.384 278.508 113.432 278.564C113.488 278.612 113.516 278.676 113.516 278.756V280.76H115.004C115.084 280.76 115.148 280.788 115.196 280.844C115.252 280.892 115.28 280.956 115.28 281.036V281.42C115.28 281.5 115.252 281.564 115.196 281.612C115.148 281.66 115.084 281.684 115.004 281.684H113.516V284.816C113.516 285.224 113.58 285.532 113.708 285.74C113.844 285.948 114.072 286.052 114.392 286.052H115.124C115.204 286.052 115.268 286.08 115.316 286.136C115.364 286.184 115.388 286.248 115.388 286.328V286.724C115.388 286.804 115.364 286.872 115.316 286.928C115.268 286.976 115.204 287 115.124 287H114.308ZM118.288 287.12C117.896 287.12 117.532 287.04 117.196 286.88C116.868 286.72 116.604 286.504 116.404 286.232C116.212 285.952 116.116 285.644 116.116 285.308C116.116 284.78 116.332 284.348 116.764 284.012C117.196 283.676 117.784 283.452 118.528 283.34L120.328 283.088V282.74C120.328 281.916 119.852 281.504 118.9 281.504C118.532 281.504 118.236 281.58 118.012 281.732C117.788 281.876 117.624 282.048 117.52 282.248C117.488 282.328 117.452 282.384 117.412 282.416C117.38 282.44 117.332 282.452 117.268 282.452H116.8C116.728 282.452 116.664 282.428 116.608 282.38C116.56 282.324 116.536 282.26 116.536 282.188C116.536 282.004 116.62 281.792 116.788 281.552C116.964 281.304 117.232 281.092 117.592 280.916C117.952 280.732 118.392 280.64 118.912 280.64C119.808 280.64 120.448 280.848 120.832 281.264C121.224 281.68 121.42 282.2 121.42 282.824V286.724C121.42 286.804 121.392 286.872 121.336 286.928C121.288 286.976 121.224 287 121.144 287H120.616C120.536 287 120.472 286.976 120.424 286.928C120.376 286.872 120.352 286.804 120.352 286.724V286.196C120.176 286.46 119.92 286.68 119.584 286.856C119.248 287.032 118.816 287.12 118.288 287.12ZM118.528 286.244C119.056 286.244 119.488 286.072 119.824 285.728C120.16 285.384 120.328 284.884 120.328 284.228V283.892L118.924 284.096C118.348 284.176 117.912 284.312 117.616 284.504C117.32 284.696 117.172 284.936 117.172 285.224C117.172 285.552 117.304 285.804 117.568 285.98C117.84 286.156 118.16 286.244 118.528 286.244ZM125.654 287.12C124.798 287.12 124.13 286.88 123.65 286.4C123.17 285.912 122.918 285.232 122.894 284.36L122.882 283.88L122.894 283.4C122.918 282.528 123.17 281.852 123.65 281.372C124.13 280.884 124.798 280.64 125.654 280.64C126.23 280.64 126.714 280.744 127.106 280.952C127.506 281.152 127.802 281.404 127.994 281.708C128.194 282.012 128.302 282.316 128.318 282.62C128.326 282.692 128.298 282.756 128.234 282.812C128.178 282.868 128.114 282.896 128.042 282.896H127.514C127.434 282.896 127.374 282.88 127.334 282.848C127.294 282.808 127.254 282.74 127.214 282.644C127.07 282.252 126.87 281.976 126.614 281.816C126.366 281.648 126.05 281.564 125.666 281.564C125.162 281.564 124.762 281.72 124.466 282.032C124.17 282.344 124.01 282.82 123.986 283.46L123.974 283.88L123.986 284.3C124.01 284.94 124.17 285.416 124.466 285.728C124.762 286.04 125.162 286.196 125.666 286.196C126.058 286.196 126.378 286.116 126.626 285.956C126.874 285.788 127.07 285.508 127.214 285.116C127.254 285.02 127.294 284.956 127.334 284.924C127.374 284.884 127.434 284.864 127.514 284.864H128.042C128.114 284.864 128.178 284.892 128.234 284.948C128.298 285.004 128.326 285.068 128.318 285.14C128.302 285.436 128.194 285.736 127.994 286.04C127.802 286.344 127.506 286.6 127.106 286.808C126.714 287.016 126.23 287.12 125.654 287.12ZM132.155 287C130.915 287 130.295 286.3 130.295 284.9V281.684H129.347C129.267 281.684 129.203 281.66 129.155 281.612C129.107 281.564 129.083 281.5 129.083 281.42V281.036C129.083 280.956 129.107 280.892 129.155 280.844C129.203 280.788 129.267 280.76 129.347 280.76H130.295V278.756C130.295 278.676 130.319 278.612 130.367 278.564C130.415 278.508 130.479 278.48 130.559 278.48H131.087C131.167 278.48 131.231 278.508 131.279 278.564C131.335 278.612 131.363 278.676 131.363 278.756V280.76H132.851C132.931 280.76 132.995 280.788 133.043 280.844C133.099 280.892 133.127 280.956 133.127 281.036V281.42C133.127 281.5 133.099 281.564 133.043 281.612C132.995 281.66 132.931 281.684 132.851 281.684H131.363V284.816C131.363 285.224 131.427 285.532 131.555 285.74C131.691 285.948 131.919 286.052 132.239 286.052H132.971C133.051 286.052 133.115 286.08 133.163 286.136C133.211 286.184 133.235 286.248 133.235 286.328V286.724C133.235 286.804 133.211 286.872 133.163 286.928C133.115 286.976 133.051 287 132.971 287H132.155ZM137.637 287C137.557 287 137.489 286.976 137.433 286.928C137.385 286.872 137.361 286.804 137.361 286.724V281.036C137.361 280.956 137.385 280.892 137.433 280.844C137.489 280.788 137.557 280.76 137.637 280.76H138.141C138.221 280.76 138.285 280.788 138.333 280.844C138.381 280.892 138.405 280.956 138.405 281.036V281.444C138.837 280.908 139.421 280.64 140.157 280.64C141.037 280.64 141.661 281.008 142.029 281.744C142.221 281.408 142.493 281.14 142.845 280.94C143.205 280.74 143.605 280.64 144.045 280.64C144.701 280.64 145.237 280.864 145.653 281.312C146.069 281.76 146.277 282.408 146.277 283.256V286.724C146.277 286.804 146.249 286.872 146.193 286.928C146.145 286.976 146.081 287 146.001 287H145.485C145.405 287 145.337 286.976 145.281 286.928C145.233 286.872 145.209 286.804 145.209 286.724V283.364C145.209 282.724 145.077 282.268 144.813 281.996C144.549 281.716 144.201 281.576 143.769 281.576C143.385 281.576 143.053 281.72 142.773 282.008C142.501 282.288 142.365 282.74 142.365 283.364V286.724C142.365 286.804 142.337 286.872 142.281 286.928C142.233 286.976 142.169 287 142.089 287H141.561C141.481 287 141.413 286.976 141.357 286.928C141.309 286.872 141.285 286.804 141.285 286.724V283.364C141.285 282.732 141.145 282.276 140.865 281.996C140.593 281.716 140.253 281.576 139.845 281.576C139.461 281.576 139.129 281.716 138.849 281.996C138.577 282.276 138.441 282.728 138.441 283.352V286.724C138.441 286.804 138.413 286.872 138.357 286.928C138.309 286.976 138.245 287 138.165 287H137.637ZM150.485 287.12C149.669 287.12 149.017 286.868 148.529 286.364C148.041 285.852 147.773 285.156 147.725 284.276L147.713 283.868L147.725 283.472C147.773 282.608 148.041 281.92 148.529 281.408C149.017 280.896 149.669 280.64 150.485 280.64C151.365 280.64 152.045 280.92 152.525 281.48C153.013 282.04 153.257 282.8 153.257 283.76V283.976C153.257 284.056 153.229 284.124 153.173 284.18C153.125 284.228 153.061 284.252 152.981 284.252H148.817V284.36C148.841 284.88 149.001 285.324 149.297 285.692C149.593 286.06 149.985 286.244 150.473 286.244C150.849 286.244 151.153 286.172 151.385 286.028C151.625 285.876 151.805 285.72 151.925 285.56C151.997 285.464 152.053 285.408 152.093 285.392C152.133 285.368 152.201 285.356 152.297 285.356H152.825C152.897 285.356 152.957 285.376 153.005 285.416C153.061 285.456 153.089 285.508 153.089 285.572C153.089 285.748 152.981 285.96 152.765 286.208C152.549 286.456 152.241 286.672 151.841 286.856C151.449 287.032 150.997 287.12 150.485 287.12ZM152.165 283.436V283.4C152.165 282.84 152.013 282.384 151.709 282.032C151.405 281.68 150.997 281.504 150.485 281.504C149.965 281.504 149.557 281.68 149.261 282.032C148.965 282.384 148.817 282.84 148.817 283.4V283.436H152.165Z" fill="white"/>
<g id="ic-linkedin">
<path id="Vector_2" d="M78.5 270.5H55.5C54.9469 270.5 54.5 270.947 54.5 271.5V294.5C54.5 295.053 54.9469 295.5 55.5 295.5H78.5C79.0531 295.5 79.5 295.053 79.5 294.5V271.5C79.5 270.947 79.0531 270.5 78.5 270.5ZM61.9156 291.803H58.2063V279.872H61.9156V291.803ZM60.0625 278.241C59.6373 278.241 59.2216 278.115 58.868 277.878C58.5145 277.642 58.2389 277.306 58.0762 276.913C57.9134 276.521 57.8709 276.088 57.9538 275.671C58.0368 275.254 58.2415 274.871 58.5422 274.57C58.8429 274.27 59.226 274.065 59.6431 273.982C60.0601 273.899 60.4924 273.942 60.8853 274.104C61.2781 274.267 61.6139 274.543 61.8502 274.896C62.0864 275.25 62.2125 275.665 62.2125 276.091C62.2094 277.278 61.2469 278.241 60.0625 278.241ZM75.8031 291.803H72.0969V286C72.0969 284.616 72.0719 282.837 70.1688 282.837C68.2406 282.837 67.9438 284.344 67.9438 285.9V291.803H64.2406V279.872H67.7969V281.503H67.8469C68.3406 280.566 69.55 279.575 71.3563 279.575C75.1125 279.575 75.8031 282.047 75.8031 285.259V291.803V291.803Z" fill="white"/>
</g>
</g>
</g>
<defs>
<linearGradient id="paint0_linear" x1="216" y1="153" x2="216" y2="170" gradientUnits="userSpaceOnUse">
<stop offset="0.348958" stop-color="#E7AC14"/>
<stop offset="0.510417" stop-color="white"/>
<stop offset="0.697917" stop-color="#2AA236"/>
</linearGradient>
</defs>
</svg>
