<svg width="100%" height="100%" viewBox="0 0 600 1046" fill="none" xmlns="http://www.w3.org/2000/svg">
<g id="tab">
<rect width="600" height="1046" fill="#373737"/>
<g id="Group 3">
<path id="Hi, I am" opacity="0.8" d="M71.1065 105C70.9789 105 70.8767 104.962 70.8001 104.885C70.7235 104.796 70.6852 104.687 70.6852 104.56V92.0544C70.6852 91.914 70.7235 91.8055 70.8001 91.7289C70.8767 91.6395 70.9789 91.5948 71.1065 91.5948H72.0257C72.1662 91.5948 72.2747 91.6395 72.3513 91.7289C72.4407 91.8055 72.4853 91.914 72.4853 92.0544V97.3782H79.1496V92.0544C79.1496 91.914 79.1879 91.8055 79.2645 91.7289C79.3539 91.6395 79.4624 91.5948 79.5901 91.5948H80.5093C80.6497 91.5948 80.7583 91.6395 80.8349 91.7289C80.9242 91.8055 80.9689 91.914 80.9689 92.0544V104.56C80.9689 104.687 80.9242 104.796 80.8349 104.885C80.7455 104.962 80.637 105 80.5093 105H79.5901C79.4624 105 79.3539 104.962 79.2645 104.885C79.1879 104.796 79.1496 104.687 79.1496 104.56V99.0443H72.4853V104.56C72.4853 104.687 72.4407 104.796 72.3513 104.885C72.2619 104.962 72.1534 105 72.0257 105H71.1065ZM84.3569 93.1651C84.2292 93.1651 84.1207 93.1268 84.0313 93.0502C83.9547 92.9609 83.9164 92.8524 83.9164 92.7247V91.7289C83.9164 91.6012 83.9547 91.4927 84.0313 91.4033C84.1207 91.3139 84.2292 91.2693 84.3569 91.2693H85.4867C85.6144 91.2693 85.7229 91.3139 85.8123 91.4033C85.9016 91.4927 85.9463 91.6012 85.9463 91.7289V92.7247C85.9463 92.8524 85.9016 92.9609 85.8123 93.0502C85.7229 93.1268 85.6144 93.1651 85.4867 93.1651H84.3569ZM84.5101 105C84.3824 105 84.2739 104.962 84.1845 104.885C84.1079 104.796 84.0696 104.687 84.0696 104.56V95.4823C84.0696 95.3547 84.1079 95.2525 84.1845 95.1759C84.2739 95.0865 84.3824 95.0419 84.5101 95.0419H85.3527C85.4803 95.0419 85.5825 95.0865 85.6591 95.1759C85.7484 95.2525 85.7931 95.3547 85.7931 95.4823V104.56C85.7931 104.687 85.7484 104.796 85.6591 104.885C85.5825 104.962 85.4803 105 85.3527 105H84.5101ZM88.5361 106.436C88.4212 106.436 88.3318 106.398 88.268 106.321C88.2169 106.245 88.2042 106.149 88.2297 106.034L88.651 103.334C88.7021 102.964 88.8808 102.779 89.1872 102.779H90.4128C90.5022 102.779 90.5788 102.817 90.6426 102.893C90.7065 102.957 90.7384 103.028 90.7384 103.104C90.7384 103.206 90.7129 103.315 90.6618 103.43L89.666 105.996C89.5511 106.289 89.3723 106.436 89.1298 106.436H88.5361ZM98.8033 105C98.6757 105 98.5735 104.962 98.4969 104.885C98.4203 104.796 98.382 104.687 98.382 104.56V92.0353C98.382 91.9076 98.4203 91.8055 98.4969 91.7289C98.5735 91.6395 98.6757 91.5948 98.8033 91.5948H99.7608C99.9013 91.5948 100.01 91.6331 100.086 91.7097C100.163 91.7863 100.201 91.8948 100.201 92.0353V104.56C100.201 104.687 100.157 104.796 100.067 104.885C99.9907 104.962 99.8885 105 99.7608 105H98.8033ZM110.802 105.192C110.177 105.192 109.596 105.064 109.06 104.808C108.536 104.553 108.115 104.208 107.796 103.774C107.489 103.328 107.336 102.836 107.336 102.3C107.336 101.457 107.681 100.768 108.37 100.232C109.06 99.6954 109.998 99.3379 111.185 99.1592L114.058 98.757V98.2017C114.058 96.8867 113.298 96.2292 111.779 96.2292C111.192 96.2292 110.719 96.3505 110.362 96.593C110.005 96.8228 109.743 97.0973 109.577 97.4165C109.526 97.5442 109.468 97.6335 109.405 97.6846C109.353 97.7229 109.277 97.7421 109.175 97.7421H108.428C108.313 97.7421 108.211 97.7038 108.121 97.6272C108.045 97.5378 108.007 97.4356 108.007 97.3207C108.007 97.0271 108.141 96.6888 108.409 96.3058C108.69 95.91 109.117 95.5717 109.692 95.2908C110.266 94.9972 110.968 94.8504 111.798 94.8504C113.228 94.8504 114.25 95.1823 114.862 95.8462C115.488 96.5101 115.801 97.3399 115.801 98.3357V104.56C115.801 104.687 115.756 104.796 115.667 104.885C115.59 104.962 115.488 105 115.36 105H114.518C114.39 105 114.288 104.962 114.211 104.885C114.135 104.796 114.096 104.687 114.096 104.56V103.717C113.815 104.138 113.407 104.489 112.871 104.77C112.334 105.051 111.645 105.192 110.802 105.192ZM111.185 103.794C112.028 103.794 112.717 103.519 113.254 102.97C113.79 102.421 114.058 101.623 114.058 100.576V100.04L111.817 100.366C110.898 100.493 110.202 100.71 109.73 101.017C109.258 101.323 109.021 101.706 109.021 102.166C109.021 102.689 109.232 103.091 109.653 103.372C110.088 103.653 110.598 103.794 111.185 103.794ZM119.014 105C118.887 105 118.778 104.962 118.689 104.885C118.612 104.796 118.574 104.687 118.574 104.56V95.4823C118.574 95.3547 118.612 95.2525 118.689 95.1759C118.778 95.0865 118.887 95.0419 119.014 95.0419H119.818C119.946 95.0419 120.048 95.0865 120.125 95.1759C120.202 95.2525 120.24 95.3547 120.24 95.4823V96.1334C120.929 95.2781 121.861 94.8504 123.036 94.8504C124.44 94.8504 125.436 95.4376 126.023 96.6122C126.33 96.076 126.764 95.6483 127.325 95.3291C127.9 95.0099 128.538 94.8504 129.24 94.8504C130.287 94.8504 131.143 95.2078 131.807 95.9228C132.47 96.6377 132.802 97.6718 132.802 99.0251V104.56C132.802 104.687 132.758 104.796 132.668 104.885C132.592 104.962 132.49 105 132.362 105H131.538C131.411 105 131.302 104.962 131.213 104.885C131.136 104.796 131.098 104.687 131.098 104.56V99.1975C131.098 98.1761 130.887 97.4484 130.466 97.0143C130.045 96.5675 129.489 96.3441 128.8 96.3441C128.187 96.3441 127.657 96.5739 127.21 97.0335C126.776 97.4803 126.559 98.2017 126.559 99.1975V104.56C126.559 104.687 126.515 104.796 126.425 104.885C126.349 104.962 126.247 105 126.119 105H125.276C125.149 105 125.04 104.962 124.951 104.885C124.874 104.796 124.836 104.687 124.836 104.56V99.1975C124.836 98.1889 124.612 97.4612 124.166 97.0143C123.732 96.5675 123.189 96.3441 122.538 96.3441C121.925 96.3441 121.395 96.5675 120.948 97.0143C120.514 97.4612 120.297 98.1825 120.297 99.1783V104.56C120.297 104.687 120.253 104.796 120.163 104.885C120.087 104.962 119.984 105 119.857 105H119.014Z" fill="white"/>
<g id="Group 2">
<path id="A digital designer from" opacity="0.7" d="M69.766 195.28C69.6639 195.28 69.5745 195.241 69.4979 195.165C69.4213 195.088 69.383 194.999 69.383 194.897L69.4213 194.686L74.1706 182.296C74.2727 182.015 74.477 181.875 74.7834 181.875H76.009C76.3154 181.875 76.5197 182.015 76.6218 182.296L81.3711 194.686L81.4094 194.897C81.4094 194.999 81.3647 195.088 81.2753 195.165C81.1987 195.241 81.1093 195.28 81.0072 195.28H80.1071C79.9795 195.28 79.871 195.248 79.7816 195.184C79.705 195.107 79.6539 195.031 79.6284 194.954L78.556 192.197H72.2172L71.164 194.954C71.0618 195.171 70.9023 195.28 70.6852 195.28H69.766ZM72.7726 190.607H78.0198L75.3962 183.732L72.7726 190.607ZM91.0557 195.471C89.7152 195.471 88.7066 195.037 88.03 194.169C87.3661 193.301 87.0086 192.203 86.9576 190.875L86.9384 190.301L86.9576 189.726C87.0086 188.411 87.3725 187.32 88.0491 186.452C88.7258 185.571 89.728 185.13 91.0557 185.13C92.3835 185.13 93.4176 185.603 94.1581 186.547V182.124C94.1581 181.996 94.1964 181.894 94.273 181.817C94.3623 181.728 94.4708 181.683 94.5985 181.683H95.4603C95.5879 181.683 95.6901 181.728 95.7667 181.817C95.856 181.894 95.9007 181.996 95.9007 182.124V194.839C95.9007 194.967 95.856 195.076 95.7667 195.165C95.6901 195.241 95.5879 195.28 95.4603 195.28H94.6368C94.5091 195.28 94.407 195.241 94.3304 195.165C94.2538 195.076 94.2155 194.967 94.2155 194.839V194.016C93.4878 194.986 92.4345 195.471 91.0557 195.471ZM91.4196 193.978C92.3132 193.978 92.9835 193.684 93.4303 193.097C93.8772 192.497 94.1198 191.788 94.1581 190.971C94.1708 190.831 94.1772 190.588 94.1772 190.243C94.1772 189.886 94.1708 189.637 94.1581 189.496C94.1325 188.718 93.8836 188.047 93.4112 187.486C92.9516 186.911 92.2877 186.624 91.4196 186.624C90.5004 186.624 89.8301 186.911 89.4088 187.486C88.9875 188.06 88.7577 188.813 88.7194 189.745L88.7002 190.301C88.7002 192.752 89.6067 193.978 91.4196 193.978ZM99.0749 183.445C98.9472 183.445 98.8387 183.407 98.7493 183.33C98.6727 183.241 98.6344 183.132 98.6344 183.004V182.009C98.6344 181.881 98.6727 181.772 98.7493 181.683C98.8387 181.594 98.9472 181.549 99.0749 181.549H100.205C100.332 181.549 100.441 181.594 100.53 181.683C100.62 181.772 100.664 181.881 100.664 182.009V183.004C100.664 183.132 100.62 183.241 100.53 183.33C100.441 183.407 100.332 183.445 100.205 183.445H99.0749ZM99.2281 195.28C99.1004 195.28 98.9919 195.241 98.9025 195.165C98.8259 195.076 98.7876 194.967 98.7876 194.839V185.762C98.7876 185.634 98.8259 185.532 98.9025 185.456C98.9919 185.366 99.1004 185.322 99.2281 185.322H100.071C100.198 185.322 100.3 185.366 100.377 185.456C100.466 185.532 100.511 185.634 100.511 185.762V194.839C100.511 194.967 100.466 195.076 100.377 195.165C100.3 195.241 100.198 195.28 100.071 195.28H99.2281ZM107.429 199.493C106.369 199.493 105.52 199.314 104.882 198.957C104.244 198.599 103.79 198.191 103.522 197.731C103.267 197.271 103.139 196.876 103.139 196.544C103.139 196.429 103.184 196.327 103.273 196.237C103.363 196.161 103.465 196.122 103.58 196.122H104.422C104.537 196.122 104.633 196.148 104.71 196.199C104.786 196.263 104.85 196.371 104.901 196.525C105.259 197.546 106.069 198.057 107.333 198.057C108.291 198.057 108.999 197.852 109.459 197.444C109.918 197.035 110.148 196.314 110.148 195.28V193.958C109.408 194.903 108.374 195.376 107.046 195.376C105.693 195.376 104.678 194.941 104.001 194.073C103.337 193.205 102.986 192.107 102.948 190.779L102.929 190.243L102.948 189.726C102.986 188.411 103.337 187.32 104.001 186.452C104.678 185.571 105.693 185.13 107.046 185.13C108.386 185.13 109.433 185.622 110.187 186.605V185.781C110.187 185.654 110.225 185.545 110.301 185.456C110.391 185.366 110.499 185.322 110.627 185.322H111.45C111.578 185.322 111.68 185.366 111.757 185.456C111.846 185.545 111.891 185.654 111.891 185.781V195.069C111.891 198.018 110.404 199.493 107.429 199.493ZM107.391 193.882C108.284 193.882 108.955 193.595 109.401 193.02C109.861 192.433 110.11 191.731 110.148 190.914C110.161 190.799 110.167 190.575 110.167 190.243C110.167 189.924 110.161 189.707 110.148 189.592C110.11 188.775 109.861 188.079 109.401 187.505C108.955 186.918 108.284 186.624 107.391 186.624C106.471 186.624 105.801 186.918 105.38 187.505C104.971 188.079 104.748 188.826 104.71 189.745L104.69 190.243L104.71 190.76C104.748 191.68 104.971 192.433 105.38 193.02C105.801 193.595 106.471 193.882 107.391 193.882ZM115.065 183.445C114.937 183.445 114.828 183.407 114.739 183.33C114.662 183.241 114.624 183.132 114.624 183.004V182.009C114.624 181.881 114.662 181.772 114.739 181.683C114.828 181.594 114.937 181.549 115.065 181.549H116.194C116.322 181.549 116.431 181.594 116.52 181.683C116.609 181.772 116.654 181.881 116.654 182.009V183.004C116.654 183.132 116.609 183.241 116.52 183.33C116.431 183.407 116.322 183.445 116.194 183.445H115.065ZM115.218 195.28C115.09 195.28 114.982 195.241 114.892 195.165C114.816 195.076 114.777 194.967 114.777 194.839V185.762C114.777 185.634 114.816 185.532 114.892 185.456C114.982 185.366 115.09 185.322 115.218 185.322H116.06C116.188 185.322 116.29 185.366 116.367 185.456C116.456 185.532 116.501 185.634 116.501 185.762V194.839C116.501 194.967 116.456 195.076 116.367 195.165C116.29 195.241 116.188 195.28 116.06 195.28H115.218ZM123.208 195.28C121.229 195.28 120.24 194.163 120.24 191.928V186.796H118.727C118.599 186.796 118.497 186.758 118.42 186.681C118.344 186.605 118.305 186.503 118.305 186.375V185.762C118.305 185.634 118.344 185.532 118.42 185.456C118.497 185.366 118.599 185.322 118.727 185.322H120.24V182.124C120.24 181.996 120.278 181.894 120.355 181.817C120.431 181.728 120.533 181.683 120.661 181.683H121.504C121.631 181.683 121.733 181.728 121.81 181.817C121.899 181.894 121.944 181.996 121.944 182.124V185.322H124.319C124.446 185.322 124.548 185.366 124.625 185.456C124.714 185.532 124.759 185.634 124.759 185.762V186.375C124.759 186.503 124.714 186.605 124.625 186.681C124.548 186.758 124.446 186.796 124.319 186.796H121.944V191.794C121.944 192.446 122.046 192.937 122.25 193.269C122.467 193.601 122.831 193.767 123.342 193.767H124.51C124.638 193.767 124.74 193.812 124.817 193.901C124.893 193.978 124.931 194.08 124.931 194.207V194.839C124.931 194.967 124.893 195.076 124.817 195.165C124.74 195.241 124.638 195.28 124.51 195.28H123.208ZM129.56 195.471C128.934 195.471 128.354 195.344 127.817 195.088C127.294 194.833 126.873 194.488 126.553 194.054C126.247 193.607 126.094 193.116 126.094 192.58C126.094 191.737 126.439 191.048 127.128 190.511C127.817 189.975 128.756 189.618 129.943 189.439L132.816 189.037V188.481C132.816 187.166 132.056 186.509 130.537 186.509C129.949 186.509 129.477 186.63 129.12 186.873C128.762 187.103 128.5 187.377 128.334 187.696C128.283 187.824 128.226 187.913 128.162 187.964C128.111 188.003 128.034 188.022 127.932 188.022H127.185C127.07 188.022 126.968 187.984 126.879 187.907C126.802 187.818 126.764 187.715 126.764 187.601C126.764 187.307 126.898 186.969 127.166 186.586C127.447 186.19 127.875 185.851 128.449 185.571C129.024 185.277 129.726 185.13 130.556 185.13C131.986 185.13 133.007 185.462 133.62 186.126C134.245 186.79 134.558 187.62 134.558 188.615V194.839C134.558 194.967 134.514 195.076 134.424 195.165C134.348 195.241 134.245 195.28 134.118 195.28H133.275C133.147 195.28 133.045 195.241 132.969 195.165C132.892 195.076 132.854 194.967 132.854 194.839V193.997C132.573 194.418 132.164 194.769 131.628 195.05C131.092 195.331 130.403 195.471 129.56 195.471ZM129.943 194.073C130.786 194.073 131.475 193.799 132.011 193.25C132.547 192.701 132.816 191.903 132.816 190.856V190.32L130.575 190.645C129.656 190.773 128.96 190.99 128.488 191.297C128.015 191.603 127.779 191.986 127.779 192.446C127.779 192.969 127.99 193.371 128.411 193.652C128.845 193.933 129.356 194.073 129.943 194.073ZM137.791 195.28C137.663 195.28 137.555 195.241 137.465 195.165C137.389 195.076 137.35 194.967 137.35 194.839V182.124C137.35 181.983 137.389 181.875 137.465 181.798C137.555 181.721 137.663 181.683 137.791 181.683H138.633C138.761 181.683 138.863 181.728 138.94 181.817C139.029 181.894 139.074 181.996 139.074 182.124V194.839C139.074 194.967 139.029 195.076 138.94 195.165C138.863 195.241 138.761 195.28 138.633 195.28H137.791ZM150.302 195.471C148.961 195.471 147.953 195.037 147.276 194.169C146.612 193.301 146.255 192.203 146.204 190.875L146.185 190.301L146.204 189.726C146.255 188.411 146.619 187.32 147.295 186.452C147.972 185.571 148.974 185.13 150.302 185.13C151.63 185.13 152.664 185.603 153.404 186.547V182.124C153.404 181.996 153.442 181.894 153.519 181.817C153.608 181.728 153.717 181.683 153.845 181.683H154.706C154.834 181.683 154.936 181.728 155.013 181.817C155.102 181.894 155.147 181.996 155.147 182.124V194.839C155.147 194.967 155.102 195.076 155.013 195.165C154.936 195.241 154.834 195.28 154.706 195.28H153.883C153.755 195.28 153.653 195.241 153.577 195.165C153.5 195.076 153.462 194.967 153.462 194.839V194.016C152.734 194.986 151.681 195.471 150.302 195.471ZM150.666 193.978C151.559 193.978 152.23 193.684 152.676 193.097C153.123 192.497 153.366 191.788 153.404 190.971C153.417 190.831 153.423 190.588 153.423 190.243C153.423 189.886 153.417 189.637 153.404 189.496C153.379 188.718 153.13 188.047 152.657 187.486C152.198 186.911 151.534 186.624 150.666 186.624C149.746 186.624 149.076 186.911 148.655 187.486C148.234 188.06 148.004 188.813 147.965 189.745L147.946 190.301C147.946 192.752 148.853 193.978 150.666 193.978ZM161.979 195.471C160.676 195.471 159.636 195.069 158.857 194.265C158.078 193.448 157.651 192.337 157.574 190.933L157.555 190.282L157.574 189.65C157.651 188.271 158.078 187.173 158.857 186.356C159.636 185.539 160.676 185.13 161.979 185.13C163.383 185.13 164.468 185.577 165.234 186.471C166.013 187.364 166.402 188.577 166.402 190.109V190.454C166.402 190.582 166.358 190.69 166.268 190.779C166.192 190.856 166.09 190.894 165.962 190.894H159.317V191.067C159.355 191.897 159.61 192.605 160.083 193.192C160.555 193.78 161.181 194.073 161.96 194.073C162.56 194.073 163.045 193.958 163.415 193.729C163.798 193.486 164.085 193.237 164.277 192.982C164.392 192.829 164.481 192.739 164.545 192.714C164.609 192.675 164.717 192.656 164.87 192.656H165.713C165.828 192.656 165.924 192.688 166 192.752C166.09 192.816 166.134 192.899 166.134 193.001C166.134 193.282 165.962 193.62 165.617 194.016C165.273 194.412 164.781 194.756 164.143 195.05C163.517 195.331 162.796 195.471 161.979 195.471ZM164.66 189.592V189.535C164.66 188.641 164.417 187.913 163.932 187.352C163.447 186.79 162.796 186.509 161.979 186.509C161.149 186.509 160.498 186.79 160.025 187.352C159.553 187.913 159.317 188.641 159.317 189.535V189.592H164.66ZM172.14 195.471C171.259 195.471 170.512 195.331 169.899 195.05C169.299 194.756 168.852 194.424 168.559 194.054C168.265 193.684 168.118 193.378 168.118 193.135C168.118 193.007 168.163 192.912 168.252 192.848C168.342 192.771 168.437 192.733 168.539 192.733H169.344C169.42 192.733 169.478 192.746 169.516 192.771C169.567 192.797 169.631 192.854 169.708 192.943C170.001 193.301 170.327 193.582 170.684 193.786C171.055 193.99 171.546 194.092 172.159 194.092C172.848 194.092 173.397 193.965 173.806 193.709C174.227 193.454 174.438 193.084 174.438 192.599C174.438 192.28 174.348 192.024 174.17 191.833C173.991 191.641 173.691 191.469 173.27 191.316C172.861 191.162 172.248 190.997 171.431 190.818C170.32 190.575 169.535 190.224 169.076 189.765C168.616 189.305 168.386 188.711 168.386 187.984C168.386 187.511 168.527 187.058 168.808 186.624C169.088 186.177 169.503 185.82 170.052 185.551C170.614 185.271 171.278 185.13 172.044 185.13C172.848 185.13 173.531 185.264 174.093 185.532C174.668 185.8 175.095 186.113 175.376 186.471C175.67 186.828 175.817 187.128 175.817 187.371C175.817 187.486 175.772 187.581 175.682 187.658C175.606 187.735 175.51 187.773 175.395 187.773H174.668C174.489 187.773 174.361 187.703 174.285 187.562C174.067 187.32 173.882 187.135 173.729 187.007C173.589 186.866 173.378 186.752 173.097 186.662C172.816 186.56 172.465 186.509 172.044 186.509C171.418 186.509 170.94 186.643 170.608 186.911C170.276 187.166 170.11 187.511 170.11 187.945C170.11 188.213 170.18 188.443 170.32 188.635C170.461 188.813 170.729 188.986 171.125 189.152C171.521 189.305 172.108 189.464 172.887 189.63C174.099 189.886 174.955 190.25 175.453 190.722C175.963 191.194 176.219 191.801 176.219 192.541C176.219 193.09 176.059 193.588 175.74 194.035C175.434 194.482 174.968 194.833 174.342 195.088C173.729 195.344 172.995 195.471 172.14 195.471ZM178.743 183.445C178.615 183.445 178.507 183.407 178.417 183.33C178.341 183.241 178.302 183.132 178.302 183.004V182.009C178.302 181.881 178.341 181.772 178.417 181.683C178.507 181.594 178.615 181.549 178.743 181.549H179.873C180 181.549 180.109 181.594 180.198 181.683C180.288 181.772 180.332 181.881 180.332 182.009V183.004C180.332 183.132 180.288 183.241 180.198 183.33C180.109 183.407 180 183.445 179.873 183.445H178.743ZM178.896 195.28C178.768 195.28 178.66 195.241 178.571 195.165C178.494 195.076 178.456 194.967 178.456 194.839V185.762C178.456 185.634 178.494 185.532 178.571 185.456C178.66 185.366 178.768 185.322 178.896 185.322H179.739C179.866 185.322 179.969 185.366 180.045 185.456C180.135 185.532 180.179 185.634 180.179 185.762V194.839C180.179 194.967 180.135 195.076 180.045 195.165C179.969 195.241 179.866 195.28 179.739 195.28H178.896ZM187.097 199.493C186.037 199.493 185.188 199.314 184.55 198.957C183.912 198.599 183.458 198.191 183.19 197.731C182.935 197.271 182.807 196.876 182.807 196.544C182.807 196.429 182.852 196.327 182.941 196.237C183.031 196.161 183.133 196.122 183.248 196.122H184.09C184.205 196.122 184.301 196.148 184.378 196.199C184.454 196.263 184.518 196.371 184.569 196.525C184.927 197.546 185.737 198.057 187.001 198.057C187.959 198.057 188.667 197.852 189.127 197.444C189.586 197.035 189.816 196.314 189.816 195.28V193.958C189.076 194.903 188.042 195.376 186.714 195.376C185.361 195.376 184.346 194.941 183.669 194.073C183.005 193.205 182.654 192.107 182.616 190.779L182.597 190.243L182.616 189.726C182.654 188.411 183.005 187.32 183.669 186.452C184.346 185.571 185.361 185.13 186.714 185.13C188.054 185.13 189.101 185.622 189.855 186.605V185.781C189.855 185.654 189.893 185.545 189.969 185.456C190.059 185.366 190.167 185.322 190.295 185.322H191.119C191.246 185.322 191.348 185.366 191.425 185.456C191.514 185.545 191.559 185.654 191.559 185.781V195.069C191.559 198.018 190.072 199.493 187.097 199.493ZM187.059 193.882C187.952 193.882 188.623 193.595 189.069 193.02C189.529 192.433 189.778 191.731 189.816 190.914C189.829 190.799 189.835 190.575 189.835 190.243C189.835 189.924 189.829 189.707 189.816 189.592C189.778 188.775 189.529 188.079 189.069 187.505C188.623 186.918 187.952 186.624 187.059 186.624C186.139 186.624 185.469 186.918 185.048 187.505C184.639 188.079 184.416 188.826 184.378 189.745L184.358 190.243L184.378 190.76C184.416 191.68 184.639 192.433 185.048 193.02C185.469 193.595 186.139 193.882 187.059 193.882ZM194.886 195.28C194.758 195.28 194.65 195.241 194.56 195.165C194.484 195.076 194.445 194.967 194.445 194.839V185.762C194.445 185.634 194.484 185.532 194.56 185.456C194.65 185.366 194.758 185.322 194.886 185.322H195.709C195.85 185.322 195.958 185.36 196.035 185.437C196.111 185.513 196.15 185.622 196.15 185.762V186.605C196.533 186.132 196.973 185.768 197.471 185.513C197.982 185.258 198.614 185.13 199.367 185.13C200.593 185.13 201.544 185.526 202.22 186.317C202.897 187.096 203.235 188.13 203.235 189.42V194.839C203.235 194.967 203.191 195.076 203.101 195.165C203.025 195.241 202.923 195.28 202.795 195.28H201.914C201.786 195.28 201.678 195.241 201.588 195.165C201.512 195.076 201.474 194.967 201.474 194.839V189.535C201.474 188.615 201.25 187.901 200.803 187.39C200.356 186.879 199.718 186.624 198.888 186.624C198.071 186.624 197.42 186.886 196.935 187.409C196.45 187.92 196.207 188.628 196.207 189.535V194.839C196.207 194.967 196.163 195.076 196.073 195.165C195.997 195.241 195.894 195.28 195.767 195.28H194.886ZM209.948 195.471C208.646 195.471 207.605 195.069 206.826 194.265C206.048 193.448 205.62 192.337 205.543 190.933L205.524 190.282L205.543 189.65C205.62 188.271 206.048 187.173 206.826 186.356C207.605 185.539 208.646 185.13 209.948 185.13C211.352 185.13 212.437 185.577 213.203 186.471C213.982 187.364 214.372 188.577 214.372 190.109V190.454C214.372 190.582 214.327 190.69 214.237 190.779C214.161 190.856 214.059 190.894 213.931 190.894H207.286V191.067C207.324 191.897 207.58 192.605 208.052 193.192C208.524 193.78 209.15 194.073 209.929 194.073C210.529 194.073 211.014 193.958 211.384 193.729C211.767 193.486 212.054 193.237 212.246 192.982C212.361 192.829 212.45 192.739 212.514 192.714C212.578 192.675 212.686 192.656 212.84 192.656H213.682C213.797 192.656 213.893 192.688 213.969 192.752C214.059 192.816 214.103 192.899 214.103 193.001C214.103 193.282 213.931 193.62 213.586 194.016C213.242 194.412 212.75 194.756 212.112 195.05C211.486 195.331 210.765 195.471 209.948 195.471ZM212.629 189.592V189.535C212.629 188.641 212.386 187.913 211.901 187.352C211.416 186.79 210.765 186.509 209.948 186.509C209.118 186.509 208.467 186.79 207.995 187.352C207.522 187.913 207.286 188.641 207.286 189.535V189.592H212.629ZM217.141 195.28C217.013 195.28 216.904 195.241 216.815 195.165C216.738 195.076 216.7 194.967 216.7 194.839V185.781C216.7 185.654 216.738 185.545 216.815 185.456C216.904 185.366 217.013 185.322 217.141 185.322H217.945C218.085 185.322 218.194 185.366 218.27 185.456C218.36 185.532 218.404 185.641 218.404 185.781V186.624C218.928 185.756 219.815 185.322 221.066 185.322H221.813C221.954 185.322 222.062 185.36 222.139 185.437C222.215 185.513 222.254 185.622 222.254 185.762V186.471C222.254 186.598 222.215 186.707 222.139 186.796C222.062 186.873 221.954 186.911 221.813 186.911H220.722C220.019 186.911 219.464 187.115 219.056 187.524C218.66 187.932 218.462 188.488 218.462 189.19V194.839C218.462 194.967 218.417 195.076 218.328 195.165C218.238 195.241 218.13 195.28 218.002 195.28H217.141ZM229.245 195.28C229.117 195.28 229.009 195.241 228.919 195.165C228.843 195.076 228.805 194.967 228.805 194.839V186.796H227.158C227.03 186.796 226.921 186.758 226.832 186.681C226.755 186.605 226.717 186.503 226.717 186.375V185.762C226.717 185.634 226.755 185.532 226.832 185.456C226.921 185.366 227.03 185.322 227.158 185.322H228.805V184.364C228.805 183.33 229.054 182.532 229.551 181.97C230.062 181.396 230.892 181.109 232.041 181.109H233.171C233.298 181.109 233.401 181.153 233.477 181.243C233.567 181.319 233.611 181.421 233.611 181.549V182.162C233.611 182.29 233.567 182.392 233.477 182.468C233.401 182.545 233.298 182.583 233.171 182.583H232.079C231.492 182.583 231.083 182.736 230.854 183.043C230.624 183.349 230.509 183.822 230.509 184.46V185.322H232.979C233.107 185.322 233.209 185.366 233.286 185.456C233.375 185.532 233.42 185.634 233.42 185.762V186.375C233.42 186.503 233.375 186.605 233.286 186.681C233.209 186.758 233.107 186.796 232.979 186.796H230.509V194.839C230.509 194.967 230.464 195.076 230.375 195.165C230.298 195.241 230.196 195.28 230.068 195.28H229.245ZM235.561 195.28C235.434 195.28 235.325 195.241 235.236 195.165C235.159 195.076 235.121 194.967 235.121 194.839V185.781C235.121 185.654 235.159 185.545 235.236 185.456C235.325 185.366 235.434 185.322 235.561 185.322H236.366C236.506 185.322 236.615 185.366 236.691 185.456C236.781 185.532 236.825 185.641 236.825 185.781V186.624C237.349 185.756 238.236 185.322 239.487 185.322H240.234C240.375 185.322 240.483 185.36 240.56 185.437C240.636 185.513 240.675 185.622 240.675 185.762V186.471C240.675 186.598 240.636 186.707 240.56 186.796C240.483 186.873 240.375 186.911 240.234 186.911H239.143C238.44 186.911 237.885 187.115 237.476 187.524C237.081 187.932 236.883 188.488 236.883 189.19V194.839C236.883 194.967 236.838 195.076 236.749 195.165C236.659 195.241 236.551 195.28 236.423 195.28H235.561ZM246.175 195.471C244.77 195.471 243.685 195.076 242.919 194.284C242.166 193.492 241.764 192.439 241.713 191.124L241.694 190.301L241.713 189.477C241.764 188.162 242.172 187.109 242.938 186.317C243.717 185.526 244.796 185.13 246.175 185.13C247.554 185.13 248.626 185.526 249.392 186.317C250.171 187.109 250.586 188.162 250.637 189.477C250.662 189.758 250.675 190.033 250.675 190.301C250.675 190.569 250.662 190.843 250.637 191.124C250.586 192.439 250.177 193.492 249.411 194.284C248.658 195.076 247.579 195.471 246.175 195.471ZM246.175 194.035C246.992 194.035 247.637 193.78 248.109 193.269C248.594 192.746 248.856 191.999 248.894 191.028C248.907 190.901 248.913 190.658 248.913 190.301C248.913 189.943 248.907 189.701 248.894 189.573C248.856 188.603 248.594 187.862 248.109 187.352C247.637 186.828 246.992 186.566 246.175 186.566C245.358 186.566 244.707 186.828 244.221 187.352C243.749 187.862 243.494 188.603 243.455 189.573L243.436 190.301L243.455 191.028C243.494 191.999 243.749 192.746 244.221 193.269C244.707 193.78 245.358 194.035 246.175 194.035ZM253.534 195.28C253.406 195.28 253.297 195.241 253.208 195.165C253.131 195.076 253.093 194.967 253.093 194.839V185.762C253.093 185.634 253.131 185.532 253.208 185.456C253.297 185.366 253.406 185.322 253.534 185.322H254.338C254.466 185.322 254.568 185.366 254.644 185.456C254.721 185.532 254.759 185.634 254.759 185.762V186.413C255.449 185.558 256.381 185.13 257.555 185.13C258.959 185.13 259.955 185.717 260.543 186.892C260.849 186.356 261.283 185.928 261.845 185.609C262.419 185.29 263.058 185.13 263.76 185.13C264.807 185.13 265.662 185.488 266.326 186.203C266.99 186.918 267.322 187.952 267.322 189.305V194.839C267.322 194.967 267.277 195.076 267.188 195.165C267.111 195.241 267.009 195.28 266.881 195.28H266.058C265.93 195.28 265.822 195.241 265.732 195.165C265.656 195.076 265.617 194.967 265.617 194.839V189.477C265.617 188.456 265.407 187.728 264.985 187.294C264.564 186.847 264.009 186.624 263.319 186.624C262.706 186.624 262.177 186.854 261.73 187.313C261.296 187.76 261.079 188.481 261.079 189.477V194.839C261.079 194.967 261.034 195.076 260.945 195.165C260.868 195.241 260.766 195.28 260.638 195.28H259.796C259.668 195.28 259.559 195.241 259.47 195.165C259.394 195.076 259.355 194.967 259.355 194.839V189.477C259.355 188.469 259.132 187.741 258.685 187.294C258.251 186.847 257.708 186.624 257.057 186.624C256.444 186.624 255.915 186.847 255.468 187.294C255.034 187.741 254.817 188.462 254.817 189.458V194.839C254.817 194.967 254.772 195.076 254.683 195.165C254.606 195.241 254.504 195.28 254.376 195.28H253.534Z" fill="white"/>
<g id="India" opacity="0.9">
<path d="M274.92 195.28C274.792 195.28 274.69 195.241 274.614 195.165C274.537 195.076 274.499 194.967 274.499 194.839V182.315C274.499 182.187 274.537 182.085 274.614 182.009C274.69 181.919 274.792 181.875 274.92 181.875H275.878C276.018 181.875 276.126 181.913 276.203 181.99C276.28 182.066 276.318 182.175 276.318 182.315V194.839C276.318 194.967 276.273 195.076 276.184 195.165C276.107 195.241 276.005 195.28 275.878 195.28H274.92ZM279.889 195.28C279.762 195.28 279.653 195.241 279.564 195.165C279.487 195.076 279.449 194.967 279.449 194.839V185.762C279.449 185.634 279.487 185.532 279.564 185.456C279.653 185.366 279.762 185.322 279.889 185.322H280.713C280.853 185.322 280.962 185.36 281.038 185.437C281.115 185.513 281.153 185.622 281.153 185.762V186.605C281.536 186.132 281.977 185.768 282.474 185.513C282.985 185.258 283.617 185.13 284.37 185.13C285.596 185.13 286.547 185.526 287.224 186.317C287.9 187.096 288.239 188.13 288.239 189.42V194.839C288.239 194.967 288.194 195.076 288.105 195.165C288.028 195.241 287.926 195.28 287.798 195.28H286.917C286.79 195.28 286.681 195.241 286.592 195.165C286.515 195.076 286.477 194.967 286.477 194.839V189.535C286.477 188.615 286.253 187.901 285.807 187.39C285.36 186.879 284.721 186.624 283.892 186.624C283.075 186.624 282.423 186.886 281.938 187.409C281.453 187.92 281.211 188.628 281.211 189.535V194.839C281.211 194.967 281.166 195.076 281.077 195.165C281 195.241 280.898 195.28 280.77 195.28H279.889ZM294.645 195.471C293.304 195.471 292.296 195.037 291.619 194.169C290.955 193.301 290.598 192.203 290.547 190.875L290.527 190.301L290.547 189.726C290.598 188.411 290.962 187.32 291.638 186.452C292.315 185.571 293.317 185.13 294.645 185.13C295.973 185.13 297.007 185.603 297.747 186.547V182.124C297.747 181.996 297.785 181.894 297.862 181.817C297.951 181.728 298.06 181.683 298.188 181.683H299.049C299.177 181.683 299.279 181.728 299.356 181.817C299.445 181.894 299.49 181.996 299.49 182.124V194.839C299.49 194.967 299.445 195.076 299.356 195.165C299.279 195.241 299.177 195.28 299.049 195.28H298.226C298.098 195.28 297.996 195.241 297.919 195.165C297.843 195.076 297.805 194.967 297.805 194.839V194.016C297.077 194.986 296.024 195.471 294.645 195.471ZM295.009 193.978C295.902 193.978 296.573 193.684 297.019 193.097C297.466 192.497 297.709 191.788 297.747 190.971C297.76 190.831 297.766 190.588 297.766 190.243C297.766 189.886 297.76 189.637 297.747 189.496C297.722 188.718 297.473 188.047 297 187.486C296.541 186.911 295.877 186.624 295.009 186.624C294.089 186.624 293.419 186.911 292.998 187.486C292.577 188.06 292.347 188.813 292.308 189.745L292.289 190.301C292.289 192.752 293.196 193.978 295.009 193.978ZM302.664 183.445C302.536 183.445 302.428 183.407 302.338 183.33C302.262 183.241 302.223 183.132 302.223 183.004V182.009C302.223 181.881 302.262 181.772 302.338 181.683C302.428 181.594 302.536 181.549 302.664 181.549H303.794C303.921 181.549 304.03 181.594 304.119 181.683C304.209 181.772 304.253 181.881 304.253 182.009V183.004C304.253 183.132 304.209 183.241 304.119 183.33C304.03 183.407 303.921 183.445 303.794 183.445H302.664ZM302.817 195.28C302.689 195.28 302.581 195.241 302.492 195.165C302.415 195.076 302.377 194.967 302.377 194.839V185.762C302.377 185.634 302.415 185.532 302.492 185.456C302.581 185.366 302.689 185.322 302.817 185.322H303.66C303.787 185.322 303.89 185.366 303.966 185.456C304.056 185.532 304.1 185.634 304.1 185.762V194.839C304.1 194.967 304.056 195.076 303.966 195.165C303.89 195.241 303.787 195.28 303.66 195.28H302.817ZM309.735 195.471C309.109 195.471 308.528 195.344 307.992 195.088C307.469 194.833 307.047 194.488 306.728 194.054C306.422 193.607 306.269 193.116 306.269 192.58C306.269 191.737 306.613 191.048 307.303 190.511C307.992 189.975 308.931 189.618 310.118 189.439L312.99 189.037V188.481C312.99 187.166 312.231 186.509 310.712 186.509C310.124 186.509 309.652 186.63 309.294 186.873C308.937 187.103 308.675 187.377 308.509 187.696C308.458 187.824 308.401 187.913 308.337 187.964C308.286 188.003 308.209 188.022 308.107 188.022H307.36C307.245 188.022 307.143 187.984 307.054 187.907C306.977 187.818 306.939 187.715 306.939 187.601C306.939 187.307 307.073 186.969 307.341 186.586C307.622 186.19 308.05 185.851 308.624 185.571C309.199 185.277 309.901 185.13 310.731 185.13C312.161 185.13 313.182 185.462 313.795 186.126C314.42 186.79 314.733 187.62 314.733 188.615V194.839C314.733 194.967 314.688 195.076 314.599 195.165C314.522 195.241 314.42 195.28 314.293 195.28H313.45C313.322 195.28 313.22 195.241 313.144 195.165C313.067 195.076 313.029 194.967 313.029 194.839V193.997C312.748 194.418 312.339 194.769 311.803 195.05C311.267 195.331 310.577 195.471 309.735 195.471ZM310.118 194.073C310.96 194.073 311.65 193.799 312.186 193.25C312.722 192.701 312.99 191.903 312.99 190.856V190.32L310.75 190.645C309.831 190.773 309.135 190.99 308.662 191.297C308.19 191.603 307.954 191.986 307.954 192.446C307.954 192.969 308.165 193.371 308.586 193.652C309.02 193.933 309.531 194.073 310.118 194.073Z" fill="black"/>
<path d="M274.92 195.28C274.792 195.28 274.69 195.241 274.614 195.165C274.537 195.076 274.499 194.967 274.499 194.839V182.315C274.499 182.187 274.537 182.085 274.614 182.009C274.69 181.919 274.792 181.875 274.92 181.875H275.878C276.018 181.875 276.126 181.913 276.203 181.99C276.28 182.066 276.318 182.175 276.318 182.315V194.839C276.318 194.967 276.273 195.076 276.184 195.165C276.107 195.241 276.005 195.28 275.878 195.28H274.92ZM279.889 195.28C279.762 195.28 279.653 195.241 279.564 195.165C279.487 195.076 279.449 194.967 279.449 194.839V185.762C279.449 185.634 279.487 185.532 279.564 185.456C279.653 185.366 279.762 185.322 279.889 185.322H280.713C280.853 185.322 280.962 185.36 281.038 185.437C281.115 185.513 281.153 185.622 281.153 185.762V186.605C281.536 186.132 281.977 185.768 282.474 185.513C282.985 185.258 283.617 185.13 284.37 185.13C285.596 185.13 286.547 185.526 287.224 186.317C287.9 187.096 288.239 188.13 288.239 189.42V194.839C288.239 194.967 288.194 195.076 288.105 195.165C288.028 195.241 287.926 195.28 287.798 195.28H286.917C286.79 195.28 286.681 195.241 286.592 195.165C286.515 195.076 286.477 194.967 286.477 194.839V189.535C286.477 188.615 286.253 187.901 285.807 187.39C285.36 186.879 284.721 186.624 283.892 186.624C283.075 186.624 282.423 186.886 281.938 187.409C281.453 187.92 281.211 188.628 281.211 189.535V194.839C281.211 194.967 281.166 195.076 281.077 195.165C281 195.241 280.898 195.28 280.77 195.28H279.889ZM294.645 195.471C293.304 195.471 292.296 195.037 291.619 194.169C290.955 193.301 290.598 192.203 290.547 190.875L290.527 190.301L290.547 189.726C290.598 188.411 290.962 187.32 291.638 186.452C292.315 185.571 293.317 185.13 294.645 185.13C295.973 185.13 297.007 185.603 297.747 186.547V182.124C297.747 181.996 297.785 181.894 297.862 181.817C297.951 181.728 298.06 181.683 298.188 181.683H299.049C299.177 181.683 299.279 181.728 299.356 181.817C299.445 181.894 299.49 181.996 299.49 182.124V194.839C299.49 194.967 299.445 195.076 299.356 195.165C299.279 195.241 299.177 195.28 299.049 195.28H298.226C298.098 195.28 297.996 195.241 297.919 195.165C297.843 195.076 297.805 194.967 297.805 194.839V194.016C297.077 194.986 296.024 195.471 294.645 195.471ZM295.009 193.978C295.902 193.978 296.573 193.684 297.019 193.097C297.466 192.497 297.709 191.788 297.747 190.971C297.76 190.831 297.766 190.588 297.766 190.243C297.766 189.886 297.76 189.637 297.747 189.496C297.722 188.718 297.473 188.047 297 187.486C296.541 186.911 295.877 186.624 295.009 186.624C294.089 186.624 293.419 186.911 292.998 187.486C292.577 188.06 292.347 188.813 292.308 189.745L292.289 190.301C292.289 192.752 293.196 193.978 295.009 193.978ZM302.664 183.445C302.536 183.445 302.428 183.407 302.338 183.33C302.262 183.241 302.223 183.132 302.223 183.004V182.009C302.223 181.881 302.262 181.772 302.338 181.683C302.428 181.594 302.536 181.549 302.664 181.549H303.794C303.921 181.549 304.03 181.594 304.119 181.683C304.209 181.772 304.253 181.881 304.253 182.009V183.004C304.253 183.132 304.209 183.241 304.119 183.33C304.03 183.407 303.921 183.445 303.794 183.445H302.664ZM302.817 195.28C302.689 195.28 302.581 195.241 302.492 195.165C302.415 195.076 302.377 194.967 302.377 194.839V185.762C302.377 185.634 302.415 185.532 302.492 185.456C302.581 185.366 302.689 185.322 302.817 185.322H303.66C303.787 185.322 303.89 185.366 303.966 185.456C304.056 185.532 304.1 185.634 304.1 185.762V194.839C304.1 194.967 304.056 195.076 303.966 195.165C303.89 195.241 303.787 195.28 303.66 195.28H302.817ZM309.735 195.471C309.109 195.471 308.528 195.344 307.992 195.088C307.469 194.833 307.047 194.488 306.728 194.054C306.422 193.607 306.269 193.116 306.269 192.58C306.269 191.737 306.613 191.048 307.303 190.511C307.992 189.975 308.931 189.618 310.118 189.439L312.99 189.037V188.481C312.99 187.166 312.231 186.509 310.712 186.509C310.124 186.509 309.652 186.63 309.294 186.873C308.937 187.103 308.675 187.377 308.509 187.696C308.458 187.824 308.401 187.913 308.337 187.964C308.286 188.003 308.209 188.022 308.107 188.022H307.36C307.245 188.022 307.143 187.984 307.054 187.907C306.977 187.818 306.939 187.715 306.939 187.601C306.939 187.307 307.073 186.969 307.341 186.586C307.622 186.19 308.05 185.851 308.624 185.571C309.199 185.277 309.901 185.13 310.731 185.13C312.161 185.13 313.182 185.462 313.795 186.126C314.42 186.79 314.733 187.62 314.733 188.615V194.839C314.733 194.967 314.688 195.076 314.599 195.165C314.522 195.241 314.42 195.28 314.293 195.28H313.45C313.322 195.28 313.22 195.241 313.144 195.165C313.067 195.076 313.029 194.967 313.029 194.839V193.997C312.748 194.418 312.339 194.769 311.803 195.05C311.267 195.331 310.577 195.471 309.735 195.471ZM310.118 194.073C310.96 194.073 311.65 193.799 312.186 193.25C312.722 192.701 312.99 191.903 312.99 190.856V190.32L310.75 190.645C309.831 190.773 309.135 190.99 308.662 191.297C308.19 191.603 307.954 191.986 307.954 192.446C307.954 192.969 308.165 193.371 308.586 193.652C309.02 193.933 309.531 194.073 310.118 194.073Z" fill="url(#paint0_linear)"/>
</g>
</g>
<path id="Avinash" opacity="0.9" d="M70.9697 156.254C70.7071 156.254 70.4773 156.155 70.2803 155.958C70.0834 155.761 69.9849 155.532 69.9849 155.269L70.0834 154.727L82.2958 122.867C82.5584 122.145 83.0836 121.783 83.8715 121.783H87.0231C87.811 121.783 88.3363 122.145 88.5989 122.867L100.811 154.727L100.91 155.269C100.91 155.532 100.795 155.761 100.565 155.958C100.368 156.155 100.138 156.254 99.8757 156.254H97.5612C97.233 156.254 96.9539 156.172 96.7241 156.008C96.5271 155.811 96.3958 155.614 96.3302 155.417L93.5725 148.326H77.2729L74.5645 155.417C74.3019 155.975 73.8915 156.254 73.3334 156.254H70.9697ZM78.701 144.238H92.1937L85.4473 126.56L78.701 144.238ZM112.961 156.254C112.107 156.254 111.5 155.844 111.139 155.023L101.979 132.174C101.946 132.075 101.93 131.911 101.93 131.681C101.93 131.386 102.029 131.14 102.226 130.943C102.423 130.746 102.652 130.647 102.915 130.647H105.18C105.705 130.647 106.099 130.91 106.362 131.435L113.945 151.083L121.529 131.435C121.595 131.238 121.726 131.058 121.923 130.893C122.153 130.729 122.415 130.647 122.711 130.647H124.976C125.239 130.647 125.468 130.746 125.665 130.943C125.862 131.14 125.961 131.386 125.961 131.681L125.862 132.174L116.752 155.023C116.391 155.844 115.784 156.254 114.93 156.254H112.961ZM131.957 125.821C131.628 125.821 131.349 125.723 131.12 125.526C130.923 125.296 130.824 125.017 130.824 124.689V122.128C130.824 121.8 130.923 121.521 131.12 121.291C131.349 121.061 131.628 120.946 131.957 120.946H134.862C135.19 120.946 135.469 121.061 135.699 121.291C135.929 121.521 136.044 121.8 136.044 122.128V124.689C136.044 125.017 135.929 125.296 135.699 125.526C135.469 125.723 135.19 125.821 134.862 125.821H131.957ZM132.351 156.254C132.022 156.254 131.743 156.155 131.513 155.958C131.317 155.729 131.218 155.45 131.218 155.121V131.78C131.218 131.452 131.317 131.189 131.513 130.992C131.743 130.762 132.022 130.647 132.351 130.647H134.517C134.846 130.647 135.108 130.762 135.305 130.992C135.535 131.189 135.65 131.452 135.65 131.78V155.121C135.65 155.45 135.535 155.729 135.305 155.958C135.108 156.155 134.846 156.254 134.517 156.254H132.351ZM144.181 156.254C143.852 156.254 143.573 156.155 143.343 155.958C143.147 155.729 143.048 155.45 143.048 155.121V131.78C143.048 131.452 143.147 131.189 143.343 130.992C143.573 130.762 143.852 130.647 144.181 130.647H146.298C146.659 130.647 146.938 130.746 147.135 130.943C147.332 131.14 147.431 131.419 147.431 131.78V133.947C148.416 132.732 149.548 131.796 150.829 131.14C152.142 130.483 153.767 130.155 155.704 130.155C158.855 130.155 161.301 131.173 163.041 133.208C164.781 135.211 165.651 137.87 165.651 141.185V155.121C165.651 155.45 165.536 155.729 165.306 155.958C165.109 156.155 164.846 156.254 164.518 156.254H162.253C161.925 156.254 161.646 156.155 161.416 155.958C161.219 155.729 161.12 155.45 161.12 155.121V141.481C161.12 139.117 160.546 137.279 159.397 135.966C158.248 134.652 156.606 133.996 154.473 133.996C152.371 133.996 150.697 134.669 149.45 136.015C148.202 137.328 147.578 139.15 147.578 141.481V155.121C147.578 155.45 147.464 155.729 147.234 155.958C147.037 156.155 146.774 156.254 146.446 156.254H144.181ZM179.858 156.746C178.25 156.746 176.756 156.418 175.377 155.761C174.031 155.105 172.948 154.219 172.127 153.102C171.339 151.953 170.945 150.689 170.945 149.311C170.945 147.144 171.832 145.371 173.604 143.992C175.377 142.613 177.79 141.694 180.843 141.235L188.23 140.201V138.772C188.23 135.391 186.276 133.7 182.37 133.7C180.86 133.7 179.645 134.012 178.726 134.636C177.807 135.227 177.134 135.933 176.707 136.753C176.575 137.082 176.428 137.312 176.264 137.443C176.132 137.541 175.935 137.591 175.673 137.591H173.752C173.457 137.591 173.194 137.492 172.964 137.295C172.767 137.065 172.669 136.803 172.669 136.507C172.669 135.752 173.013 134.882 173.703 133.897C174.425 132.88 175.525 132.01 177.002 131.287C178.48 130.532 180.285 130.155 182.419 130.155C186.096 130.155 188.722 131.008 190.298 132.716C191.907 134.423 192.711 136.556 192.711 139.117V155.121C192.711 155.45 192.596 155.729 192.366 155.958C192.169 156.155 191.907 156.254 191.578 156.254H189.412C189.083 156.254 188.821 156.155 188.624 155.958C188.427 155.729 188.328 155.45 188.328 155.121V152.955C187.606 154.038 186.555 154.941 185.177 155.663C183.798 156.385 182.025 156.746 179.858 156.746ZM180.843 153.152C183.01 153.152 184.783 152.446 186.161 151.034C187.54 149.622 188.23 147.571 188.23 144.879V143.5L182.468 144.337C180.105 144.665 178.315 145.223 177.101 146.011C175.886 146.799 175.279 147.784 175.279 148.966C175.279 150.312 175.82 151.346 176.904 152.068C178.02 152.79 179.333 153.152 180.843 153.152ZM208.607 156.746C206.342 156.746 204.421 156.385 202.845 155.663C201.302 154.908 200.153 154.054 199.398 153.102C198.643 152.15 198.266 151.362 198.266 150.739C198.266 150.41 198.381 150.164 198.61 150C198.84 149.803 199.087 149.705 199.349 149.705H201.417C201.614 149.705 201.762 149.737 201.861 149.803C201.992 149.869 202.156 150.016 202.353 150.246C203.108 151.165 203.945 151.888 204.864 152.413C205.816 152.938 207.08 153.201 208.656 153.201C210.429 153.201 211.841 152.873 212.891 152.216C213.974 151.559 214.516 150.607 214.516 149.36C214.516 148.539 214.286 147.883 213.827 147.39C213.367 146.898 212.596 146.454 211.512 146.06C210.462 145.667 208.886 145.24 206.785 144.78C203.929 144.156 201.91 143.254 200.728 142.072C199.546 140.89 198.955 139.363 198.955 137.492C198.955 136.277 199.316 135.112 200.039 133.996C200.761 132.847 201.828 131.928 203.239 131.238C204.684 130.516 206.391 130.155 208.361 130.155C210.429 130.155 212.185 130.5 213.63 131.189C215.107 131.878 216.207 132.683 216.929 133.602C217.684 134.521 218.062 135.293 218.062 135.916C218.062 136.212 217.947 136.458 217.717 136.655C217.52 136.852 217.274 136.95 216.978 136.95H215.107C214.647 136.95 214.319 136.77 214.122 136.409C213.564 135.785 213.088 135.309 212.694 134.981C212.333 134.62 211.791 134.324 211.069 134.094C210.347 133.832 209.444 133.7 208.361 133.7C206.752 133.7 205.521 134.045 204.667 134.734C203.814 135.391 203.387 136.277 203.387 137.394C203.387 138.083 203.568 138.674 203.929 139.166C204.29 139.626 204.979 140.069 205.997 140.496C207.015 140.89 208.525 141.3 210.527 141.727C213.646 142.384 215.846 143.319 217.126 144.534C218.439 145.749 219.096 147.308 219.096 149.212C219.096 150.624 218.685 151.904 217.865 153.053C217.077 154.202 215.879 155.105 214.27 155.761C212.694 156.418 210.806 156.746 208.607 156.746ZM226.03 156.254C225.702 156.254 225.423 156.155 225.193 155.958C224.996 155.729 224.897 155.45 224.897 155.121V122.424C224.897 122.062 224.996 121.783 225.193 121.586C225.423 121.389 225.702 121.291 226.03 121.291H228.295C228.656 121.291 228.935 121.389 229.132 121.586C229.329 121.783 229.428 122.062 229.428 122.424V133.897C230.38 132.683 231.496 131.763 232.776 131.14C234.089 130.483 235.698 130.155 237.602 130.155C240.754 130.155 243.199 131.173 244.939 133.208C246.712 135.211 247.599 137.87 247.599 141.185V155.121C247.599 155.45 247.484 155.729 247.254 155.958C247.057 156.155 246.794 156.254 246.466 156.254H244.152C243.823 156.254 243.544 156.155 243.314 155.958C243.117 155.729 243.019 155.45 243.019 155.121V141.481C243.019 139.117 242.444 137.279 241.295 135.966C240.146 134.652 238.489 133.996 236.322 133.996C234.221 133.996 232.546 134.669 231.299 136.015C230.051 137.328 229.428 139.15 229.428 141.481V155.121C229.428 155.45 229.313 155.729 229.083 155.958C228.886 156.155 228.623 156.254 228.295 156.254H226.03Z" fill="white"/>
<g id="group-behance">
<path id="A glimpse of my public work" opacity="0.7" d="M121.636 298.974C121.548 298.974 121.472 298.941 121.406 298.876C121.34 298.81 121.308 298.733 121.308 298.646L121.34 298.465L125.411 287.845C125.499 287.604 125.674 287.484 125.936 287.484H126.987C127.25 287.484 127.425 287.604 127.512 287.845L131.583 298.465L131.616 298.646C131.616 298.733 131.578 298.81 131.501 298.876C131.435 298.941 131.359 298.974 131.271 298.974H130.5C130.39 298.974 130.297 298.947 130.221 298.892C130.155 298.826 130.111 298.761 130.089 298.695L129.17 296.331H123.737L122.834 298.695C122.747 298.881 122.61 298.974 122.424 298.974H121.636ZM124.213 294.969H128.71L126.462 289.076L124.213 294.969ZM140.229 302.585C139.321 302.585 138.593 302.432 138.046 302.126C137.499 301.819 137.11 301.469 136.88 301.075C136.661 300.681 136.552 300.342 136.552 300.057C136.552 299.959 136.59 299.871 136.667 299.795C136.744 299.729 136.831 299.696 136.93 299.696H137.652C137.75 299.696 137.832 299.718 137.898 299.762C137.964 299.817 138.018 299.91 138.062 300.041C138.369 300.917 139.063 301.354 140.147 301.354C140.968 301.354 141.575 301.179 141.969 300.829C142.363 300.479 142.56 299.861 142.56 298.974V297.842C141.925 298.651 141.039 299.056 139.901 299.056C138.741 299.056 137.871 298.684 137.291 297.94C136.722 297.196 136.421 296.255 136.388 295.117L136.371 294.657L136.388 294.214C136.421 293.087 136.722 292.151 137.291 291.407C137.871 290.652 138.741 290.274 139.901 290.274C141.05 290.274 141.947 290.696 142.593 291.538V290.833C142.593 290.723 142.625 290.63 142.691 290.553C142.768 290.477 142.861 290.439 142.97 290.439H143.676C143.785 290.439 143.873 290.477 143.939 290.553C144.015 290.63 144.053 290.723 144.053 290.833V298.794C144.053 301.321 142.779 302.585 140.229 302.585ZM140.196 297.776C140.962 297.776 141.537 297.53 141.92 297.037C142.313 296.534 142.527 295.932 142.56 295.232C142.571 295.133 142.576 294.942 142.576 294.657C142.576 294.384 142.571 294.197 142.56 294.099C142.527 293.399 142.313 292.802 141.92 292.31C141.537 291.806 140.962 291.555 140.196 291.555C139.408 291.555 138.834 291.806 138.472 292.31C138.122 292.802 137.931 293.442 137.898 294.23L137.882 294.657L137.898 295.1C137.931 295.888 138.122 296.534 138.472 297.037C138.834 297.53 139.408 297.776 140.196 297.776ZM146.921 298.974C146.812 298.974 146.719 298.941 146.642 298.876C146.577 298.799 146.544 298.706 146.544 298.597V287.697C146.544 287.577 146.577 287.484 146.642 287.418C146.719 287.353 146.812 287.32 146.921 287.32H147.644C147.753 287.32 147.841 287.358 147.906 287.435C147.983 287.5 148.021 287.588 148.021 287.697V298.597C148.021 298.706 147.983 298.799 147.906 298.876C147.841 298.941 147.753 298.974 147.644 298.974H146.921ZM150.733 288.83C150.624 288.83 150.531 288.797 150.454 288.731C150.388 288.655 150.356 288.562 150.356 288.452V287.599C150.356 287.489 150.388 287.396 150.454 287.32C150.531 287.243 150.624 287.205 150.733 287.205H151.702C151.811 287.205 151.904 287.243 151.981 287.32C152.057 287.396 152.096 287.489 152.096 287.599V288.452C152.096 288.562 152.057 288.655 151.981 288.731C151.904 288.797 151.811 288.83 151.702 288.83H150.733ZM150.864 298.974C150.755 298.974 150.662 298.941 150.585 298.876C150.52 298.799 150.487 298.706 150.487 298.597V290.816C150.487 290.707 150.52 290.619 150.585 290.553C150.662 290.477 150.755 290.439 150.864 290.439H151.587C151.696 290.439 151.784 290.477 151.849 290.553C151.926 290.619 151.964 290.707 151.964 290.816V298.597C151.964 298.706 151.926 298.799 151.849 298.876C151.784 298.941 151.696 298.974 151.587 298.974H150.864ZM154.808 298.974C154.698 298.974 154.605 298.941 154.529 298.876C154.463 298.799 154.43 298.706 154.43 298.597V290.816C154.43 290.707 154.463 290.619 154.529 290.553C154.605 290.477 154.698 290.439 154.808 290.439H155.497C155.607 290.439 155.694 290.477 155.76 290.553C155.825 290.619 155.858 290.707 155.858 290.816V291.374C156.449 290.641 157.248 290.274 158.255 290.274C159.459 290.274 160.312 290.778 160.815 291.785C161.078 291.325 161.45 290.958 161.932 290.685C162.424 290.411 162.971 290.274 163.573 290.274C164.47 290.274 165.204 290.581 165.773 291.194C166.342 291.806 166.626 292.693 166.626 293.853V298.597C166.626 298.706 166.588 298.799 166.511 298.876C166.446 298.941 166.358 298.974 166.249 298.974H165.543C165.433 298.974 165.34 298.941 165.264 298.876C165.198 298.799 165.165 298.706 165.165 298.597V294.001C165.165 293.125 164.985 292.501 164.624 292.129C164.263 291.746 163.786 291.555 163.196 291.555C162.67 291.555 162.216 291.752 161.833 292.146C161.461 292.529 161.275 293.147 161.275 294.001V298.597C161.275 298.706 161.237 298.799 161.16 298.876C161.095 298.941 161.007 298.974 160.898 298.974H160.175C160.066 298.974 159.973 298.941 159.896 298.876C159.831 298.799 159.798 298.706 159.798 298.597V294.001C159.798 293.136 159.606 292.512 159.223 292.129C158.851 291.746 158.386 291.555 157.828 291.555C157.303 291.555 156.849 291.746 156.466 292.129C156.094 292.512 155.908 293.131 155.908 293.984V298.597C155.908 298.706 155.869 298.799 155.793 298.876C155.727 298.941 155.639 298.974 155.53 298.974H154.808ZM169.395 302.093C169.286 302.093 169.193 302.06 169.116 301.994C169.051 301.929 169.018 301.836 169.018 301.715V290.816C169.018 290.696 169.051 290.603 169.116 290.537C169.193 290.471 169.286 290.439 169.395 290.439H170.085C170.205 290.439 170.298 290.471 170.364 290.537C170.429 290.603 170.462 290.696 170.462 290.816V291.538C171.097 290.696 172 290.274 173.171 290.274C174.32 290.274 175.179 290.641 175.748 291.374C176.328 292.096 176.634 293.021 176.667 294.148C176.678 294.269 176.683 294.455 176.683 294.706C176.683 294.958 176.678 295.144 176.667 295.264C176.634 296.381 176.328 297.305 175.748 298.038C175.179 298.772 174.32 299.138 173.171 299.138C172 299.138 171.113 298.722 170.511 297.891V301.715C170.511 301.825 170.473 301.912 170.397 301.978C170.331 302.055 170.243 302.093 170.134 302.093H169.395ZM172.859 297.858C173.647 297.858 174.221 297.612 174.582 297.119C174.943 296.627 175.14 295.981 175.173 295.182C175.184 295.073 175.19 294.914 175.19 294.706C175.19 292.605 174.413 291.555 172.859 291.555C172.093 291.555 171.513 291.812 171.119 292.326C170.736 292.83 170.533 293.426 170.511 294.115C170.5 294.236 170.495 294.449 170.495 294.756C170.495 295.062 170.5 295.275 170.511 295.396C170.533 296.063 170.741 296.643 171.135 297.136C171.54 297.617 172.115 297.858 172.859 297.858ZM181.669 299.138C180.914 299.138 180.274 299.018 179.749 298.777C179.234 298.525 178.851 298.241 178.6 297.924C178.348 297.606 178.222 297.344 178.222 297.136C178.222 297.026 178.26 296.944 178.337 296.889C178.414 296.824 178.496 296.791 178.583 296.791H179.273C179.338 296.791 179.388 296.802 179.42 296.824C179.464 296.846 179.519 296.895 179.585 296.972C179.836 297.278 180.115 297.519 180.422 297.694C180.739 297.869 181.16 297.956 181.686 297.956C182.277 297.956 182.747 297.847 183.097 297.628C183.458 297.409 183.639 297.092 183.639 296.676C183.639 296.403 183.562 296.184 183.409 296.02C183.256 295.855 182.999 295.708 182.638 295.576C182.287 295.445 181.762 295.303 181.062 295.15C180.11 294.942 179.437 294.641 179.043 294.247C178.649 293.853 178.452 293.344 178.452 292.72C178.452 292.315 178.572 291.927 178.813 291.555C179.054 291.172 179.409 290.865 179.88 290.636C180.362 290.395 180.931 290.274 181.587 290.274C182.277 290.274 182.862 290.389 183.343 290.619C183.836 290.849 184.203 291.117 184.443 291.423C184.695 291.73 184.821 291.987 184.821 292.195C184.821 292.293 184.782 292.375 184.706 292.441C184.64 292.507 184.558 292.54 184.46 292.54H183.836C183.683 292.54 183.573 292.479 183.508 292.359C183.322 292.151 183.163 291.992 183.032 291.883C182.911 291.763 182.731 291.664 182.49 291.588C182.249 291.5 181.948 291.456 181.587 291.456C181.051 291.456 180.641 291.571 180.356 291.801C180.072 292.02 179.929 292.315 179.929 292.687C179.929 292.917 179.989 293.114 180.11 293.278C180.23 293.431 180.46 293.579 180.799 293.721C181.138 293.853 181.642 293.99 182.309 294.132C183.349 294.351 184.082 294.663 184.509 295.067C184.947 295.472 185.165 295.992 185.165 296.627C185.165 297.097 185.029 297.524 184.755 297.907C184.492 298.29 184.093 298.591 183.557 298.81C183.032 299.029 182.402 299.138 181.669 299.138ZM190.464 299.138C189.348 299.138 188.456 298.794 187.789 298.104C187.121 297.404 186.755 296.452 186.689 295.248L186.673 294.69L186.689 294.148C186.755 292.966 187.121 292.025 187.789 291.325C188.456 290.625 189.348 290.274 190.464 290.274C191.668 290.274 192.598 290.657 193.255 291.423C193.922 292.189 194.256 293.229 194.256 294.542V294.838C194.256 294.947 194.218 295.04 194.141 295.117C194.075 295.182 193.988 295.215 193.879 295.215H188.183V295.363C188.216 296.074 188.434 296.682 188.839 297.185C189.244 297.688 189.78 297.94 190.448 297.94C190.962 297.94 191.378 297.842 191.695 297.645C192.024 297.437 192.27 297.223 192.434 297.004C192.533 296.873 192.609 296.796 192.664 296.775C192.719 296.742 192.812 296.725 192.943 296.725H193.665C193.764 296.725 193.846 296.753 193.911 296.807C193.988 296.862 194.026 296.933 194.026 297.021C194.026 297.262 193.879 297.552 193.583 297.891C193.288 298.23 192.866 298.525 192.319 298.777C191.783 299.018 191.165 299.138 190.464 299.138ZM192.762 294.099V294.05C192.762 293.284 192.554 292.66 192.139 292.179C191.723 291.697 191.165 291.456 190.464 291.456C189.753 291.456 189.195 291.697 188.79 292.179C188.385 292.66 188.183 293.284 188.183 294.05V294.099H192.762ZM203.755 299.138C202.551 299.138 201.621 298.799 200.964 298.121C200.319 297.442 199.974 296.539 199.93 295.412L199.914 294.706L199.93 294.001C199.974 292.873 200.324 291.971 200.981 291.292C201.648 290.614 202.573 290.274 203.755 290.274C204.937 290.274 205.856 290.614 206.513 291.292C207.18 291.971 207.536 292.873 207.579 294.001C207.601 294.241 207.612 294.477 207.612 294.706C207.612 294.936 207.601 295.171 207.579 295.412C207.536 296.539 207.186 297.442 206.529 298.121C205.883 298.799 204.959 299.138 203.755 299.138ZM203.755 297.907C204.455 297.907 205.008 297.688 205.413 297.251C205.829 296.802 206.053 296.162 206.086 295.33C206.097 295.221 206.102 295.013 206.102 294.706C206.102 294.4 206.097 294.192 206.086 294.083C206.053 293.251 205.829 292.616 205.413 292.179C205.008 291.73 204.455 291.506 203.755 291.506C203.055 291.506 202.496 291.73 202.081 292.179C201.676 292.616 201.457 293.251 201.424 294.083L201.408 294.706L201.424 295.33C201.457 296.162 201.676 296.802 202.081 297.251C202.496 297.688 203.055 297.907 203.755 297.907ZM210.82 298.974C210.71 298.974 210.617 298.941 210.541 298.876C210.475 298.799 210.442 298.706 210.442 298.597V291.702H209.031C208.921 291.702 208.828 291.67 208.752 291.604C208.686 291.538 208.653 291.451 208.653 291.341V290.816C208.653 290.707 208.686 290.619 208.752 290.553C208.828 290.477 208.921 290.439 209.031 290.439H210.442V289.618C210.442 288.731 210.656 288.048 211.082 287.566C211.52 287.074 212.231 286.827 213.216 286.827H214.185C214.294 286.827 214.382 286.866 214.447 286.942C214.524 287.008 214.562 287.095 214.562 287.205V287.73C214.562 287.84 214.524 287.927 214.447 287.993C214.382 288.058 214.294 288.091 214.185 288.091H213.249C212.746 288.091 212.396 288.223 212.199 288.485C212.002 288.748 211.903 289.153 211.903 289.7V290.439H214.021C214.13 290.439 214.218 290.477 214.283 290.553C214.36 290.619 214.398 290.707 214.398 290.816V291.341C214.398 291.451 214.36 291.538 214.283 291.604C214.218 291.67 214.13 291.702 214.021 291.702H211.903V298.597C211.903 298.706 211.865 298.799 211.788 298.876C211.723 298.941 211.635 298.974 211.526 298.974H210.82ZM219.905 298.974C219.795 298.974 219.702 298.941 219.626 298.876C219.56 298.799 219.527 298.706 219.527 298.597V290.816C219.527 290.707 219.56 290.619 219.626 290.553C219.702 290.477 219.795 290.439 219.905 290.439H220.594C220.704 290.439 220.791 290.477 220.857 290.553C220.922 290.619 220.955 290.707 220.955 290.816V291.374C221.546 290.641 222.345 290.274 223.352 290.274C224.556 290.274 225.409 290.778 225.912 291.785C226.175 291.325 226.547 290.958 227.029 290.685C227.521 290.411 228.068 290.274 228.67 290.274C229.567 290.274 230.301 290.581 230.87 291.194C231.439 291.806 231.723 292.693 231.723 293.853V298.597C231.723 298.706 231.685 298.799 231.608 298.876C231.543 298.941 231.455 298.974 231.346 298.974H230.64C230.53 298.974 230.437 298.941 230.361 298.876C230.295 298.799 230.262 298.706 230.262 298.597V294.001C230.262 293.125 230.082 292.501 229.721 292.129C229.359 291.746 228.883 291.555 228.293 291.555C227.767 291.555 227.313 291.752 226.93 292.146C226.558 292.529 226.372 293.147 226.372 294.001V298.597C226.372 298.706 226.334 298.799 226.257 298.876C226.191 298.941 226.104 298.974 225.995 298.974H225.272C225.163 298.974 225.07 298.941 224.993 298.876C224.928 298.799 224.895 298.706 224.895 298.597V294.001C224.895 293.136 224.703 292.512 224.32 292.129C223.948 291.746 223.483 291.555 222.925 291.555C222.4 291.555 221.946 291.746 221.563 292.129C221.191 292.512 221.005 293.131 221.005 293.984V298.597C221.005 298.706 220.966 298.799 220.89 298.876C220.824 298.941 220.736 298.974 220.627 298.974H219.905ZM235.336 302.093C235.237 302.093 235.155 302.06 235.089 301.994C235.024 301.929 234.991 301.852 234.991 301.765C234.991 301.732 235.018 301.633 235.073 301.469L236.353 298.465L233.218 291.062C233.152 290.931 233.12 290.838 233.12 290.783C233.131 290.685 233.169 290.603 233.234 290.537C233.3 290.471 233.377 290.439 233.464 290.439H234.219C234.394 290.439 234.526 290.526 234.613 290.701L237.141 296.742L239.735 290.701C239.822 290.526 239.953 290.439 240.129 290.439H240.867C240.955 290.439 241.031 290.471 241.097 290.537C241.163 290.603 241.196 290.679 241.196 290.767C241.196 290.843 241.168 290.942 241.113 291.062L236.468 301.83C236.413 301.918 236.353 301.983 236.288 302.027C236.233 302.071 236.156 302.093 236.058 302.093H235.336ZM246.835 302.093C246.726 302.093 246.633 302.06 246.556 301.994C246.49 301.929 246.458 301.836 246.458 301.715V290.816C246.458 290.696 246.49 290.603 246.556 290.537C246.633 290.471 246.726 290.439 246.835 290.439H247.525C247.645 290.439 247.738 290.471 247.804 290.537C247.869 290.603 247.902 290.696 247.902 290.816V291.538C248.537 290.696 249.44 290.274 250.611 290.274C251.76 290.274 252.619 290.641 253.188 291.374C253.768 292.096 254.074 293.021 254.107 294.148C254.118 294.269 254.123 294.455 254.123 294.706C254.123 294.958 254.118 295.144 254.107 295.264C254.074 296.381 253.768 297.305 253.188 298.038C252.619 298.772 251.76 299.138 250.611 299.138C249.44 299.138 248.553 298.722 247.951 297.891V301.715C247.951 301.825 247.913 301.912 247.836 301.978C247.771 302.055 247.683 302.093 247.574 302.093H246.835ZM250.299 297.858C251.087 297.858 251.661 297.612 252.022 297.119C252.383 296.627 252.58 295.981 252.613 295.182C252.624 295.073 252.629 294.914 252.629 294.706C252.629 292.605 251.853 291.555 250.299 291.555C249.533 291.555 248.953 291.812 248.559 292.326C248.176 292.83 247.973 293.426 247.951 294.115C247.94 294.236 247.935 294.449 247.935 294.756C247.935 295.062 247.94 295.275 247.951 295.396C247.973 296.063 248.181 296.643 248.575 297.136C248.98 297.617 249.555 297.858 250.299 297.858ZM259.372 299.138C258.332 299.138 257.528 298.805 256.959 298.137C256.39 297.459 256.105 296.561 256.105 295.445V290.816C256.105 290.707 256.138 290.619 256.204 290.553C256.28 290.477 256.373 290.439 256.483 290.439H257.238C257.347 290.439 257.435 290.477 257.501 290.553C257.577 290.619 257.615 290.707 257.615 290.816V295.363C257.615 297.026 258.338 297.858 259.782 297.858C260.482 297.858 261.035 297.639 261.44 297.201C261.856 296.753 262.064 296.14 262.064 295.363V290.816C262.064 290.707 262.097 290.619 262.162 290.553C262.239 290.477 262.332 290.439 262.441 290.439H263.196C263.306 290.439 263.393 290.477 263.459 290.553C263.536 290.619 263.574 290.707 263.574 290.816V298.597C263.574 298.706 263.536 298.799 263.459 298.876C263.393 298.941 263.306 298.974 263.196 298.974H262.491C262.381 298.974 262.288 298.941 262.211 298.876C262.146 298.799 262.113 298.706 262.113 298.597V297.858C261.796 298.285 261.424 298.608 260.997 298.826C260.57 299.034 260.028 299.138 259.372 299.138ZM270.199 299.138C269.017 299.138 268.114 298.722 267.491 297.891V298.597C267.491 298.706 267.452 298.799 267.376 298.876C267.31 298.941 267.222 298.974 267.113 298.974H266.424C266.314 298.974 266.221 298.941 266.145 298.876C266.079 298.799 266.046 298.706 266.046 298.597V287.697C266.046 287.577 266.079 287.484 266.145 287.418C266.221 287.353 266.314 287.32 266.424 287.32H267.162C267.272 287.32 267.359 287.358 267.425 287.435C267.501 287.5 267.54 287.588 267.54 287.697V291.489C268.153 290.679 269.039 290.274 270.199 290.274C271.348 290.274 272.207 290.652 272.776 291.407C273.356 292.151 273.662 293.087 273.695 294.214C273.706 294.334 273.712 294.498 273.712 294.706C273.712 294.914 273.706 295.078 273.695 295.199C273.662 296.326 273.356 297.267 272.776 298.022C272.207 298.766 271.348 299.138 270.199 299.138ZM269.887 297.858C270.675 297.858 271.249 297.612 271.611 297.119C271.972 296.627 272.169 295.981 272.201 295.182C272.212 295.073 272.218 294.914 272.218 294.706C272.218 292.605 271.441 291.555 269.887 291.555C269.143 291.555 268.568 291.801 268.164 292.293C267.77 292.775 267.562 293.349 267.54 294.017C267.529 294.137 267.523 294.351 267.523 294.657C267.523 294.953 267.529 295.16 267.54 295.281C267.562 295.981 267.764 296.589 268.147 297.103C268.541 297.606 269.121 297.858 269.887 297.858ZM276.17 298.974C276.06 298.974 275.967 298.941 275.891 298.876C275.825 298.799 275.792 298.706 275.792 298.597V287.697C275.792 287.577 275.825 287.484 275.891 287.418C275.967 287.353 276.06 287.32 276.17 287.32H276.892C277.001 287.32 277.089 287.358 277.155 287.435C277.231 287.5 277.269 287.588 277.269 287.697V298.597C277.269 298.706 277.231 298.799 277.155 298.876C277.089 298.941 277.001 298.974 276.892 298.974H276.17ZM279.981 288.83C279.872 288.83 279.779 288.797 279.702 288.731C279.637 288.655 279.604 288.562 279.604 288.452V287.599C279.604 287.489 279.637 287.396 279.702 287.32C279.779 287.243 279.872 287.205 279.981 287.205H280.95C281.059 287.205 281.152 287.243 281.229 287.32C281.305 287.396 281.344 287.489 281.344 287.599V288.452C281.344 288.562 281.305 288.655 281.229 288.731C281.152 288.797 281.059 288.83 280.95 288.83H279.981ZM280.113 298.974C280.003 298.974 279.91 298.941 279.834 298.876C279.768 298.799 279.735 298.706 279.735 298.597V290.816C279.735 290.707 279.768 290.619 279.834 290.553C279.91 290.477 280.003 290.439 280.113 290.439H280.835C280.944 290.439 281.032 290.477 281.098 290.553C281.174 290.619 281.212 290.707 281.212 290.816V298.597C281.212 298.706 281.174 298.799 281.098 298.876C281.032 298.941 280.944 298.974 280.835 298.974H280.113ZM287.093 299.138C285.922 299.138 285.008 298.81 284.351 298.153C283.695 297.486 283.35 296.556 283.317 295.363L283.301 294.706L283.317 294.05C283.35 292.857 283.695 291.932 284.351 291.276C285.008 290.608 285.922 290.274 287.093 290.274C287.881 290.274 288.543 290.417 289.079 290.701C289.626 290.975 290.031 291.319 290.293 291.735C290.567 292.151 290.715 292.567 290.737 292.983C290.748 293.081 290.709 293.169 290.622 293.245C290.545 293.322 290.458 293.36 290.359 293.36H289.637C289.527 293.36 289.445 293.338 289.391 293.295C289.336 293.24 289.281 293.147 289.227 293.016C289.03 292.479 288.756 292.102 288.406 291.883C288.067 291.653 287.634 291.538 287.109 291.538C286.42 291.538 285.873 291.752 285.468 292.179C285.063 292.605 284.844 293.256 284.811 294.132L284.795 294.706L284.811 295.281C284.844 296.156 285.063 296.807 285.468 297.234C285.873 297.661 286.42 297.874 287.109 297.874C287.645 297.874 288.083 297.765 288.422 297.546C288.761 297.316 289.03 296.933 289.227 296.397C289.281 296.266 289.336 296.178 289.391 296.134C289.445 296.08 289.527 296.052 289.637 296.052H290.359C290.458 296.052 290.545 296.091 290.622 296.167C290.709 296.244 290.748 296.331 290.737 296.43C290.715 296.835 290.567 297.245 290.293 297.661C290.031 298.077 289.626 298.427 289.079 298.711C288.543 298.996 287.881 299.138 287.093 299.138ZM298.623 298.974C298.47 298.974 298.355 298.941 298.278 298.876C298.202 298.81 298.142 298.706 298.098 298.564L295.767 290.947L295.734 290.783C295.734 290.685 295.767 290.603 295.833 290.537C295.898 290.471 295.98 290.439 296.079 290.439H296.752C296.861 290.439 296.949 290.471 297.015 290.537C297.091 290.592 297.135 290.646 297.146 290.701L299.001 296.972L300.97 290.783C300.992 290.696 301.042 290.619 301.118 290.553C301.195 290.477 301.299 290.439 301.43 290.439H301.955C302.087 290.439 302.191 290.477 302.267 290.553C302.344 290.619 302.393 290.696 302.415 290.783L304.385 296.972L306.24 290.701C306.25 290.646 306.289 290.592 306.354 290.537C306.431 290.471 306.524 290.439 306.633 290.439H307.306C307.405 290.439 307.487 290.471 307.553 290.537C307.618 290.603 307.651 290.685 307.651 290.783L307.618 290.947L305.287 298.564C305.244 298.706 305.184 298.81 305.107 298.876C305.03 298.941 304.915 298.974 304.762 298.974H304.171C303.887 298.974 303.701 298.837 303.613 298.564L301.693 292.622L299.772 298.564C299.685 298.837 299.499 298.974 299.214 298.974H298.623ZM312.725 299.138C311.522 299.138 310.592 298.799 309.935 298.121C309.289 297.442 308.945 296.539 308.901 295.412L308.884 294.706L308.901 294.001C308.945 292.873 309.295 291.971 309.951 291.292C310.619 290.614 311.544 290.274 312.725 290.274C313.907 290.274 314.826 290.614 315.483 291.292C316.151 291.971 316.506 292.873 316.55 294.001C316.572 294.241 316.583 294.477 316.583 294.706C316.583 294.936 316.572 295.171 316.55 295.412C316.506 296.539 316.156 297.442 315.499 298.121C314.854 298.799 313.929 299.138 312.725 299.138ZM312.725 297.907C313.426 297.907 313.978 297.688 314.383 297.251C314.799 296.802 315.023 296.162 315.056 295.33C315.067 295.221 315.073 295.013 315.073 294.706C315.073 294.4 315.067 294.192 315.056 294.083C315.023 293.251 314.799 292.616 314.383 292.179C313.978 291.73 313.426 291.506 312.725 291.506C312.025 291.506 311.467 291.73 311.051 292.179C310.646 292.616 310.427 293.251 310.395 294.083L310.378 294.706L310.395 295.33C310.427 296.162 310.646 296.802 311.051 297.251C311.467 297.688 312.025 297.907 312.725 297.907ZM319.033 298.974C318.924 298.974 318.831 298.941 318.754 298.876C318.688 298.799 318.655 298.706 318.655 298.597V290.833C318.655 290.723 318.688 290.63 318.754 290.553C318.831 290.477 318.924 290.439 319.033 290.439H319.722C319.843 290.439 319.936 290.477 320.001 290.553C320.078 290.619 320.116 290.712 320.116 290.833V291.555C320.565 290.811 321.326 290.439 322.398 290.439H323.038C323.158 290.439 323.251 290.471 323.317 290.537C323.383 290.603 323.416 290.696 323.416 290.816V291.423C323.416 291.533 323.383 291.626 323.317 291.702C323.251 291.768 323.158 291.801 323.038 291.801H322.102C321.501 291.801 321.025 291.976 320.674 292.326C320.335 292.676 320.166 293.152 320.166 293.754V298.597C320.166 298.706 320.127 298.799 320.051 298.876C319.974 298.941 319.881 298.974 319.772 298.974H319.033ZM325.221 298.974C325.111 298.974 325.018 298.941 324.942 298.876C324.876 298.799 324.843 298.706 324.843 298.597V287.697C324.843 287.577 324.876 287.484 324.942 287.418C325.018 287.353 325.111 287.32 325.221 287.32H325.927C326.036 287.32 326.124 287.358 326.189 287.435C326.266 287.5 326.304 287.588 326.304 287.697V293.426L329.587 290.718C329.751 290.597 329.866 290.521 329.932 290.488C329.997 290.455 330.101 290.439 330.244 290.439H331.064C331.163 290.439 331.24 290.471 331.294 290.537C331.36 290.592 331.393 290.674 331.393 290.783C331.393 290.882 331.333 290.986 331.212 291.095L327.371 294.247L331.623 298.318C331.743 298.438 331.803 298.542 331.803 298.629C331.803 298.728 331.77 298.81 331.705 298.876C331.65 298.941 331.573 298.974 331.475 298.974H330.67C330.506 298.974 330.386 298.958 330.309 298.925C330.244 298.892 330.145 298.815 330.014 298.695L326.304 295.182V298.597C326.304 298.706 326.266 298.799 326.189 298.876C326.124 298.941 326.036 298.974 325.927 298.974H325.221Z" fill="white"/>
<g id="ic-behance">
<path id="Vector" d="M106.617 276.451H75.1555C74.3989 276.451 73.7876 277.062 73.7876 277.819V309.28C73.7876 310.036 74.3989 310.648 75.1555 310.648H106.617C107.373 310.648 107.984 310.036 107.984 309.28V277.819C107.984 277.062 107.373 276.451 106.617 276.451ZM94.5836 286.663H100.5V288.103H94.5836V286.663ZM90.886 298.542C90.6093 299.067 90.2142 299.521 89.7319 299.867C89.2275 300.218 88.6675 300.474 88.0733 300.624C87.4517 300.79 86.8104 300.872 86.1669 300.867H79.0881V286.287H85.9702C86.667 286.287 87.2996 286.351 87.8767 286.47C88.4495 286.59 88.9368 286.795 89.3472 287.073C89.7533 287.351 90.0739 287.723 90.3004 288.185C90.5227 288.642 90.6381 289.215 90.6381 289.894C90.6381 290.63 90.4714 291.237 90.138 291.728C89.8003 292.22 89.313 292.617 88.6504 292.929C89.5524 293.186 90.2149 293.643 90.6509 294.284C91.0955 294.934 91.3135 295.712 91.3135 296.627C91.3135 297.371 91.1724 298.008 90.886 298.542ZM102.804 296.285H95.1778C95.1778 297.114 95.4642 297.909 95.8959 298.337C96.3319 298.76 96.956 298.974 97.7724 298.974C98.3623 298.974 98.8625 298.824 99.2899 298.529C99.7131 298.234 99.9696 297.922 100.064 297.597H102.62C102.209 298.867 101.585 299.773 100.739 300.32C99.9012 300.867 98.8753 301.141 97.6827 301.141C96.8491 301.141 96.1011 301.004 95.43 300.743C94.7845 300.491 94.2031 300.107 93.7244 299.611C93.2523 299.101 92.8875 298.503 92.6515 297.85C92.3907 297.127 92.2625 296.366 92.271 295.601C92.271 294.81 92.4035 294.075 92.66 293.391C93.1516 292.062 94.1732 290.997 95.477 290.446C96.1737 290.155 96.9218 290.01 97.6784 290.018C98.5761 290.018 99.3541 290.189 100.029 290.54C100.68 290.875 101.244 291.354 101.679 291.942C102.111 292.528 102.415 293.194 102.607 293.947C102.791 294.686 102.855 295.464 102.804 296.285V296.285ZM97.5886 292.198C97.127 292.198 96.738 292.28 96.4388 292.438C96.1395 292.596 95.8916 292.793 95.7035 293.019C95.5244 293.238 95.392 293.491 95.3145 293.763C95.2461 293.99 95.1991 294.22 95.182 294.455H99.9055C99.8371 293.716 99.5806 293.169 99.2386 292.784C98.8796 292.404 98.3025 292.198 97.5886 292.198V292.198ZM86.9662 291.767C87.3381 291.497 87.5177 291.053 87.5177 290.442C87.5305 290.151 87.4706 289.865 87.3424 289.604C87.227 289.394 87.056 289.219 86.8465 289.095C86.6294 288.963 86.3881 288.876 86.137 288.839C85.8634 288.787 85.5855 288.762 85.312 288.766H82.3069V292.173H85.5599C86.1199 292.177 86.5943 292.04 86.9662 291.767V291.767ZM87.4706 294.844C87.0517 294.524 86.4917 294.366 85.795 294.366H82.2983V298.384H85.7266C86.0472 298.384 86.3421 298.354 86.6285 298.294C86.9149 298.234 87.1714 298.132 87.3894 297.986C87.6074 297.845 87.7827 297.653 87.9152 297.405C88.0434 297.157 88.1075 296.841 88.1075 296.46C88.1075 295.704 87.8938 295.169 87.4706 294.844V294.844Z" fill="white"/>
</g>
</g>
<g id="group-linkedin">
<path id="Contact me" opacity="0.7" d="M126.527 360.693C125.072 360.693 123.961 360.299 123.195 359.511C122.44 358.712 122.035 357.623 121.981 356.244C121.97 355.949 121.964 355.467 121.964 354.8C121.964 354.121 121.97 353.629 121.981 353.322C122.035 351.944 122.44 350.86 123.195 350.072C123.961 349.274 125.072 348.874 126.527 348.874C127.501 348.874 128.327 349.049 129.006 349.399C129.684 349.739 130.193 350.187 130.532 350.745C130.883 351.303 131.074 351.9 131.107 352.535C131.107 352.633 131.069 352.715 130.992 352.781C130.926 352.836 130.844 352.863 130.746 352.863H129.925C129.816 352.863 129.728 352.836 129.663 352.781C129.597 352.726 129.548 352.633 129.515 352.502C129.329 351.659 128.99 351.068 128.497 350.729C128.016 350.39 127.359 350.22 126.527 350.22C124.623 350.22 123.633 351.282 123.556 353.405C123.545 353.7 123.54 354.154 123.54 354.767C123.54 355.38 123.545 355.845 123.556 356.162C123.633 358.274 124.623 359.33 126.527 359.33C127.348 359.33 128.005 359.161 128.497 358.821C128.99 358.482 129.329 357.897 129.515 357.065C129.548 356.934 129.597 356.841 129.663 356.786C129.728 356.731 129.816 356.704 129.925 356.704H130.746C130.844 356.704 130.926 356.737 130.992 356.802C131.069 356.857 131.107 356.934 131.107 357.032C131.074 357.667 130.883 358.263 130.532 358.821C130.193 359.379 129.684 359.834 129.006 360.184C128.327 360.523 127.501 360.693 126.527 360.693ZM136.59 360.693C135.386 360.693 134.456 360.353 133.8 359.675C133.154 358.996 132.809 358.094 132.766 356.966L132.749 356.261L132.766 355.555C132.809 354.428 133.159 353.525 133.816 352.846C134.484 352.168 135.408 351.829 136.59 351.829C137.772 351.829 138.691 352.168 139.348 352.846C140.015 353.525 140.371 354.428 140.415 355.555C140.437 355.796 140.447 356.031 140.447 356.261C140.447 356.49 140.437 356.726 140.415 356.966C140.371 358.094 140.021 358.996 139.364 359.675C138.719 360.353 137.794 360.693 136.59 360.693ZM136.59 359.461C137.29 359.461 137.843 359.243 138.248 358.805C138.664 358.356 138.888 357.716 138.921 356.884C138.932 356.775 138.937 356.567 138.937 356.261C138.937 355.954 138.932 355.746 138.921 355.637C138.888 354.805 138.664 354.171 138.248 353.733C137.843 353.284 137.29 353.06 136.59 353.06C135.89 353.06 135.332 353.284 134.916 353.733C134.511 354.171 134.292 354.805 134.259 355.637L134.243 356.261L134.259 356.884C134.292 357.716 134.511 358.356 134.916 358.805C135.332 359.243 135.89 359.461 136.59 359.461ZM142.898 360.528C142.788 360.528 142.695 360.496 142.619 360.43C142.553 360.353 142.52 360.26 142.52 360.151V352.37C142.52 352.261 142.553 352.173 142.619 352.108C142.695 352.031 142.788 351.993 142.898 351.993H143.603C143.724 351.993 143.817 352.026 143.882 352.091C143.948 352.157 143.981 352.25 143.981 352.37V353.093C144.309 352.688 144.687 352.376 145.114 352.157C145.551 351.938 146.093 351.829 146.739 351.829C147.789 351.829 148.604 352.168 149.184 352.846C149.764 353.514 150.054 354.4 150.054 355.506V360.151C150.054 360.26 150.016 360.353 149.939 360.43C149.874 360.496 149.786 360.528 149.677 360.528H148.922C148.812 360.528 148.719 360.496 148.643 360.43C148.577 360.353 148.544 360.26 148.544 360.151V355.604C148.544 354.816 148.353 354.203 147.97 353.766C147.587 353.328 147.04 353.109 146.328 353.109C145.628 353.109 145.07 353.333 144.654 353.782C144.238 354.22 144.03 354.827 144.03 355.604V360.151C144.03 360.26 143.992 360.353 143.915 360.43C143.85 360.496 143.762 360.528 143.653 360.528H142.898ZM155.597 360.528C153.901 360.528 153.053 359.571 153.053 357.656V353.257H151.756C151.647 353.257 151.559 353.224 151.494 353.158C151.428 353.093 151.395 353.005 151.395 352.896V352.37C151.395 352.261 151.428 352.173 151.494 352.108C151.559 352.031 151.647 351.993 151.756 351.993H153.053V349.252C153.053 349.142 153.086 349.055 153.151 348.989C153.217 348.912 153.305 348.874 153.414 348.874H154.136C154.246 348.874 154.333 348.912 154.399 348.989C154.476 349.055 154.514 349.142 154.514 349.252V351.993H156.549C156.659 351.993 156.746 352.031 156.812 352.108C156.888 352.173 156.927 352.261 156.927 352.37V352.896C156.927 353.005 156.888 353.093 156.812 353.158C156.746 353.224 156.659 353.257 156.549 353.257H154.514V357.541C154.514 358.099 154.601 358.52 154.776 358.805C154.962 359.089 155.274 359.232 155.712 359.232H156.713C156.823 359.232 156.91 359.27 156.976 359.347C157.042 359.412 157.074 359.5 157.074 359.609V360.151C157.074 360.26 157.042 360.353 156.976 360.43C156.91 360.496 156.823 360.528 156.713 360.528H155.597ZM161.042 360.693C160.506 360.693 160.008 360.583 159.548 360.364C159.099 360.145 158.738 359.85 158.465 359.478C158.202 359.095 158.071 358.674 158.071 358.214C158.071 357.492 158.366 356.901 158.957 356.441C159.548 355.982 160.352 355.675 161.37 355.522L163.832 355.177V354.701C163.832 353.574 163.181 353.011 161.879 353.011C161.376 353.011 160.971 353.115 160.664 353.322C160.358 353.519 160.134 353.755 159.991 354.028C159.948 354.138 159.898 354.214 159.844 354.258C159.8 354.291 159.734 354.307 159.647 354.307H159.006C158.908 354.307 158.82 354.275 158.744 354.209C158.678 354.132 158.645 354.045 158.645 353.946C158.645 353.695 158.76 353.405 158.99 353.076C159.231 352.737 159.597 352.447 160.09 352.206C160.582 351.955 161.184 351.829 161.895 351.829C163.121 351.829 163.996 352.113 164.522 352.682C165.058 353.251 165.326 353.963 165.326 354.816V360.151C165.326 360.26 165.288 360.353 165.211 360.43C165.145 360.496 165.058 360.528 164.948 360.528H164.226C164.117 360.528 164.029 360.496 163.964 360.43C163.898 360.353 163.865 360.26 163.865 360.151V359.429C163.624 359.79 163.274 360.091 162.815 360.331C162.355 360.572 161.764 360.693 161.042 360.693ZM161.37 359.494C162.092 359.494 162.683 359.259 163.143 358.789C163.602 358.318 163.832 357.634 163.832 356.737V356.277L161.912 356.556C161.124 356.666 160.527 356.852 160.123 357.114C159.718 357.377 159.515 357.705 159.515 358.099C159.515 358.548 159.696 358.892 160.057 359.133C160.429 359.374 160.867 359.494 161.37 359.494ZM171.117 360.693C169.946 360.693 169.032 360.364 168.376 359.708C167.719 359.04 167.375 358.11 167.342 356.917L167.325 356.261L167.342 355.604C167.375 354.411 167.719 353.487 168.376 352.83C169.032 352.163 169.946 351.829 171.117 351.829C171.905 351.829 172.567 351.971 173.103 352.256C173.65 352.529 174.055 352.874 174.318 353.29C174.592 353.705 174.739 354.121 174.761 354.537C174.772 354.636 174.734 354.723 174.646 354.8C174.57 354.876 174.482 354.915 174.384 354.915H173.661C173.552 354.915 173.47 354.893 173.415 354.849C173.36 354.794 173.306 354.701 173.251 354.57C173.054 354.034 172.78 353.656 172.43 353.437C172.091 353.208 171.659 353.093 171.134 353.093C170.444 353.093 169.897 353.306 169.492 353.733C169.087 354.16 168.868 354.811 168.835 355.686L168.819 356.261L168.835 356.835C168.868 357.711 169.087 358.362 169.492 358.789C169.897 359.215 170.444 359.429 171.134 359.429C171.67 359.429 172.107 359.319 172.447 359.1C172.786 358.871 173.054 358.488 173.251 357.951C173.306 357.82 173.36 357.733 173.415 357.689C173.47 357.634 173.552 357.607 173.661 357.607H174.384C174.482 357.607 174.57 357.645 174.646 357.722C174.734 357.798 174.772 357.886 174.761 357.984C174.739 358.389 174.592 358.799 174.318 359.215C174.055 359.631 173.65 359.981 173.103 360.266C172.567 360.55 171.905 360.693 171.117 360.693ZM180.011 360.528C178.314 360.528 177.466 359.571 177.466 357.656V353.257H176.17C176.06 353.257 175.973 353.224 175.907 353.158C175.841 353.093 175.808 353.005 175.808 352.896V352.37C175.808 352.261 175.841 352.173 175.907 352.108C175.973 352.031 176.06 351.993 176.17 351.993H177.466V349.252C177.466 349.142 177.499 349.055 177.565 348.989C177.63 348.912 177.718 348.874 177.827 348.874H178.55C178.659 348.874 178.747 348.912 178.812 348.989C178.889 349.055 178.927 349.142 178.927 349.252V351.993H180.963C181.072 351.993 181.16 352.031 181.225 352.108C181.302 352.173 181.34 352.261 181.34 352.37V352.896C181.34 353.005 181.302 353.093 181.225 353.158C181.16 353.224 181.072 353.257 180.963 353.257H178.927V357.541C178.927 358.099 179.015 358.52 179.19 358.805C179.376 359.089 179.688 359.232 180.125 359.232H181.127C181.236 359.232 181.324 359.27 181.389 359.347C181.455 359.412 181.488 359.5 181.488 359.609V360.151C181.488 360.26 181.455 360.353 181.389 360.43C181.324 360.496 181.236 360.528 181.127 360.528H180.011ZM187.509 360.528C187.399 360.528 187.306 360.496 187.229 360.43C187.164 360.353 187.131 360.26 187.131 360.151V352.37C187.131 352.261 187.164 352.173 187.229 352.108C187.306 352.031 187.399 351.993 187.509 351.993H188.198C188.307 351.993 188.395 352.031 188.461 352.108C188.526 352.173 188.559 352.261 188.559 352.37V352.929C189.15 352.195 189.949 351.829 190.956 351.829C192.159 351.829 193.013 352.332 193.516 353.339C193.779 352.879 194.151 352.513 194.632 352.239C195.125 351.966 195.672 351.829 196.274 351.829C197.171 351.829 197.904 352.135 198.473 352.748C199.042 353.361 199.327 354.247 199.327 355.407V360.151C199.327 360.26 199.289 360.353 199.212 360.43C199.146 360.496 199.059 360.528 198.949 360.528H198.244C198.134 360.528 198.041 360.496 197.965 360.43C197.899 360.353 197.866 360.26 197.866 360.151V355.555C197.866 354.679 197.686 354.056 197.324 353.684C196.963 353.301 196.487 353.109 195.896 353.109C195.371 353.109 194.917 353.306 194.534 353.7C194.162 354.083 193.976 354.701 193.976 355.555V360.151C193.976 360.26 193.938 360.353 193.861 360.43C193.795 360.496 193.708 360.528 193.598 360.528H192.876C192.767 360.528 192.674 360.496 192.597 360.43C192.531 360.353 192.499 360.26 192.499 360.151V355.555C192.499 354.69 192.307 354.067 191.924 353.684C191.552 353.301 191.087 353.109 190.529 353.109C190.004 353.109 189.549 353.301 189.166 353.684C188.794 354.067 188.608 354.685 188.608 355.538V360.151C188.608 360.26 188.57 360.353 188.493 360.43C188.428 360.496 188.34 360.528 188.231 360.528H187.509ZM205.083 360.693C203.967 360.693 203.075 360.348 202.408 359.658C201.74 358.958 201.374 358.006 201.308 356.802L201.292 356.244L201.308 355.703C201.374 354.521 201.74 353.58 202.408 352.879C203.075 352.179 203.967 351.829 205.083 351.829C206.287 351.829 207.217 352.212 207.874 352.978C208.541 353.744 208.875 354.783 208.875 356.097V356.392C208.875 356.501 208.837 356.594 208.76 356.671C208.695 356.737 208.607 356.77 208.498 356.77H202.802V356.917C202.835 357.629 203.054 358.236 203.458 358.739C203.863 359.243 204.4 359.494 205.067 359.494C205.581 359.494 205.997 359.396 206.315 359.199C206.643 358.991 206.889 358.778 207.053 358.559C207.152 358.427 207.228 358.351 207.283 358.329C207.338 358.296 207.431 358.28 207.562 358.28H208.284C208.383 358.28 208.465 358.307 208.531 358.362C208.607 358.416 208.645 358.488 208.645 358.575C208.645 358.816 208.498 359.106 208.202 359.445C207.907 359.784 207.485 360.08 206.938 360.331C206.402 360.572 205.784 360.693 205.083 360.693ZM207.381 355.653V355.604C207.381 354.838 207.174 354.214 206.758 353.733C206.342 353.251 205.784 353.011 205.083 353.011C204.372 353.011 203.814 353.251 203.409 353.733C203.004 354.214 202.802 354.838 202.802 355.604V355.653H207.381Z" fill="white"/>
<g id="ic-linkedin">
<path id="Vector_2" d="M106.617 338.005H75.1555C74.3989 338.005 73.7876 338.616 73.7876 339.373V370.834C73.7876 371.591 74.3989 372.202 75.1555 372.202H106.617C107.373 372.202 107.984 371.591 107.984 370.834V339.373C107.984 338.616 107.373 338.005 106.617 338.005ZM83.9313 367.145H78.8573V350.825H83.9313V367.145ZM81.3964 348.593C80.8147 348.593 80.2461 348.421 79.7625 348.098C79.2789 347.775 78.9019 347.315 78.6793 346.778C78.4567 346.24 78.3985 345.649 78.512 345.079C78.6255 344.508 78.9056 343.984 79.3169 343.573C79.7281 343.162 80.2522 342.881 80.8227 342.768C81.3931 342.655 81.9845 342.713 82.5219 342.935C83.0592 343.158 83.5185 343.535 83.8417 344.019C84.1649 344.502 84.3373 345.071 84.3373 345.652C84.3331 347.277 83.0165 348.593 81.3964 348.593ZM102.928 367.145H97.8579V359.207C97.8579 357.314 97.8237 354.881 95.2205 354.881C92.5831 354.881 92.177 356.942 92.177 359.07V367.145H87.1116V350.825H91.9761V353.056H92.0445C92.7199 351.774 94.3741 350.419 96.8449 350.419C101.983 350.419 102.928 353.8 102.928 358.194V367.145V367.145Z" fill="white"/>
</g>
</g>
</g>
</g>
<defs>
<linearGradient id="paint0_linear" x1="294.699" y1="177.28" x2="294.699" y2="200.534" gradientUnits="userSpaceOnUse">
<stop offset="0.348958" stop-color="#E7AC14"/>
<stop offset="0.510417" stop-color="white"/>
<stop offset="0.697917" stop-color="#2AA236"/>
</linearGradient>
</defs>
</svg>
