<svg xmlns="http://www.w3.org/2000/svg" xmlns:xlink="http://www.w3.org/1999/xlink" viewBox="0 0 1920 1920"><defs><style>.a{clip-path:url(#g);}.b{fill:url(#a);}.c,.d,.e,.f,.g,.h,.i,.l{fill:#fff;}.c{font-size:130px;font-family:Gotham-Medium, Gotham;font-weight:500;}.d{font-size:120px;font-family:Gotham-Book, Gotham;}.e{opacity:0.18;}.f{stroke:#95989a;opacity:0.1;}.g{opacity:0.28;}.h{opacity:0.45;}.i{opacity:0.27;}.j{stroke:none;}.k{fill:none;}.m{filter:url(#d);}.n{filter:url(#b);}</style><linearGradient id="a" x1="0.025" y1="0.034" x2="1.05" y2="1.056" gradientUnits="objectBoundingBox"><stop offset="0" stop-color="#ff837a"/><stop offset="1" stop-color="#eb4b94"/></linearGradient><filter id="b" x="301" y="244" width="1399" height="1391" filterUnits="userSpaceOnUse"><feOffset dy="13" input="SourceAlpha"/><feGaussianBlur stdDeviation="8" result="c"/><feFlood flood-opacity="0.161"/><feComposite operator="in" in2="c"/><feComposite in="SourceGraphic"/></filter><filter id="d" x="412" y="1089" width="1272" height="317" filterUnits="userSpaceOnUse"><feOffset dy="3" input="SourceAlpha"/><feGaussianBlur stdDeviation="3" result="e"/><feFlood flood-opacity="0.161"/><feComposite operator="in" in2="e"/><feComposite in="SourceGraphic"/></filter><clipPath id="g"><rect width="1920" height="1920"/></clipPath></defs><g id="f" class="a"><rect class="l" width="1920" height="1920"/><rect class="b" width="1920" height="1920"/><g class="n" transform="matrix(1, 0, 0, 1, 0, 0)"><text class="c" transform="translate(325 255)"><tspan x="328.893" y="125">&quot;Do not seek to </tspan><tspan x="540.403" y="281">follow in the </tspan><tspan x="307.963" y="437">footsteps of the </tspan><tspan x="308.353" y="593">wise. Seek what </tspan><tspan x="474.103" y="749">they sought.&quot;</tspan></text></g><g class="m" transform="matrix(1, 0, 0, 1, 0, 0)"><text class="d" transform="translate(421 1095)"><tspan x="318.6" y="115">– Matsuo Basho</tspan><tspan x="1254" y="259"></tspan></text></g><circle class="e" cx="198.104" cy="198.104" r="198.104" transform="translate(232.896 1095)"/><g class="f" transform="translate(193.538 1623.715)"><rect class="j" width="474.925" height="64.285"/><rect class="k" x="0.5" y="0.5" width="473.925" height="63.285"/></g><path class="g" d="M612.706,1844.026l162.63-332.36,163.35,332.36Z" transform="translate(-344.773 -220.312)"/><rect class="h" width="13" height="83" transform="translate(425 1012)"/><rect class="i" width="13" height="33" transform="translate(438 1012)"/></g></svg>