<svg width="100%" height="100%" viewBox="0 0 1680 1311" fill="none" xmlns="http://www.w3.org/2000/svg">
<g id="xlarge">
<rect width="1680" height="1311" fill="#373737"/>
<g id="Group 3">
<path id="Hi, I am" opacity="0.8" d="M253.37 183C253.226 183 253.111 182.957 253.025 182.871C252.939 182.77 252.896 182.648 252.896 182.504V168.436C252.896 168.278 252.939 168.156 253.025 168.07C253.111 167.969 253.226 167.919 253.37 167.919H254.404C254.562 167.919 254.684 167.969 254.77 168.07C254.871 168.156 254.921 168.278 254.921 168.436V174.425H262.418V168.436C262.418 168.278 262.461 168.156 262.548 168.07C262.648 167.969 262.77 167.919 262.914 167.919H263.948C264.106 167.919 264.228 167.969 264.314 168.07C264.415 168.156 264.465 168.278 264.465 168.436V182.504C264.465 182.648 264.415 182.77 264.314 182.871C264.214 182.957 264.092 183 263.948 183H262.914C262.77 183 262.648 182.957 262.548 182.871C262.461 182.77 262.418 182.648 262.418 182.504V176.3H254.921V182.504C254.921 182.648 254.871 182.77 254.77 182.871C254.67 182.957 254.548 183 254.404 183H253.37ZM268.276 169.686C268.133 169.686 268.011 169.643 267.91 169.557C267.824 169.456 267.781 169.334 267.781 169.19V168.07C267.781 167.926 267.824 167.804 267.91 167.704C268.011 167.603 268.133 167.553 268.276 167.553H269.548C269.691 167.553 269.813 167.603 269.914 167.704C270.014 167.804 270.065 167.926 270.065 168.07V169.19C270.065 169.334 270.014 169.456 269.914 169.557C269.813 169.643 269.691 169.686 269.548 169.686H268.276ZM268.449 183C268.305 183 268.183 182.957 268.083 182.871C267.996 182.77 267.953 182.648 267.953 182.504V172.293C267.953 172.149 267.996 172.034 268.083 171.948C268.183 171.847 268.305 171.797 268.449 171.797H269.397C269.54 171.797 269.655 171.847 269.741 171.948C269.842 172.034 269.892 172.149 269.892 172.293V182.504C269.892 182.648 269.842 182.77 269.741 182.871C269.655 182.957 269.54 183 269.397 183H268.449ZM272.978 184.616C272.849 184.616 272.748 184.573 272.677 184.487C272.619 184.4 272.605 184.293 272.633 184.163L273.107 181.126C273.165 180.709 273.366 180.501 273.711 180.501H275.089C275.19 180.501 275.276 180.544 275.348 180.63C275.42 180.702 275.456 180.781 275.456 180.867C275.456 180.982 275.427 181.104 275.37 181.233L274.249 184.12C274.12 184.451 273.919 184.616 273.646 184.616H272.978ZM284.529 183C284.385 183 284.27 182.957 284.184 182.871C284.098 182.77 284.055 182.648 284.055 182.504V168.415C284.055 168.271 284.098 168.156 284.184 168.07C284.27 167.969 284.385 167.919 284.529 167.919H285.606C285.764 167.919 285.886 167.962 285.972 168.048C286.058 168.135 286.101 168.257 286.101 168.415V182.504C286.101 182.648 286.051 182.77 285.951 182.871C285.864 182.957 285.75 183 285.606 183H284.529ZM298.028 183.215C297.324 183.215 296.671 183.072 296.067 182.785C295.478 182.497 295.004 182.11 294.645 181.621C294.301 181.118 294.128 180.566 294.128 179.962C294.128 179.014 294.516 178.239 295.292 177.636C296.067 177.032 297.123 176.63 298.459 176.429L301.69 175.977V175.352C301.69 173.873 300.836 173.133 299.127 173.133C298.466 173.133 297.934 173.269 297.532 173.542C297.13 173.801 296.836 174.109 296.649 174.469C296.592 174.612 296.527 174.713 296.455 174.77C296.398 174.813 296.311 174.835 296.197 174.835H295.356C295.227 174.835 295.112 174.792 295.012 174.706C294.925 174.605 294.882 174.49 294.882 174.361C294.882 174.03 295.033 173.65 295.335 173.219C295.651 172.774 296.132 172.393 296.778 172.077C297.425 171.747 298.214 171.582 299.148 171.582C300.757 171.582 301.906 171.955 302.595 172.702C303.299 173.449 303.651 174.382 303.651 175.503V182.504C303.651 182.648 303.601 182.77 303.5 182.871C303.414 182.957 303.299 183 303.155 183H302.207C302.064 183 301.949 182.957 301.863 182.871C301.776 182.77 301.733 182.648 301.733 182.504V181.557C301.417 182.031 300.958 182.425 300.355 182.741C299.751 183.057 298.976 183.215 298.028 183.215ZM298.459 181.643C299.407 181.643 300.182 181.334 300.785 180.716C301.389 180.099 301.69 179.201 301.69 178.023V177.42L299.17 177.786C298.135 177.93 297.353 178.174 296.821 178.519C296.29 178.864 296.024 179.294 296.024 179.811C296.024 180.4 296.261 180.853 296.735 181.169C297.223 181.485 297.798 181.643 298.459 181.643ZM307.266 183C307.122 183 307 182.957 306.9 182.871C306.814 182.77 306.77 182.648 306.77 182.504V172.293C306.77 172.149 306.814 172.034 306.9 171.948C307 171.847 307.122 171.797 307.266 171.797H308.171C308.314 171.797 308.429 171.847 308.516 171.948C308.602 172.034 308.645 172.149 308.645 172.293V173.025C309.42 172.063 310.469 171.582 311.79 171.582C313.37 171.582 314.49 172.242 315.151 173.564C315.496 172.96 315.984 172.479 316.616 172.12C317.262 171.761 317.981 171.582 318.77 171.582C319.948 171.582 320.911 171.984 321.657 172.788C322.404 173.592 322.778 174.756 322.778 176.278V182.504C322.778 182.648 322.727 182.77 322.627 182.871C322.541 182.957 322.426 183 322.282 183H321.356C321.212 183 321.09 182.957 320.99 182.871C320.903 182.77 320.86 182.648 320.86 182.504V176.472C320.86 175.323 320.623 174.504 320.149 174.016C319.675 173.513 319.051 173.262 318.275 173.262C317.586 173.262 316.99 173.521 316.487 174.038C315.998 174.54 315.754 175.352 315.754 176.472V182.504C315.754 182.648 315.704 182.77 315.604 182.871C315.517 182.957 315.402 183 315.259 183H314.311C314.167 183 314.045 182.957 313.945 182.871C313.858 182.77 313.815 182.648 313.815 182.504V176.472C313.815 175.338 313.564 174.519 313.061 174.016C312.573 173.513 311.963 173.262 311.23 173.262C310.541 173.262 309.945 173.513 309.442 174.016C308.954 174.519 308.709 175.33 308.709 176.451V182.504C308.709 182.648 308.659 182.77 308.559 182.871C308.472 182.957 308.358 183 308.214 183H307.266Z" fill="white"/>
<g id="Group 2">
<path id="A digital designer from" opacity="0.7" d="M251.862 284.565C251.747 284.565 251.646 284.522 251.56 284.435C251.474 284.349 251.431 284.249 251.431 284.134L251.474 283.897L256.817 269.958C256.932 269.642 257.162 269.484 257.506 269.484H258.885C259.23 269.484 259.46 269.642 259.575 269.958L264.917 283.897L264.961 284.134C264.961 284.249 264.91 284.349 264.81 284.435C264.724 284.522 264.623 284.565 264.508 284.565H263.496C263.352 284.565 263.23 284.529 263.129 284.457C263.043 284.371 262.986 284.285 262.957 284.198L261.75 281.096H254.619L253.434 284.198C253.32 284.443 253.14 284.565 252.896 284.565H251.862ZM255.244 279.308H261.147L258.196 271.574L255.244 279.308ZM275.813 284.78C274.305 284.78 273.17 284.292 272.409 283.315C271.662 282.338 271.26 281.103 271.202 279.61L271.181 278.963L271.202 278.317C271.26 276.838 271.669 275.61 272.43 274.633C273.191 273.642 274.319 273.146 275.813 273.146C277.306 273.146 278.47 273.678 279.303 274.741V269.764C279.303 269.62 279.346 269.505 279.432 269.419C279.533 269.319 279.655 269.268 279.798 269.268H280.768C280.911 269.268 281.026 269.319 281.113 269.419C281.213 269.505 281.263 269.62 281.263 269.764V284.069C281.263 284.213 281.213 284.335 281.113 284.435C281.026 284.522 280.911 284.565 280.768 284.565H279.841C279.698 284.565 279.583 284.522 279.497 284.435C279.411 284.335 279.367 284.213 279.367 284.069V283.143C278.549 284.234 277.364 284.78 275.813 284.78ZM276.222 283.1C277.227 283.1 277.981 282.769 278.484 282.109C278.987 281.434 279.26 280.637 279.303 279.717C279.317 279.559 279.324 279.286 279.324 278.899C279.324 278.496 279.317 278.216 279.303 278.058C279.274 277.182 278.994 276.428 278.463 275.796C277.946 275.15 277.199 274.827 276.222 274.827C275.188 274.827 274.434 275.15 273.96 275.796C273.486 276.443 273.227 277.29 273.184 278.338L273.163 278.963C273.163 281.721 274.183 283.1 276.222 283.1ZM284.834 271.25C284.691 271.25 284.569 271.207 284.468 271.121C284.382 271.021 284.339 270.899 284.339 270.755V269.635C284.339 269.491 284.382 269.369 284.468 269.268C284.569 269.168 284.691 269.118 284.834 269.118H286.105C286.249 269.118 286.371 269.168 286.472 269.268C286.572 269.369 286.622 269.491 286.622 269.635V270.755C286.622 270.899 286.572 271.021 286.472 271.121C286.371 271.207 286.249 271.25 286.105 271.25H284.834ZM285.007 284.565C284.863 284.565 284.741 284.522 284.64 284.435C284.554 284.335 284.511 284.213 284.511 284.069V273.857C284.511 273.714 284.554 273.599 284.64 273.513C284.741 273.412 284.863 273.362 285.007 273.362H285.955C286.098 273.362 286.213 273.412 286.299 273.513C286.4 273.599 286.45 273.714 286.45 273.857V284.069C286.45 284.213 286.4 284.335 286.299 284.435C286.213 284.522 286.098 284.565 285.955 284.565H285.007ZM294.232 289.304C293.04 289.304 292.085 289.103 291.367 288.701C290.649 288.299 290.139 287.839 289.838 287.322C289.55 286.805 289.407 286.36 289.407 285.987C289.407 285.857 289.457 285.742 289.557 285.642C289.658 285.556 289.773 285.513 289.902 285.513H290.85C290.979 285.513 291.087 285.541 291.173 285.599C291.259 285.671 291.331 285.793 291.389 285.965C291.791 287.114 292.703 287.689 294.125 287.689C295.202 287.689 295.999 287.459 296.516 286.999C297.033 286.54 297.292 285.728 297.292 284.565V283.078C296.459 284.141 295.295 284.672 293.802 284.672C292.279 284.672 291.137 284.184 290.376 283.207C289.629 282.231 289.234 280.996 289.191 279.502L289.17 278.899L289.191 278.317C289.234 276.838 289.629 275.61 290.376 274.633C291.137 273.642 292.279 273.146 293.802 273.146C295.31 273.146 296.487 273.699 297.335 274.805V273.879C297.335 273.735 297.378 273.613 297.464 273.513C297.565 273.412 297.687 273.362 297.83 273.362H298.757C298.9 273.362 299.015 273.412 299.101 273.513C299.202 273.613 299.252 273.735 299.252 273.879V284.328C299.252 287.645 297.579 289.304 294.232 289.304ZM294.189 282.992C295.195 282.992 295.949 282.669 296.452 282.023C296.969 281.362 297.249 280.572 297.292 279.653C297.306 279.523 297.313 279.272 297.313 278.899C297.313 278.54 297.306 278.295 297.292 278.166C297.249 277.247 296.969 276.464 296.452 275.818C295.949 275.157 295.195 274.827 294.189 274.827C293.155 274.827 292.401 275.157 291.927 275.818C291.468 276.464 291.216 277.304 291.173 278.338L291.152 278.899L291.173 279.48C291.216 280.514 291.468 281.362 291.927 282.023C292.401 282.669 293.155 282.992 294.189 282.992ZM302.823 271.25C302.679 271.25 302.557 271.207 302.456 271.121C302.37 271.021 302.327 270.899 302.327 270.755V269.635C302.327 269.491 302.37 269.369 302.456 269.268C302.557 269.168 302.679 269.118 302.823 269.118H304.094C304.237 269.118 304.359 269.168 304.46 269.268C304.561 269.369 304.611 269.491 304.611 269.635V270.755C304.611 270.899 304.561 271.021 304.46 271.121C304.359 271.207 304.237 271.25 304.094 271.25H302.823ZM302.995 284.565C302.851 284.565 302.729 284.522 302.629 284.435C302.543 284.335 302.5 284.213 302.5 284.069V273.857C302.5 273.714 302.543 273.599 302.629 273.513C302.729 273.412 302.851 273.362 302.995 273.362H303.943C304.087 273.362 304.201 273.412 304.288 273.513C304.388 273.599 304.438 273.714 304.438 273.857V284.069C304.438 284.213 304.388 284.335 304.288 284.435C304.201 284.522 304.087 284.565 303.943 284.565H302.995ZM311.984 284.565C309.758 284.565 308.645 283.308 308.645 280.794V275.021H306.943C306.799 275.021 306.684 274.978 306.598 274.891C306.512 274.805 306.469 274.69 306.469 274.547V273.857C306.469 273.714 306.512 273.599 306.598 273.513C306.684 273.412 306.799 273.362 306.943 273.362H308.645V269.764C308.645 269.62 308.688 269.505 308.774 269.419C308.86 269.319 308.975 269.268 309.119 269.268H310.067C310.21 269.268 310.325 269.319 310.411 269.419C310.512 269.505 310.562 269.62 310.562 269.764V273.362H313.233C313.377 273.362 313.492 273.412 313.578 273.513C313.679 273.599 313.729 273.714 313.729 273.857V274.547C313.729 274.69 313.679 274.805 313.578 274.891C313.492 274.978 313.377 275.021 313.233 275.021H310.562V280.644C310.562 281.376 310.677 281.929 310.907 282.303C311.151 282.676 311.56 282.863 312.135 282.863H313.449C313.593 282.863 313.707 282.913 313.794 283.014C313.88 283.1 313.923 283.215 313.923 283.358V284.069C313.923 284.213 313.88 284.335 313.794 284.435C313.707 284.522 313.593 284.565 313.449 284.565H311.984ZM319.13 284.78C318.426 284.78 317.773 284.637 317.169 284.349C316.581 284.062 316.107 283.674 315.748 283.186C315.403 282.683 315.231 282.13 315.231 281.527C315.231 280.579 315.618 279.803 316.394 279.2C317.169 278.597 318.225 278.195 319.561 277.994L322.792 277.541V276.917C322.792 275.437 321.938 274.698 320.229 274.698C319.568 274.698 319.037 274.834 318.634 275.107C318.232 275.365 317.938 275.674 317.751 276.033C317.694 276.177 317.629 276.277 317.557 276.335C317.5 276.378 317.414 276.4 317.299 276.4H316.459C316.329 276.4 316.214 276.356 316.114 276.27C316.028 276.17 315.985 276.055 315.985 275.926C315.985 275.595 316.135 275.215 316.437 274.784C316.753 274.338 317.234 273.958 317.88 273.642C318.527 273.312 319.317 273.146 320.25 273.146C321.859 273.146 323.008 273.52 323.697 274.267C324.401 275.014 324.753 275.947 324.753 277.067V284.069C324.753 284.213 324.703 284.335 324.602 284.435C324.516 284.522 324.401 284.565 324.257 284.565H323.31C323.166 284.565 323.051 284.522 322.965 284.435C322.879 284.335 322.836 284.213 322.836 284.069V283.121C322.52 283.595 322.06 283.99 321.457 284.306C320.854 284.622 320.078 284.78 319.13 284.78ZM319.561 283.207C320.509 283.207 321.284 282.899 321.888 282.281C322.491 281.663 322.792 280.766 322.792 279.588V278.985L320.272 279.351C319.238 279.495 318.455 279.739 317.924 280.084C317.392 280.428 317.126 280.859 317.126 281.376C317.126 281.965 317.363 282.417 317.837 282.733C318.326 283.049 318.9 283.207 319.561 283.207ZM328.39 284.565C328.246 284.565 328.124 284.522 328.023 284.435C327.937 284.335 327.894 284.213 327.894 284.069V269.764C327.894 269.606 327.937 269.484 328.023 269.398C328.124 269.312 328.246 269.268 328.39 269.268H329.338C329.481 269.268 329.596 269.319 329.682 269.419C329.783 269.505 329.833 269.62 329.833 269.764V284.069C329.833 284.213 329.783 284.335 329.682 284.435C329.596 284.522 329.481 284.565 329.338 284.565H328.39ZM342.465 284.78C340.956 284.78 339.822 284.292 339.061 283.315C338.314 282.338 337.912 281.103 337.854 279.61L337.833 278.963L337.854 278.317C337.912 276.838 338.321 275.61 339.082 274.633C339.843 273.642 340.971 273.146 342.465 273.146C343.958 273.146 345.122 273.678 345.955 274.741V269.764C345.955 269.62 345.998 269.505 346.084 269.419C346.184 269.319 346.307 269.268 346.45 269.268H347.42C347.563 269.268 347.678 269.319 347.764 269.419C347.865 269.505 347.915 269.62 347.915 269.764V284.069C347.915 284.213 347.865 284.335 347.764 284.435C347.678 284.522 347.563 284.565 347.42 284.565H346.493C346.35 284.565 346.235 284.522 346.149 284.435C346.062 284.335 346.019 284.213 346.019 284.069V283.143C345.201 284.234 344.016 284.78 342.465 284.78ZM342.874 283.1C343.879 283.1 344.633 282.769 345.136 282.109C345.639 281.434 345.912 280.637 345.955 279.717C345.969 279.559 345.976 279.286 345.976 278.899C345.976 278.496 345.969 278.216 345.955 278.058C345.926 277.182 345.646 276.428 345.114 275.796C344.597 275.15 343.851 274.827 342.874 274.827C341.84 274.827 341.086 275.15 340.612 275.796C340.138 276.443 339.879 277.29 339.836 278.338L339.815 278.963C339.815 281.721 340.834 283.1 342.874 283.1ZM355.601 284.78C354.136 284.78 352.965 284.328 352.089 283.423C351.213 282.504 350.732 281.254 350.646 279.674L350.624 278.942L350.646 278.231C350.732 276.68 351.213 275.444 352.089 274.525C352.965 273.606 354.136 273.146 355.601 273.146C357.181 273.146 358.402 273.649 359.264 274.654C360.14 275.66 360.578 277.024 360.578 278.748V279.136C360.578 279.279 360.527 279.401 360.427 279.502C360.341 279.588 360.226 279.631 360.082 279.631H352.606V279.825C352.649 280.759 352.937 281.556 353.468 282.216C354 282.877 354.703 283.207 355.579 283.207C356.255 283.207 356.8 283.078 357.217 282.82C357.648 282.547 357.971 282.267 358.186 281.979C358.316 281.807 358.416 281.707 358.488 281.678C358.56 281.635 358.682 281.613 358.854 281.613H359.802C359.931 281.613 360.039 281.649 360.125 281.721C360.226 281.793 360.276 281.886 360.276 282.001C360.276 282.317 360.082 282.698 359.694 283.143C359.307 283.588 358.754 283.976 358.035 284.306C357.332 284.622 356.52 284.78 355.601 284.78ZM358.617 278.166V278.101C358.617 277.096 358.344 276.277 357.799 275.645C357.253 275.014 356.52 274.698 355.601 274.698C354.667 274.698 353.935 275.014 353.404 275.645C352.872 276.277 352.606 277.096 352.606 278.101V278.166H358.617ZM367.032 284.78C366.041 284.78 365.201 284.622 364.512 284.306C363.836 283.976 363.334 283.602 363.003 283.186C362.673 282.769 362.508 282.425 362.508 282.152C362.508 282.008 362.558 281.9 362.659 281.829C362.759 281.742 362.867 281.699 362.982 281.699H363.887C363.973 281.699 364.038 281.714 364.081 281.742C364.138 281.771 364.21 281.836 364.296 281.936C364.626 282.338 364.993 282.654 365.395 282.884C365.811 283.114 366.364 283.229 367.054 283.229C367.829 283.229 368.447 283.085 368.906 282.798C369.38 282.511 369.617 282.094 369.617 281.549C369.617 281.189 369.517 280.902 369.316 280.687C369.115 280.471 368.777 280.277 368.303 280.105C367.844 279.933 367.154 279.746 366.235 279.545C364.985 279.272 364.102 278.877 363.585 278.36C363.068 277.843 362.81 277.175 362.81 276.356C362.81 275.825 362.968 275.315 363.283 274.827C363.599 274.324 364.066 273.922 364.684 273.62C365.316 273.304 366.063 273.146 366.924 273.146C367.829 273.146 368.598 273.297 369.23 273.599C369.876 273.9 370.357 274.252 370.673 274.654C371.003 275.057 371.169 275.394 371.169 275.667C371.169 275.796 371.118 275.904 371.018 275.99C370.932 276.076 370.824 276.119 370.695 276.119H369.876C369.675 276.119 369.531 276.04 369.445 275.882C369.201 275.61 368.993 275.401 368.82 275.258C368.662 275.1 368.425 274.97 368.109 274.87C367.793 274.755 367.398 274.698 366.924 274.698C366.221 274.698 365.682 274.848 365.309 275.15C364.935 275.437 364.748 275.825 364.748 276.313C364.748 276.615 364.827 276.873 364.985 277.089C365.143 277.29 365.445 277.484 365.89 277.671C366.336 277.843 366.996 278.022 367.872 278.209C369.237 278.496 370.199 278.906 370.759 279.437C371.334 279.969 371.621 280.651 371.621 281.484C371.621 282.101 371.442 282.662 371.082 283.164C370.738 283.667 370.213 284.062 369.51 284.349C368.82 284.637 367.994 284.78 367.032 284.78ZM374.461 271.25C374.317 271.25 374.195 271.207 374.095 271.121C374.008 271.021 373.965 270.899 373.965 270.755V269.635C373.965 269.491 374.008 269.369 374.095 269.268C374.195 269.168 374.317 269.118 374.461 269.118H375.732C375.876 269.118 375.998 269.168 376.098 269.268C376.199 269.369 376.249 269.491 376.249 269.635V270.755C376.249 270.899 376.199 271.021 376.098 271.121C375.998 271.207 375.876 271.25 375.732 271.25H374.461ZM374.633 284.565C374.49 284.565 374.367 284.522 374.267 284.435C374.181 284.335 374.138 284.213 374.138 284.069V273.857C374.138 273.714 374.181 273.599 374.267 273.513C374.367 273.412 374.49 273.362 374.633 273.362H375.581C375.725 273.362 375.84 273.412 375.926 273.513C376.026 273.599 376.077 273.714 376.077 273.857V284.069C376.077 284.213 376.026 284.335 375.926 284.435C375.84 284.522 375.725 284.565 375.581 284.565H374.633ZM383.859 289.304C382.667 289.304 381.712 289.103 380.994 288.701C380.276 288.299 379.766 287.839 379.464 287.322C379.177 286.805 379.033 286.36 379.033 285.987C379.033 285.857 379.083 285.742 379.184 285.642C379.285 285.556 379.399 285.513 379.529 285.513H380.477C380.606 285.513 380.714 285.541 380.8 285.599C380.886 285.671 380.958 285.793 381.015 285.965C381.417 287.114 382.329 287.689 383.751 287.689C384.829 287.689 385.626 287.459 386.143 286.999C386.66 286.54 386.918 285.728 386.918 284.565V283.078C386.085 284.141 384.922 284.672 383.428 284.672C381.906 284.672 380.764 284.184 380.003 283.207C379.256 282.231 378.861 280.996 378.818 279.502L378.796 278.899L378.818 278.317C378.861 276.838 379.256 275.61 380.003 274.633C380.764 273.642 381.906 273.146 383.428 273.146C384.936 273.146 386.114 273.699 386.961 274.805V273.879C386.961 273.735 387.004 273.613 387.091 273.513C387.191 273.412 387.313 273.362 387.457 273.362H388.383C388.527 273.362 388.642 273.412 388.728 273.513C388.829 273.613 388.879 273.735 388.879 273.879V284.328C388.879 287.645 387.206 289.304 383.859 289.304ZM383.816 282.992C384.821 282.992 385.575 282.669 386.078 282.023C386.595 281.362 386.875 280.572 386.918 279.653C386.933 279.523 386.94 279.272 386.94 278.899C386.94 278.54 386.933 278.295 386.918 278.166C386.875 277.247 386.595 276.464 386.078 275.818C385.575 275.157 384.821 274.827 383.816 274.827C382.782 274.827 382.028 275.157 381.554 275.818C381.094 276.464 380.843 277.304 380.8 278.338L380.778 278.899L380.8 279.48C380.843 280.514 381.094 281.362 381.554 282.023C382.028 282.669 382.782 282.992 383.816 282.992ZM392.622 284.565C392.478 284.565 392.356 284.522 392.255 284.435C392.169 284.335 392.126 284.213 392.126 284.069V273.857C392.126 273.714 392.169 273.599 392.255 273.513C392.356 273.412 392.478 273.362 392.622 273.362H393.548C393.706 273.362 393.828 273.405 393.914 273.491C394 273.577 394.043 273.699 394.043 273.857V274.805C394.474 274.274 394.97 273.864 395.53 273.577C396.105 273.29 396.815 273.146 397.663 273.146C399.042 273.146 400.112 273.592 400.873 274.482C401.634 275.358 402.015 276.522 402.015 277.972V284.069C402.015 284.213 401.965 284.335 401.864 284.435C401.778 284.522 401.663 284.565 401.519 284.565H400.528C400.385 284.565 400.263 284.522 400.162 284.435C400.076 284.335 400.033 284.213 400.033 284.069V278.101C400.033 277.067 399.781 276.263 399.279 275.689C398.776 275.114 398.058 274.827 397.124 274.827C396.205 274.827 395.473 275.121 394.927 275.71C394.381 276.285 394.108 277.082 394.108 278.101V284.069C394.108 284.213 394.058 284.335 393.957 284.435C393.871 284.522 393.756 284.565 393.613 284.565H392.622ZM409.566 284.78C408.101 284.78 406.931 284.328 406.055 283.423C405.179 282.504 404.697 281.254 404.611 279.674L404.59 278.942L404.611 278.231C404.697 276.68 405.179 275.444 406.055 274.525C406.931 273.606 408.101 273.146 409.566 273.146C411.146 273.146 412.367 273.649 413.229 274.654C414.105 275.66 414.543 277.024 414.543 278.748V279.136C414.543 279.279 414.493 279.401 414.392 279.502C414.306 279.588 414.191 279.631 414.047 279.631H406.572V279.825C406.615 280.759 406.902 281.556 407.433 282.216C407.965 282.877 408.669 283.207 409.545 283.207C410.22 283.207 410.766 283.078 411.182 282.82C411.613 282.547 411.936 282.267 412.152 281.979C412.281 281.807 412.381 281.707 412.453 281.678C412.525 281.635 412.647 281.613 412.819 281.613H413.767C413.897 281.613 414.004 281.649 414.091 281.721C414.191 281.793 414.241 281.886 414.241 282.001C414.241 282.317 414.047 282.698 413.66 283.143C413.272 283.588 412.719 283.976 412.001 284.306C411.297 284.622 410.486 284.78 409.566 284.78ZM412.582 278.166V278.101C412.582 277.096 412.31 276.277 411.764 275.645C411.218 275.014 410.486 274.698 409.566 274.698C408.633 274.698 407.9 275.014 407.369 275.645C406.837 276.277 406.572 277.096 406.572 278.101V278.166H412.582ZM417.658 284.565C417.514 284.565 417.392 284.522 417.292 284.435C417.206 284.335 417.163 284.213 417.163 284.069V273.879C417.163 273.735 417.206 273.613 417.292 273.513C417.392 273.412 417.514 273.362 417.658 273.362H418.563C418.721 273.362 418.843 273.412 418.929 273.513C419.03 273.599 419.08 273.721 419.08 273.879V274.827C419.669 273.85 420.667 273.362 422.075 273.362H422.915C423.073 273.362 423.195 273.405 423.281 273.491C423.367 273.577 423.41 273.699 423.41 273.857V274.654C423.41 274.798 423.367 274.92 423.281 275.021C423.195 275.107 423.073 275.15 422.915 275.15H421.687C420.897 275.15 420.272 275.38 419.813 275.839C419.367 276.299 419.145 276.924 419.145 277.714V284.069C419.145 284.213 419.094 284.335 418.994 284.435C418.893 284.522 418.771 284.565 418.628 284.565H417.658ZM431.276 284.565C431.132 284.565 431.01 284.522 430.909 284.435C430.823 284.335 430.78 284.213 430.78 284.069V275.021H428.927C428.784 275.021 428.662 274.978 428.561 274.891C428.475 274.805 428.432 274.69 428.432 274.547V273.857C428.432 273.714 428.475 273.599 428.561 273.513C428.662 273.412 428.784 273.362 428.927 273.362H430.78V272.285C430.78 271.121 431.06 270.224 431.62 269.592C432.195 268.945 433.128 268.622 434.421 268.622H435.692C435.836 268.622 435.951 268.672 436.037 268.773C436.137 268.859 436.188 268.974 436.188 269.118V269.807C436.188 269.951 436.137 270.066 436.037 270.152C435.951 270.238 435.836 270.281 435.692 270.281H434.464C433.803 270.281 433.344 270.453 433.085 270.798C432.827 271.143 432.698 271.674 432.698 272.392V273.362H435.477C435.62 273.362 435.735 273.412 435.821 273.513C435.922 273.599 435.972 273.714 435.972 273.857V274.547C435.972 274.69 435.922 274.805 435.821 274.891C435.735 274.978 435.62 275.021 435.477 275.021H432.698V284.069C432.698 284.213 432.647 284.335 432.547 284.435C432.461 284.522 432.346 284.565 432.202 284.565H431.276ZM438.382 284.565C438.238 284.565 438.116 284.522 438.015 284.435C437.929 284.335 437.886 284.213 437.886 284.069V273.879C437.886 273.735 437.929 273.613 438.015 273.513C438.116 273.412 438.238 273.362 438.382 273.362H439.286C439.444 273.362 439.567 273.412 439.653 273.513C439.753 273.599 439.804 273.721 439.804 273.879V274.827C440.392 273.85 441.391 273.362 442.798 273.362H443.638C443.796 273.362 443.918 273.405 444.005 273.491C444.091 273.577 444.134 273.699 444.134 273.857V274.654C444.134 274.798 444.091 274.92 444.005 275.021C443.918 275.107 443.796 275.15 443.638 275.15H442.41C441.62 275.15 440.996 275.38 440.536 275.839C440.091 276.299 439.868 276.924 439.868 277.714V284.069C439.868 284.213 439.818 284.335 439.717 284.435C439.617 284.522 439.495 284.565 439.351 284.565H438.382ZM450.322 284.78C448.742 284.78 447.521 284.335 446.659 283.444C445.812 282.554 445.359 281.369 445.302 279.89L445.28 278.963L445.302 278.037C445.359 276.557 445.819 275.373 446.681 274.482C447.557 273.592 448.77 273.146 450.322 273.146C451.873 273.146 453.079 273.592 453.941 274.482C454.817 275.373 455.284 276.557 455.341 278.037C455.37 278.353 455.384 278.662 455.384 278.963C455.384 279.265 455.37 279.574 455.341 279.89C455.284 281.369 454.824 282.554 453.963 283.444C453.115 284.335 451.901 284.78 450.322 284.78ZM450.322 283.164C451.241 283.164 451.966 282.877 452.498 282.303C453.043 281.714 453.338 280.873 453.381 279.782C453.395 279.638 453.402 279.365 453.402 278.963C453.402 278.561 453.395 278.288 453.381 278.145C453.338 277.053 453.043 276.22 452.498 275.645C451.966 275.057 451.241 274.762 450.322 274.762C449.402 274.762 448.67 275.057 448.124 275.645C447.593 276.22 447.305 277.053 447.262 278.145L447.241 278.963L447.262 279.782C447.305 280.873 447.593 281.714 448.124 282.303C448.67 282.877 449.402 283.164 450.322 283.164ZM458.6 284.565C458.457 284.565 458.334 284.522 458.234 284.435C458.148 284.335 458.105 284.213 458.105 284.069V273.857C458.105 273.714 458.148 273.599 458.234 273.513C458.334 273.412 458.457 273.362 458.6 273.362H459.505C459.649 273.362 459.764 273.412 459.85 273.513C459.936 273.599 459.979 273.714 459.979 273.857V274.59C460.755 273.628 461.803 273.146 463.124 273.146C464.704 273.146 465.825 273.807 466.485 275.128C466.83 274.525 467.318 274.044 467.95 273.685C468.597 273.326 469.315 273.146 470.105 273.146C471.282 273.146 472.245 273.549 472.992 274.353C473.738 275.157 474.112 276.321 474.112 277.843V284.069C474.112 284.213 474.062 284.335 473.961 284.435C473.875 284.522 473.76 284.565 473.616 284.565H472.69C472.546 284.565 472.424 284.522 472.324 284.435C472.238 284.335 472.194 284.213 472.194 284.069V278.037C472.194 276.888 471.958 276.069 471.484 275.581C471.01 275.078 470.385 274.827 469.609 274.827C468.92 274.827 468.324 275.085 467.821 275.602C467.333 276.105 467.089 276.917 467.089 278.037V284.069C467.089 284.213 467.038 284.335 466.938 284.435C466.852 284.522 466.737 284.565 466.593 284.565H465.645C465.501 284.565 465.379 284.522 465.279 284.435C465.193 284.335 465.15 284.213 465.15 284.069V278.037C465.15 276.902 464.898 276.084 464.396 275.581C463.907 275.078 463.297 274.827 462.564 274.827C461.875 274.827 461.279 275.078 460.776 275.581C460.288 276.084 460.044 276.895 460.044 278.015V284.069C460.044 284.213 459.993 284.335 459.893 284.435C459.807 284.522 459.692 284.565 459.548 284.565H458.6Z" fill="white"/>
<g id="India" opacity="0.9">
<path d="M482.66 284.565C482.516 284.565 482.401 284.522 482.315 284.435C482.229 284.335 482.186 284.213 482.186 284.069V269.979C482.186 269.836 482.229 269.721 482.315 269.635C482.401 269.534 482.516 269.484 482.66 269.484H483.737C483.895 269.484 484.017 269.527 484.103 269.613C484.19 269.699 484.233 269.821 484.233 269.979V284.069C484.233 284.213 484.182 284.335 484.082 284.435C483.996 284.522 483.881 284.565 483.737 284.565H482.66ZM488.25 284.565C488.107 284.565 487.985 284.522 487.884 284.435C487.798 284.335 487.755 284.213 487.755 284.069V273.857C487.755 273.714 487.798 273.599 487.884 273.513C487.985 273.412 488.107 273.362 488.25 273.362H489.177C489.335 273.362 489.457 273.405 489.543 273.491C489.629 273.577 489.672 273.699 489.672 273.857V274.805C490.103 274.274 490.599 273.864 491.159 273.577C491.733 273.29 492.444 273.146 493.292 273.146C494.67 273.146 495.74 273.592 496.502 274.482C497.263 275.358 497.644 276.522 497.644 277.972V284.069C497.644 284.213 497.593 284.335 497.493 284.435C497.407 284.522 497.292 284.565 497.148 284.565H496.157C496.013 284.565 495.891 284.522 495.791 284.435C495.705 284.335 495.661 284.213 495.661 284.069V278.101C495.661 277.067 495.41 276.263 494.907 275.689C494.405 275.114 493.687 274.827 492.753 274.827C491.834 274.827 491.101 275.121 490.556 275.71C490.01 276.285 489.737 277.082 489.737 278.101V284.069C489.737 284.213 489.687 284.335 489.586 284.435C489.5 284.522 489.385 284.565 489.241 284.565H488.25ZM504.85 284.78C503.342 284.78 502.208 284.292 501.446 283.315C500.7 282.338 500.297 281.103 500.24 279.61L500.218 278.963L500.24 278.317C500.297 276.838 500.707 275.61 501.468 274.633C502.229 273.642 503.357 273.146 504.85 273.146C506.344 273.146 507.507 273.678 508.341 274.741V269.764C508.341 269.62 508.384 269.505 508.47 269.419C508.57 269.319 508.692 269.268 508.836 269.268H509.805C509.949 269.268 510.064 269.319 510.15 269.419C510.251 269.505 510.301 269.62 510.301 269.764V284.069C510.301 284.213 510.251 284.335 510.15 284.435C510.064 284.522 509.949 284.565 509.805 284.565H508.879C508.735 284.565 508.621 284.522 508.534 284.435C508.448 284.335 508.405 284.213 508.405 284.069V283.143C507.586 284.234 506.402 284.78 504.85 284.78ZM505.26 283.1C506.265 283.1 507.019 282.769 507.522 282.109C508.025 281.434 508.297 280.637 508.341 279.717C508.355 279.559 508.362 279.286 508.362 278.899C508.362 278.496 508.355 278.216 508.341 278.058C508.312 277.182 508.032 276.428 507.5 275.796C506.983 275.15 506.236 274.827 505.26 274.827C504.226 274.827 503.472 275.15 502.998 275.796C502.524 276.443 502.265 277.29 502.222 278.338L502.2 278.963C502.2 281.721 503.22 283.1 505.26 283.1ZM513.872 271.25C513.728 271.25 513.606 271.207 513.506 271.121C513.42 271.021 513.376 270.899 513.376 270.755V269.635C513.376 269.491 513.42 269.369 513.506 269.268C513.606 269.168 513.728 269.118 513.872 269.118H515.143C515.287 269.118 515.409 269.168 515.509 269.268C515.61 269.369 515.66 269.491 515.66 269.635V270.755C515.66 270.899 515.61 271.021 515.509 271.121C515.409 271.207 515.287 271.25 515.143 271.25H513.872ZM514.044 284.565C513.901 284.565 513.779 284.522 513.678 284.435C513.592 284.335 513.549 284.213 513.549 284.069V273.857C513.549 273.714 513.592 273.599 513.678 273.513C513.779 273.412 513.901 273.362 514.044 273.362H514.992C515.136 273.362 515.251 273.412 515.337 273.513C515.437 273.599 515.488 273.714 515.488 273.857V284.069C515.488 284.213 515.437 284.335 515.337 284.435C515.251 284.522 515.136 284.565 514.992 284.565H514.044ZM521.827 284.78C521.123 284.78 520.469 284.637 519.866 284.349C519.277 284.062 518.803 283.674 518.444 283.186C518.1 282.683 517.927 282.13 517.927 281.527C517.927 280.579 518.315 279.803 519.091 279.2C519.866 278.597 520.922 278.195 522.258 277.994L525.489 277.541V276.917C525.489 275.437 524.635 274.698 522.925 274.698C522.265 274.698 521.733 274.834 521.331 275.107C520.929 275.365 520.635 275.674 520.448 276.033C520.39 276.177 520.326 276.277 520.254 276.335C520.197 276.378 520.11 276.4 519.995 276.4H519.155C519.026 276.4 518.911 276.356 518.811 276.27C518.724 276.17 518.681 276.055 518.681 275.926C518.681 275.595 518.832 275.215 519.134 274.784C519.45 274.338 519.931 273.958 520.577 273.642C521.223 273.312 522.013 273.146 522.947 273.146C524.556 273.146 525.705 273.52 526.394 274.267C527.098 275.014 527.45 275.947 527.45 277.067V284.069C527.45 284.213 527.399 284.335 527.299 284.435C527.213 284.522 527.098 284.565 526.954 284.565H526.006C525.863 284.565 525.748 284.522 525.662 284.435C525.575 284.335 525.532 284.213 525.532 284.069V283.121C525.216 283.595 524.757 283.99 524.153 284.306C523.55 284.622 522.775 284.78 521.827 284.78ZM522.258 283.207C523.206 283.207 523.981 282.899 524.584 282.281C525.188 281.663 525.489 280.766 525.489 279.588V278.985L522.969 279.351C521.934 279.495 521.152 279.739 520.62 280.084C520.089 280.428 519.823 280.859 519.823 281.376C519.823 281.965 520.06 282.417 520.534 282.733C521.022 283.049 521.597 283.207 522.258 283.207Z" fill="black"/>
<path d="M482.66 284.565C482.516 284.565 482.401 284.522 482.315 284.435C482.229 284.335 482.186 284.213 482.186 284.069V269.979C482.186 269.836 482.229 269.721 482.315 269.635C482.401 269.534 482.516 269.484 482.66 269.484H483.737C483.895 269.484 484.017 269.527 484.103 269.613C484.19 269.699 484.233 269.821 484.233 269.979V284.069C484.233 284.213 484.182 284.335 484.082 284.435C483.996 284.522 483.881 284.565 483.737 284.565H482.66ZM488.25 284.565C488.107 284.565 487.985 284.522 487.884 284.435C487.798 284.335 487.755 284.213 487.755 284.069V273.857C487.755 273.714 487.798 273.599 487.884 273.513C487.985 273.412 488.107 273.362 488.25 273.362H489.177C489.335 273.362 489.457 273.405 489.543 273.491C489.629 273.577 489.672 273.699 489.672 273.857V274.805C490.103 274.274 490.599 273.864 491.159 273.577C491.733 273.29 492.444 273.146 493.292 273.146C494.67 273.146 495.74 273.592 496.502 274.482C497.263 275.358 497.644 276.522 497.644 277.972V284.069C497.644 284.213 497.593 284.335 497.493 284.435C497.407 284.522 497.292 284.565 497.148 284.565H496.157C496.013 284.565 495.891 284.522 495.791 284.435C495.705 284.335 495.661 284.213 495.661 284.069V278.101C495.661 277.067 495.41 276.263 494.907 275.689C494.405 275.114 493.687 274.827 492.753 274.827C491.834 274.827 491.101 275.121 490.556 275.71C490.01 276.285 489.737 277.082 489.737 278.101V284.069C489.737 284.213 489.687 284.335 489.586 284.435C489.5 284.522 489.385 284.565 489.241 284.565H488.25ZM504.85 284.78C503.342 284.78 502.208 284.292 501.446 283.315C500.7 282.338 500.297 281.103 500.24 279.61L500.218 278.963L500.24 278.317C500.297 276.838 500.707 275.61 501.468 274.633C502.229 273.642 503.357 273.146 504.85 273.146C506.344 273.146 507.507 273.678 508.341 274.741V269.764C508.341 269.62 508.384 269.505 508.47 269.419C508.57 269.319 508.692 269.268 508.836 269.268H509.805C509.949 269.268 510.064 269.319 510.15 269.419C510.251 269.505 510.301 269.62 510.301 269.764V284.069C510.301 284.213 510.251 284.335 510.15 284.435C510.064 284.522 509.949 284.565 509.805 284.565H508.879C508.735 284.565 508.621 284.522 508.534 284.435C508.448 284.335 508.405 284.213 508.405 284.069V283.143C507.586 284.234 506.402 284.78 504.85 284.78ZM505.26 283.1C506.265 283.1 507.019 282.769 507.522 282.109C508.025 281.434 508.297 280.637 508.341 279.717C508.355 279.559 508.362 279.286 508.362 278.899C508.362 278.496 508.355 278.216 508.341 278.058C508.312 277.182 508.032 276.428 507.5 275.796C506.983 275.15 506.236 274.827 505.26 274.827C504.226 274.827 503.472 275.15 502.998 275.796C502.524 276.443 502.265 277.29 502.222 278.338L502.2 278.963C502.2 281.721 503.22 283.1 505.26 283.1ZM513.872 271.25C513.728 271.25 513.606 271.207 513.506 271.121C513.42 271.021 513.376 270.899 513.376 270.755V269.635C513.376 269.491 513.42 269.369 513.506 269.268C513.606 269.168 513.728 269.118 513.872 269.118H515.143C515.287 269.118 515.409 269.168 515.509 269.268C515.61 269.369 515.66 269.491 515.66 269.635V270.755C515.66 270.899 515.61 271.021 515.509 271.121C515.409 271.207 515.287 271.25 515.143 271.25H513.872ZM514.044 284.565C513.901 284.565 513.779 284.522 513.678 284.435C513.592 284.335 513.549 284.213 513.549 284.069V273.857C513.549 273.714 513.592 273.599 513.678 273.513C513.779 273.412 513.901 273.362 514.044 273.362H514.992C515.136 273.362 515.251 273.412 515.337 273.513C515.437 273.599 515.488 273.714 515.488 273.857V284.069C515.488 284.213 515.437 284.335 515.337 284.435C515.251 284.522 515.136 284.565 514.992 284.565H514.044ZM521.827 284.78C521.123 284.78 520.469 284.637 519.866 284.349C519.277 284.062 518.803 283.674 518.444 283.186C518.1 282.683 517.927 282.13 517.927 281.527C517.927 280.579 518.315 279.803 519.091 279.2C519.866 278.597 520.922 278.195 522.258 277.994L525.489 277.541V276.917C525.489 275.437 524.635 274.698 522.925 274.698C522.265 274.698 521.733 274.834 521.331 275.107C520.929 275.365 520.635 275.674 520.448 276.033C520.39 276.177 520.326 276.277 520.254 276.335C520.197 276.378 520.11 276.4 519.995 276.4H519.155C519.026 276.4 518.911 276.356 518.811 276.27C518.724 276.17 518.681 276.055 518.681 275.926C518.681 275.595 518.832 275.215 519.134 274.784C519.45 274.338 519.931 273.958 520.577 273.642C521.223 273.312 522.013 273.146 522.947 273.146C524.556 273.146 525.705 273.52 526.394 274.267C527.098 275.014 527.45 275.947 527.45 277.067V284.069C527.45 284.213 527.399 284.335 527.299 284.435C527.213 284.522 527.098 284.565 526.954 284.565H526.006C525.863 284.565 525.748 284.522 525.662 284.435C525.575 284.335 525.532 284.213 525.532 284.069V283.121C525.216 283.595 524.757 283.99 524.153 284.306C523.55 284.622 522.775 284.78 521.827 284.78ZM522.258 283.207C523.206 283.207 523.981 282.899 524.584 282.281C525.188 281.663 525.489 280.766 525.489 279.588V278.985L522.969 279.351C521.934 279.495 521.152 279.739 520.62 280.084C520.089 280.428 519.823 280.859 519.823 281.376C519.823 281.965 520.06 282.417 520.534 282.733C521.022 283.049 521.597 283.207 522.258 283.207Z" fill="url(#paint0_linear)"/>
</g>
</g>
<path id="Avinash" opacity="0.9" d="M253.216 241.161C252.92 241.161 252.662 241.05 252.44 240.828C252.219 240.607 252.108 240.348 252.108 240.053L252.219 239.443L265.958 203.6C266.253 202.788 266.844 202.381 267.73 202.381H271.276C272.162 202.381 272.753 202.788 273.049 203.6L286.788 239.443L286.899 240.053C286.899 240.348 286.769 240.607 286.511 240.828C286.289 241.05 286.031 241.161 285.735 241.161H283.131C282.762 241.161 282.448 241.068 282.19 240.884C281.968 240.662 281.82 240.44 281.746 240.219L278.644 232.241H260.307L257.26 240.219C256.965 240.847 256.503 241.161 255.875 241.161H253.216ZM261.914 227.643H277.093L269.503 207.755L261.914 227.643ZM300.456 241.161C299.495 241.161 298.812 240.699 298.406 239.776L288.102 214.071C288.065 213.96 288.046 213.775 288.046 213.517C288.046 213.184 288.157 212.907 288.379 212.686C288.6 212.464 288.859 212.353 289.154 212.353H291.703C292.294 212.353 292.737 212.649 293.032 213.24L301.564 235.344L310.095 213.24C310.169 213.018 310.317 212.815 310.538 212.63C310.797 212.446 311.092 212.353 311.425 212.353H313.973C314.269 212.353 314.527 212.464 314.749 212.686C314.97 212.907 315.081 213.184 315.081 213.517L314.97 214.071L304.721 239.776C304.315 240.699 303.632 241.161 302.672 241.161H300.456ZM321.826 206.924C321.457 206.924 321.143 206.813 320.884 206.592C320.663 206.333 320.552 206.019 320.552 205.65V202.769C320.552 202.4 320.663 202.086 320.884 201.827C321.143 201.569 321.457 201.44 321.826 201.44H325.095C325.464 201.44 325.778 201.569 326.037 201.827C326.295 202.086 326.424 202.4 326.424 202.769V205.65C326.424 206.019 326.295 206.333 326.037 206.592C325.778 206.813 325.464 206.924 325.095 206.924H321.826ZM322.269 241.161C321.9 241.161 321.586 241.05 321.328 240.828C321.106 240.57 320.995 240.256 320.995 239.886V213.627C320.995 213.258 321.106 212.963 321.328 212.741C321.586 212.482 321.9 212.353 322.269 212.353H324.707C325.076 212.353 325.372 212.482 325.593 212.741C325.852 212.963 325.981 213.258 325.981 213.627V239.886C325.981 240.256 325.852 240.57 325.593 240.828C325.372 241.05 325.076 241.161 324.707 241.161H322.269ZM335.578 241.161C335.209 241.161 334.895 241.05 334.636 240.828C334.415 240.57 334.304 240.256 334.304 239.886V213.627C334.304 213.258 334.415 212.963 334.636 212.741C334.895 212.482 335.209 212.353 335.578 212.353H337.96C338.367 212.353 338.681 212.464 338.902 212.686C339.124 212.907 339.235 213.221 339.235 213.627V216.065C340.343 214.698 341.617 213.646 343.057 212.907C344.534 212.169 346.363 211.799 348.542 211.799C352.087 211.799 354.839 212.944 356.796 215.234C358.753 217.487 359.732 220.478 359.732 224.209V239.886C359.732 240.256 359.603 240.57 359.344 240.828C359.123 241.05 358.827 241.161 358.458 241.161H355.91C355.54 241.161 355.226 241.05 354.968 240.828C354.746 240.57 354.635 240.256 354.635 239.886V224.541C354.635 221.882 353.989 219.814 352.696 218.336C351.404 216.859 349.557 216.12 347.157 216.12C344.793 216.12 342.909 216.877 341.506 218.392C340.102 219.869 339.401 221.919 339.401 224.541V239.886C339.401 240.256 339.271 240.57 339.013 240.828C338.791 241.05 338.496 241.161 338.127 241.161H335.578ZM375.716 241.715C373.906 241.715 372.225 241.345 370.674 240.607C369.16 239.868 367.941 238.871 367.018 237.615C366.132 236.322 365.688 234.901 365.688 233.349C365.688 230.912 366.686 228.917 368.68 227.366C370.674 225.815 373.389 224.781 376.824 224.264L385.133 223.101V221.494C385.133 217.69 382.936 215.788 378.541 215.788C376.842 215.788 375.476 216.139 374.441 216.84C373.407 217.505 372.65 218.299 372.17 219.223C372.022 219.592 371.856 219.851 371.671 219.998C371.524 220.109 371.302 220.164 371.007 220.164H368.846C368.514 220.164 368.218 220.054 367.96 219.832C367.738 219.574 367.627 219.278 367.627 218.946C367.627 218.096 368.015 217.117 368.791 216.01C369.603 214.865 370.841 213.886 372.502 213.073C374.164 212.224 376.196 211.799 378.596 211.799C382.733 211.799 385.687 212.759 387.46 214.68C389.27 216.6 390.175 219.001 390.175 221.882V239.886C390.175 240.256 390.045 240.57 389.787 240.828C389.565 241.05 389.27 241.161 388.901 241.161H386.463C386.094 241.161 385.798 241.05 385.577 240.828C385.355 240.57 385.244 240.256 385.244 239.886V237.449C384.432 238.668 383.25 239.683 381.699 240.496C380.148 241.308 378.153 241.715 375.716 241.715ZM376.824 237.671C379.261 237.671 381.256 236.876 382.807 235.288C384.358 233.7 385.133 231.392 385.133 228.363V226.812L378.652 227.754C375.993 228.123 373.98 228.751 372.613 229.638C371.247 230.524 370.564 231.632 370.564 232.962C370.564 234.476 371.173 235.639 372.392 236.452C373.647 237.264 375.125 237.671 376.824 237.671ZM408.058 241.715C405.509 241.715 403.349 241.308 401.576 240.496C399.84 239.646 398.548 238.686 397.698 237.615C396.849 236.544 396.424 235.658 396.424 234.956C396.424 234.587 396.553 234.31 396.812 234.125C397.07 233.903 397.347 233.793 397.643 233.793H399.97C400.191 233.793 400.357 233.83 400.468 233.903C400.616 233.977 400.801 234.143 401.022 234.402C401.872 235.436 402.813 236.249 403.847 236.84C404.919 237.43 406.34 237.726 408.113 237.726C410.108 237.726 411.696 237.357 412.878 236.618C414.096 235.879 414.706 234.808 414.706 233.405C414.706 232.481 414.447 231.743 413.93 231.189C413.413 230.635 412.545 230.136 411.326 229.693C410.144 229.25 408.372 228.77 406.008 228.253C402.795 227.551 400.524 226.535 399.194 225.206C397.864 223.876 397.2 222.159 397.2 220.054C397.2 218.687 397.606 217.376 398.418 216.12C399.231 214.828 400.431 213.794 402.019 213.018C403.644 212.205 405.565 211.799 407.781 211.799C410.108 211.799 412.083 212.187 413.708 212.963C415.37 213.738 416.608 214.643 417.42 215.677C418.27 216.711 418.694 217.579 418.694 218.281C418.694 218.613 418.565 218.89 418.307 219.112C418.085 219.333 417.808 219.444 417.476 219.444H415.37C414.853 219.444 414.484 219.241 414.262 218.835C413.635 218.133 413.099 217.598 412.656 217.228C412.25 216.822 411.64 216.49 410.828 216.231C410.015 215.936 409 215.788 407.781 215.788C405.971 215.788 404.586 216.176 403.626 216.951C402.666 217.69 402.186 218.687 402.186 219.943C402.186 220.718 402.389 221.383 402.795 221.937C403.201 222.454 403.977 222.953 405.122 223.433C406.267 223.876 407.965 224.338 410.218 224.818C413.727 225.557 416.201 226.609 417.642 227.976C419.119 229.342 419.858 231.096 419.858 233.239C419.858 234.827 419.396 236.267 418.473 237.56C417.586 238.852 416.238 239.868 414.429 240.607C412.656 241.345 410.532 241.715 408.058 241.715ZM427.659 241.161C427.289 241.161 426.975 241.05 426.717 240.828C426.495 240.57 426.384 240.256 426.384 239.886V203.102C426.384 202.695 426.495 202.381 426.717 202.16C426.975 201.938 427.289 201.827 427.659 201.827H430.207C430.613 201.827 430.927 201.938 431.149 202.16C431.37 202.381 431.481 202.695 431.481 203.102V216.01C432.552 214.643 433.808 213.609 435.248 212.907C436.726 212.169 438.535 211.799 440.677 211.799C444.223 211.799 446.974 212.944 448.932 215.234C450.926 217.487 451.923 220.478 451.923 224.209V239.886C451.923 240.256 451.794 240.57 451.536 240.828C451.314 241.05 451.019 241.161 450.649 241.161H448.045C447.676 241.161 447.362 241.05 447.104 240.828C446.882 240.57 446.771 240.256 446.771 239.886V224.541C446.771 221.882 446.125 219.814 444.832 218.336C443.54 216.859 441.675 216.12 439.237 216.12C436.873 216.12 434.99 216.877 433.586 218.392C432.183 219.869 431.481 221.919 431.481 224.541V239.886C431.481 240.256 431.352 240.57 431.093 240.828C430.872 241.05 430.576 241.161 430.207 241.161H427.659Z" fill="white"/>
<g id="group-behance">
<path id="A glimpse of my public work" opacity="0.7" d="M310.215 401.596C310.117 401.596 310.031 401.559 309.957 401.485C309.883 401.411 309.846 401.325 309.846 401.227L309.883 401.023L314.463 389.076C314.561 388.805 314.758 388.67 315.054 388.67H316.235C316.531 388.67 316.728 388.805 316.826 389.076L321.406 401.023L321.443 401.227C321.443 401.325 321.4 401.411 321.314 401.485C321.24 401.559 321.154 401.596 321.055 401.596H320.187C320.064 401.596 319.959 401.565 319.873 401.504C319.799 401.43 319.75 401.356 319.725 401.282L318.691 398.623H312.579L311.563 401.282C311.465 401.491 311.311 401.596 311.102 401.596H310.215ZM313.115 397.09H318.174L315.644 390.461L313.115 397.09ZM331.132 405.659C330.111 405.659 329.292 405.486 328.676 405.141C328.061 404.797 327.624 404.403 327.365 403.96C327.119 403.516 326.996 403.135 326.996 402.815C326.996 402.704 327.039 402.605 327.125 402.519C327.211 402.445 327.31 402.408 327.421 402.408H328.233C328.344 402.408 328.436 402.433 328.51 402.482C328.584 402.544 328.646 402.649 328.695 402.796C329.04 403.781 329.821 404.274 331.04 404.274C331.963 404.274 332.647 404.077 333.09 403.683C333.533 403.289 333.755 402.593 333.755 401.596V400.322C333.041 401.233 332.043 401.688 330.763 401.688C329.458 401.688 328.479 401.27 327.827 400.433C327.187 399.595 326.848 398.537 326.811 397.256L326.793 396.739L326.811 396.241C326.848 394.973 327.187 393.92 327.827 393.083C328.479 392.234 329.458 391.809 330.763 391.809C332.056 391.809 333.065 392.283 333.792 393.231V392.437C333.792 392.314 333.829 392.209 333.902 392.123C333.989 392.037 334.093 391.993 334.216 391.993H335.01C335.134 391.993 335.232 392.037 335.306 392.123C335.392 392.209 335.435 392.314 335.435 392.437V401.393C335.435 404.237 334.001 405.659 331.132 405.659ZM331.096 400.248C331.957 400.248 332.604 399.971 333.035 399.417C333.478 398.851 333.718 398.174 333.755 397.386C333.767 397.275 333.773 397.059 333.773 396.739C333.773 396.432 333.767 396.222 333.755 396.111C333.718 395.324 333.478 394.653 333.035 394.099C332.604 393.532 331.957 393.249 331.096 393.249C330.209 393.249 329.563 393.532 329.157 394.099C328.763 394.653 328.547 395.373 328.51 396.259L328.492 396.739L328.51 397.238C328.547 398.124 328.763 398.851 329.157 399.417C329.563 399.971 330.209 400.248 331.096 400.248ZM338.662 401.596C338.539 401.596 338.434 401.559 338.348 401.485C338.274 401.399 338.237 401.294 338.237 401.171V388.91C338.237 388.774 338.274 388.67 338.348 388.596C338.434 388.522 338.539 388.485 338.662 388.485H339.474C339.597 388.485 339.696 388.528 339.77 388.614C339.856 388.688 339.899 388.786 339.899 388.91V401.171C339.899 401.294 339.856 401.399 339.77 401.485C339.696 401.559 339.597 401.596 339.474 401.596H338.662ZM342.95 390.184C342.827 390.184 342.722 390.147 342.636 390.073C342.562 389.987 342.525 389.882 342.525 389.759V388.799C342.525 388.676 342.562 388.571 342.636 388.485C342.722 388.399 342.827 388.356 342.95 388.356H344.039C344.162 388.356 344.267 388.399 344.353 388.485C344.439 388.571 344.482 388.676 344.482 388.799V389.759C344.482 389.882 344.439 389.987 344.353 390.073C344.267 390.147 344.162 390.184 344.039 390.184H342.95ZM343.098 401.596C342.974 401.596 342.87 401.559 342.784 401.485C342.71 401.399 342.673 401.294 342.673 401.171V392.418C342.673 392.295 342.71 392.197 342.784 392.123C342.87 392.037 342.974 391.993 343.098 391.993H343.91C344.033 391.993 344.132 392.037 344.205 392.123C344.292 392.197 344.335 392.295 344.335 392.418V401.171C344.335 401.294 344.292 401.399 344.205 401.485C344.132 401.559 344.033 401.596 343.91 401.596H343.098ZM347.534 401.596C347.411 401.596 347.306 401.559 347.22 401.485C347.146 401.399 347.109 401.294 347.109 401.171V392.418C347.109 392.295 347.146 392.197 347.22 392.123C347.306 392.037 347.411 391.993 347.534 391.993H348.309C348.432 391.993 348.531 392.037 348.605 392.123C348.679 392.197 348.716 392.295 348.716 392.418V393.046C349.38 392.221 350.279 391.809 351.412 391.809C352.766 391.809 353.726 392.375 354.292 393.508C354.588 392.991 355.006 392.578 355.548 392.27C356.102 391.963 356.718 391.809 357.395 391.809C358.404 391.809 359.229 392.154 359.869 392.843C360.509 393.532 360.83 394.53 360.83 395.834V401.171C360.83 401.294 360.786 401.399 360.7 401.485C360.626 401.559 360.528 401.596 360.405 401.596H359.611C359.488 401.596 359.383 401.559 359.297 401.485C359.223 401.399 359.186 401.294 359.186 401.171V396.001C359.186 395.016 358.983 394.314 358.577 393.895C358.17 393.465 357.635 393.249 356.97 393.249C356.379 393.249 355.868 393.471 355.437 393.914C355.019 394.345 354.809 395.04 354.809 396.001V401.171C354.809 401.294 354.766 401.399 354.68 401.485C354.606 401.559 354.508 401.596 354.385 401.596H353.572C353.449 401.596 353.344 401.559 353.258 401.485C353.184 401.399 353.148 401.294 353.148 401.171V396.001C353.148 395.028 352.932 394.326 352.501 393.895C352.083 393.465 351.559 393.249 350.932 393.249C350.341 393.249 349.83 393.465 349.399 393.895C348.98 394.326 348.771 395.022 348.771 395.982V401.171C348.771 401.294 348.728 401.399 348.642 401.485C348.568 401.559 348.469 401.596 348.346 401.596H347.534ZM363.945 405.105C363.822 405.105 363.717 405.068 363.631 404.994C363.557 404.92 363.52 404.815 363.52 404.68V392.418C363.52 392.283 363.557 392.178 363.631 392.104C363.717 392.03 363.822 391.993 363.945 391.993H364.72C364.856 391.993 364.96 392.03 365.034 392.104C365.108 392.178 365.145 392.283 365.145 392.418V393.231C365.859 392.283 366.875 391.809 368.192 391.809C369.485 391.809 370.451 392.221 371.091 393.046C371.744 393.859 372.088 394.899 372.125 396.167C372.138 396.302 372.144 396.512 372.144 396.795C372.144 397.078 372.138 397.287 372.125 397.423C372.088 398.678 371.744 399.719 371.091 400.543C370.451 401.368 369.485 401.781 368.192 401.781C366.875 401.781 365.877 401.313 365.2 400.377V404.68C365.2 404.803 365.157 404.901 365.071 404.975C364.997 405.061 364.899 405.105 364.776 405.105H363.945ZM367.841 400.34C368.727 400.34 369.374 400.063 369.78 399.509C370.186 398.955 370.408 398.229 370.445 397.33C370.457 397.207 370.463 397.029 370.463 396.795C370.463 394.431 369.589 393.249 367.841 393.249C366.979 393.249 366.327 393.538 365.884 394.117C365.453 394.683 365.225 395.354 365.2 396.13C365.188 396.265 365.182 396.505 365.182 396.85C365.182 397.195 365.188 397.435 365.2 397.57C365.225 398.321 365.459 398.974 365.902 399.528C366.358 400.069 367.004 400.34 367.841 400.34ZM377.753 401.781C376.903 401.781 376.183 401.645 375.592 401.374C375.014 401.091 374.583 400.771 374.3 400.414C374.017 400.057 373.875 399.762 373.875 399.528C373.875 399.405 373.918 399.312 374.004 399.251C374.09 399.177 374.183 399.14 374.281 399.14H375.057C375.131 399.14 375.186 399.152 375.223 399.177C375.272 399.201 375.334 399.257 375.408 399.343C375.691 399.688 376.005 399.959 376.349 400.156C376.706 400.353 377.18 400.451 377.771 400.451C378.436 400.451 378.965 400.328 379.359 400.082C379.766 399.835 379.969 399.478 379.969 399.011C379.969 398.703 379.883 398.457 379.71 398.272C379.538 398.087 379.249 397.921 378.842 397.773C378.448 397.626 377.858 397.466 377.07 397.293C375.999 397.059 375.241 396.721 374.798 396.278C374.355 395.834 374.133 395.262 374.133 394.56C374.133 394.105 374.269 393.668 374.54 393.249C374.811 392.818 375.211 392.474 375.74 392.215C376.282 391.944 376.922 391.809 377.661 391.809C378.436 391.809 379.095 391.938 379.636 392.197C380.19 392.455 380.603 392.757 380.874 393.101C381.157 393.446 381.298 393.735 381.298 393.969C381.298 394.08 381.255 394.172 381.169 394.246C381.095 394.32 381.003 394.357 380.892 394.357H380.19C380.018 394.357 379.895 394.289 379.821 394.154C379.612 393.92 379.433 393.742 379.286 393.618C379.15 393.483 378.947 393.372 378.676 393.286C378.405 393.188 378.067 393.138 377.661 393.138C377.057 393.138 376.596 393.268 376.276 393.526C375.955 393.772 375.795 394.105 375.795 394.523C375.795 394.782 375.863 395.003 375.999 395.188C376.134 395.36 376.393 395.527 376.774 395.687C377.156 395.834 377.722 395.988 378.473 396.148C379.643 396.395 380.467 396.745 380.948 397.201C381.44 397.656 381.686 398.241 381.686 398.955C381.686 399.485 381.532 399.965 381.225 400.396C380.929 400.827 380.48 401.165 379.877 401.411C379.286 401.658 378.578 401.781 377.753 401.781ZM387.647 401.781C386.392 401.781 385.388 401.393 384.637 400.617C383.886 399.829 383.474 398.758 383.4 397.404L383.382 396.776L383.4 396.167C383.474 394.837 383.886 393.779 384.637 392.991C385.388 392.203 386.392 391.809 387.647 391.809C389.002 391.809 390.048 392.24 390.787 393.101C391.538 393.963 391.913 395.133 391.913 396.61V396.942C391.913 397.066 391.87 397.17 391.784 397.256C391.71 397.33 391.611 397.367 391.488 397.367H385.081V397.533C385.117 398.334 385.364 399.017 385.819 399.583C386.275 400.149 386.878 400.433 387.629 400.433C388.208 400.433 388.675 400.322 389.032 400.1C389.402 399.866 389.679 399.626 389.863 399.38C389.974 399.232 390.06 399.146 390.122 399.121C390.183 399.085 390.288 399.066 390.436 399.066H391.248C391.359 399.066 391.451 399.097 391.525 399.158C391.611 399.22 391.655 399.3 391.655 399.398C391.655 399.669 391.488 399.996 391.156 400.377C390.824 400.759 390.35 401.091 389.734 401.374C389.131 401.645 388.435 401.781 387.647 401.781ZM390.233 396.111V396.056C390.233 395.194 389.999 394.493 389.531 393.951C389.063 393.409 388.435 393.138 387.647 393.138C386.847 393.138 386.219 393.409 385.764 393.951C385.308 394.493 385.081 395.194 385.081 396.056V396.111H390.233ZM402.599 401.781C401.245 401.781 400.199 401.399 399.46 400.636C398.734 399.872 398.346 398.857 398.297 397.589L398.278 396.795L398.297 396.001C398.346 394.733 398.74 393.717 399.478 392.954C400.229 392.19 401.27 391.809 402.599 391.809C403.929 391.809 404.963 392.19 405.702 392.954C406.453 393.717 406.853 394.733 406.902 396.001C406.927 396.271 406.939 396.536 406.939 396.795C406.939 397.053 406.927 397.318 406.902 397.589C406.853 398.857 406.459 399.872 405.72 400.636C404.994 401.399 403.954 401.781 402.599 401.781ZM402.599 400.396C403.387 400.396 404.009 400.149 404.464 399.657C404.932 399.152 405.185 398.432 405.222 397.496C405.234 397.373 405.24 397.139 405.24 396.795C405.24 396.45 405.234 396.216 405.222 396.093C405.185 395.157 404.932 394.443 404.464 393.951C404.009 393.446 403.387 393.194 402.599 393.194C401.811 393.194 401.184 393.446 400.716 393.951C400.26 394.443 400.014 395.157 399.977 396.093L399.959 396.795L399.977 397.496C400.014 398.432 400.26 399.152 400.716 399.657C401.184 400.149 401.811 400.396 402.599 400.396ZM410.547 401.596C410.424 401.596 410.32 401.559 410.233 401.485C410.16 401.399 410.123 401.294 410.123 401.171V393.415H408.535C408.411 393.415 408.307 393.378 408.221 393.305C408.147 393.231 408.11 393.132 408.11 393.009V392.418C408.11 392.295 408.147 392.197 408.221 392.123C408.307 392.037 408.411 391.993 408.535 391.993H410.123V391.07C410.123 390.073 410.363 389.304 410.843 388.762C411.335 388.208 412.135 387.931 413.243 387.931H414.333C414.456 387.931 414.555 387.974 414.628 388.06C414.715 388.134 414.758 388.232 414.758 388.356V388.947C414.758 389.07 414.715 389.168 414.628 389.242C414.555 389.316 414.456 389.353 414.333 389.353H413.28C412.714 389.353 412.32 389.501 412.099 389.796C411.877 390.091 411.766 390.547 411.766 391.162V391.993H414.148C414.271 391.993 414.37 392.037 414.444 392.123C414.53 392.197 414.573 392.295 414.573 392.418V393.009C414.573 393.132 414.53 393.231 414.444 393.305C414.37 393.378 414.271 393.415 414.148 393.415H411.766V401.171C411.766 401.294 411.723 401.399 411.637 401.485C411.563 401.559 411.464 401.596 411.341 401.596H410.547ZM420.768 401.596C420.645 401.596 420.54 401.559 420.454 401.485C420.38 401.399 420.343 401.294 420.343 401.171V392.418C420.343 392.295 420.38 392.197 420.454 392.123C420.54 392.037 420.645 391.993 420.768 391.993H421.543C421.667 391.993 421.765 392.037 421.839 392.123C421.913 392.197 421.95 392.295 421.95 392.418V393.046C422.614 392.221 423.513 391.809 424.646 391.809C426 391.809 426.96 392.375 427.527 393.508C427.822 392.991 428.241 392.578 428.782 392.27C429.336 391.963 429.952 391.809 430.629 391.809C431.638 391.809 432.463 392.154 433.103 392.843C433.744 393.532 434.064 394.53 434.064 395.834V401.171C434.064 401.294 434.021 401.399 433.934 401.485C433.86 401.559 433.762 401.596 433.639 401.596H432.845C432.722 401.596 432.617 401.559 432.531 401.485C432.457 401.399 432.42 401.294 432.42 401.171V396.001C432.42 395.016 432.217 394.314 431.811 393.895C431.404 393.465 430.869 393.249 430.204 393.249C429.613 393.249 429.102 393.471 428.671 393.914C428.253 394.345 428.044 395.04 428.044 396.001V401.171C428.044 401.294 428.001 401.399 427.914 401.485C427.84 401.559 427.742 401.596 427.619 401.596H426.806C426.683 401.596 426.579 401.559 426.492 401.485C426.419 401.399 426.382 401.294 426.382 401.171V396.001C426.382 395.028 426.166 394.326 425.735 393.895C425.317 393.465 424.794 393.249 424.166 393.249C423.575 393.249 423.064 393.465 422.633 393.895C422.214 394.326 422.005 395.022 422.005 395.982V401.171C422.005 401.294 421.962 401.399 421.876 401.485C421.802 401.559 421.703 401.596 421.58 401.596H420.768ZM438.127 405.105C438.017 405.105 437.924 405.068 437.851 404.994C437.777 404.92 437.74 404.834 437.74 404.735C437.74 404.698 437.77 404.587 437.832 404.403L439.272 401.023L435.745 392.695C435.671 392.547 435.635 392.443 435.635 392.381C435.647 392.27 435.69 392.178 435.764 392.104C435.838 392.03 435.924 391.993 436.022 391.993H436.872C437.069 391.993 437.216 392.092 437.315 392.289L440.159 399.085L443.076 392.289C443.175 392.092 443.323 391.993 443.52 391.993H444.351C444.449 391.993 444.535 392.03 444.609 392.104C444.683 392.178 444.72 392.264 444.72 392.363C444.72 392.449 444.689 392.56 444.628 392.695L439.402 404.809C439.34 404.908 439.272 404.981 439.199 405.031C439.137 405.08 439.051 405.105 438.94 405.105H438.127ZM451.065 405.105C450.941 405.105 450.837 405.068 450.751 404.994C450.677 404.92 450.64 404.815 450.64 404.68V392.418C450.64 392.283 450.677 392.178 450.751 392.104C450.837 392.03 450.941 391.993 451.065 391.993H451.84C451.976 391.993 452.08 392.03 452.154 392.104C452.228 392.178 452.265 392.283 452.265 392.418V393.231C452.979 392.283 453.995 391.809 455.312 391.809C456.604 391.809 457.571 392.221 458.211 393.046C458.864 393.859 459.208 394.899 459.245 396.167C459.257 396.302 459.264 396.512 459.264 396.795C459.264 397.078 459.257 397.287 459.245 397.423C459.208 398.678 458.864 399.719 458.211 400.543C457.571 401.368 456.604 401.781 455.312 401.781C453.995 401.781 452.997 401.313 452.32 400.377V404.68C452.32 404.803 452.277 404.901 452.191 404.975C452.117 405.061 452.019 405.105 451.896 405.105H451.065ZM454.961 400.34C455.847 400.34 456.494 400.063 456.9 399.509C457.306 398.955 457.528 398.229 457.565 397.33C457.577 397.207 457.583 397.029 457.583 396.795C457.583 394.431 456.709 393.249 454.961 393.249C454.099 393.249 453.447 393.538 453.004 394.117C452.573 394.683 452.345 395.354 452.32 396.13C452.308 396.265 452.302 396.505 452.302 396.85C452.302 397.195 452.308 397.435 452.32 397.57C452.345 398.321 452.579 398.974 453.022 399.528C453.478 400.069 454.124 400.34 454.961 400.34ZM465.168 401.781C463.999 401.781 463.094 401.405 462.454 400.654C461.814 399.891 461.493 398.881 461.493 397.626V392.418C461.493 392.295 461.53 392.197 461.604 392.123C461.69 392.037 461.795 391.993 461.918 391.993H462.768C462.891 391.993 462.989 392.037 463.063 392.123C463.149 392.197 463.192 392.295 463.192 392.418V397.533C463.192 399.405 464.005 400.34 465.63 400.34C466.418 400.34 467.039 400.094 467.495 399.602C467.963 399.097 468.197 398.407 468.197 397.533V392.418C468.197 392.295 468.234 392.197 468.308 392.123C468.394 392.037 468.498 391.993 468.621 391.993H469.471C469.594 391.993 469.692 392.037 469.766 392.123C469.853 392.197 469.896 392.295 469.896 392.418V401.171C469.896 401.294 469.853 401.399 469.766 401.485C469.692 401.559 469.594 401.596 469.471 401.596H468.677C468.554 401.596 468.449 401.559 468.363 401.485C468.289 401.399 468.252 401.294 468.252 401.171V400.34C467.895 400.82 467.477 401.184 466.996 401.43C466.516 401.664 465.907 401.781 465.168 401.781ZM477.349 401.781C476.019 401.781 475.004 401.313 474.302 400.377V401.171C474.302 401.294 474.259 401.399 474.173 401.485C474.099 401.559 474 401.596 473.877 401.596H473.102C472.978 401.596 472.874 401.559 472.788 401.485C472.714 401.399 472.677 401.294 472.677 401.171V388.91C472.677 388.774 472.714 388.67 472.788 388.596C472.874 388.522 472.978 388.485 473.102 388.485H473.933C474.056 388.485 474.154 388.528 474.228 388.614C474.314 388.688 474.357 388.786 474.357 388.91V393.175C475.047 392.264 476.044 391.809 477.349 391.809C478.641 391.809 479.608 392.234 480.248 393.083C480.901 393.92 481.245 394.973 481.282 396.241C481.294 396.376 481.301 396.561 481.301 396.795C481.301 397.029 481.294 397.213 481.282 397.349C481.245 398.617 480.901 399.675 480.248 400.525C479.608 401.362 478.641 401.781 477.349 401.781ZM476.998 400.34C477.884 400.34 478.531 400.063 478.937 399.509C479.343 398.955 479.565 398.229 479.602 397.33C479.614 397.207 479.62 397.029 479.62 396.795C479.62 394.431 478.746 393.249 476.998 393.249C476.161 393.249 475.514 393.526 475.059 394.08C474.616 394.622 474.382 395.268 474.357 396.019C474.345 396.155 474.339 396.395 474.339 396.739C474.339 397.072 474.345 397.306 474.357 397.441C474.382 398.229 474.61 398.912 475.041 399.491C475.484 400.057 476.136 400.34 476.998 400.34ZM484.066 401.596C483.943 401.596 483.838 401.559 483.752 401.485C483.678 401.399 483.641 401.294 483.641 401.171V388.91C483.641 388.774 483.678 388.67 483.752 388.596C483.838 388.522 483.943 388.485 484.066 388.485H484.878C485.002 388.485 485.1 388.528 485.174 388.614C485.26 388.688 485.303 388.786 485.303 388.91V401.171C485.303 401.294 485.26 401.399 485.174 401.485C485.1 401.559 485.002 401.596 484.878 401.596H484.066ZM488.354 390.184C488.231 390.184 488.126 390.147 488.04 390.073C487.966 389.987 487.929 389.882 487.929 389.759V388.799C487.929 388.676 487.966 388.571 488.04 388.485C488.126 388.399 488.231 388.356 488.354 388.356H489.444C489.567 388.356 489.671 388.399 489.757 388.485C489.844 388.571 489.887 388.676 489.887 388.799V389.759C489.887 389.882 489.844 389.987 489.757 390.073C489.671 390.147 489.567 390.184 489.444 390.184H488.354ZM488.502 401.596C488.379 401.596 488.274 401.559 488.188 401.485C488.114 401.399 488.077 401.294 488.077 401.171V392.418C488.077 392.295 488.114 392.197 488.188 392.123C488.274 392.037 488.379 391.993 488.502 391.993H489.314C489.437 391.993 489.536 392.037 489.61 392.123C489.696 392.197 489.739 392.295 489.739 392.418V401.171C489.739 401.294 489.696 401.399 489.61 401.485C489.536 401.559 489.437 401.596 489.314 401.596H488.502ZM496.354 401.781C495.037 401.781 494.009 401.411 493.27 400.673C492.532 399.922 492.144 398.875 492.107 397.533L492.089 396.795L492.107 396.056C492.144 394.714 492.532 393.674 493.27 392.935C494.009 392.184 495.037 391.809 496.354 391.809C497.241 391.809 497.985 391.969 498.589 392.289C499.204 392.597 499.66 392.984 499.955 393.452C500.263 393.92 500.429 394.388 500.454 394.856C500.466 394.967 500.423 395.065 500.325 395.151C500.238 395.237 500.14 395.28 500.029 395.28H499.217C499.093 395.28 499.001 395.256 498.94 395.207C498.878 395.145 498.816 395.04 498.755 394.893C498.533 394.289 498.226 393.865 497.832 393.618C497.45 393.36 496.964 393.231 496.373 393.231C495.597 393.231 494.982 393.471 494.526 393.951C494.071 394.431 493.824 395.164 493.787 396.148L493.769 396.795L493.787 397.441C493.824 398.426 494.071 399.158 494.526 399.639C494.982 400.119 495.597 400.359 496.373 400.359C496.976 400.359 497.468 400.236 497.85 399.989C498.232 399.731 498.533 399.3 498.755 398.697C498.816 398.549 498.878 398.451 498.94 398.401C499.001 398.34 499.093 398.309 499.217 398.309H500.029C500.14 398.309 500.238 398.352 500.325 398.438C500.423 398.524 500.466 398.623 500.454 398.734C500.429 399.189 500.263 399.651 499.955 400.119C499.66 400.586 499.204 400.98 498.589 401.3C497.985 401.621 497.241 401.781 496.354 401.781ZM509.326 401.596C509.154 401.596 509.025 401.559 508.938 401.485C508.852 401.411 508.784 401.294 508.735 401.134L506.113 392.566L506.076 392.381C506.076 392.27 506.113 392.178 506.187 392.104C506.261 392.03 506.353 391.993 506.464 391.993H507.221C507.344 391.993 507.443 392.03 507.516 392.104C507.603 392.166 507.652 392.227 507.664 392.289L509.751 399.343L511.967 392.381C511.991 392.283 512.047 392.197 512.133 392.123C512.219 392.037 512.336 391.993 512.484 391.993H513.075C513.223 391.993 513.339 392.037 513.426 392.123C513.512 392.197 513.567 392.283 513.592 392.381L515.808 399.343L517.894 392.289C517.907 392.227 517.95 392.166 518.024 392.104C518.11 392.03 518.215 391.993 518.338 391.993H519.095C519.206 391.993 519.298 392.03 519.372 392.104C519.446 392.178 519.483 392.27 519.483 392.381L519.446 392.566L516.823 401.134C516.774 401.294 516.706 401.411 516.62 401.485C516.534 401.559 516.405 401.596 516.233 401.596H515.568C515.248 401.596 515.038 401.442 514.94 401.134L512.779 394.449L510.619 401.134C510.52 401.442 510.311 401.596 509.991 401.596H509.326ZM525.191 401.781C523.837 401.781 522.791 401.399 522.052 400.636C521.326 399.872 520.938 398.857 520.888 397.589L520.87 396.795L520.888 396.001C520.938 394.733 521.332 393.717 522.07 392.954C522.821 392.19 523.862 391.809 525.191 391.809C526.521 391.809 527.555 392.19 528.293 392.954C529.044 393.717 529.445 394.733 529.494 396.001C529.518 396.271 529.531 396.536 529.531 396.795C529.531 397.053 529.518 397.318 529.494 397.589C529.445 398.857 529.051 399.872 528.312 400.636C527.586 401.399 526.545 401.781 525.191 401.781ZM525.191 400.396C525.979 400.396 526.601 400.149 527.056 399.657C527.524 399.152 527.776 398.432 527.813 397.496C527.826 397.373 527.832 397.139 527.832 396.795C527.832 396.45 527.826 396.216 527.813 396.093C527.776 395.157 527.524 394.443 527.056 393.951C526.601 393.446 525.979 393.194 525.191 393.194C524.403 393.194 523.775 393.446 523.308 393.951C522.852 394.443 522.606 395.157 522.569 396.093L522.55 396.795L522.569 397.496C522.606 398.432 522.852 399.152 523.308 399.657C523.775 400.149 524.403 400.396 525.191 400.396ZM532.287 401.596C532.164 401.596 532.059 401.559 531.973 401.485C531.899 401.399 531.862 401.294 531.862 401.171V392.437C531.862 392.314 531.899 392.209 531.973 392.123C532.059 392.037 532.164 391.993 532.287 391.993H533.063C533.198 391.993 533.303 392.037 533.377 392.123C533.463 392.197 533.506 392.301 533.506 392.437V393.249C534.011 392.412 534.866 391.993 536.073 391.993H536.793C536.928 391.993 537.033 392.03 537.107 392.104C537.181 392.178 537.218 392.283 537.218 392.418V393.101C537.218 393.225 537.181 393.329 537.107 393.415C537.033 393.489 536.928 393.526 536.793 393.526H535.74C535.063 393.526 534.528 393.723 534.134 394.117C533.752 394.511 533.561 395.047 533.561 395.724V401.171C533.561 401.294 533.518 401.399 533.432 401.485C533.346 401.559 533.241 401.596 533.118 401.596H532.287ZM539.248 401.596C539.125 401.596 539.021 401.559 538.935 401.485C538.861 401.399 538.824 401.294 538.824 401.171V388.91C538.824 388.774 538.861 388.67 538.935 388.596C539.021 388.522 539.125 388.485 539.248 388.485H540.043C540.166 388.485 540.264 388.528 540.338 388.614C540.424 388.688 540.467 388.786 540.467 388.91V395.354L544.161 392.307C544.345 392.172 544.474 392.086 544.548 392.049C544.622 392.012 544.739 391.993 544.899 391.993H545.822C545.933 391.993 546.019 392.03 546.081 392.104C546.155 392.166 546.192 392.258 546.192 392.381C546.192 392.492 546.124 392.609 545.989 392.732L541.668 396.278L546.45 400.857C546.586 400.993 546.653 401.11 546.653 401.208C546.653 401.319 546.617 401.411 546.543 401.485C546.481 401.559 546.395 401.596 546.284 401.596H545.379C545.195 401.596 545.059 401.577 544.973 401.541C544.899 401.504 544.788 401.417 544.641 401.282L540.467 397.33V401.171C540.467 401.294 540.424 401.399 540.338 401.485C540.264 401.559 540.166 401.596 540.043 401.596H539.248Z" fill="white"/>
<g id="ic-behance">
<path id="Vector" d="M293.319 376.132H257.925C257.074 376.132 256.386 376.82 256.386 377.671V413.065C256.386 413.916 257.074 414.604 257.925 414.604H293.319C294.17 414.604 294.858 413.916 294.858 413.065V377.671C294.858 376.82 294.17 376.132 293.319 376.132ZM279.782 387.621H286.437V389.241H279.782V387.621ZM275.622 400.985C275.31 401.576 274.866 402.086 274.323 402.476C273.756 402.87 273.126 403.158 272.458 403.327C271.758 403.514 271.037 403.606 270.313 403.601H262.349V387.198H270.092C270.875 387.198 271.587 387.27 272.236 387.404C272.881 387.539 273.429 387.77 273.891 388.082C274.347 388.395 274.708 388.813 274.963 389.333C275.213 389.847 275.343 390.492 275.343 391.256C275.343 392.083 275.155 392.766 274.78 393.319C274.4 393.872 273.852 394.32 273.107 394.671C274.121 394.959 274.867 395.474 275.357 396.195C275.857 396.926 276.103 397.801 276.103 398.83C276.103 399.667 275.944 400.384 275.622 400.985ZM289.029 398.446H280.45C280.45 399.379 280.772 400.273 281.258 400.754C281.748 401.23 282.45 401.47 283.369 401.47C284.033 401.47 284.595 401.302 285.076 400.97C285.552 400.639 285.841 400.287 285.947 399.922H288.822C288.361 401.35 287.659 402.37 286.706 402.985C285.764 403.601 284.61 403.909 283.268 403.909C282.33 403.909 281.489 403.755 280.734 403.461C280.008 403.178 279.354 402.745 278.815 402.187C278.284 401.614 277.873 400.94 277.608 400.206C277.315 399.393 277.17 398.537 277.18 397.676C277.18 396.787 277.329 395.959 277.618 395.19C278.171 393.694 279.32 392.497 280.787 391.877C281.57 391.55 282.412 391.386 283.263 391.396C284.273 391.396 285.148 391.588 285.908 391.982C286.64 392.359 287.275 392.899 287.764 393.56C288.25 394.219 288.592 394.969 288.808 395.815C289.015 396.647 289.087 397.522 289.029 398.446V398.446ZM283.162 393.848C282.643 393.848 282.205 393.94 281.869 394.118C281.532 394.296 281.253 394.517 281.041 394.772C280.84 395.018 280.691 395.303 280.604 395.608C280.527 395.863 280.474 396.123 280.455 396.387H285.769C285.692 395.556 285.403 394.94 285.018 394.507C284.615 394.079 283.965 393.848 283.162 393.848V393.848ZM271.212 393.363C271.63 393.06 271.832 392.56 271.832 391.872C271.847 391.545 271.779 391.223 271.635 390.929C271.505 390.694 271.313 390.496 271.077 390.357C270.833 390.209 270.562 390.111 270.279 390.069C269.971 390.011 269.659 389.982 269.351 389.987H265.97V393.819H269.63C270.26 393.824 270.794 393.67 271.212 393.363V393.363ZM271.779 396.825C271.308 396.464 270.678 396.286 269.894 396.286H265.961V400.807H269.817C270.178 400.807 270.51 400.773 270.832 400.706C271.154 400.639 271.443 400.523 271.688 400.36C271.933 400.201 272.131 399.985 272.28 399.706C272.424 399.427 272.496 399.071 272.496 398.643C272.496 397.792 272.256 397.191 271.779 396.825V396.825Z" fill="white"/>
</g>
</g>
<g id="group-linkedin">
<path id="Contact me" opacity="0.7" d="M315.718 471.029C314.081 471.029 312.831 470.586 311.97 469.7C311.12 468.801 310.665 467.576 310.603 466.025C310.591 465.692 310.585 465.151 310.585 464.4C310.585 463.636 310.591 463.082 310.603 462.738C310.665 461.187 311.12 459.968 311.97 459.081C312.831 458.183 314.081 457.733 315.718 457.733C316.814 457.733 317.743 457.93 318.507 458.324C319.27 458.706 319.842 459.211 320.224 459.839C320.618 460.466 320.833 461.137 320.87 461.851C320.87 461.962 320.827 462.055 320.741 462.128C320.667 462.19 320.575 462.221 320.464 462.221H319.541C319.418 462.221 319.319 462.19 319.245 462.128C319.172 462.067 319.116 461.962 319.079 461.814C318.87 460.867 318.488 460.202 317.934 459.82C317.393 459.438 316.654 459.248 315.718 459.248C313.576 459.248 312.462 460.442 312.376 462.83C312.364 463.162 312.357 463.673 312.357 464.363C312.357 465.052 312.364 465.575 312.376 465.932C312.462 468.308 313.576 469.496 315.718 469.496C316.642 469.496 317.38 469.306 317.934 468.924C318.488 468.542 318.87 467.884 319.079 466.948C319.116 466.8 319.172 466.696 319.245 466.634C319.319 466.573 319.418 466.542 319.541 466.542H320.464C320.575 466.542 320.667 466.579 320.741 466.653C320.827 466.714 320.87 466.8 320.87 466.911C320.833 467.625 320.618 468.296 320.224 468.924C319.842 469.552 319.27 470.063 318.507 470.457C317.743 470.838 316.814 471.029 315.718 471.029ZM327.039 471.029C325.685 471.029 324.638 470.648 323.9 469.884C323.173 469.121 322.785 468.105 322.736 466.837L322.718 466.043L322.736 465.249C322.785 463.981 323.179 462.966 323.918 462.202C324.669 461.439 325.709 461.057 327.039 461.057C328.368 461.057 329.403 461.439 330.141 462.202C330.892 462.966 331.292 463.981 331.342 465.249C331.366 465.52 331.378 465.785 331.378 466.043C331.378 466.302 331.366 466.566 331.342 466.837C331.292 468.105 330.898 469.121 330.16 469.884C329.433 470.648 328.393 471.029 327.039 471.029ZM327.039 469.644C327.827 469.644 328.448 469.398 328.904 468.906C329.372 468.401 329.624 467.681 329.661 466.745C329.673 466.622 329.68 466.388 329.68 466.043C329.68 465.699 329.673 465.465 329.661 465.342C329.624 464.406 329.372 463.692 328.904 463.199C328.448 462.695 327.827 462.442 327.039 462.442C326.251 462.442 325.623 462.695 325.155 463.199C324.7 463.692 324.454 464.406 324.417 465.342L324.398 466.043L324.417 466.745C324.454 467.681 324.7 468.401 325.155 468.906C325.623 469.398 326.251 469.644 327.039 469.644ZM334.135 470.844C334.012 470.844 333.907 470.808 333.821 470.734C333.747 470.648 333.71 470.543 333.71 470.42V461.667C333.71 461.544 333.747 461.445 333.821 461.371C333.907 461.285 334.012 461.242 334.135 461.242H334.929C335.064 461.242 335.169 461.279 335.243 461.353C335.317 461.427 335.354 461.531 335.354 461.667V462.479C335.723 462.024 336.148 461.673 336.628 461.427C337.12 461.18 337.73 461.057 338.456 461.057C339.638 461.057 340.555 461.439 341.207 462.202C341.86 462.953 342.186 463.95 342.186 465.194V470.42C342.186 470.543 342.143 470.648 342.057 470.734C341.983 470.808 341.885 470.844 341.761 470.844H340.912C340.789 470.844 340.684 470.808 340.598 470.734C340.524 470.648 340.487 470.543 340.487 470.42V465.305C340.487 464.418 340.272 463.729 339.841 463.236C339.41 462.744 338.795 462.498 337.994 462.498C337.206 462.498 336.579 462.75 336.111 463.255C335.643 463.747 335.409 464.431 335.409 465.305V470.42C335.409 470.543 335.366 470.648 335.28 470.734C335.206 470.808 335.107 470.844 334.984 470.844H334.135ZM348.422 470.844C346.514 470.844 345.56 469.767 345.56 467.613V462.664H344.101C343.978 462.664 343.879 462.627 343.805 462.553C343.731 462.479 343.694 462.381 343.694 462.258V461.667C343.694 461.544 343.731 461.445 343.805 461.371C343.879 461.285 343.978 461.242 344.101 461.242H345.56V458.158C345.56 458.035 345.597 457.937 345.67 457.863C345.744 457.776 345.843 457.733 345.966 457.733H346.778C346.901 457.733 347 457.776 347.074 457.863C347.16 457.937 347.203 458.035 347.203 458.158V461.242H349.493C349.616 461.242 349.715 461.285 349.788 461.371C349.875 461.445 349.918 461.544 349.918 461.667V462.258C349.918 462.381 349.875 462.479 349.788 462.553C349.715 462.627 349.616 462.664 349.493 462.664H347.203V467.484C347.203 468.111 347.302 468.585 347.499 468.906C347.708 469.226 348.059 469.386 348.551 469.386H349.678C349.801 469.386 349.899 469.429 349.973 469.515C350.047 469.589 350.084 469.687 350.084 469.81V470.42C350.084 470.543 350.047 470.648 349.973 470.734C349.899 470.808 349.801 470.844 349.678 470.844H348.422ZM354.547 471.029C353.944 471.029 353.384 470.906 352.867 470.66C352.362 470.414 351.956 470.081 351.648 469.663C351.352 469.232 351.205 468.758 351.205 468.241C351.205 467.428 351.537 466.763 352.202 466.246C352.867 465.729 353.771 465.385 354.916 465.212L357.686 464.824V464.289C357.686 463.021 356.954 462.387 355.489 462.387C354.923 462.387 354.467 462.504 354.122 462.738C353.778 462.959 353.525 463.224 353.365 463.532C353.316 463.655 353.261 463.741 353.199 463.79C353.15 463.827 353.076 463.846 352.977 463.846H352.257C352.146 463.846 352.048 463.809 351.962 463.735C351.888 463.649 351.851 463.55 351.851 463.439C351.851 463.156 351.98 462.83 352.239 462.461C352.51 462.079 352.922 461.753 353.476 461.482C354.03 461.199 354.707 461.057 355.507 461.057C356.886 461.057 357.871 461.377 358.462 462.018C359.065 462.658 359.367 463.458 359.367 464.418V470.42C359.367 470.543 359.324 470.648 359.238 470.734C359.164 470.808 359.065 470.844 358.942 470.844H358.13C358.006 470.844 357.908 470.808 357.834 470.734C357.76 470.648 357.723 470.543 357.723 470.42V469.607C357.452 470.013 357.058 470.352 356.541 470.623C356.024 470.894 355.36 471.029 354.547 471.029ZM354.916 469.681C355.729 469.681 356.394 469.416 356.911 468.887C357.428 468.358 357.686 467.588 357.686 466.579V466.062L355.526 466.376C354.639 466.499 353.968 466.708 353.513 467.003C353.057 467.299 352.83 467.668 352.83 468.111C352.83 468.616 353.033 469.004 353.439 469.275C353.858 469.546 354.35 469.681 354.916 469.681ZM365.882 471.029C364.565 471.029 363.537 470.66 362.798 469.921C362.059 469.17 361.671 468.124 361.635 466.782L361.616 466.043L361.635 465.305C361.671 463.963 362.059 462.922 362.798 462.184C363.537 461.433 364.565 461.057 365.882 461.057C366.768 461.057 367.513 461.217 368.116 461.537C368.732 461.845 369.187 462.233 369.483 462.701C369.79 463.169 369.957 463.636 369.981 464.104C369.994 464.215 369.951 464.314 369.852 464.4C369.766 464.486 369.667 464.529 369.557 464.529H368.744C368.621 464.529 368.529 464.504 368.467 464.455C368.405 464.394 368.344 464.289 368.282 464.141C368.061 463.538 367.753 463.113 367.359 462.867C366.977 462.609 366.491 462.479 365.9 462.479C365.125 462.479 364.509 462.719 364.054 463.199C363.598 463.68 363.352 464.412 363.315 465.397L363.296 466.043L363.315 466.69C363.352 467.674 363.598 468.407 364.054 468.887C364.509 469.367 365.125 469.607 365.9 469.607C366.503 469.607 366.996 469.484 367.378 469.238C367.759 468.979 368.061 468.549 368.282 467.945C368.344 467.798 368.405 467.699 368.467 467.65C368.529 467.588 368.621 467.557 368.744 467.557H369.557C369.667 467.557 369.766 467.601 369.852 467.687C369.951 467.773 369.994 467.871 369.981 467.982C369.957 468.438 369.79 468.899 369.483 469.367C369.187 469.835 368.732 470.229 368.116 470.549C367.513 470.869 366.768 471.029 365.882 471.029ZM375.887 470.844C373.979 470.844 373.025 469.767 373.025 467.613V462.664H371.566C371.443 462.664 371.344 462.627 371.27 462.553C371.196 462.479 371.16 462.381 371.16 462.258V461.667C371.16 461.544 371.196 461.445 371.27 461.371C371.344 461.285 371.443 461.242 371.566 461.242H373.025V458.158C373.025 458.035 373.062 457.937 373.135 457.863C373.209 457.776 373.308 457.733 373.431 457.733H374.243C374.367 457.733 374.465 457.776 374.539 457.863C374.625 457.937 374.668 458.035 374.668 458.158V461.242H376.958C377.081 461.242 377.18 461.285 377.253 461.371C377.34 461.445 377.383 461.544 377.383 461.667V462.258C377.383 462.381 377.34 462.479 377.253 462.553C377.18 462.627 377.081 462.664 376.958 462.664H374.668V467.484C374.668 468.111 374.767 468.585 374.964 468.906C375.173 469.226 375.524 469.386 376.016 469.386H377.143C377.266 469.386 377.364 469.429 377.438 469.515C377.512 469.589 377.549 469.687 377.549 469.81V470.42C377.549 470.543 377.512 470.648 377.438 470.734C377.364 470.808 377.266 470.844 377.143 470.844H375.887ZM384.322 470.844C384.199 470.844 384.094 470.808 384.008 470.734C383.934 470.648 383.897 470.543 383.897 470.42V461.667C383.897 461.544 383.934 461.445 384.008 461.371C384.094 461.285 384.199 461.242 384.322 461.242H385.098C385.221 461.242 385.319 461.285 385.393 461.371C385.467 461.445 385.504 461.544 385.504 461.667V462.295C386.169 461.47 387.067 461.057 388.2 461.057C389.554 461.057 390.514 461.624 391.081 462.756C391.376 462.239 391.795 461.827 392.337 461.519C392.89 461.211 393.506 461.057 394.183 461.057C395.193 461.057 396.017 461.402 396.658 462.091C397.298 462.781 397.618 463.778 397.618 465.083V470.42C397.618 470.543 397.575 470.648 397.489 470.734C397.415 470.808 397.316 470.844 397.193 470.844H396.399C396.276 470.844 396.171 470.808 396.085 470.734C396.011 470.648 395.974 470.543 395.974 470.42V465.249C395.974 464.264 395.771 463.563 395.365 463.144C394.959 462.713 394.423 462.498 393.758 462.498C393.167 462.498 392.657 462.719 392.226 463.162C391.807 463.593 391.598 464.289 391.598 465.249V470.42C391.598 470.543 391.555 470.648 391.469 470.734C391.395 470.808 391.296 470.844 391.173 470.844H390.361C390.237 470.844 390.133 470.808 390.047 470.734C389.973 470.648 389.936 470.543 389.936 470.42V465.249C389.936 464.277 389.72 463.575 389.29 463.144C388.871 462.713 388.348 462.498 387.72 462.498C387.129 462.498 386.618 462.713 386.187 463.144C385.769 463.575 385.559 464.27 385.559 465.231V470.42C385.559 470.543 385.516 470.648 385.43 470.734C385.356 470.808 385.258 470.844 385.135 470.844H384.322ZM404.094 471.029C402.838 471.029 401.835 470.641 401.084 469.866C400.333 469.078 399.921 468.007 399.847 466.653L399.828 466.025L399.847 465.415C399.921 464.086 400.333 463.027 401.084 462.239C401.835 461.451 402.838 461.057 404.094 461.057C405.448 461.057 406.495 461.488 407.233 462.35C407.984 463.212 408.36 464.381 408.36 465.859V466.191C408.36 466.314 408.317 466.419 408.23 466.505C408.157 466.579 408.058 466.616 407.935 466.616H401.527V466.782C401.564 467.582 401.81 468.265 402.266 468.832C402.721 469.398 403.324 469.681 404.075 469.681C404.654 469.681 405.122 469.57 405.479 469.349C405.848 469.115 406.125 468.875 406.31 468.629C406.421 468.481 406.507 468.395 406.568 468.37C406.63 468.333 406.735 468.315 406.882 468.315H407.695C407.806 468.315 407.898 468.345 407.972 468.407C408.058 468.468 408.101 468.549 408.101 468.647C408.101 468.918 407.935 469.244 407.603 469.626C407.27 470.007 406.796 470.34 406.181 470.623C405.577 470.894 404.882 471.029 404.094 471.029ZM406.679 465.36V465.305C406.679 464.443 406.445 463.741 405.977 463.199C405.51 462.658 404.882 462.387 404.094 462.387C403.294 462.387 402.666 462.658 402.21 463.199C401.755 463.741 401.527 464.443 401.527 465.305V465.36H406.679Z" fill="white"/>
<g id="ic-linkedin">
<path id="Vector_2" d="M293.319 445.381H257.925C257.074 445.381 256.386 446.068 256.386 446.92V482.313C256.386 483.165 257.074 483.852 257.925 483.852H293.319C294.17 483.852 294.858 483.165 294.858 482.313V446.92C294.858 446.068 294.17 445.381 293.319 445.381ZM267.798 478.163H262.089V459.803H267.798V478.163ZM264.946 457.292C264.292 457.292 263.652 457.098 263.108 456.735C262.564 456.371 262.14 455.855 261.889 455.25C261.639 454.645 261.573 453.98 261.701 453.338C261.829 452.697 262.144 452.107 262.606 451.644C263.069 451.182 263.659 450.867 264.3 450.739C264.942 450.611 265.608 450.677 266.212 450.927C266.817 451.178 267.333 451.602 267.697 452.146C268.06 452.69 268.255 453.33 268.255 453.984C268.25 455.811 266.769 457.292 264.946 457.292ZM289.169 478.163H283.465V469.233C283.465 467.103 283.427 464.366 280.498 464.366C277.531 464.366 277.074 466.684 277.074 469.079V478.163H271.376V459.803H276.848V462.313H276.925C277.685 460.87 279.546 459.346 282.325 459.346C288.106 459.346 289.169 463.15 289.169 468.093V478.163V478.163Z" fill="white"/>
</g>
</g>
</g>
</g>
<defs>
<linearGradient id="paint0_linear" x1="504.912" y1="264.565" x2="504.912" y2="290.725" gradientUnits="userSpaceOnUse">
<stop offset="0.348958" stop-color="#E7AC14"/>
<stop offset="0.510417" stop-color="white"/>
<stop offset="0.697917" stop-color="#2AA236"/>
</linearGradient>
</defs>
</svg>
