<svg xmlns="http://www.w3.org/2000/svg" viewBox="0 0 587.58 724.62"><defs><style>.cls-1{fill:#fff;stroke:#000;}.cls-1,.cls-6{stroke-miterlimit:10;}.cls-2{fill:#0c0e12;}.cls-3{fill:#00d2df;}.cls-4{fill:#3a2720;}.cls-5{fill:#23100a;}.cls-6{fill:#c8ffff;stroke:#6c94bd;stroke-width:14px;}.cls-7{fill:#4660f2;}.cls-8{fill:#6c94bd;}.cls-9{fill:#301a14;}</style></defs><title>Asset 3</title><g id="Layer_2" data-name="Layer 2"><g id="Layer_1-2" data-name="Layer 1"><rect class="cls-1" x="376.17" y="238.54" width="100" height="100"/><path class="cls-2" d="M587.19,307a292,292,0,0,1-34,125.41A295.15,295.15,0,0,1,460,536.85a4.31,4.31,0,0,0-1.88,3.55V662a62.6,62.6,0,0,1-62.6,62.6H199.7a62.57,62.57,0,0,1-62.57-62.57V545.61a4.32,4.32,0,0,0-2-3.63c-45-28.91-53.59-44.16-105.28-118.09C5,388.31,0,341.07,0,294.72,0,137.47,60.86,18.08,278.89,1.37,505.44-16,594.28,134.87,587.19,307Z"/><ellipse class="cls-3" cx="159.93" cy="266.65" rx="97.4" ry="89.64" transform="translate(-143.65 199.42) rotate(-46.56)"/><ellipse class="cls-4" cx="159.93" cy="266.65" rx="68.87" ry="63.39" transform="translate(-143.65 199.42) rotate(-46.56)"/><ellipse class="cls-3" cx="434.21" cy="266.65" rx="89.64" ry="97.4" transform="translate(-64.41 371.61) rotate(-43.44)"/><ellipse class="cls-4" cx="434.21" cy="266.65" rx="63.39" ry="68.87" transform="translate(-64.41 371.61) rotate(-43.44)"/><path class="cls-3" d="M382.84,453.23,320,314c-5-8-42.79-6.87-46.92,1.44L204.6,453.23"/><path class="cls-5" d="M286.14,357.14l-18.39,48.32a9.77,9.77,0,0,0,9.13,13.24h41.51a9.76,9.76,0,0,0,8.81-14l-21.75-48.33C301.75,348.65,289.19,349.12,286.14,357.14Z"/><path class="cls-6" d="M402.64,585.42c0,18.22-45.54,23-103.53,23s-106.47-4.78-106.47-23,48.48-43,106.47-43S402.64,567.19,402.64,585.42Z"/><path class="cls-7" d="M258,156s-78.8-44.5-131.85-35S16.76,188,48.85,276c0,0,5.24-84.5,52.39-113S227,177,238.78,177,254.91,182.45,258,156Z"/><path class="cls-7" d="M336.21,154.52s79.33-44.5,132.75-35,110.12,67,77.8,155c0,0-5.27-84.5-52.75-113s-126.6,14-138.47,14S339.3,181,336.21,154.52Z"/><rect class="cls-7" x="271.83" y="183.12" width="51.61" height="14"/><rect class="cls-7" x="271.83" y="207.22" width="51.61" height="14"/><rect class="cls-7" x="271.83" y="231.33" width="51.61" height="14"/><rect class="cls-7" x="271.83" y="255.44" width="51.61" height="14"/><rect class="cls-7" x="271.83" y="279.54" width="51.61" height="14"/><path class="cls-7" d="M218.38,478.92S256,473,294.91,472.46s84,6.46,84,6.46-63,4.79-84,4.79S218.38,478.92,218.38,478.92Z"/><path class="cls-7" d="M218.38,498.67s37.64-5.93,76.53-6.46,84,6.46,84,6.46-63,4.79-84,4.79S218.38,498.67,218.38,498.67Z"/><path class="cls-7" d="M218.38,518.42S256,512.49,294.91,512s84,6.46,84,6.46-63,4.79-84,4.79S218.38,518.42,218.38,518.42Z"/><path class="cls-7" d="M128.86,511s-21.27-28.29,1.06-59.71,47.64-46.73,71.17-38.15c0,0-26.43,5-42,19.9s-30.86,33.73-24.91,62.57S128.86,511,128.86,511Z"/><path class="cls-7" d="M151.82,484.58c-.62-1.57,4.5-44,39.53-52.87,1.89-.48,3.85,4.73,7.07,3.33S201,420.35,180,426.7s-49.39,55.3-38.11,61.95S151.82,484.58,151.82,484.58Z"/><path class="cls-7" d="M155.91,482s17.55-5.43,29.37-36.69c0,0-6.93,31-18.07,39.94S155.91,482,155.91,482Z"/><path class="cls-7" d="M146.3,506.47a39,39,0,0,0,15.83-4.85c7.71-4.47,28-26.62,43.65-65.06,0,0-11.3,52.47-33.63,80.5S139.29,522,146.3,506.47Z"/><path class="cls-7" d="M467.17,504.35s16.6-30.12-9.16-57.3-52.19-38.47-73.66-27c0,0,26.1,1.19,43.12,13.41s34.28,28.25,32.48,56.81S467.17,504.35,467.17,504.35Z"/><path class="cls-7" d="M441.47,482c.39-1.59-10.32-41.7-45.22-45.47-1.89-.2-3.06,5.07-6.34,4.17s-4.46-13.78,16.55-10.53,55.05,46.47,45.1,54.4S441.47,482,441.47,482Z"/><path class="cls-7" d="M437.19,480.14s-17.62-2.83-33.25-31.29c0,0,10.9,28.88,22.83,35.95S437.19,480.14,437.19,480.14Z"/><path class="cls-7" d="M449.77,502.35a37.74,37.74,0,0,1-15.89-2.51c-8-3.25-30.58-21.79-50.85-56.63,0,0,18,48.92,43.31,72.85S458.63,516.33,449.77,502.35Z"/><path class="cls-8" d="M297.16,159.13s-128.65-131.25,0-141.72c0,0,50.28,0,50.28,38.55C347.44,105.42,297.16,159.13,297.16,159.13Z"/><path class="cls-9" d="M297.73,122s-71.18-72.62,0-78.42H298a24.13,24.13,0,0,1,21,34.72Z"/></g></g></svg>